%TF.GenerationSoftware,KiCad,Pcbnew,9.0.7*%
%TF.CreationDate,2026-02-04T22:49:18-05:00*%
%TF.ProjectId,Keypad,4b657970-6164-42e6-9b69-6361645f7063,rev?*%
%TF.SameCoordinates,Original*%
%TF.FileFunction,Soldermask,Top*%
%TF.FilePolarity,Negative*%
%FSLAX46Y46*%
G04 Gerber Fmt 4.6, Leading zero omitted, Abs format (unit mm)*
G04 Created by KiCad (PCBNEW 9.0.7) date 2026-02-04 22:49:18*
%MOMM*%
%LPD*%
G01*
G04 APERTURE LIST*
G04 Aperture macros list*
%AMRoundRect*
0 Rectangle with rounded corners*
0 $1 Rounding radius*
0 $2 $3 $4 $5 $6 $7 $8 $9 X,Y pos of 4 corners*
0 Add a 4 corners polygon primitive as box body*
4,1,4,$2,$3,$4,$5,$6,$7,$8,$9,$2,$3,0*
0 Add four circle primitives for the rounded corners*
1,1,$1+$1,$2,$3*
1,1,$1+$1,$4,$5*
1,1,$1+$1,$6,$7*
1,1,$1+$1,$8,$9*
0 Add four rect primitives between the rounded corners*
20,1,$1+$1,$2,$3,$4,$5,0*
20,1,$1+$1,$4,$5,$6,$7,0*
20,1,$1+$1,$6,$7,$8,$9,0*
20,1,$1+$1,$8,$9,$2,$3,0*%
G04 Aperture macros list end*
%ADD10C,2.200000*%
%ADD11RoundRect,0.250000X0.550000X-0.550000X0.550000X0.550000X-0.550000X0.550000X-0.550000X-0.550000X0*%
%ADD12C,1.600000*%
%ADD13C,1.700000*%
%ADD14C,4.000000*%
%ADD15R,1.600000X0.850000*%
%ADD16R,2.000000X2.000000*%
%ADD17C,2.000000*%
%ADD18R,3.200000X2.000000*%
%ADD19RoundRect,0.250000X0.550000X0.550000X-0.550000X0.550000X-0.550000X-0.550000X0.550000X-0.550000X0*%
%ADD20R,1.700000X1.700000*%
%ADD21O,1.700000X1.700000*%
%ADD22RoundRect,0.152400X1.063600X0.609600X-1.063600X0.609600X-1.063600X-0.609600X1.063600X-0.609600X0*%
%ADD23C,1.524000*%
%ADD24RoundRect,0.152400X-1.063600X-0.609600X1.063600X-0.609600X1.063600X0.609600X-1.063600X0.609600X0*%
G04 APERTURE END LIST*
D10*
%TO.C,REF\u002A\u002A*%
X91000000Y-80000000D03*
%TD*%
%TO.C,REF\u002A\u002A*%
X168000000Y-80000000D03*
%TD*%
%TO.C,REF\u002A\u002A*%
X91000000Y-153500000D03*
%TD*%
D11*
%TO.C,D6*%
X139500000Y-133850000D03*
D12*
X139500000Y-126230000D03*
%TD*%
D13*
%TO.C,SW8*%
X124680000Y-89390000D03*
D14*
X129760000Y-89390000D03*
D13*
X134840000Y-89390000D03*
D10*
X132300000Y-84310000D03*
X125950000Y-86850000D03*
%TD*%
D11*
%TO.C,D10*%
X159500000Y-133700000D03*
D12*
X159500000Y-126080000D03*
%TD*%
D15*
%TO.C,LED2*%
X112750000Y-137875000D03*
X112750000Y-136125000D03*
X109250000Y-136125000D03*
X109250000Y-137875000D03*
%TD*%
%TO.C,LED9*%
X150750000Y-156375000D03*
X150750000Y-154625000D03*
X147250000Y-154625000D03*
X147250000Y-156375000D03*
%TD*%
D16*
%TO.C,SW0*%
X155310000Y-62800000D03*
D17*
X155310000Y-67800000D03*
X155310000Y-65300000D03*
D18*
X162810000Y-59700000D03*
X162810000Y-70900000D03*
D17*
X169810000Y-67800000D03*
X169810000Y-62800000D03*
%TD*%
D19*
%TO.C,DC1*%
X151660000Y-67640000D03*
D12*
X144040000Y-67640000D03*
%TD*%
D11*
%TO.C,D11*%
X159500000Y-114700000D03*
D12*
X159500000Y-107080000D03*
%TD*%
D19*
%TO.C,DB1*%
X151660000Y-63880000D03*
D12*
X144040000Y-63880000D03*
%TD*%
D15*
%TO.C,LED8*%
X131750000Y-99875000D03*
X131750000Y-98125000D03*
X128250000Y-98125000D03*
X128250000Y-99875000D03*
%TD*%
D11*
%TO.C,D9*%
X159500000Y-152800000D03*
D12*
X159500000Y-145180000D03*
%TD*%
D11*
%TO.C,D5*%
X139500000Y-153200000D03*
D12*
X139500000Y-145580000D03*
%TD*%
D15*
%TO.C,LED5*%
X128250000Y-154625000D03*
X128250000Y-156375000D03*
X131750000Y-156375000D03*
X131750000Y-154625000D03*
%TD*%
D13*
%TO.C,SW4*%
X105630000Y-89390000D03*
D14*
X110710000Y-89390000D03*
D13*
X115790000Y-89390000D03*
D10*
X113250000Y-84310000D03*
X106900000Y-86850000D03*
%TD*%
D11*
%TO.C,D7*%
X139600000Y-115300000D03*
D12*
X139600000Y-107680000D03*
%TD*%
D13*
%TO.C,SW9*%
X143730000Y-146540000D03*
D14*
X148810000Y-146540000D03*
D13*
X153890000Y-146540000D03*
D10*
X151350000Y-141460000D03*
X145000000Y-144000000D03*
%TD*%
D13*
%TO.C,SW2*%
X105630000Y-127490000D03*
D14*
X110710000Y-127490000D03*
D13*
X115790000Y-127490000D03*
D10*
X113250000Y-122410000D03*
X106900000Y-124950000D03*
%TD*%
D15*
%TO.C,LED3*%
X112750000Y-118875000D03*
X112750000Y-117125000D03*
X109250000Y-117125000D03*
X109250000Y-118875000D03*
%TD*%
%TO.C,LED12*%
X150750000Y-118875000D03*
X150750000Y-117125000D03*
X147250000Y-117125000D03*
X147250000Y-118875000D03*
%TD*%
D11*
%TO.C,D12*%
X159500000Y-95700000D03*
D12*
X159500000Y-88080000D03*
%TD*%
D11*
%TO.C,D4*%
X120500000Y-96350000D03*
D12*
X120500000Y-88730000D03*
%TD*%
D13*
%TO.C,SW10*%
X143730000Y-127530000D03*
D14*
X148810000Y-127530000D03*
D13*
X153890000Y-127530000D03*
D10*
X151350000Y-122450000D03*
X145000000Y-124990000D03*
%TD*%
D13*
%TO.C,SW12*%
X143740000Y-89400000D03*
D14*
X148820000Y-89400000D03*
D13*
X153900000Y-89400000D03*
D10*
X151360000Y-84320000D03*
X145010000Y-86860000D03*
%TD*%
D15*
%TO.C,LED7*%
X128250000Y-117125000D03*
X128250000Y-118875000D03*
X131750000Y-118875000D03*
X131750000Y-117125000D03*
%TD*%
D13*
%TO.C,SW1*%
X105630000Y-146540000D03*
D14*
X110710000Y-146540000D03*
D13*
X115790000Y-146540000D03*
D10*
X113250000Y-141460000D03*
X106900000Y-144000000D03*
%TD*%
D11*
%TO.C,D3*%
X120500000Y-114850000D03*
D12*
X120500000Y-107230000D03*
%TD*%
D15*
%TO.C,LED6*%
X128500000Y-136250000D03*
X128500000Y-138000000D03*
X132000000Y-138000000D03*
X132000000Y-136250000D03*
%TD*%
D20*
%TO.C,O1*%
X87000000Y-69195000D03*
D21*
X87000000Y-66655000D03*
X87000000Y-64115000D03*
X87000000Y-61575000D03*
%TD*%
D15*
%TO.C,LED4*%
X109250000Y-98125000D03*
X109250000Y-99875000D03*
X112750000Y-99875000D03*
X112750000Y-98125000D03*
%TD*%
D11*
%TO.C,D2*%
X120500000Y-133850000D03*
D12*
X120500000Y-126230000D03*
%TD*%
D11*
%TO.C,D8*%
X139500000Y-96200000D03*
D12*
X139500000Y-88580000D03*
%TD*%
D11*
%TO.C,D1*%
X120500000Y-153350000D03*
D12*
X120500000Y-145730000D03*
%TD*%
D13*
%TO.C,SW7*%
X124680000Y-108440000D03*
D14*
X129760000Y-108440000D03*
D13*
X134840000Y-108440000D03*
D10*
X132300000Y-103360000D03*
X125950000Y-105900000D03*
%TD*%
D15*
%TO.C,LED1*%
X112750000Y-156375000D03*
X112750000Y-154625000D03*
X109250000Y-154625000D03*
X109250000Y-156375000D03*
%TD*%
D13*
%TO.C,SW11*%
X143730000Y-108470000D03*
D14*
X148810000Y-108470000D03*
D13*
X153890000Y-108470000D03*
D10*
X151350000Y-103390000D03*
X145000000Y-105930000D03*
%TD*%
D19*
%TO.C,DA1*%
X151660000Y-59950000D03*
D12*
X144040000Y-59950000D03*
%TD*%
D22*
%TO.C,U1*%
X124045000Y-60928500D03*
D23*
X124880000Y-60928500D03*
D22*
X124045000Y-63468500D03*
D23*
X124880000Y-63468500D03*
D22*
X124045000Y-66008500D03*
D23*
X124880000Y-66008500D03*
D22*
X124045000Y-68548500D03*
D23*
X124880000Y-68548500D03*
D22*
X124045000Y-71088500D03*
D23*
X124880000Y-71088500D03*
D22*
X124045000Y-73628500D03*
D23*
X124880000Y-73628500D03*
D22*
X124045000Y-76168500D03*
D23*
X124880000Y-76168500D03*
X140120000Y-76168500D03*
D24*
X140955000Y-76168500D03*
D23*
X140120000Y-73628500D03*
D24*
X140955000Y-73628500D03*
D23*
X140120000Y-71088500D03*
D24*
X140955000Y-71088500D03*
D23*
X140120000Y-68548500D03*
D24*
X140955000Y-68548500D03*
D23*
X140120000Y-66008500D03*
D24*
X140955000Y-66008500D03*
D23*
X140120000Y-63468500D03*
D24*
X140955000Y-63468500D03*
D23*
X140120000Y-60928500D03*
D24*
X140955000Y-60928500D03*
%TD*%
D15*
%TO.C,LED10*%
X150750000Y-137875000D03*
X150750000Y-136125000D03*
X147250000Y-136125000D03*
X147250000Y-137875000D03*
%TD*%
D13*
%TO.C,SW6*%
X124680000Y-127490000D03*
D14*
X129760000Y-127490000D03*
D13*
X134840000Y-127490000D03*
D10*
X132300000Y-122410000D03*
X125950000Y-124950000D03*
%TD*%
D15*
%TO.C,LED11*%
X150750000Y-99875000D03*
X150750000Y-98125000D03*
X147250000Y-98125000D03*
X147250000Y-99875000D03*
%TD*%
D13*
%TO.C,SW3*%
X105630000Y-108440000D03*
D14*
X110710000Y-108440000D03*
D13*
X115790000Y-108440000D03*
D10*
X113250000Y-103360000D03*
X106900000Y-105900000D03*
%TD*%
D13*
%TO.C,SW5*%
X124680000Y-146540000D03*
D14*
X129760000Y-146540000D03*
D13*
X134840000Y-146540000D03*
D10*
X132300000Y-141460000D03*
X125950000Y-144000000D03*
%TD*%
%TO.C,REF\u002A\u002A*%
X168000000Y-153500000D03*
%TD*%
M02*
