M48
; DRILL file {KiCad 9.0.7} date 2026-02-07T02:01:35-0500
; FORMAT={-:-/ absolute / metric / decimal}
; #@! TF.CreationDate,2026-02-07T02:01:35-05:00
; #@! TF.GenerationSoftware,Kicad,Pcbnew,9.0.7
; #@! TF.FileFunction,Plated,1,2,PTH
FMAT,2
METRIC
; #@! TA.AperFunction,Plated,PTH,ViaDrill
T1C0.500
; #@! TA.AperFunction,Plated,PTH,ComponentDrill
T2C0.800
; #@! TA.AperFunction,Plated,PTH,ComponentDrill
T3C0.889
; #@! TA.AperFunction,Plated,PTH,ComponentDrill
T4C1.000
; #@! TA.AperFunction,Plated,PTH,ComponentDrill
T5C1.500
%
G90
G05
T1
X131.0Y-110.0
X131.0Y-129.0
X132.0Y-91.0
X142.0Y-130.0
X144.0Y-94.0
X144.0Y-114.0
X169.0Y-91.0
X169.0Y-110.0
X169.0Y-129.0
T2
X137.0Y-78.0
X137.0Y-85.62
X137.0Y-97.19
X137.0Y-104.81
X137.0Y-116.19
X137.0Y-123.81
X156.0Y-78.19
X156.0Y-85.81
X156.0Y-97.19
X156.0Y-104.81
X156.0Y-116.19
X156.0Y-123.81
X175.0Y-77.68
X175.0Y-85.3
X175.0Y-97.0
X175.0Y-104.62
X175.0Y-116.0
X175.0Y-123.62
T3
X138.38Y-50.88
X138.38Y-53.42
X138.38Y-55.96
X138.38Y-58.5
X138.38Y-61.04
X138.38Y-63.58
X138.38Y-66.12
X153.62Y-50.88
X153.62Y-53.42
X153.62Y-55.96
X153.62Y-58.5
X153.62Y-61.04
X153.62Y-63.58
X153.62Y-66.12
T4
X118.0Y-53.19
X118.0Y-55.73
X118.0Y-58.27
X118.0Y-60.81
X157.5Y-53.0
X157.5Y-55.5
X157.5Y-58.0
X172.0Y-53.0
X172.0Y-58.0
T5
X123.02Y-118.37
X123.03Y-80.3
X123.03Y-99.35
X129.37Y-115.83
X129.38Y-77.76
X129.38Y-96.81
X142.05Y-99.34
X142.05Y-118.37
X142.12Y-80.3
X148.4Y-96.8
X148.4Y-115.83
X148.47Y-77.76
X161.17Y-80.29
X161.17Y-99.33
X161.2Y-118.37
X167.52Y-77.75
X167.52Y-96.79
X167.55Y-115.83
T5
G00X164.35Y-49.9
M15
G01X165.65Y-49.9
M16
G05
G00X164.35Y-61.1
M15
G01X165.65Y-61.1
M16
G05
M30
