%TF.GenerationSoftware,KiCad,Pcbnew,9.0.7*%
%TF.CreationDate,2026-02-07T02:01:37-05:00*%
%TF.ProjectId,Keypad,4b657970-6164-42e6-9b69-6361645f7063,rev?*%
%TF.SameCoordinates,Original*%
%TF.FileFunction,Legend,Top*%
%TF.FilePolarity,Positive*%
%FSLAX46Y46*%
G04 Gerber Fmt 4.6, Leading zero omitted, Abs format (unit mm)*
G04 Created by KiCad (PCBNEW 9.0.7) date 2026-02-07 02:01:37*
%MOMM*%
%LPD*%
G01*
G04 APERTURE LIST*
%ADD10C,0.150000*%
%ADD11C,0.120000*%
%ADD12C,0.040000*%
G04 APERTURE END LIST*
D10*
X167666667Y-48707200D02*
X167809524Y-48754819D01*
X167809524Y-48754819D02*
X168047619Y-48754819D01*
X168047619Y-48754819D02*
X168142857Y-48707200D01*
X168142857Y-48707200D02*
X168190476Y-48659580D01*
X168190476Y-48659580D02*
X168238095Y-48564342D01*
X168238095Y-48564342D02*
X168238095Y-48469104D01*
X168238095Y-48469104D02*
X168190476Y-48373866D01*
X168190476Y-48373866D02*
X168142857Y-48326247D01*
X168142857Y-48326247D02*
X168047619Y-48278628D01*
X168047619Y-48278628D02*
X167857143Y-48231009D01*
X167857143Y-48231009D02*
X167761905Y-48183390D01*
X167761905Y-48183390D02*
X167714286Y-48135771D01*
X167714286Y-48135771D02*
X167666667Y-48040533D01*
X167666667Y-48040533D02*
X167666667Y-47945295D01*
X167666667Y-47945295D02*
X167714286Y-47850057D01*
X167714286Y-47850057D02*
X167761905Y-47802438D01*
X167761905Y-47802438D02*
X167857143Y-47754819D01*
X167857143Y-47754819D02*
X168095238Y-47754819D01*
X168095238Y-47754819D02*
X168238095Y-47802438D01*
X168571429Y-47754819D02*
X168809524Y-48754819D01*
X168809524Y-48754819D02*
X169000000Y-48040533D01*
X169000000Y-48040533D02*
X169190476Y-48754819D01*
X169190476Y-48754819D02*
X169428572Y-47754819D01*
X170000000Y-47754819D02*
X170095238Y-47754819D01*
X170095238Y-47754819D02*
X170190476Y-47802438D01*
X170190476Y-47802438D02*
X170238095Y-47850057D01*
X170238095Y-47850057D02*
X170285714Y-47945295D01*
X170285714Y-47945295D02*
X170333333Y-48135771D01*
X170333333Y-48135771D02*
X170333333Y-48373866D01*
X170333333Y-48373866D02*
X170285714Y-48564342D01*
X170285714Y-48564342D02*
X170238095Y-48659580D01*
X170238095Y-48659580D02*
X170190476Y-48707200D01*
X170190476Y-48707200D02*
X170095238Y-48754819D01*
X170095238Y-48754819D02*
X170000000Y-48754819D01*
X170000000Y-48754819D02*
X169904762Y-48707200D01*
X169904762Y-48707200D02*
X169857143Y-48659580D01*
X169857143Y-48659580D02*
X169809524Y-48564342D01*
X169809524Y-48564342D02*
X169761905Y-48373866D01*
X169761905Y-48373866D02*
X169761905Y-48135771D01*
X169761905Y-48135771D02*
X169809524Y-47945295D01*
X169809524Y-47945295D02*
X169857143Y-47850057D01*
X169857143Y-47850057D02*
X169904762Y-47802438D01*
X169904762Y-47802438D02*
X170000000Y-47754819D01*
X119624878Y-61381428D02*
X119589164Y-61452857D01*
X119589164Y-61452857D02*
X119589164Y-61559999D01*
X119589164Y-61559999D02*
X119624878Y-61667142D01*
X119624878Y-61667142D02*
X119696307Y-61738571D01*
X119696307Y-61738571D02*
X119767735Y-61774285D01*
X119767735Y-61774285D02*
X119910592Y-61809999D01*
X119910592Y-61809999D02*
X120017735Y-61809999D01*
X120017735Y-61809999D02*
X120160592Y-61774285D01*
X120160592Y-61774285D02*
X120232021Y-61738571D01*
X120232021Y-61738571D02*
X120303450Y-61667142D01*
X120303450Y-61667142D02*
X120339164Y-61559999D01*
X120339164Y-61559999D02*
X120339164Y-61488571D01*
X120339164Y-61488571D02*
X120303450Y-61381428D01*
X120303450Y-61381428D02*
X120267735Y-61345714D01*
X120267735Y-61345714D02*
X120017735Y-61345714D01*
X120017735Y-61345714D02*
X120017735Y-61488571D01*
X120339164Y-61024285D02*
X119589164Y-61024285D01*
X119589164Y-61024285D02*
X120339164Y-60595714D01*
X120339164Y-60595714D02*
X119589164Y-60595714D01*
X120339164Y-60238571D02*
X119589164Y-60238571D01*
X119589164Y-60238571D02*
X119589164Y-60060000D01*
X119589164Y-60060000D02*
X119624878Y-59952857D01*
X119624878Y-59952857D02*
X119696307Y-59881428D01*
X119696307Y-59881428D02*
X119767735Y-59845714D01*
X119767735Y-59845714D02*
X119910592Y-59810000D01*
X119910592Y-59810000D02*
X120017735Y-59810000D01*
X120017735Y-59810000D02*
X120160592Y-59845714D01*
X120160592Y-59845714D02*
X120232021Y-59881428D01*
X120232021Y-59881428D02*
X120303450Y-59952857D01*
X120303450Y-59952857D02*
X120339164Y-60060000D01*
X120339164Y-60060000D02*
X120339164Y-60238571D01*
X119589164Y-59269999D02*
X120339164Y-59019999D01*
X120339164Y-59019999D02*
X119589164Y-58769999D01*
X120267735Y-58091428D02*
X120303450Y-58127142D01*
X120303450Y-58127142D02*
X120339164Y-58234285D01*
X120339164Y-58234285D02*
X120339164Y-58305713D01*
X120339164Y-58305713D02*
X120303450Y-58412856D01*
X120303450Y-58412856D02*
X120232021Y-58484285D01*
X120232021Y-58484285D02*
X120160592Y-58519999D01*
X120160592Y-58519999D02*
X120017735Y-58555713D01*
X120017735Y-58555713D02*
X119910592Y-58555713D01*
X119910592Y-58555713D02*
X119767735Y-58519999D01*
X119767735Y-58519999D02*
X119696307Y-58484285D01*
X119696307Y-58484285D02*
X119624878Y-58412856D01*
X119624878Y-58412856D02*
X119589164Y-58305713D01*
X119589164Y-58305713D02*
X119589164Y-58234285D01*
X119589164Y-58234285D02*
X119624878Y-58127142D01*
X119624878Y-58127142D02*
X119660592Y-58091428D01*
X120267735Y-57341428D02*
X120303450Y-57377142D01*
X120303450Y-57377142D02*
X120339164Y-57484285D01*
X120339164Y-57484285D02*
X120339164Y-57555713D01*
X120339164Y-57555713D02*
X120303450Y-57662856D01*
X120303450Y-57662856D02*
X120232021Y-57734285D01*
X120232021Y-57734285D02*
X120160592Y-57769999D01*
X120160592Y-57769999D02*
X120017735Y-57805713D01*
X120017735Y-57805713D02*
X119910592Y-57805713D01*
X119910592Y-57805713D02*
X119767735Y-57769999D01*
X119767735Y-57769999D02*
X119696307Y-57734285D01*
X119696307Y-57734285D02*
X119624878Y-57662856D01*
X119624878Y-57662856D02*
X119589164Y-57555713D01*
X119589164Y-57555713D02*
X119589164Y-57484285D01*
X119589164Y-57484285D02*
X119624878Y-57377142D01*
X119624878Y-57377142D02*
X119660592Y-57341428D01*
X114554819Y-60928571D02*
X114554819Y-60738095D01*
X114554819Y-60738095D02*
X114602438Y-60642857D01*
X114602438Y-60642857D02*
X114697676Y-60547619D01*
X114697676Y-60547619D02*
X114888152Y-60500000D01*
X114888152Y-60500000D02*
X115221485Y-60500000D01*
X115221485Y-60500000D02*
X115411961Y-60547619D01*
X115411961Y-60547619D02*
X115507200Y-60642857D01*
X115507200Y-60642857D02*
X115554819Y-60738095D01*
X115554819Y-60738095D02*
X115554819Y-60928571D01*
X115554819Y-60928571D02*
X115507200Y-61023809D01*
X115507200Y-61023809D02*
X115411961Y-61119047D01*
X115411961Y-61119047D02*
X115221485Y-61166666D01*
X115221485Y-61166666D02*
X114888152Y-61166666D01*
X114888152Y-61166666D02*
X114697676Y-61119047D01*
X114697676Y-61119047D02*
X114602438Y-61023809D01*
X114602438Y-61023809D02*
X114554819Y-60928571D01*
X115554819Y-59595238D02*
X115554819Y-60071428D01*
X115554819Y-60071428D02*
X114554819Y-60071428D01*
X115031009Y-59261904D02*
X115031009Y-58928571D01*
X115554819Y-58785714D02*
X115554819Y-59261904D01*
X115554819Y-59261904D02*
X114554819Y-59261904D01*
X114554819Y-59261904D02*
X114554819Y-58785714D01*
X115554819Y-58357142D02*
X114554819Y-58357142D01*
X114554819Y-58357142D02*
X114554819Y-58119047D01*
X114554819Y-58119047D02*
X114602438Y-57976190D01*
X114602438Y-57976190D02*
X114697676Y-57880952D01*
X114697676Y-57880952D02*
X114792914Y-57833333D01*
X114792914Y-57833333D02*
X114983390Y-57785714D01*
X114983390Y-57785714D02*
X115126247Y-57785714D01*
X115126247Y-57785714D02*
X115316723Y-57833333D01*
X115316723Y-57833333D02*
X115411961Y-57880952D01*
X115411961Y-57880952D02*
X115507200Y-57976190D01*
X115507200Y-57976190D02*
X115554819Y-58119047D01*
X115554819Y-58119047D02*
X115554819Y-58357142D01*
X115554819Y-56595237D02*
X114554819Y-56595237D01*
X114554819Y-56595237D02*
X114554819Y-56214285D01*
X114554819Y-56214285D02*
X114602438Y-56119047D01*
X114602438Y-56119047D02*
X114650057Y-56071428D01*
X114650057Y-56071428D02*
X114745295Y-56023809D01*
X114745295Y-56023809D02*
X114888152Y-56023809D01*
X114888152Y-56023809D02*
X114983390Y-56071428D01*
X114983390Y-56071428D02*
X115031009Y-56119047D01*
X115031009Y-56119047D02*
X115078628Y-56214285D01*
X115078628Y-56214285D02*
X115078628Y-56595237D01*
X115554819Y-55166666D02*
X115031009Y-55166666D01*
X115031009Y-55166666D02*
X114935771Y-55214285D01*
X114935771Y-55214285D02*
X114888152Y-55309523D01*
X114888152Y-55309523D02*
X114888152Y-55499999D01*
X114888152Y-55499999D02*
X114935771Y-55595237D01*
X115507200Y-55166666D02*
X115554819Y-55261904D01*
X115554819Y-55261904D02*
X115554819Y-55499999D01*
X115554819Y-55499999D02*
X115507200Y-55595237D01*
X115507200Y-55595237D02*
X115411961Y-55642856D01*
X115411961Y-55642856D02*
X115316723Y-55642856D01*
X115316723Y-55642856D02*
X115221485Y-55595237D01*
X115221485Y-55595237D02*
X115173866Y-55499999D01*
X115173866Y-55499999D02*
X115173866Y-55261904D01*
X115173866Y-55261904D02*
X115126247Y-55166666D01*
X114888152Y-54690475D02*
X115554819Y-54690475D01*
X114983390Y-54690475D02*
X114935771Y-54642856D01*
X114935771Y-54642856D02*
X114888152Y-54547618D01*
X114888152Y-54547618D02*
X114888152Y-54404761D01*
X114888152Y-54404761D02*
X114935771Y-54309523D01*
X114935771Y-54309523D02*
X115031009Y-54261904D01*
X115031009Y-54261904D02*
X115554819Y-54261904D01*
X115507200Y-53404761D02*
X115554819Y-53499999D01*
X115554819Y-53499999D02*
X115554819Y-53690475D01*
X115554819Y-53690475D02*
X115507200Y-53785713D01*
X115507200Y-53785713D02*
X115411961Y-53833332D01*
X115411961Y-53833332D02*
X115031009Y-53833332D01*
X115031009Y-53833332D02*
X114935771Y-53785713D01*
X114935771Y-53785713D02*
X114888152Y-53690475D01*
X114888152Y-53690475D02*
X114888152Y-53499999D01*
X114888152Y-53499999D02*
X114935771Y-53404761D01*
X114935771Y-53404761D02*
X115031009Y-53357142D01*
X115031009Y-53357142D02*
X115126247Y-53357142D01*
X115126247Y-53357142D02*
X115221485Y-53833332D01*
X115554819Y-52785713D02*
X115507200Y-52880951D01*
X115507200Y-52880951D02*
X115411961Y-52928570D01*
X115411961Y-52928570D02*
X114554819Y-52928570D01*
X120303450Y-54100713D02*
X120339164Y-53993571D01*
X120339164Y-53993571D02*
X120339164Y-53814999D01*
X120339164Y-53814999D02*
X120303450Y-53743571D01*
X120303450Y-53743571D02*
X120267735Y-53707856D01*
X120267735Y-53707856D02*
X120196307Y-53672142D01*
X120196307Y-53672142D02*
X120124878Y-53672142D01*
X120124878Y-53672142D02*
X120053450Y-53707856D01*
X120053450Y-53707856D02*
X120017735Y-53743571D01*
X120017735Y-53743571D02*
X119982021Y-53814999D01*
X119982021Y-53814999D02*
X119946307Y-53957856D01*
X119946307Y-53957856D02*
X119910592Y-54029285D01*
X119910592Y-54029285D02*
X119874878Y-54064999D01*
X119874878Y-54064999D02*
X119803450Y-54100713D01*
X119803450Y-54100713D02*
X119732021Y-54100713D01*
X119732021Y-54100713D02*
X119660592Y-54064999D01*
X119660592Y-54064999D02*
X119624878Y-54029285D01*
X119624878Y-54029285D02*
X119589164Y-53957856D01*
X119589164Y-53957856D02*
X119589164Y-53779285D01*
X119589164Y-53779285D02*
X119624878Y-53672142D01*
X120339164Y-53350713D02*
X119589164Y-53350713D01*
X119589164Y-53350713D02*
X119589164Y-53172142D01*
X119589164Y-53172142D02*
X119624878Y-53064999D01*
X119624878Y-53064999D02*
X119696307Y-52993570D01*
X119696307Y-52993570D02*
X119767735Y-52957856D01*
X119767735Y-52957856D02*
X119910592Y-52922142D01*
X119910592Y-52922142D02*
X120017735Y-52922142D01*
X120017735Y-52922142D02*
X120160592Y-52957856D01*
X120160592Y-52957856D02*
X120232021Y-52993570D01*
X120232021Y-52993570D02*
X120303450Y-53064999D01*
X120303450Y-53064999D02*
X120339164Y-53172142D01*
X120339164Y-53172142D02*
X120339164Y-53350713D01*
X120124878Y-52636427D02*
X120124878Y-52279285D01*
X120339164Y-52707856D02*
X119589164Y-52457856D01*
X119589164Y-52457856D02*
X120339164Y-52207856D01*
X120303450Y-56622856D02*
X120339164Y-56515714D01*
X120339164Y-56515714D02*
X120339164Y-56337142D01*
X120339164Y-56337142D02*
X120303450Y-56265714D01*
X120303450Y-56265714D02*
X120267735Y-56229999D01*
X120267735Y-56229999D02*
X120196307Y-56194285D01*
X120196307Y-56194285D02*
X120124878Y-56194285D01*
X120124878Y-56194285D02*
X120053450Y-56229999D01*
X120053450Y-56229999D02*
X120017735Y-56265714D01*
X120017735Y-56265714D02*
X119982021Y-56337142D01*
X119982021Y-56337142D02*
X119946307Y-56479999D01*
X119946307Y-56479999D02*
X119910592Y-56551428D01*
X119910592Y-56551428D02*
X119874878Y-56587142D01*
X119874878Y-56587142D02*
X119803450Y-56622856D01*
X119803450Y-56622856D02*
X119732021Y-56622856D01*
X119732021Y-56622856D02*
X119660592Y-56587142D01*
X119660592Y-56587142D02*
X119624878Y-56551428D01*
X119624878Y-56551428D02*
X119589164Y-56479999D01*
X119589164Y-56479999D02*
X119589164Y-56301428D01*
X119589164Y-56301428D02*
X119624878Y-56194285D01*
X120267735Y-55444285D02*
X120303450Y-55479999D01*
X120303450Y-55479999D02*
X120339164Y-55587142D01*
X120339164Y-55587142D02*
X120339164Y-55658570D01*
X120339164Y-55658570D02*
X120303450Y-55765713D01*
X120303450Y-55765713D02*
X120232021Y-55837142D01*
X120232021Y-55837142D02*
X120160592Y-55872856D01*
X120160592Y-55872856D02*
X120017735Y-55908570D01*
X120017735Y-55908570D02*
X119910592Y-55908570D01*
X119910592Y-55908570D02*
X119767735Y-55872856D01*
X119767735Y-55872856D02*
X119696307Y-55837142D01*
X119696307Y-55837142D02*
X119624878Y-55765713D01*
X119624878Y-55765713D02*
X119589164Y-55658570D01*
X119589164Y-55658570D02*
X119589164Y-55587142D01*
X119589164Y-55587142D02*
X119624878Y-55479999D01*
X119624878Y-55479999D02*
X119660592Y-55444285D01*
X120339164Y-54765713D02*
X120339164Y-55122856D01*
X120339164Y-55122856D02*
X119589164Y-55122856D01*
X138666667Y-94407200D02*
X138809524Y-94454819D01*
X138809524Y-94454819D02*
X139047619Y-94454819D01*
X139047619Y-94454819D02*
X139142857Y-94407200D01*
X139142857Y-94407200D02*
X139190476Y-94359580D01*
X139190476Y-94359580D02*
X139238095Y-94264342D01*
X139238095Y-94264342D02*
X139238095Y-94169104D01*
X139238095Y-94169104D02*
X139190476Y-94073866D01*
X139190476Y-94073866D02*
X139142857Y-94026247D01*
X139142857Y-94026247D02*
X139047619Y-93978628D01*
X139047619Y-93978628D02*
X138857143Y-93931009D01*
X138857143Y-93931009D02*
X138761905Y-93883390D01*
X138761905Y-93883390D02*
X138714286Y-93835771D01*
X138714286Y-93835771D02*
X138666667Y-93740533D01*
X138666667Y-93740533D02*
X138666667Y-93645295D01*
X138666667Y-93645295D02*
X138714286Y-93550057D01*
X138714286Y-93550057D02*
X138761905Y-93502438D01*
X138761905Y-93502438D02*
X138857143Y-93454819D01*
X138857143Y-93454819D02*
X139095238Y-93454819D01*
X139095238Y-93454819D02*
X139238095Y-93502438D01*
X139571429Y-93454819D02*
X139809524Y-94454819D01*
X139809524Y-94454819D02*
X140000000Y-93740533D01*
X140000000Y-93740533D02*
X140190476Y-94454819D01*
X140190476Y-94454819D02*
X140428572Y-93454819D01*
X141285714Y-93454819D02*
X140809524Y-93454819D01*
X140809524Y-93454819D02*
X140761905Y-93931009D01*
X140761905Y-93931009D02*
X140809524Y-93883390D01*
X140809524Y-93883390D02*
X140904762Y-93835771D01*
X140904762Y-93835771D02*
X141142857Y-93835771D01*
X141142857Y-93835771D02*
X141238095Y-93883390D01*
X141238095Y-93883390D02*
X141285714Y-93931009D01*
X141285714Y-93931009D02*
X141333333Y-94026247D01*
X141333333Y-94026247D02*
X141333333Y-94264342D01*
X141333333Y-94264342D02*
X141285714Y-94359580D01*
X141285714Y-94359580D02*
X141238095Y-94407200D01*
X141238095Y-94407200D02*
X141142857Y-94454819D01*
X141142857Y-94454819D02*
X140904762Y-94454819D01*
X140904762Y-94454819D02*
X140809524Y-94407200D01*
X140809524Y-94407200D02*
X140761905Y-94359580D01*
X168880952Y-130454819D02*
X168404762Y-130454819D01*
X168404762Y-130454819D02*
X168404762Y-129454819D01*
X169214286Y-129931009D02*
X169547619Y-129931009D01*
X169690476Y-130454819D02*
X169214286Y-130454819D01*
X169214286Y-130454819D02*
X169214286Y-129454819D01*
X169214286Y-129454819D02*
X169690476Y-129454819D01*
X170119048Y-130454819D02*
X170119048Y-129454819D01*
X170119048Y-129454819D02*
X170357143Y-129454819D01*
X170357143Y-129454819D02*
X170500000Y-129502438D01*
X170500000Y-129502438D02*
X170595238Y-129597676D01*
X170595238Y-129597676D02*
X170642857Y-129692914D01*
X170642857Y-129692914D02*
X170690476Y-129883390D01*
X170690476Y-129883390D02*
X170690476Y-130026247D01*
X170690476Y-130026247D02*
X170642857Y-130216723D01*
X170642857Y-130216723D02*
X170595238Y-130311961D01*
X170595238Y-130311961D02*
X170500000Y-130407200D01*
X170500000Y-130407200D02*
X170357143Y-130454819D01*
X170357143Y-130454819D02*
X170119048Y-130454819D01*
X171166667Y-130454819D02*
X171357143Y-130454819D01*
X171357143Y-130454819D02*
X171452381Y-130407200D01*
X171452381Y-130407200D02*
X171500000Y-130359580D01*
X171500000Y-130359580D02*
X171595238Y-130216723D01*
X171595238Y-130216723D02*
X171642857Y-130026247D01*
X171642857Y-130026247D02*
X171642857Y-129645295D01*
X171642857Y-129645295D02*
X171595238Y-129550057D01*
X171595238Y-129550057D02*
X171547619Y-129502438D01*
X171547619Y-129502438D02*
X171452381Y-129454819D01*
X171452381Y-129454819D02*
X171261905Y-129454819D01*
X171261905Y-129454819D02*
X171166667Y-129502438D01*
X171166667Y-129502438D02*
X171119048Y-129550057D01*
X171119048Y-129550057D02*
X171071429Y-129645295D01*
X171071429Y-129645295D02*
X171071429Y-129883390D01*
X171071429Y-129883390D02*
X171119048Y-129978628D01*
X171119048Y-129978628D02*
X171166667Y-130026247D01*
X171166667Y-130026247D02*
X171261905Y-130073866D01*
X171261905Y-130073866D02*
X171452381Y-130073866D01*
X171452381Y-130073866D02*
X171547619Y-130026247D01*
X171547619Y-130026247D02*
X171595238Y-129978628D01*
X171595238Y-129978628D02*
X171642857Y-129883390D01*
X138666667Y-75373200D02*
X138809524Y-75420819D01*
X138809524Y-75420819D02*
X139047619Y-75420819D01*
X139047619Y-75420819D02*
X139142857Y-75373200D01*
X139142857Y-75373200D02*
X139190476Y-75325580D01*
X139190476Y-75325580D02*
X139238095Y-75230342D01*
X139238095Y-75230342D02*
X139238095Y-75135104D01*
X139238095Y-75135104D02*
X139190476Y-75039866D01*
X139190476Y-75039866D02*
X139142857Y-74992247D01*
X139142857Y-74992247D02*
X139047619Y-74944628D01*
X139047619Y-74944628D02*
X138857143Y-74897009D01*
X138857143Y-74897009D02*
X138761905Y-74849390D01*
X138761905Y-74849390D02*
X138714286Y-74801771D01*
X138714286Y-74801771D02*
X138666667Y-74706533D01*
X138666667Y-74706533D02*
X138666667Y-74611295D01*
X138666667Y-74611295D02*
X138714286Y-74516057D01*
X138714286Y-74516057D02*
X138761905Y-74468438D01*
X138761905Y-74468438D02*
X138857143Y-74420819D01*
X138857143Y-74420819D02*
X139095238Y-74420819D01*
X139095238Y-74420819D02*
X139238095Y-74468438D01*
X139571429Y-74420819D02*
X139809524Y-75420819D01*
X139809524Y-75420819D02*
X140000000Y-74706533D01*
X140000000Y-74706533D02*
X140190476Y-75420819D01*
X140190476Y-75420819D02*
X140428572Y-74420819D01*
X141238095Y-74754152D02*
X141238095Y-75420819D01*
X141000000Y-74373200D02*
X140761905Y-75087485D01*
X140761905Y-75087485D02*
X141380952Y-75087485D01*
X130880952Y-111329819D02*
X130404762Y-111329819D01*
X130404762Y-111329819D02*
X130404762Y-110329819D01*
X131214286Y-110806009D02*
X131547619Y-110806009D01*
X131690476Y-111329819D02*
X131214286Y-111329819D01*
X131214286Y-111329819D02*
X131214286Y-110329819D01*
X131214286Y-110329819D02*
X131690476Y-110329819D01*
X132119048Y-111329819D02*
X132119048Y-110329819D01*
X132119048Y-110329819D02*
X132357143Y-110329819D01*
X132357143Y-110329819D02*
X132500000Y-110377438D01*
X132500000Y-110377438D02*
X132595238Y-110472676D01*
X132595238Y-110472676D02*
X132642857Y-110567914D01*
X132642857Y-110567914D02*
X132690476Y-110758390D01*
X132690476Y-110758390D02*
X132690476Y-110901247D01*
X132690476Y-110901247D02*
X132642857Y-111091723D01*
X132642857Y-111091723D02*
X132595238Y-111186961D01*
X132595238Y-111186961D02*
X132500000Y-111282200D01*
X132500000Y-111282200D02*
X132357143Y-111329819D01*
X132357143Y-111329819D02*
X132119048Y-111329819D01*
X133071429Y-110425057D02*
X133119048Y-110377438D01*
X133119048Y-110377438D02*
X133214286Y-110329819D01*
X133214286Y-110329819D02*
X133452381Y-110329819D01*
X133452381Y-110329819D02*
X133547619Y-110377438D01*
X133547619Y-110377438D02*
X133595238Y-110425057D01*
X133595238Y-110425057D02*
X133642857Y-110520295D01*
X133642857Y-110520295D02*
X133642857Y-110615533D01*
X133642857Y-110615533D02*
X133595238Y-110758390D01*
X133595238Y-110758390D02*
X133023810Y-111329819D01*
X133023810Y-111329819D02*
X133642857Y-111329819D01*
X119666667Y-113407200D02*
X119809524Y-113454819D01*
X119809524Y-113454819D02*
X120047619Y-113454819D01*
X120047619Y-113454819D02*
X120142857Y-113407200D01*
X120142857Y-113407200D02*
X120190476Y-113359580D01*
X120190476Y-113359580D02*
X120238095Y-113264342D01*
X120238095Y-113264342D02*
X120238095Y-113169104D01*
X120238095Y-113169104D02*
X120190476Y-113073866D01*
X120190476Y-113073866D02*
X120142857Y-113026247D01*
X120142857Y-113026247D02*
X120047619Y-112978628D01*
X120047619Y-112978628D02*
X119857143Y-112931009D01*
X119857143Y-112931009D02*
X119761905Y-112883390D01*
X119761905Y-112883390D02*
X119714286Y-112835771D01*
X119714286Y-112835771D02*
X119666667Y-112740533D01*
X119666667Y-112740533D02*
X119666667Y-112645295D01*
X119666667Y-112645295D02*
X119714286Y-112550057D01*
X119714286Y-112550057D02*
X119761905Y-112502438D01*
X119761905Y-112502438D02*
X119857143Y-112454819D01*
X119857143Y-112454819D02*
X120095238Y-112454819D01*
X120095238Y-112454819D02*
X120238095Y-112502438D01*
X120571429Y-112454819D02*
X120809524Y-113454819D01*
X120809524Y-113454819D02*
X121000000Y-112740533D01*
X121000000Y-112740533D02*
X121190476Y-113454819D01*
X121190476Y-113454819D02*
X121428572Y-112454819D01*
X121714286Y-112454819D02*
X122333333Y-112454819D01*
X122333333Y-112454819D02*
X122000000Y-112835771D01*
X122000000Y-112835771D02*
X122142857Y-112835771D01*
X122142857Y-112835771D02*
X122238095Y-112883390D01*
X122238095Y-112883390D02*
X122285714Y-112931009D01*
X122285714Y-112931009D02*
X122333333Y-113026247D01*
X122333333Y-113026247D02*
X122333333Y-113264342D01*
X122333333Y-113264342D02*
X122285714Y-113359580D01*
X122285714Y-113359580D02*
X122238095Y-113407200D01*
X122238095Y-113407200D02*
X122142857Y-113454819D01*
X122142857Y-113454819D02*
X121857143Y-113454819D01*
X121857143Y-113454819D02*
X121761905Y-113407200D01*
X121761905Y-113407200D02*
X121714286Y-113359580D01*
X144880952Y-127704819D02*
X144404762Y-127704819D01*
X144404762Y-127704819D02*
X144404762Y-126704819D01*
X145214286Y-127181009D02*
X145547619Y-127181009D01*
X145690476Y-127704819D02*
X145214286Y-127704819D01*
X145214286Y-127704819D02*
X145214286Y-126704819D01*
X145214286Y-126704819D02*
X145690476Y-126704819D01*
X146119048Y-127704819D02*
X146119048Y-126704819D01*
X146119048Y-126704819D02*
X146357143Y-126704819D01*
X146357143Y-126704819D02*
X146500000Y-126752438D01*
X146500000Y-126752438D02*
X146595238Y-126847676D01*
X146595238Y-126847676D02*
X146642857Y-126942914D01*
X146642857Y-126942914D02*
X146690476Y-127133390D01*
X146690476Y-127133390D02*
X146690476Y-127276247D01*
X146690476Y-127276247D02*
X146642857Y-127466723D01*
X146642857Y-127466723D02*
X146595238Y-127561961D01*
X146595238Y-127561961D02*
X146500000Y-127657200D01*
X146500000Y-127657200D02*
X146357143Y-127704819D01*
X146357143Y-127704819D02*
X146119048Y-127704819D01*
X147547619Y-127038152D02*
X147547619Y-127704819D01*
X147309524Y-126657200D02*
X147071429Y-127371485D01*
X147071429Y-127371485D02*
X147690476Y-127371485D01*
X149880952Y-92454819D02*
X149404762Y-92454819D01*
X149404762Y-92454819D02*
X149404762Y-91454819D01*
X150214286Y-91931009D02*
X150547619Y-91931009D01*
X150690476Y-92454819D02*
X150214286Y-92454819D01*
X150214286Y-92454819D02*
X150214286Y-91454819D01*
X150214286Y-91454819D02*
X150690476Y-91454819D01*
X151119048Y-92454819D02*
X151119048Y-91454819D01*
X151119048Y-91454819D02*
X151357143Y-91454819D01*
X151357143Y-91454819D02*
X151500000Y-91502438D01*
X151500000Y-91502438D02*
X151595238Y-91597676D01*
X151595238Y-91597676D02*
X151642857Y-91692914D01*
X151642857Y-91692914D02*
X151690476Y-91883390D01*
X151690476Y-91883390D02*
X151690476Y-92026247D01*
X151690476Y-92026247D02*
X151642857Y-92216723D01*
X151642857Y-92216723D02*
X151595238Y-92311961D01*
X151595238Y-92311961D02*
X151500000Y-92407200D01*
X151500000Y-92407200D02*
X151357143Y-92454819D01*
X151357143Y-92454819D02*
X151119048Y-92454819D01*
X152547619Y-91454819D02*
X152357143Y-91454819D01*
X152357143Y-91454819D02*
X152261905Y-91502438D01*
X152261905Y-91502438D02*
X152214286Y-91550057D01*
X152214286Y-91550057D02*
X152119048Y-91692914D01*
X152119048Y-91692914D02*
X152071429Y-91883390D01*
X152071429Y-91883390D02*
X152071429Y-92264342D01*
X152071429Y-92264342D02*
X152119048Y-92359580D01*
X152119048Y-92359580D02*
X152166667Y-92407200D01*
X152166667Y-92407200D02*
X152261905Y-92454819D01*
X152261905Y-92454819D02*
X152452381Y-92454819D01*
X152452381Y-92454819D02*
X152547619Y-92407200D01*
X152547619Y-92407200D02*
X152595238Y-92359580D01*
X152595238Y-92359580D02*
X152642857Y-92264342D01*
X152642857Y-92264342D02*
X152642857Y-92026247D01*
X152642857Y-92026247D02*
X152595238Y-91931009D01*
X152595238Y-91931009D02*
X152547619Y-91883390D01*
X152547619Y-91883390D02*
X152452381Y-91835771D01*
X152452381Y-91835771D02*
X152261905Y-91835771D01*
X152261905Y-91835771D02*
X152166667Y-91883390D01*
X152166667Y-91883390D02*
X152119048Y-91931009D01*
X152119048Y-91931009D02*
X152071429Y-92026247D01*
X143028571Y-91487295D02*
X142571428Y-91487295D01*
X142800000Y-91487295D02*
X142800000Y-90687295D01*
X142800000Y-90687295D02*
X142723809Y-90801580D01*
X142723809Y-90801580D02*
X142647619Y-90877771D01*
X142647619Y-90877771D02*
X142571428Y-90915866D01*
X135334819Y-120738094D02*
X134334819Y-120738094D01*
X134334819Y-120738094D02*
X134334819Y-120499999D01*
X134334819Y-120499999D02*
X134382438Y-120357142D01*
X134382438Y-120357142D02*
X134477676Y-120261904D01*
X134477676Y-120261904D02*
X134572914Y-120214285D01*
X134572914Y-120214285D02*
X134763390Y-120166666D01*
X134763390Y-120166666D02*
X134906247Y-120166666D01*
X134906247Y-120166666D02*
X135096723Y-120214285D01*
X135096723Y-120214285D02*
X135191961Y-120261904D01*
X135191961Y-120261904D02*
X135287200Y-120357142D01*
X135287200Y-120357142D02*
X135334819Y-120499999D01*
X135334819Y-120499999D02*
X135334819Y-120738094D01*
X134334819Y-119833332D02*
X134334819Y-119214285D01*
X134334819Y-119214285D02*
X134715771Y-119547618D01*
X134715771Y-119547618D02*
X134715771Y-119404761D01*
X134715771Y-119404761D02*
X134763390Y-119309523D01*
X134763390Y-119309523D02*
X134811009Y-119261904D01*
X134811009Y-119261904D02*
X134906247Y-119214285D01*
X134906247Y-119214285D02*
X135144342Y-119214285D01*
X135144342Y-119214285D02*
X135239580Y-119261904D01*
X135239580Y-119261904D02*
X135287200Y-119309523D01*
X135287200Y-119309523D02*
X135334819Y-119404761D01*
X135334819Y-119404761D02*
X135334819Y-119690475D01*
X135334819Y-119690475D02*
X135287200Y-119785713D01*
X135287200Y-119785713D02*
X135239580Y-119833332D01*
X135654819Y-124071904D02*
X134654819Y-124071904D01*
X135654819Y-123500476D02*
X135083390Y-123929047D01*
X134654819Y-123500476D02*
X135226247Y-124071904D01*
X119666667Y-75407200D02*
X119809524Y-75454819D01*
X119809524Y-75454819D02*
X120047619Y-75454819D01*
X120047619Y-75454819D02*
X120142857Y-75407200D01*
X120142857Y-75407200D02*
X120190476Y-75359580D01*
X120190476Y-75359580D02*
X120238095Y-75264342D01*
X120238095Y-75264342D02*
X120238095Y-75169104D01*
X120238095Y-75169104D02*
X120190476Y-75073866D01*
X120190476Y-75073866D02*
X120142857Y-75026247D01*
X120142857Y-75026247D02*
X120047619Y-74978628D01*
X120047619Y-74978628D02*
X119857143Y-74931009D01*
X119857143Y-74931009D02*
X119761905Y-74883390D01*
X119761905Y-74883390D02*
X119714286Y-74835771D01*
X119714286Y-74835771D02*
X119666667Y-74740533D01*
X119666667Y-74740533D02*
X119666667Y-74645295D01*
X119666667Y-74645295D02*
X119714286Y-74550057D01*
X119714286Y-74550057D02*
X119761905Y-74502438D01*
X119761905Y-74502438D02*
X119857143Y-74454819D01*
X119857143Y-74454819D02*
X120095238Y-74454819D01*
X120095238Y-74454819D02*
X120238095Y-74502438D01*
X120571429Y-74454819D02*
X120809524Y-75454819D01*
X120809524Y-75454819D02*
X121000000Y-74740533D01*
X121000000Y-74740533D02*
X121190476Y-75454819D01*
X121190476Y-75454819D02*
X121428572Y-74454819D01*
X122333333Y-75454819D02*
X121761905Y-75454819D01*
X122047619Y-75454819D02*
X122047619Y-74454819D01*
X122047619Y-74454819D02*
X121952381Y-74597676D01*
X121952381Y-74597676D02*
X121857143Y-74692914D01*
X121857143Y-74692914D02*
X121761905Y-74740533D01*
X173334819Y-120548094D02*
X172334819Y-120548094D01*
X172334819Y-120548094D02*
X172334819Y-120309999D01*
X172334819Y-120309999D02*
X172382438Y-120167142D01*
X172382438Y-120167142D02*
X172477676Y-120071904D01*
X172477676Y-120071904D02*
X172572914Y-120024285D01*
X172572914Y-120024285D02*
X172763390Y-119976666D01*
X172763390Y-119976666D02*
X172906247Y-119976666D01*
X172906247Y-119976666D02*
X173096723Y-120024285D01*
X173096723Y-120024285D02*
X173191961Y-120071904D01*
X173191961Y-120071904D02*
X173287200Y-120167142D01*
X173287200Y-120167142D02*
X173334819Y-120309999D01*
X173334819Y-120309999D02*
X173334819Y-120548094D01*
X173334819Y-119500475D02*
X173334819Y-119309999D01*
X173334819Y-119309999D02*
X173287200Y-119214761D01*
X173287200Y-119214761D02*
X173239580Y-119167142D01*
X173239580Y-119167142D02*
X173096723Y-119071904D01*
X173096723Y-119071904D02*
X172906247Y-119024285D01*
X172906247Y-119024285D02*
X172525295Y-119024285D01*
X172525295Y-119024285D02*
X172430057Y-119071904D01*
X172430057Y-119071904D02*
X172382438Y-119119523D01*
X172382438Y-119119523D02*
X172334819Y-119214761D01*
X172334819Y-119214761D02*
X172334819Y-119405237D01*
X172334819Y-119405237D02*
X172382438Y-119500475D01*
X172382438Y-119500475D02*
X172430057Y-119548094D01*
X172430057Y-119548094D02*
X172525295Y-119595713D01*
X172525295Y-119595713D02*
X172763390Y-119595713D01*
X172763390Y-119595713D02*
X172858628Y-119548094D01*
X172858628Y-119548094D02*
X172906247Y-119500475D01*
X172906247Y-119500475D02*
X172953866Y-119405237D01*
X172953866Y-119405237D02*
X172953866Y-119214761D01*
X172953866Y-119214761D02*
X172906247Y-119119523D01*
X172906247Y-119119523D02*
X172858628Y-119071904D01*
X172858628Y-119071904D02*
X172763390Y-119024285D01*
X173654819Y-123881904D02*
X172654819Y-123881904D01*
X173654819Y-123310476D02*
X173083390Y-123739047D01*
X172654819Y-123310476D02*
X173226247Y-123881904D01*
X135334819Y-82548094D02*
X134334819Y-82548094D01*
X134334819Y-82548094D02*
X134334819Y-82309999D01*
X134334819Y-82309999D02*
X134382438Y-82167142D01*
X134382438Y-82167142D02*
X134477676Y-82071904D01*
X134477676Y-82071904D02*
X134572914Y-82024285D01*
X134572914Y-82024285D02*
X134763390Y-81976666D01*
X134763390Y-81976666D02*
X134906247Y-81976666D01*
X134906247Y-81976666D02*
X135096723Y-82024285D01*
X135096723Y-82024285D02*
X135191961Y-82071904D01*
X135191961Y-82071904D02*
X135287200Y-82167142D01*
X135287200Y-82167142D02*
X135334819Y-82309999D01*
X135334819Y-82309999D02*
X135334819Y-82548094D01*
X135334819Y-81024285D02*
X135334819Y-81595713D01*
X135334819Y-81309999D02*
X134334819Y-81309999D01*
X134334819Y-81309999D02*
X134477676Y-81405237D01*
X134477676Y-81405237D02*
X134572914Y-81500475D01*
X134572914Y-81500475D02*
X134620533Y-81595713D01*
X135654819Y-85881904D02*
X134654819Y-85881904D01*
X135654819Y-85310476D02*
X135083390Y-85739047D01*
X134654819Y-85310476D02*
X135226247Y-85881904D01*
X154334819Y-101738094D02*
X153334819Y-101738094D01*
X153334819Y-101738094D02*
X153334819Y-101499999D01*
X153334819Y-101499999D02*
X153382438Y-101357142D01*
X153382438Y-101357142D02*
X153477676Y-101261904D01*
X153477676Y-101261904D02*
X153572914Y-101214285D01*
X153572914Y-101214285D02*
X153763390Y-101166666D01*
X153763390Y-101166666D02*
X153906247Y-101166666D01*
X153906247Y-101166666D02*
X154096723Y-101214285D01*
X154096723Y-101214285D02*
X154191961Y-101261904D01*
X154191961Y-101261904D02*
X154287200Y-101357142D01*
X154287200Y-101357142D02*
X154334819Y-101499999D01*
X154334819Y-101499999D02*
X154334819Y-101738094D01*
X153334819Y-100261904D02*
X153334819Y-100738094D01*
X153334819Y-100738094D02*
X153811009Y-100785713D01*
X153811009Y-100785713D02*
X153763390Y-100738094D01*
X153763390Y-100738094D02*
X153715771Y-100642856D01*
X153715771Y-100642856D02*
X153715771Y-100404761D01*
X153715771Y-100404761D02*
X153763390Y-100309523D01*
X153763390Y-100309523D02*
X153811009Y-100261904D01*
X153811009Y-100261904D02*
X153906247Y-100214285D01*
X153906247Y-100214285D02*
X154144342Y-100214285D01*
X154144342Y-100214285D02*
X154239580Y-100261904D01*
X154239580Y-100261904D02*
X154287200Y-100309523D01*
X154287200Y-100309523D02*
X154334819Y-100404761D01*
X154334819Y-100404761D02*
X154334819Y-100642856D01*
X154334819Y-100642856D02*
X154287200Y-100738094D01*
X154287200Y-100738094D02*
X154239580Y-100785713D01*
X154654819Y-105071904D02*
X153654819Y-105071904D01*
X154654819Y-104500476D02*
X154083390Y-104929047D01*
X153654819Y-104500476D02*
X154226247Y-105071904D01*
X130880952Y-130454819D02*
X130404762Y-130454819D01*
X130404762Y-130454819D02*
X130404762Y-129454819D01*
X131214286Y-129931009D02*
X131547619Y-129931009D01*
X131690476Y-130454819D02*
X131214286Y-130454819D01*
X131214286Y-130454819D02*
X131214286Y-129454819D01*
X131214286Y-129454819D02*
X131690476Y-129454819D01*
X132119048Y-130454819D02*
X132119048Y-129454819D01*
X132119048Y-129454819D02*
X132357143Y-129454819D01*
X132357143Y-129454819D02*
X132500000Y-129502438D01*
X132500000Y-129502438D02*
X132595238Y-129597676D01*
X132595238Y-129597676D02*
X132642857Y-129692914D01*
X132642857Y-129692914D02*
X132690476Y-129883390D01*
X132690476Y-129883390D02*
X132690476Y-130026247D01*
X132690476Y-130026247D02*
X132642857Y-130216723D01*
X132642857Y-130216723D02*
X132595238Y-130311961D01*
X132595238Y-130311961D02*
X132500000Y-130407200D01*
X132500000Y-130407200D02*
X132357143Y-130454819D01*
X132357143Y-130454819D02*
X132119048Y-130454819D01*
X133023810Y-129454819D02*
X133642857Y-129454819D01*
X133642857Y-129454819D02*
X133309524Y-129835771D01*
X133309524Y-129835771D02*
X133452381Y-129835771D01*
X133452381Y-129835771D02*
X133547619Y-129883390D01*
X133547619Y-129883390D02*
X133595238Y-129931009D01*
X133595238Y-129931009D02*
X133642857Y-130026247D01*
X133642857Y-130026247D02*
X133642857Y-130264342D01*
X133642857Y-130264342D02*
X133595238Y-130359580D01*
X133595238Y-130359580D02*
X133547619Y-130407200D01*
X133547619Y-130407200D02*
X133452381Y-130454819D01*
X133452381Y-130454819D02*
X133166667Y-130454819D01*
X133166667Y-130454819D02*
X133071429Y-130407200D01*
X133071429Y-130407200D02*
X133023810Y-130359580D01*
X173334819Y-101548094D02*
X172334819Y-101548094D01*
X172334819Y-101548094D02*
X172334819Y-101309999D01*
X172334819Y-101309999D02*
X172382438Y-101167142D01*
X172382438Y-101167142D02*
X172477676Y-101071904D01*
X172477676Y-101071904D02*
X172572914Y-101024285D01*
X172572914Y-101024285D02*
X172763390Y-100976666D01*
X172763390Y-100976666D02*
X172906247Y-100976666D01*
X172906247Y-100976666D02*
X173096723Y-101024285D01*
X173096723Y-101024285D02*
X173191961Y-101071904D01*
X173191961Y-101071904D02*
X173287200Y-101167142D01*
X173287200Y-101167142D02*
X173334819Y-101309999D01*
X173334819Y-101309999D02*
X173334819Y-101548094D01*
X172763390Y-100405237D02*
X172715771Y-100500475D01*
X172715771Y-100500475D02*
X172668152Y-100548094D01*
X172668152Y-100548094D02*
X172572914Y-100595713D01*
X172572914Y-100595713D02*
X172525295Y-100595713D01*
X172525295Y-100595713D02*
X172430057Y-100548094D01*
X172430057Y-100548094D02*
X172382438Y-100500475D01*
X172382438Y-100500475D02*
X172334819Y-100405237D01*
X172334819Y-100405237D02*
X172334819Y-100214761D01*
X172334819Y-100214761D02*
X172382438Y-100119523D01*
X172382438Y-100119523D02*
X172430057Y-100071904D01*
X172430057Y-100071904D02*
X172525295Y-100024285D01*
X172525295Y-100024285D02*
X172572914Y-100024285D01*
X172572914Y-100024285D02*
X172668152Y-100071904D01*
X172668152Y-100071904D02*
X172715771Y-100119523D01*
X172715771Y-100119523D02*
X172763390Y-100214761D01*
X172763390Y-100214761D02*
X172763390Y-100405237D01*
X172763390Y-100405237D02*
X172811009Y-100500475D01*
X172811009Y-100500475D02*
X172858628Y-100548094D01*
X172858628Y-100548094D02*
X172953866Y-100595713D01*
X172953866Y-100595713D02*
X173144342Y-100595713D01*
X173144342Y-100595713D02*
X173239580Y-100548094D01*
X173239580Y-100548094D02*
X173287200Y-100500475D01*
X173287200Y-100500475D02*
X173334819Y-100405237D01*
X173334819Y-100405237D02*
X173334819Y-100214761D01*
X173334819Y-100214761D02*
X173287200Y-100119523D01*
X173287200Y-100119523D02*
X173239580Y-100071904D01*
X173239580Y-100071904D02*
X173144342Y-100024285D01*
X173144342Y-100024285D02*
X172953866Y-100024285D01*
X172953866Y-100024285D02*
X172858628Y-100071904D01*
X172858628Y-100071904D02*
X172811009Y-100119523D01*
X172811009Y-100119523D02*
X172763390Y-100214761D01*
X173654819Y-104881904D02*
X172654819Y-104881904D01*
X173654819Y-104310476D02*
X173083390Y-104739047D01*
X172654819Y-104310476D02*
X173226247Y-104881904D01*
X157666667Y-113443200D02*
X157809524Y-113490819D01*
X157809524Y-113490819D02*
X158047619Y-113490819D01*
X158047619Y-113490819D02*
X158142857Y-113443200D01*
X158142857Y-113443200D02*
X158190476Y-113395580D01*
X158190476Y-113395580D02*
X158238095Y-113300342D01*
X158238095Y-113300342D02*
X158238095Y-113205104D01*
X158238095Y-113205104D02*
X158190476Y-113109866D01*
X158190476Y-113109866D02*
X158142857Y-113062247D01*
X158142857Y-113062247D02*
X158047619Y-113014628D01*
X158047619Y-113014628D02*
X157857143Y-112967009D01*
X157857143Y-112967009D02*
X157761905Y-112919390D01*
X157761905Y-112919390D02*
X157714286Y-112871771D01*
X157714286Y-112871771D02*
X157666667Y-112776533D01*
X157666667Y-112776533D02*
X157666667Y-112681295D01*
X157666667Y-112681295D02*
X157714286Y-112586057D01*
X157714286Y-112586057D02*
X157761905Y-112538438D01*
X157761905Y-112538438D02*
X157857143Y-112490819D01*
X157857143Y-112490819D02*
X158095238Y-112490819D01*
X158095238Y-112490819D02*
X158238095Y-112538438D01*
X158571429Y-112490819D02*
X158809524Y-113490819D01*
X158809524Y-113490819D02*
X159000000Y-112776533D01*
X159000000Y-112776533D02*
X159190476Y-113490819D01*
X159190476Y-113490819D02*
X159428572Y-112490819D01*
X159857143Y-113490819D02*
X160047619Y-113490819D01*
X160047619Y-113490819D02*
X160142857Y-113443200D01*
X160142857Y-113443200D02*
X160190476Y-113395580D01*
X160190476Y-113395580D02*
X160285714Y-113252723D01*
X160285714Y-113252723D02*
X160333333Y-113062247D01*
X160333333Y-113062247D02*
X160333333Y-112681295D01*
X160333333Y-112681295D02*
X160285714Y-112586057D01*
X160285714Y-112586057D02*
X160238095Y-112538438D01*
X160238095Y-112538438D02*
X160142857Y-112490819D01*
X160142857Y-112490819D02*
X159952381Y-112490819D01*
X159952381Y-112490819D02*
X159857143Y-112538438D01*
X159857143Y-112538438D02*
X159809524Y-112586057D01*
X159809524Y-112586057D02*
X159761905Y-112681295D01*
X159761905Y-112681295D02*
X159761905Y-112919390D01*
X159761905Y-112919390D02*
X159809524Y-113014628D01*
X159809524Y-113014628D02*
X159857143Y-113062247D01*
X159857143Y-113062247D02*
X159952381Y-113109866D01*
X159952381Y-113109866D02*
X160142857Y-113109866D01*
X160142857Y-113109866D02*
X160238095Y-113062247D01*
X160238095Y-113062247D02*
X160285714Y-113014628D01*
X160285714Y-113014628D02*
X160333333Y-112919390D01*
X130880952Y-92454819D02*
X130404762Y-92454819D01*
X130404762Y-92454819D02*
X130404762Y-91454819D01*
X131214286Y-91931009D02*
X131547619Y-91931009D01*
X131690476Y-92454819D02*
X131214286Y-92454819D01*
X131214286Y-92454819D02*
X131214286Y-91454819D01*
X131214286Y-91454819D02*
X131690476Y-91454819D01*
X132119048Y-92454819D02*
X132119048Y-91454819D01*
X132119048Y-91454819D02*
X132357143Y-91454819D01*
X132357143Y-91454819D02*
X132500000Y-91502438D01*
X132500000Y-91502438D02*
X132595238Y-91597676D01*
X132595238Y-91597676D02*
X132642857Y-91692914D01*
X132642857Y-91692914D02*
X132690476Y-91883390D01*
X132690476Y-91883390D02*
X132690476Y-92026247D01*
X132690476Y-92026247D02*
X132642857Y-92216723D01*
X132642857Y-92216723D02*
X132595238Y-92311961D01*
X132595238Y-92311961D02*
X132500000Y-92407200D01*
X132500000Y-92407200D02*
X132357143Y-92454819D01*
X132357143Y-92454819D02*
X132119048Y-92454819D01*
X133642857Y-92454819D02*
X133071429Y-92454819D01*
X133357143Y-92454819D02*
X133357143Y-91454819D01*
X133357143Y-91454819D02*
X133261905Y-91597676D01*
X133261905Y-91597676D02*
X133166667Y-91692914D01*
X133166667Y-91692914D02*
X133071429Y-91740533D01*
X157666667Y-94403200D02*
X157809524Y-94450819D01*
X157809524Y-94450819D02*
X158047619Y-94450819D01*
X158047619Y-94450819D02*
X158142857Y-94403200D01*
X158142857Y-94403200D02*
X158190476Y-94355580D01*
X158190476Y-94355580D02*
X158238095Y-94260342D01*
X158238095Y-94260342D02*
X158238095Y-94165104D01*
X158238095Y-94165104D02*
X158190476Y-94069866D01*
X158190476Y-94069866D02*
X158142857Y-94022247D01*
X158142857Y-94022247D02*
X158047619Y-93974628D01*
X158047619Y-93974628D02*
X157857143Y-93927009D01*
X157857143Y-93927009D02*
X157761905Y-93879390D01*
X157761905Y-93879390D02*
X157714286Y-93831771D01*
X157714286Y-93831771D02*
X157666667Y-93736533D01*
X157666667Y-93736533D02*
X157666667Y-93641295D01*
X157666667Y-93641295D02*
X157714286Y-93546057D01*
X157714286Y-93546057D02*
X157761905Y-93498438D01*
X157761905Y-93498438D02*
X157857143Y-93450819D01*
X157857143Y-93450819D02*
X158095238Y-93450819D01*
X158095238Y-93450819D02*
X158238095Y-93498438D01*
X158571429Y-93450819D02*
X158809524Y-94450819D01*
X158809524Y-94450819D02*
X159000000Y-93736533D01*
X159000000Y-93736533D02*
X159190476Y-94450819D01*
X159190476Y-94450819D02*
X159428572Y-93450819D01*
X159952381Y-93879390D02*
X159857143Y-93831771D01*
X159857143Y-93831771D02*
X159809524Y-93784152D01*
X159809524Y-93784152D02*
X159761905Y-93688914D01*
X159761905Y-93688914D02*
X159761905Y-93641295D01*
X159761905Y-93641295D02*
X159809524Y-93546057D01*
X159809524Y-93546057D02*
X159857143Y-93498438D01*
X159857143Y-93498438D02*
X159952381Y-93450819D01*
X159952381Y-93450819D02*
X160142857Y-93450819D01*
X160142857Y-93450819D02*
X160238095Y-93498438D01*
X160238095Y-93498438D02*
X160285714Y-93546057D01*
X160285714Y-93546057D02*
X160333333Y-93641295D01*
X160333333Y-93641295D02*
X160333333Y-93688914D01*
X160333333Y-93688914D02*
X160285714Y-93784152D01*
X160285714Y-93784152D02*
X160238095Y-93831771D01*
X160238095Y-93831771D02*
X160142857Y-93879390D01*
X160142857Y-93879390D02*
X159952381Y-93879390D01*
X159952381Y-93879390D02*
X159857143Y-93927009D01*
X159857143Y-93927009D02*
X159809524Y-93974628D01*
X159809524Y-93974628D02*
X159761905Y-94069866D01*
X159761905Y-94069866D02*
X159761905Y-94260342D01*
X159761905Y-94260342D02*
X159809524Y-94355580D01*
X159809524Y-94355580D02*
X159857143Y-94403200D01*
X159857143Y-94403200D02*
X159952381Y-94450819D01*
X159952381Y-94450819D02*
X160142857Y-94450819D01*
X160142857Y-94450819D02*
X160238095Y-94403200D01*
X160238095Y-94403200D02*
X160285714Y-94355580D01*
X160285714Y-94355580D02*
X160333333Y-94260342D01*
X160333333Y-94260342D02*
X160333333Y-94069866D01*
X160333333Y-94069866D02*
X160285714Y-93974628D01*
X160285714Y-93974628D02*
X160238095Y-93927009D01*
X160238095Y-93927009D02*
X160142857Y-93879390D01*
X135334819Y-101738094D02*
X134334819Y-101738094D01*
X134334819Y-101738094D02*
X134334819Y-101499999D01*
X134334819Y-101499999D02*
X134382438Y-101357142D01*
X134382438Y-101357142D02*
X134477676Y-101261904D01*
X134477676Y-101261904D02*
X134572914Y-101214285D01*
X134572914Y-101214285D02*
X134763390Y-101166666D01*
X134763390Y-101166666D02*
X134906247Y-101166666D01*
X134906247Y-101166666D02*
X135096723Y-101214285D01*
X135096723Y-101214285D02*
X135191961Y-101261904D01*
X135191961Y-101261904D02*
X135287200Y-101357142D01*
X135287200Y-101357142D02*
X135334819Y-101499999D01*
X135334819Y-101499999D02*
X135334819Y-101738094D01*
X134430057Y-100785713D02*
X134382438Y-100738094D01*
X134382438Y-100738094D02*
X134334819Y-100642856D01*
X134334819Y-100642856D02*
X134334819Y-100404761D01*
X134334819Y-100404761D02*
X134382438Y-100309523D01*
X134382438Y-100309523D02*
X134430057Y-100261904D01*
X134430057Y-100261904D02*
X134525295Y-100214285D01*
X134525295Y-100214285D02*
X134620533Y-100214285D01*
X134620533Y-100214285D02*
X134763390Y-100261904D01*
X134763390Y-100261904D02*
X135334819Y-100833332D01*
X135334819Y-100833332D02*
X135334819Y-100214285D01*
X135654819Y-105071904D02*
X134654819Y-105071904D01*
X135654819Y-104500476D02*
X135083390Y-104929047D01*
X134654819Y-104500476D02*
X135226247Y-105071904D01*
X168880952Y-111454819D02*
X168404762Y-111454819D01*
X168404762Y-111454819D02*
X168404762Y-110454819D01*
X169214286Y-110931009D02*
X169547619Y-110931009D01*
X169690476Y-111454819D02*
X169214286Y-111454819D01*
X169214286Y-111454819D02*
X169214286Y-110454819D01*
X169214286Y-110454819D02*
X169690476Y-110454819D01*
X170119048Y-111454819D02*
X170119048Y-110454819D01*
X170119048Y-110454819D02*
X170357143Y-110454819D01*
X170357143Y-110454819D02*
X170500000Y-110502438D01*
X170500000Y-110502438D02*
X170595238Y-110597676D01*
X170595238Y-110597676D02*
X170642857Y-110692914D01*
X170642857Y-110692914D02*
X170690476Y-110883390D01*
X170690476Y-110883390D02*
X170690476Y-111026247D01*
X170690476Y-111026247D02*
X170642857Y-111216723D01*
X170642857Y-111216723D02*
X170595238Y-111311961D01*
X170595238Y-111311961D02*
X170500000Y-111407200D01*
X170500000Y-111407200D02*
X170357143Y-111454819D01*
X170357143Y-111454819D02*
X170119048Y-111454819D01*
X171261905Y-110883390D02*
X171166667Y-110835771D01*
X171166667Y-110835771D02*
X171119048Y-110788152D01*
X171119048Y-110788152D02*
X171071429Y-110692914D01*
X171071429Y-110692914D02*
X171071429Y-110645295D01*
X171071429Y-110645295D02*
X171119048Y-110550057D01*
X171119048Y-110550057D02*
X171166667Y-110502438D01*
X171166667Y-110502438D02*
X171261905Y-110454819D01*
X171261905Y-110454819D02*
X171452381Y-110454819D01*
X171452381Y-110454819D02*
X171547619Y-110502438D01*
X171547619Y-110502438D02*
X171595238Y-110550057D01*
X171595238Y-110550057D02*
X171642857Y-110645295D01*
X171642857Y-110645295D02*
X171642857Y-110692914D01*
X171642857Y-110692914D02*
X171595238Y-110788152D01*
X171595238Y-110788152D02*
X171547619Y-110835771D01*
X171547619Y-110835771D02*
X171452381Y-110883390D01*
X171452381Y-110883390D02*
X171261905Y-110883390D01*
X171261905Y-110883390D02*
X171166667Y-110931009D01*
X171166667Y-110931009D02*
X171119048Y-110978628D01*
X171119048Y-110978628D02*
X171071429Y-111073866D01*
X171071429Y-111073866D02*
X171071429Y-111264342D01*
X171071429Y-111264342D02*
X171119048Y-111359580D01*
X171119048Y-111359580D02*
X171166667Y-111407200D01*
X171166667Y-111407200D02*
X171261905Y-111454819D01*
X171261905Y-111454819D02*
X171452381Y-111454819D01*
X171452381Y-111454819D02*
X171547619Y-111407200D01*
X171547619Y-111407200D02*
X171595238Y-111359580D01*
X171595238Y-111359580D02*
X171642857Y-111264342D01*
X171642857Y-111264342D02*
X171642857Y-111073866D01*
X171642857Y-111073866D02*
X171595238Y-110978628D01*
X171595238Y-110978628D02*
X171547619Y-110931009D01*
X171547619Y-110931009D02*
X171452381Y-110883390D01*
X173334819Y-82228094D02*
X172334819Y-82228094D01*
X172334819Y-82228094D02*
X172334819Y-81989999D01*
X172334819Y-81989999D02*
X172382438Y-81847142D01*
X172382438Y-81847142D02*
X172477676Y-81751904D01*
X172477676Y-81751904D02*
X172572914Y-81704285D01*
X172572914Y-81704285D02*
X172763390Y-81656666D01*
X172763390Y-81656666D02*
X172906247Y-81656666D01*
X172906247Y-81656666D02*
X173096723Y-81704285D01*
X173096723Y-81704285D02*
X173191961Y-81751904D01*
X173191961Y-81751904D02*
X173287200Y-81847142D01*
X173287200Y-81847142D02*
X173334819Y-81989999D01*
X173334819Y-81989999D02*
X173334819Y-82228094D01*
X172334819Y-81323332D02*
X172334819Y-80656666D01*
X172334819Y-80656666D02*
X173334819Y-81085237D01*
X173654819Y-85561904D02*
X172654819Y-85561904D01*
X173654819Y-84990476D02*
X173083390Y-85419047D01*
X172654819Y-84990476D02*
X173226247Y-85561904D01*
X168880952Y-92204819D02*
X168404762Y-92204819D01*
X168404762Y-92204819D02*
X168404762Y-91204819D01*
X169214286Y-91681009D02*
X169547619Y-91681009D01*
X169690476Y-92204819D02*
X169214286Y-92204819D01*
X169214286Y-92204819D02*
X169214286Y-91204819D01*
X169214286Y-91204819D02*
X169690476Y-91204819D01*
X170119048Y-92204819D02*
X170119048Y-91204819D01*
X170119048Y-91204819D02*
X170357143Y-91204819D01*
X170357143Y-91204819D02*
X170500000Y-91252438D01*
X170500000Y-91252438D02*
X170595238Y-91347676D01*
X170595238Y-91347676D02*
X170642857Y-91442914D01*
X170642857Y-91442914D02*
X170690476Y-91633390D01*
X170690476Y-91633390D02*
X170690476Y-91776247D01*
X170690476Y-91776247D02*
X170642857Y-91966723D01*
X170642857Y-91966723D02*
X170595238Y-92061961D01*
X170595238Y-92061961D02*
X170500000Y-92157200D01*
X170500000Y-92157200D02*
X170357143Y-92204819D01*
X170357143Y-92204819D02*
X170119048Y-92204819D01*
X171023810Y-91204819D02*
X171690476Y-91204819D01*
X171690476Y-91204819D02*
X171261905Y-92204819D01*
X154334819Y-82738094D02*
X153334819Y-82738094D01*
X153334819Y-82738094D02*
X153334819Y-82499999D01*
X153334819Y-82499999D02*
X153382438Y-82357142D01*
X153382438Y-82357142D02*
X153477676Y-82261904D01*
X153477676Y-82261904D02*
X153572914Y-82214285D01*
X153572914Y-82214285D02*
X153763390Y-82166666D01*
X153763390Y-82166666D02*
X153906247Y-82166666D01*
X153906247Y-82166666D02*
X154096723Y-82214285D01*
X154096723Y-82214285D02*
X154191961Y-82261904D01*
X154191961Y-82261904D02*
X154287200Y-82357142D01*
X154287200Y-82357142D02*
X154334819Y-82499999D01*
X154334819Y-82499999D02*
X154334819Y-82738094D01*
X153668152Y-81309523D02*
X154334819Y-81309523D01*
X153287200Y-81547618D02*
X154001485Y-81785713D01*
X154001485Y-81785713D02*
X154001485Y-81166666D01*
X154654819Y-86071904D02*
X153654819Y-86071904D01*
X154654819Y-85500476D02*
X154083390Y-85929047D01*
X153654819Y-85500476D02*
X154226247Y-86071904D01*
X157666667Y-75363200D02*
X157809524Y-75410819D01*
X157809524Y-75410819D02*
X158047619Y-75410819D01*
X158047619Y-75410819D02*
X158142857Y-75363200D01*
X158142857Y-75363200D02*
X158190476Y-75315580D01*
X158190476Y-75315580D02*
X158238095Y-75220342D01*
X158238095Y-75220342D02*
X158238095Y-75125104D01*
X158238095Y-75125104D02*
X158190476Y-75029866D01*
X158190476Y-75029866D02*
X158142857Y-74982247D01*
X158142857Y-74982247D02*
X158047619Y-74934628D01*
X158047619Y-74934628D02*
X157857143Y-74887009D01*
X157857143Y-74887009D02*
X157761905Y-74839390D01*
X157761905Y-74839390D02*
X157714286Y-74791771D01*
X157714286Y-74791771D02*
X157666667Y-74696533D01*
X157666667Y-74696533D02*
X157666667Y-74601295D01*
X157666667Y-74601295D02*
X157714286Y-74506057D01*
X157714286Y-74506057D02*
X157761905Y-74458438D01*
X157761905Y-74458438D02*
X157857143Y-74410819D01*
X157857143Y-74410819D02*
X158095238Y-74410819D01*
X158095238Y-74410819D02*
X158238095Y-74458438D01*
X158571429Y-74410819D02*
X158809524Y-75410819D01*
X158809524Y-75410819D02*
X159000000Y-74696533D01*
X159000000Y-74696533D02*
X159190476Y-75410819D01*
X159190476Y-75410819D02*
X159428572Y-74410819D01*
X159714286Y-74410819D02*
X160380952Y-74410819D01*
X160380952Y-74410819D02*
X159952381Y-75410819D01*
X154334819Y-120738094D02*
X153334819Y-120738094D01*
X153334819Y-120738094D02*
X153334819Y-120499999D01*
X153334819Y-120499999D02*
X153382438Y-120357142D01*
X153382438Y-120357142D02*
X153477676Y-120261904D01*
X153477676Y-120261904D02*
X153572914Y-120214285D01*
X153572914Y-120214285D02*
X153763390Y-120166666D01*
X153763390Y-120166666D02*
X153906247Y-120166666D01*
X153906247Y-120166666D02*
X154096723Y-120214285D01*
X154096723Y-120214285D02*
X154191961Y-120261904D01*
X154191961Y-120261904D02*
X154287200Y-120357142D01*
X154287200Y-120357142D02*
X154334819Y-120499999D01*
X154334819Y-120499999D02*
X154334819Y-120738094D01*
X153334819Y-119309523D02*
X153334819Y-119499999D01*
X153334819Y-119499999D02*
X153382438Y-119595237D01*
X153382438Y-119595237D02*
X153430057Y-119642856D01*
X153430057Y-119642856D02*
X153572914Y-119738094D01*
X153572914Y-119738094D02*
X153763390Y-119785713D01*
X153763390Y-119785713D02*
X154144342Y-119785713D01*
X154144342Y-119785713D02*
X154239580Y-119738094D01*
X154239580Y-119738094D02*
X154287200Y-119690475D01*
X154287200Y-119690475D02*
X154334819Y-119595237D01*
X154334819Y-119595237D02*
X154334819Y-119404761D01*
X154334819Y-119404761D02*
X154287200Y-119309523D01*
X154287200Y-119309523D02*
X154239580Y-119261904D01*
X154239580Y-119261904D02*
X154144342Y-119214285D01*
X154144342Y-119214285D02*
X153906247Y-119214285D01*
X153906247Y-119214285D02*
X153811009Y-119261904D01*
X153811009Y-119261904D02*
X153763390Y-119309523D01*
X153763390Y-119309523D02*
X153715771Y-119404761D01*
X153715771Y-119404761D02*
X153715771Y-119595237D01*
X153715771Y-119595237D02*
X153763390Y-119690475D01*
X153763390Y-119690475D02*
X153811009Y-119738094D01*
X153811009Y-119738094D02*
X153906247Y-119785713D01*
X154654819Y-124071904D02*
X153654819Y-124071904D01*
X154654819Y-123500476D02*
X154083390Y-123929047D01*
X153654819Y-123500476D02*
X154226247Y-124071904D01*
X149880952Y-111454819D02*
X149404762Y-111454819D01*
X149404762Y-111454819D02*
X149404762Y-110454819D01*
X150214286Y-110931009D02*
X150547619Y-110931009D01*
X150690476Y-111454819D02*
X150214286Y-111454819D01*
X150214286Y-111454819D02*
X150214286Y-110454819D01*
X150214286Y-110454819D02*
X150690476Y-110454819D01*
X151119048Y-111454819D02*
X151119048Y-110454819D01*
X151119048Y-110454819D02*
X151357143Y-110454819D01*
X151357143Y-110454819D02*
X151500000Y-110502438D01*
X151500000Y-110502438D02*
X151595238Y-110597676D01*
X151595238Y-110597676D02*
X151642857Y-110692914D01*
X151642857Y-110692914D02*
X151690476Y-110883390D01*
X151690476Y-110883390D02*
X151690476Y-111026247D01*
X151690476Y-111026247D02*
X151642857Y-111216723D01*
X151642857Y-111216723D02*
X151595238Y-111311961D01*
X151595238Y-111311961D02*
X151500000Y-111407200D01*
X151500000Y-111407200D02*
X151357143Y-111454819D01*
X151357143Y-111454819D02*
X151119048Y-111454819D01*
X152595238Y-110454819D02*
X152119048Y-110454819D01*
X152119048Y-110454819D02*
X152071429Y-110931009D01*
X152071429Y-110931009D02*
X152119048Y-110883390D01*
X152119048Y-110883390D02*
X152214286Y-110835771D01*
X152214286Y-110835771D02*
X152452381Y-110835771D01*
X152452381Y-110835771D02*
X152547619Y-110883390D01*
X152547619Y-110883390D02*
X152595238Y-110931009D01*
X152595238Y-110931009D02*
X152642857Y-111026247D01*
X152642857Y-111026247D02*
X152642857Y-111264342D01*
X152642857Y-111264342D02*
X152595238Y-111359580D01*
X152595238Y-111359580D02*
X152547619Y-111407200D01*
X152547619Y-111407200D02*
X152452381Y-111454819D01*
X152452381Y-111454819D02*
X152214286Y-111454819D01*
X152214286Y-111454819D02*
X152119048Y-111407200D01*
X152119048Y-111407200D02*
X152071429Y-111359580D01*
X138666667Y-113443200D02*
X138809524Y-113490819D01*
X138809524Y-113490819D02*
X139047619Y-113490819D01*
X139047619Y-113490819D02*
X139142857Y-113443200D01*
X139142857Y-113443200D02*
X139190476Y-113395580D01*
X139190476Y-113395580D02*
X139238095Y-113300342D01*
X139238095Y-113300342D02*
X139238095Y-113205104D01*
X139238095Y-113205104D02*
X139190476Y-113109866D01*
X139190476Y-113109866D02*
X139142857Y-113062247D01*
X139142857Y-113062247D02*
X139047619Y-113014628D01*
X139047619Y-113014628D02*
X138857143Y-112967009D01*
X138857143Y-112967009D02*
X138761905Y-112919390D01*
X138761905Y-112919390D02*
X138714286Y-112871771D01*
X138714286Y-112871771D02*
X138666667Y-112776533D01*
X138666667Y-112776533D02*
X138666667Y-112681295D01*
X138666667Y-112681295D02*
X138714286Y-112586057D01*
X138714286Y-112586057D02*
X138761905Y-112538438D01*
X138761905Y-112538438D02*
X138857143Y-112490819D01*
X138857143Y-112490819D02*
X139095238Y-112490819D01*
X139095238Y-112490819D02*
X139238095Y-112538438D01*
X139571429Y-112490819D02*
X139809524Y-113490819D01*
X139809524Y-113490819D02*
X140000000Y-112776533D01*
X140000000Y-112776533D02*
X140190476Y-113490819D01*
X140190476Y-113490819D02*
X140428572Y-112490819D01*
X141238095Y-112490819D02*
X141047619Y-112490819D01*
X141047619Y-112490819D02*
X140952381Y-112538438D01*
X140952381Y-112538438D02*
X140904762Y-112586057D01*
X140904762Y-112586057D02*
X140809524Y-112728914D01*
X140809524Y-112728914D02*
X140761905Y-112919390D01*
X140761905Y-112919390D02*
X140761905Y-113300342D01*
X140761905Y-113300342D02*
X140809524Y-113395580D01*
X140809524Y-113395580D02*
X140857143Y-113443200D01*
X140857143Y-113443200D02*
X140952381Y-113490819D01*
X140952381Y-113490819D02*
X141142857Y-113490819D01*
X141142857Y-113490819D02*
X141238095Y-113443200D01*
X141238095Y-113443200D02*
X141285714Y-113395580D01*
X141285714Y-113395580D02*
X141333333Y-113300342D01*
X141333333Y-113300342D02*
X141333333Y-113062247D01*
X141333333Y-113062247D02*
X141285714Y-112967009D01*
X141285714Y-112967009D02*
X141238095Y-112919390D01*
X141238095Y-112919390D02*
X141142857Y-112871771D01*
X141142857Y-112871771D02*
X140952381Y-112871771D01*
X140952381Y-112871771D02*
X140857143Y-112919390D01*
X140857143Y-112919390D02*
X140809524Y-112967009D01*
X140809524Y-112967009D02*
X140761905Y-113062247D01*
X119666667Y-94407200D02*
X119809524Y-94454819D01*
X119809524Y-94454819D02*
X120047619Y-94454819D01*
X120047619Y-94454819D02*
X120142857Y-94407200D01*
X120142857Y-94407200D02*
X120190476Y-94359580D01*
X120190476Y-94359580D02*
X120238095Y-94264342D01*
X120238095Y-94264342D02*
X120238095Y-94169104D01*
X120238095Y-94169104D02*
X120190476Y-94073866D01*
X120190476Y-94073866D02*
X120142857Y-94026247D01*
X120142857Y-94026247D02*
X120047619Y-93978628D01*
X120047619Y-93978628D02*
X119857143Y-93931009D01*
X119857143Y-93931009D02*
X119761905Y-93883390D01*
X119761905Y-93883390D02*
X119714286Y-93835771D01*
X119714286Y-93835771D02*
X119666667Y-93740533D01*
X119666667Y-93740533D02*
X119666667Y-93645295D01*
X119666667Y-93645295D02*
X119714286Y-93550057D01*
X119714286Y-93550057D02*
X119761905Y-93502438D01*
X119761905Y-93502438D02*
X119857143Y-93454819D01*
X119857143Y-93454819D02*
X120095238Y-93454819D01*
X120095238Y-93454819D02*
X120238095Y-93502438D01*
X120571429Y-93454819D02*
X120809524Y-94454819D01*
X120809524Y-94454819D02*
X121000000Y-93740533D01*
X121000000Y-93740533D02*
X121190476Y-94454819D01*
X121190476Y-94454819D02*
X121428572Y-93454819D01*
X121761905Y-93550057D02*
X121809524Y-93502438D01*
X121809524Y-93502438D02*
X121904762Y-93454819D01*
X121904762Y-93454819D02*
X122142857Y-93454819D01*
X122142857Y-93454819D02*
X122238095Y-93502438D01*
X122238095Y-93502438D02*
X122285714Y-93550057D01*
X122285714Y-93550057D02*
X122333333Y-93645295D01*
X122333333Y-93645295D02*
X122333333Y-93740533D01*
X122333333Y-93740533D02*
X122285714Y-93883390D01*
X122285714Y-93883390D02*
X121714286Y-94454819D01*
X121714286Y-94454819D02*
X122333333Y-94454819D01*
D11*
%TO.C,SW0*%
X157200000Y-51400000D02*
X157800000Y-51400000D01*
X157500000Y-51700000D02*
X157200000Y-51400000D01*
X157800000Y-51400000D02*
X157500000Y-51700000D01*
X158900000Y-49600000D02*
X158900000Y-61400000D01*
X163000000Y-49600000D02*
X158900000Y-49600000D01*
X163000000Y-61400000D02*
X158900000Y-61400000D01*
X164500000Y-55500000D02*
X165500000Y-55500000D01*
X165000000Y-55000000D02*
X165000000Y-56000000D01*
X167000000Y-49600000D02*
X171100000Y-49600000D01*
X171100000Y-49600000D02*
X171100000Y-52000000D01*
X171100000Y-54200000D02*
X171100000Y-56800000D01*
X171100000Y-59000000D02*
X171100000Y-61400000D01*
X171100000Y-61400000D02*
X167000000Y-61400000D01*
X168000000Y-55500000D02*
G75*
G02*
X162000000Y-55500000I-3000000J0D01*
G01*
X162000000Y-55500000D02*
G75*
G02*
X168000000Y-55500000I3000000J0D01*
G01*
D12*
%TO.C,O1*%
X154500000Y-63000000D02*
X154500000Y-51000000D01*
X154500000Y-51000000D02*
X116500000Y-51000000D01*
X151000000Y-63000000D02*
X151000000Y-51000000D01*
X121500000Y-63000000D02*
X121500000Y-51000000D01*
X116500000Y-63000000D02*
X154500000Y-63000000D01*
X116500000Y-51000000D02*
X116500000Y-63000000D01*
D11*
%TO.C,SW5*%
X138875000Y-94895000D02*
X152845000Y-94895000D01*
X138875000Y-108865000D02*
X138875000Y-94895000D01*
X152845000Y-94895000D02*
X152845000Y-108865000D01*
X152845000Y-108865000D02*
X138875000Y-108865000D01*
%TO.C,LED9*%
X162450000Y-128725000D02*
X162450000Y-132125000D01*
X162450000Y-128725000D02*
X163050000Y-128125000D01*
X168050000Y-128125000D02*
X163050000Y-128125000D01*
X168050000Y-132125000D02*
X162450000Y-132125000D01*
X168050000Y-132125000D02*
X168050000Y-128125000D01*
%TO.C,SW4*%
X138945000Y-75855000D02*
X152915000Y-75855000D01*
X138945000Y-89825000D02*
X138945000Y-75855000D01*
X152915000Y-75855000D02*
X152915000Y-89825000D01*
X152915000Y-89825000D02*
X138945000Y-89825000D01*
%TO.C,LED2*%
X124450000Y-109600000D02*
X124450000Y-113000000D01*
X124450000Y-109600000D02*
X125050000Y-109000000D01*
X130050000Y-109000000D02*
X125050000Y-109000000D01*
X130050000Y-113000000D02*
X124450000Y-113000000D01*
X130050000Y-113000000D02*
X130050000Y-109000000D01*
%TO.C,SW3*%
X119845000Y-113925000D02*
X133815000Y-113925000D01*
X119845000Y-127895000D02*
X119845000Y-113925000D01*
X133815000Y-113925000D02*
X133815000Y-127895000D01*
X133815000Y-127895000D02*
X119845000Y-127895000D01*
%TO.C,LED4*%
X143200000Y-128000000D02*
X143200000Y-132000000D01*
X143200000Y-128000000D02*
X148800000Y-128000000D01*
X143200000Y-132000000D02*
X148200000Y-132000000D01*
X148800000Y-131400000D02*
X148200000Y-132000000D01*
X148800000Y-131400000D02*
X148800000Y-128000000D01*
%TO.C,LED6*%
X143200000Y-90000000D02*
X143200000Y-94000000D01*
X143200000Y-90000000D02*
X148800000Y-90000000D01*
X143200000Y-94000000D02*
X148200000Y-94000000D01*
X148800000Y-93400000D02*
X148200000Y-94000000D01*
X148800000Y-93400000D02*
X148800000Y-90000000D01*
%TO.C,D3*%
X135880000Y-121280000D02*
X138120000Y-121280000D01*
X135880000Y-121400000D02*
X138120000Y-121400000D01*
X135880000Y-121520000D02*
X138120000Y-121520000D01*
X137000000Y-117230000D02*
X137000000Y-117880000D01*
X137000000Y-122770000D02*
X137000000Y-122120000D01*
X135880000Y-122120000D02*
X138120000Y-122120000D01*
X138120000Y-117880000D01*
X135880000Y-117880000D01*
X135880000Y-122120000D01*
%TO.C,SW1*%
X119855000Y-75855000D02*
X133825000Y-75855000D01*
X119855000Y-89825000D02*
X119855000Y-75855000D01*
X133825000Y-75855000D02*
X133825000Y-89825000D01*
X133825000Y-89825000D02*
X119855000Y-89825000D01*
%TO.C,D9*%
X173880000Y-121090000D02*
X176120000Y-121090000D01*
X173880000Y-121210000D02*
X176120000Y-121210000D01*
X173880000Y-121330000D02*
X176120000Y-121330000D01*
X175000000Y-117040000D02*
X175000000Y-117690000D01*
X175000000Y-122580000D02*
X175000000Y-121930000D01*
X173880000Y-121930000D02*
X176120000Y-121930000D01*
X176120000Y-117690000D01*
X173880000Y-117690000D01*
X173880000Y-121930000D01*
%TO.C,D1*%
X135880000Y-83090000D02*
X138120000Y-83090000D01*
X135880000Y-83210000D02*
X138120000Y-83210000D01*
X135880000Y-83330000D02*
X138120000Y-83330000D01*
X137000000Y-79040000D02*
X137000000Y-79690000D01*
X137000000Y-84580000D02*
X137000000Y-83930000D01*
X135880000Y-83930000D02*
X138120000Y-83930000D01*
X138120000Y-79690000D01*
X135880000Y-79690000D01*
X135880000Y-83930000D01*
%TO.C,D5*%
X154880000Y-102280000D02*
X157120000Y-102280000D01*
X154880000Y-102400000D02*
X157120000Y-102400000D01*
X154880000Y-102520000D02*
X157120000Y-102520000D01*
X156000000Y-98230000D02*
X156000000Y-98880000D01*
X156000000Y-103770000D02*
X156000000Y-103120000D01*
X154880000Y-103120000D02*
X157120000Y-103120000D01*
X157120000Y-98880000D01*
X154880000Y-98880000D01*
X154880000Y-103120000D01*
%TO.C,LED3*%
X124200000Y-128600000D02*
X124200000Y-132000000D01*
X124200000Y-128600000D02*
X124800000Y-128000000D01*
X129800000Y-128000000D02*
X124800000Y-128000000D01*
X129800000Y-132000000D02*
X124200000Y-132000000D01*
X129800000Y-132000000D02*
X129800000Y-128000000D01*
%TO.C,D8*%
X173880000Y-102090000D02*
X176120000Y-102090000D01*
X173880000Y-102210000D02*
X176120000Y-102210000D01*
X173880000Y-102330000D02*
X176120000Y-102330000D01*
X175000000Y-98040000D02*
X175000000Y-98690000D01*
X175000000Y-103580000D02*
X175000000Y-102930000D01*
X173880000Y-102930000D02*
X176120000Y-102930000D01*
X176120000Y-98690000D01*
X173880000Y-98690000D01*
X173880000Y-102930000D01*
%TO.C,SW9*%
X158025000Y-113925000D02*
X171995000Y-113925000D01*
X158025000Y-127895000D02*
X158025000Y-113925000D01*
X171995000Y-113925000D02*
X171995000Y-127895000D01*
X171995000Y-127895000D02*
X158025000Y-127895000D01*
%TO.C,LED1*%
X124200000Y-90600000D02*
X124200000Y-94000000D01*
X124200000Y-90600000D02*
X124800000Y-90000000D01*
X129800000Y-90000000D02*
X124800000Y-90000000D01*
X129800000Y-94000000D02*
X124200000Y-94000000D01*
X129800000Y-94000000D02*
X129800000Y-90000000D01*
%TO.C,SW8*%
X157995000Y-94885000D02*
X171965000Y-94885000D01*
X157995000Y-108855000D02*
X157995000Y-94885000D01*
X171965000Y-94885000D02*
X171965000Y-108855000D01*
X171965000Y-108855000D02*
X157995000Y-108855000D01*
%TO.C,D2*%
X135880000Y-102280000D02*
X138120000Y-102280000D01*
X135880000Y-102400000D02*
X138120000Y-102400000D01*
X135880000Y-102520000D02*
X138120000Y-102520000D01*
X137000000Y-98230000D02*
X137000000Y-98880000D01*
X137000000Y-103770000D02*
X137000000Y-103120000D01*
X135880000Y-103120000D02*
X138120000Y-103120000D01*
X138120000Y-98880000D01*
X135880000Y-98880000D01*
X135880000Y-103120000D01*
%TO.C,LED8*%
X162200000Y-109600000D02*
X162200000Y-113000000D01*
X162200000Y-109600000D02*
X162800000Y-109000000D01*
X167800000Y-109000000D02*
X162800000Y-109000000D01*
X167800000Y-113000000D02*
X162200000Y-113000000D01*
X167800000Y-113000000D02*
X167800000Y-109000000D01*
%TO.C,D7*%
X173880000Y-82770000D02*
X176120000Y-82770000D01*
X173880000Y-82890000D02*
X176120000Y-82890000D01*
X173880000Y-83010000D02*
X176120000Y-83010000D01*
X175000000Y-78720000D02*
X175000000Y-79370000D01*
X175000000Y-84260000D02*
X175000000Y-83610000D01*
X173880000Y-83610000D02*
X176120000Y-83610000D01*
X176120000Y-79370000D01*
X173880000Y-79370000D01*
X173880000Y-83610000D01*
%TO.C,LED7*%
X162450000Y-90475000D02*
X162450000Y-93875000D01*
X162450000Y-90475000D02*
X163050000Y-89875000D01*
X168050000Y-89875000D02*
X163050000Y-89875000D01*
X168050000Y-93875000D02*
X162450000Y-93875000D01*
X168050000Y-93875000D02*
X168050000Y-89875000D01*
%TO.C,D4*%
X154880000Y-83280000D02*
X157120000Y-83280000D01*
X154880000Y-83400000D02*
X157120000Y-83400000D01*
X154880000Y-83520000D02*
X157120000Y-83520000D01*
X156000000Y-79230000D02*
X156000000Y-79880000D01*
X156000000Y-84770000D02*
X156000000Y-84120000D01*
X154880000Y-84120000D02*
X157120000Y-84120000D01*
X157120000Y-79880000D01*
X154880000Y-79880000D01*
X154880000Y-84120000D01*
%TO.C,SW7*%
X157995000Y-75845000D02*
X171965000Y-75845000D01*
X157995000Y-89815000D02*
X157995000Y-75845000D01*
X171965000Y-75845000D02*
X171965000Y-89815000D01*
X171965000Y-89815000D02*
X157995000Y-89815000D01*
%TO.C,D6*%
X154880000Y-121280000D02*
X157120000Y-121280000D01*
X154880000Y-121400000D02*
X157120000Y-121400000D01*
X154880000Y-121520000D02*
X157120000Y-121520000D01*
X156000000Y-117230000D02*
X156000000Y-117880000D01*
X156000000Y-122770000D02*
X156000000Y-122120000D01*
X154880000Y-122120000D02*
X157120000Y-122120000D01*
X157120000Y-117880000D01*
X154880000Y-117880000D01*
X154880000Y-122120000D01*
%TO.C,LED5*%
X143200000Y-109875000D02*
X143200000Y-113875000D01*
X143200000Y-109875000D02*
X148800000Y-109875000D01*
X143200000Y-113875000D02*
X148200000Y-113875000D01*
X148800000Y-113275000D02*
X148200000Y-113875000D01*
X148800000Y-113275000D02*
X148800000Y-109875000D01*
%TO.C,SW6*%
X138875000Y-113925000D02*
X152845000Y-113925000D01*
X138875000Y-127895000D02*
X138875000Y-113925000D01*
X152845000Y-113925000D02*
X152845000Y-127895000D01*
X152845000Y-127895000D02*
X138875000Y-127895000D01*
%TO.C,SW2*%
X119855000Y-94905000D02*
X133825000Y-94905000D01*
X119855000Y-108875000D02*
X119855000Y-94905000D01*
X133825000Y-94905000D02*
X133825000Y-108875000D01*
X133825000Y-108875000D02*
X119855000Y-108875000D01*
%TD*%
M02*
