%TF.GenerationSoftware,KiCad,Pcbnew,9.0.7*%
%TF.CreationDate,2026-02-07T02:01:37-05:00*%
%TF.ProjectId,Keypad,4b657970-6164-42e6-9b69-6361645f7063,rev?*%
%TF.SameCoordinates,Original*%
%TF.FileFunction,Soldermask,Top*%
%TF.FilePolarity,Negative*%
%FSLAX46Y46*%
G04 Gerber Fmt 4.6, Leading zero omitted, Abs format (unit mm)*
G04 Created by KiCad (PCBNEW 9.0.7) date 2026-02-07 02:01:37*
%MOMM*%
%LPD*%
G01*
G04 APERTURE LIST*
G04 Aperture macros list*
%AMRoundRect*
0 Rectangle with rounded corners*
0 $1 Rounding radius*
0 $2 $3 $4 $5 $6 $7 $8 $9 X,Y pos of 4 corners*
0 Add a 4 corners polygon primitive as box body*
4,1,4,$2,$3,$4,$5,$6,$7,$8,$9,$2,$3,0*
0 Add four circle primitives for the rounded corners*
1,1,$1+$1,$2,$3*
1,1,$1+$1,$4,$5*
1,1,$1+$1,$6,$7*
1,1,$1+$1,$8,$9*
0 Add four rect primitives between the rounded corners*
20,1,$1+$1,$2,$3,$4,$5,0*
20,1,$1+$1,$4,$5,$6,$7,0*
20,1,$1+$1,$6,$7,$8,$9,0*
20,1,$1+$1,$8,$9,$2,$3,0*%
G04 Aperture macros list end*
%ADD10C,1.524000*%
%ADD11R,2.000000X2.000000*%
%ADD12C,2.000000*%
%ADD13R,3.200000X2.000000*%
%ADD14O,1.700000X1.700000*%
%ADD15R,1.700000X1.700000*%
%ADD16C,1.700000*%
%ADD17C,4.000000*%
%ADD18C,2.200000*%
%ADD19C,3.200000*%
%ADD20R,1.600000X0.850000*%
%ADD21RoundRect,0.250000X0.550000X-0.550000X0.550000X0.550000X-0.550000X0.550000X-0.550000X-0.550000X0*%
%ADD22C,1.600000*%
G04 APERTURE END LIST*
D10*
%TO.C,U1*%
X138380000Y-50880000D03*
X138380000Y-53420000D03*
X138380000Y-55960000D03*
X138380000Y-58500000D03*
X138380000Y-61040000D03*
X138380000Y-63580000D03*
X138380000Y-66120000D03*
X153620000Y-66120000D03*
X153620000Y-63580000D03*
X153620000Y-61040000D03*
X153620000Y-58500000D03*
X153620000Y-55960000D03*
X153620000Y-53420000D03*
X153620000Y-50880000D03*
%TD*%
D11*
%TO.C,SW0*%
X157500000Y-53000000D03*
D12*
X157500000Y-58000000D03*
X157500000Y-55500000D03*
D13*
X165000000Y-49900000D03*
X165000000Y-61100000D03*
D12*
X172000000Y-58000000D03*
X172000000Y-53000000D03*
%TD*%
D14*
%TO.C,O1*%
X118000000Y-53190000D03*
X118000000Y-55730000D03*
X118000000Y-58270000D03*
D15*
X118000000Y-60810000D03*
%TD*%
D16*
%TO.C,SW5*%
X140780000Y-101880000D03*
D17*
X145860000Y-101880000D03*
D16*
X150940000Y-101880000D03*
D18*
X148400000Y-96800000D03*
X142050000Y-99340000D03*
%TD*%
D19*
%TO.C,REF\u002A\u002A*%
X116000000Y-130000000D03*
%TD*%
D20*
%TO.C,LED9*%
X167000000Y-131000000D03*
X167000000Y-129250000D03*
X163500000Y-129250000D03*
X163500000Y-131000000D03*
%TD*%
D16*
%TO.C,SW4*%
X140850000Y-82840000D03*
D17*
X145930000Y-82840000D03*
D16*
X151010000Y-82840000D03*
D18*
X148470000Y-77760000D03*
X142120000Y-80300000D03*
%TD*%
D20*
%TO.C,LED2*%
X129000000Y-111875000D03*
X129000000Y-110125000D03*
X125500000Y-110125000D03*
X125500000Y-111875000D03*
%TD*%
D16*
%TO.C,SW3*%
X121750000Y-120910000D03*
D17*
X126830000Y-120910000D03*
D16*
X131910000Y-120910000D03*
D18*
X129370000Y-115830000D03*
X123020000Y-118370000D03*
%TD*%
D20*
%TO.C,LED4*%
X144250000Y-129125000D03*
X144250000Y-130875000D03*
X147750000Y-130875000D03*
X147750000Y-129125000D03*
%TD*%
%TO.C,LED6*%
X144250000Y-91125000D03*
X144250000Y-92875000D03*
X147750000Y-92875000D03*
X147750000Y-91125000D03*
%TD*%
D21*
%TO.C,D3*%
X137000000Y-123810000D03*
D22*
X137000000Y-116190000D03*
%TD*%
D16*
%TO.C,SW1*%
X121760000Y-82840000D03*
D17*
X126840000Y-82840000D03*
D16*
X131920000Y-82840000D03*
D18*
X129380000Y-77760000D03*
X123030000Y-80300000D03*
%TD*%
D21*
%TO.C,D9*%
X175000000Y-123620000D03*
D22*
X175000000Y-116000000D03*
%TD*%
D21*
%TO.C,D1*%
X137000000Y-85620000D03*
D22*
X137000000Y-78000000D03*
%TD*%
D21*
%TO.C,D5*%
X156000000Y-104810000D03*
D22*
X156000000Y-97190000D03*
%TD*%
D20*
%TO.C,LED3*%
X128750000Y-130875000D03*
X128750000Y-129125000D03*
X125250000Y-129125000D03*
X125250000Y-130875000D03*
%TD*%
D21*
%TO.C,D8*%
X175000000Y-104620000D03*
D22*
X175000000Y-97000000D03*
%TD*%
D16*
%TO.C,SW9*%
X159930000Y-120910000D03*
D17*
X165010000Y-120910000D03*
D16*
X170090000Y-120910000D03*
D18*
X167550000Y-115830000D03*
X161200000Y-118370000D03*
%TD*%
D20*
%TO.C,LED1*%
X128750000Y-92875000D03*
X128750000Y-91125000D03*
X125250000Y-91125000D03*
X125250000Y-92875000D03*
%TD*%
D16*
%TO.C,SW8*%
X159900000Y-101870000D03*
D17*
X164980000Y-101870000D03*
D16*
X170060000Y-101870000D03*
D18*
X167520000Y-96790000D03*
X161170000Y-99330000D03*
%TD*%
D21*
%TO.C,D2*%
X137000000Y-104810000D03*
D22*
X137000000Y-97190000D03*
%TD*%
D20*
%TO.C,LED8*%
X166750000Y-111875000D03*
X166750000Y-110125000D03*
X163250000Y-110125000D03*
X163250000Y-111875000D03*
%TD*%
D21*
%TO.C,D7*%
X175000000Y-85300000D03*
D22*
X175000000Y-77680000D03*
%TD*%
D20*
%TO.C,LED7*%
X167000000Y-92750000D03*
X167000000Y-91000000D03*
X163500000Y-91000000D03*
X163500000Y-92750000D03*
%TD*%
D21*
%TO.C,D4*%
X156000000Y-85810000D03*
D22*
X156000000Y-78190000D03*
%TD*%
D16*
%TO.C,SW7*%
X159900000Y-82830000D03*
D17*
X164980000Y-82830000D03*
D16*
X170060000Y-82830000D03*
D18*
X167520000Y-77750000D03*
X161170000Y-80290000D03*
%TD*%
D19*
%TO.C,REF\u002A\u002A*%
X176000000Y-130000000D03*
%TD*%
D21*
%TO.C,D6*%
X156000000Y-123810000D03*
D22*
X156000000Y-116190000D03*
%TD*%
D20*
%TO.C,LED5*%
X144250000Y-111000000D03*
X144250000Y-112750000D03*
X147750000Y-112750000D03*
X147750000Y-111000000D03*
%TD*%
D16*
%TO.C,SW6*%
X140780000Y-120910000D03*
D17*
X145860000Y-120910000D03*
D16*
X150940000Y-120910000D03*
D18*
X148400000Y-115830000D03*
X142050000Y-118370000D03*
%TD*%
D16*
%TO.C,SW2*%
X121760000Y-101890000D03*
D17*
X126840000Y-101890000D03*
D16*
X131920000Y-101890000D03*
D18*
X129380000Y-96810000D03*
X123030000Y-99350000D03*
%TD*%
M02*
