%TF.GenerationSoftware,KiCad,Pcbnew,9.0.7*%
%TF.CreationDate,2026-02-07T01:08:28-05:00*%
%TF.ProjectId,Keypad,4b657970-6164-42e6-9b69-6361645f7063,rev?*%
%TF.SameCoordinates,Original*%
%TF.FileFunction,Copper,L2,Bot*%
%TF.FilePolarity,Positive*%
%FSLAX46Y46*%
G04 Gerber Fmt 4.6, Leading zero omitted, Abs format (unit mm)*
G04 Created by KiCad (PCBNEW 9.0.7) date 2026-02-07 01:08:28*
%MOMM*%
%LPD*%
G01*
G04 APERTURE LIST*
G04 Aperture macros list*
%AMRoundRect*
0 Rectangle with rounded corners*
0 $1 Rounding radius*
0 $2 $3 $4 $5 $6 $7 $8 $9 X,Y pos of 4 corners*
0 Add a 4 corners polygon primitive as box body*
4,1,4,$2,$3,$4,$5,$6,$7,$8,$9,$2,$3,0*
0 Add four circle primitives for the rounded corners*
1,1,$1+$1,$2,$3*
1,1,$1+$1,$4,$5*
1,1,$1+$1,$6,$7*
1,1,$1+$1,$8,$9*
0 Add four rect primitives between the rounded corners*
20,1,$1+$1,$2,$3,$4,$5,0*
20,1,$1+$1,$4,$5,$6,$7,0*
20,1,$1+$1,$6,$7,$8,$9,0*
20,1,$1+$1,$8,$9,$2,$3,0*%
G04 Aperture macros list end*
%TA.AperFunction,ComponentPad*%
%ADD10C,2.200000*%
%TD*%
%TA.AperFunction,ComponentPad*%
%ADD11R,2.000000X2.000000*%
%TD*%
%TA.AperFunction,ComponentPad*%
%ADD12C,2.000000*%
%TD*%
%TA.AperFunction,ComponentPad*%
%ADD13R,3.200000X2.000000*%
%TD*%
%TA.AperFunction,ComponentPad*%
%ADD14RoundRect,0.250000X0.550000X-0.550000X0.550000X0.550000X-0.550000X0.550000X-0.550000X-0.550000X0*%
%TD*%
%TA.AperFunction,ComponentPad*%
%ADD15C,1.600000*%
%TD*%
%TA.AperFunction,ComponentPad*%
%ADD16R,1.700000X1.700000*%
%TD*%
%TA.AperFunction,ComponentPad*%
%ADD17O,1.700000X1.700000*%
%TD*%
%TA.AperFunction,SMDPad,CuDef*%
%ADD18RoundRect,0.152400X-1.063600X-0.609600X1.063600X-0.609600X1.063600X0.609600X-1.063600X0.609600X0*%
%TD*%
%TA.AperFunction,ComponentPad*%
%ADD19C,1.524000*%
%TD*%
%TA.AperFunction,SMDPad,CuDef*%
%ADD20RoundRect,0.152400X1.063600X0.609600X-1.063600X0.609600X-1.063600X-0.609600X1.063600X-0.609600X0*%
%TD*%
%TA.AperFunction,ViaPad*%
%ADD21C,1.000000*%
%TD*%
%TA.AperFunction,Conductor*%
%ADD22C,0.200000*%
%TD*%
G04 APERTURE END LIST*
D10*
%TO.P,SW5,1,1*%
%TO.N,Net-(D5-A)*%
X148400000Y-96800000D03*
%TO.P,SW5,2,2*%
%TO.N,Net-(U1-GPIO2{slash}SCK)*%
X142050000Y-99340000D03*
%TD*%
%TO.P,SW4,1,1*%
%TO.N,Net-(D4-A)*%
X148470000Y-77760000D03*
%TO.P,SW4,2,2*%
%TO.N,Net-(U1-GPIO2{slash}SCK)*%
X142120000Y-80300000D03*
%TD*%
%TO.P,SW3,1,1*%
%TO.N,Net-(D3-A)*%
X129370000Y-115830000D03*
%TO.P,SW3,2,2*%
%TO.N,Net-(U1-GPIO3{slash}MOSI)*%
X123020000Y-118370000D03*
%TD*%
D11*
%TO.P,SW0,A,A*%
%TO.N,Net-(U1-GPIO29{slash}ADC3{slash}A3)*%
X158000000Y-58000000D03*
D12*
%TO.P,SW0,B,B*%
%TO.N,Net-(U1-GPIO28{slash}ADC2{slash}A2)*%
X158000000Y-63000000D03*
%TO.P,SW0,C,C*%
%TO.N,GND*%
X158000000Y-60500000D03*
D13*
%TO.P,SW0,MP*%
%TO.N,N/C*%
X165500000Y-54900000D03*
X165500000Y-66100000D03*
D12*
%TO.P,SW0,S1,S1*%
%TO.N,unconnected-(SW0-PadS1)*%
X172500000Y-63000000D03*
%TO.P,SW0,S2,S2*%
%TO.N,unconnected-(SW0-PadS2)*%
X172500000Y-58000000D03*
%TD*%
D14*
%TO.P,D3,1,K*%
%TO.N,Net-(D3-K)*%
X137000000Y-123810000D03*
D15*
%TO.P,D3,2,A*%
%TO.N,Net-(D3-A)*%
X137000000Y-116190000D03*
%TD*%
D10*
%TO.P,SW1,1,1*%
%TO.N,Net-(D1-A)*%
X129380000Y-77760000D03*
%TO.P,SW1,2,2*%
%TO.N,Net-(U1-GPIO3{slash}MOSI)*%
X123030000Y-80300000D03*
%TD*%
D14*
%TO.P,D9,1,K*%
%TO.N,Net-(D3-K)*%
X175000000Y-123620000D03*
D15*
%TO.P,D9,2,A*%
%TO.N,Net-(D9-A)*%
X175000000Y-116000000D03*
%TD*%
D14*
%TO.P,D1,1,K*%
%TO.N,Net-(D1-K)*%
X137000000Y-85620000D03*
D15*
%TO.P,D1,2,A*%
%TO.N,Net-(D1-A)*%
X137000000Y-78000000D03*
%TD*%
D14*
%TO.P,D5,1,K*%
%TO.N,Net-(D2-K)*%
X156000000Y-104810000D03*
D15*
%TO.P,D5,2,A*%
%TO.N,Net-(D5-A)*%
X156000000Y-97190000D03*
%TD*%
D14*
%TO.P,D8,1,K*%
%TO.N,Net-(D2-K)*%
X175000000Y-104620000D03*
D15*
%TO.P,D8,2,A*%
%TO.N,Net-(D8-A)*%
X175000000Y-97000000D03*
%TD*%
D10*
%TO.P,SW9,1,1*%
%TO.N,Net-(D9-A)*%
X167550000Y-115830000D03*
%TO.P,SW9,2,2*%
%TO.N,Net-(U1-GPIO4{slash}MISO)*%
X161200000Y-118370000D03*
%TD*%
D16*
%TO.P,O1,1,Pin_1*%
%TO.N,GND*%
X118900000Y-65810000D03*
D17*
%TO.P,O1,2,Pin_2*%
%TO.N,3V3*%
X118900000Y-63270000D03*
%TO.P,O1,3,Pin_3*%
%TO.N,Net-(O1-Pin_3)*%
X118900000Y-60730000D03*
%TO.P,O1,4,Pin_4*%
%TO.N,Net-(O1-Pin_4)*%
X118900000Y-58190000D03*
%TD*%
D10*
%TO.P,SW8,1,1*%
%TO.N,Net-(D8-A)*%
X167520000Y-96790000D03*
%TO.P,SW8,2,2*%
%TO.N,Net-(U1-GPIO4{slash}MISO)*%
X161170000Y-99330000D03*
%TD*%
D14*
%TO.P,D2,1,K*%
%TO.N,Net-(D2-K)*%
X137000000Y-104810000D03*
D15*
%TO.P,D2,2,A*%
%TO.N,Net-(D2-A)*%
X137000000Y-97190000D03*
%TD*%
D14*
%TO.P,D7,1,K*%
%TO.N,Net-(D1-K)*%
X175000000Y-85300000D03*
D15*
%TO.P,D7,2,A*%
%TO.N,Net-(D7-A)*%
X175000000Y-77680000D03*
%TD*%
D14*
%TO.P,D4,1,K*%
%TO.N,Net-(D1-K)*%
X156000000Y-85810000D03*
D15*
%TO.P,D4,2,A*%
%TO.N,Net-(D4-A)*%
X156000000Y-78190000D03*
%TD*%
D10*
%TO.P,SW7,1,1*%
%TO.N,Net-(D7-A)*%
X167520000Y-77750000D03*
%TO.P,SW7,2,2*%
%TO.N,Net-(U1-GPIO4{slash}MISO)*%
X161170000Y-80290000D03*
%TD*%
D14*
%TO.P,D6,1,K*%
%TO.N,Net-(D3-K)*%
X156000000Y-123810000D03*
D15*
%TO.P,D6,2,A*%
%TO.N,Net-(D6-A)*%
X156000000Y-116190000D03*
%TD*%
D10*
%TO.P,SW6,1,1*%
%TO.N,Net-(D6-A)*%
X148400000Y-115830000D03*
%TO.P,SW6,2,2*%
%TO.N,Net-(U1-GPIO2{slash}SCK)*%
X142050000Y-118370000D03*
%TD*%
%TO.P,SW2,1,1*%
%TO.N,Net-(D2-A)*%
X129380000Y-96810000D03*
%TO.P,SW2,2,2*%
%TO.N,Net-(U1-GPIO3{slash}MOSI)*%
X123030000Y-99350000D03*
%TD*%
D18*
%TO.P,U1,1,GPIO26/ADC0/A0*%
%TO.N,Net-(D3-K)*%
X154455000Y-53000000D03*
D19*
X153620000Y-53000000D03*
D18*
%TO.P,U1,2,GPIO27/ADC1/A1*%
%TO.N,Net-(D2-K)*%
X154455000Y-55540000D03*
D19*
X153620000Y-55540000D03*
D18*
%TO.P,U1,3,GPIO28/ADC2/A2*%
%TO.N,Net-(U1-GPIO28{slash}ADC2{slash}A2)*%
X154455000Y-58080000D03*
D19*
X153620000Y-58080000D03*
D18*
%TO.P,U1,4,GPIO29/ADC3/A3*%
%TO.N,Net-(U1-GPIO29{slash}ADC3{slash}A3)*%
X154455000Y-60620000D03*
D19*
X153620000Y-60620000D03*
D18*
%TO.P,U1,5,GPIO6/SDA*%
%TO.N,Net-(O1-Pin_4)*%
X154455000Y-63160000D03*
D19*
X153620000Y-63160000D03*
D18*
%TO.P,U1,6,GPIO7/SCL*%
%TO.N,Net-(O1-Pin_3)*%
X154455000Y-65700000D03*
D19*
X153620000Y-65700000D03*
D18*
%TO.P,U1,7,GPIO0/TX*%
%TO.N,Net-(D1-K)*%
X154455000Y-68240000D03*
D19*
X153620000Y-68240000D03*
%TO.P,U1,8,GPIO1/RX*%
%TO.N,Net-(LED1-DIN)*%
X138380000Y-68240000D03*
D20*
X137545000Y-68240000D03*
D19*
%TO.P,U1,9,GPIO2/SCK*%
%TO.N,Net-(U1-GPIO2{slash}SCK)*%
X138380000Y-65700000D03*
D20*
X137545000Y-65700000D03*
D19*
%TO.P,U1,10,GPIO4/MISO*%
%TO.N,Net-(U1-GPIO4{slash}MISO)*%
X138380000Y-63160000D03*
D20*
X137545000Y-63160000D03*
D19*
%TO.P,U1,11,GPIO3/MOSI*%
%TO.N,Net-(U1-GPIO3{slash}MOSI)*%
X138380000Y-60620000D03*
D20*
X137545000Y-60620000D03*
D19*
%TO.P,U1,12,3V3*%
%TO.N,3V3*%
X138380000Y-58080000D03*
D20*
X137545000Y-58080000D03*
D19*
%TO.P,U1,13,GND*%
%TO.N,GND*%
X138380000Y-55540000D03*
D20*
X137545000Y-55540000D03*
D19*
%TO.P,U1,14,VBUS*%
%TO.N,+5V*%
X138380000Y-53000000D03*
D20*
X137545000Y-53000000D03*
%TD*%
D21*
%TO.N,GND*%
X131000000Y-129000000D03*
X131000000Y-110000000D03*
X169000000Y-110000000D03*
X144000000Y-94000000D03*
X169000000Y-91000000D03*
X144000000Y-114000000D03*
X132000000Y-91000000D03*
X142000000Y-130000000D03*
X169000000Y-129000000D03*
%TD*%
D22*
%TO.N,Net-(D1-K)*%
X137000000Y-85620000D02*
X155810000Y-85620000D01*
X155810000Y-85620000D02*
X156000000Y-85810000D01*
%TO.N,Net-(D1-A)*%
X129380000Y-77760000D02*
X136760000Y-77760000D01*
X136760000Y-77760000D02*
X137000000Y-78000000D01*
%TO.N,Net-(D2-A)*%
X129380000Y-96810000D02*
X136620000Y-96810000D01*
X136620000Y-96810000D02*
X137000000Y-97190000D01*
%TO.N,Net-(D3-A)*%
X129730000Y-116190000D02*
X129370000Y-115830000D01*
X137000000Y-116190000D02*
X129730000Y-116190000D01*
%TO.N,Net-(D5-A)*%
X156000000Y-97190000D02*
X148790000Y-97190000D01*
X148790000Y-97190000D02*
X148400000Y-96800000D01*
%TO.N,Net-(D6-A)*%
X148760000Y-116190000D02*
X148400000Y-115830000D01*
X156000000Y-116190000D02*
X148760000Y-116190000D01*
%TO.N,Net-(D7-A)*%
X174930000Y-77750000D02*
X175000000Y-77680000D01*
X167520000Y-77750000D02*
X174930000Y-77750000D01*
%TO.N,Net-(D9-A)*%
X175000000Y-116000000D02*
X167720000Y-116000000D01*
X167720000Y-116000000D02*
X167550000Y-115830000D01*
%TO.N,Net-(D2-K)*%
X137000000Y-104810000D02*
X156000000Y-104810000D01*
X156000000Y-104810000D02*
X174810000Y-104810000D01*
X174810000Y-104810000D02*
X175000000Y-104620000D01*
%TO.N,Net-(D4-A)*%
X148900000Y-78190000D02*
X148470000Y-77760000D01*
X156000000Y-78190000D02*
X148900000Y-78190000D01*
%TO.N,Net-(D8-A)*%
X174790000Y-96790000D02*
X175000000Y-97000000D01*
X167520000Y-96790000D02*
X174790000Y-96790000D01*
%TO.N,Net-(D3-K)*%
X156190000Y-123810000D02*
X156380000Y-123620000D01*
X137000000Y-123810000D02*
X156000000Y-123810000D01*
X156380000Y-123620000D02*
X175000000Y-123620000D01*
X156000000Y-123810000D02*
X156190000Y-123810000D01*
%TO.N,Net-(U1-GPIO4{slash}MISO)*%
X161170000Y-80290000D02*
X161170000Y-99330000D01*
%TO.N,Net-(U1-GPIO28{slash}ADC2{slash}A2)*%
X154697630Y-58080000D02*
X153620000Y-58080000D01*
X155972000Y-59354370D02*
X154697630Y-58080000D01*
X155972000Y-62472000D02*
X155972000Y-59354370D01*
X157000000Y-63500000D02*
X155972000Y-62472000D01*
X157500000Y-63500000D02*
X157000000Y-63500000D01*
X158000000Y-63000000D02*
X157500000Y-63500000D01*
%TD*%
%TA.AperFunction,Conductor*%
%TO.N,GND*%
G36*
X179442539Y-50520185D02*
G01*
X179488294Y-50572989D01*
X179499500Y-50624500D01*
X179499500Y-133375500D01*
X179479815Y-133442539D01*
X179427011Y-133488294D01*
X179375500Y-133499500D01*
X112624500Y-133499500D01*
X112557461Y-133479815D01*
X112511706Y-133427011D01*
X112500500Y-133375500D01*
X112500500Y-129878711D01*
X114149500Y-129878711D01*
X114149500Y-130121288D01*
X114181161Y-130361785D01*
X114243947Y-130596104D01*
X114336773Y-130820205D01*
X114336776Y-130820212D01*
X114458064Y-131030289D01*
X114458066Y-131030292D01*
X114458067Y-131030293D01*
X114605733Y-131222736D01*
X114605739Y-131222743D01*
X114777256Y-131394260D01*
X114777262Y-131394265D01*
X114969711Y-131541936D01*
X115179788Y-131663224D01*
X115403900Y-131756054D01*
X115638211Y-131818838D01*
X115818586Y-131842584D01*
X115878711Y-131850500D01*
X115878712Y-131850500D01*
X116121289Y-131850500D01*
X116169388Y-131844167D01*
X116361789Y-131818838D01*
X116596100Y-131756054D01*
X116820212Y-131663224D01*
X117030289Y-131541936D01*
X117222738Y-131394265D01*
X117394265Y-131222738D01*
X117541936Y-131030289D01*
X117663224Y-130820212D01*
X117756054Y-130596100D01*
X117818838Y-130361789D01*
X117850500Y-130121288D01*
X117850500Y-129878712D01*
X117850500Y-129878711D01*
X174149500Y-129878711D01*
X174149500Y-130121288D01*
X174181161Y-130361785D01*
X174243947Y-130596104D01*
X174336773Y-130820205D01*
X174336776Y-130820212D01*
X174458064Y-131030289D01*
X174458066Y-131030292D01*
X174458067Y-131030293D01*
X174605733Y-131222736D01*
X174605739Y-131222743D01*
X174777256Y-131394260D01*
X174777262Y-131394265D01*
X174969711Y-131541936D01*
X175179788Y-131663224D01*
X175403900Y-131756054D01*
X175638211Y-131818838D01*
X175818586Y-131842584D01*
X175878711Y-131850500D01*
X175878712Y-131850500D01*
X176121289Y-131850500D01*
X176169388Y-131844167D01*
X176361789Y-131818838D01*
X176596100Y-131756054D01*
X176820212Y-131663224D01*
X177030289Y-131541936D01*
X177222738Y-131394265D01*
X177394265Y-131222738D01*
X177541936Y-131030289D01*
X177663224Y-130820212D01*
X177756054Y-130596100D01*
X177818838Y-130361789D01*
X177850500Y-130121288D01*
X177850500Y-129878712D01*
X177818838Y-129638211D01*
X177756054Y-129403900D01*
X177663224Y-129179788D01*
X177541936Y-128969711D01*
X177394265Y-128777262D01*
X177394260Y-128777256D01*
X177222743Y-128605739D01*
X177222736Y-128605733D01*
X177030293Y-128458067D01*
X177030292Y-128458066D01*
X177030289Y-128458064D01*
X176820212Y-128336776D01*
X176820205Y-128336773D01*
X176596104Y-128243947D01*
X176361785Y-128181161D01*
X176121289Y-128149500D01*
X176121288Y-128149500D01*
X175878712Y-128149500D01*
X175878711Y-128149500D01*
X175638214Y-128181161D01*
X175403895Y-128243947D01*
X175179794Y-128336773D01*
X175179785Y-128336777D01*
X174969706Y-128458067D01*
X174777263Y-128605733D01*
X174777256Y-128605739D01*
X174605739Y-128777256D01*
X174605733Y-128777263D01*
X174458067Y-128969706D01*
X174336777Y-129179785D01*
X174336773Y-129179794D01*
X174243947Y-129403895D01*
X174181161Y-129638214D01*
X174149500Y-129878711D01*
X117850500Y-129878711D01*
X117818838Y-129638211D01*
X117756054Y-129403900D01*
X117663224Y-129179788D01*
X117541936Y-128969711D01*
X117394265Y-128777262D01*
X117394260Y-128777256D01*
X117222743Y-128605739D01*
X117222736Y-128605733D01*
X117030293Y-128458067D01*
X117030292Y-128458066D01*
X117030289Y-128458064D01*
X116820212Y-128336776D01*
X116820205Y-128336773D01*
X116596104Y-128243947D01*
X116361785Y-128181161D01*
X116121289Y-128149500D01*
X116121288Y-128149500D01*
X115878712Y-128149500D01*
X115878711Y-128149500D01*
X115638214Y-128181161D01*
X115403895Y-128243947D01*
X115179794Y-128336773D01*
X115179785Y-128336777D01*
X114969706Y-128458067D01*
X114777263Y-128605733D01*
X114777256Y-128605739D01*
X114605739Y-128777256D01*
X114605733Y-128777263D01*
X114458067Y-128969706D01*
X114336777Y-129179785D01*
X114336773Y-129179794D01*
X114243947Y-129403895D01*
X114181161Y-129638214D01*
X114149500Y-129878711D01*
X112500500Y-129878711D01*
X112500500Y-123209983D01*
X135699500Y-123209983D01*
X135699500Y-124410001D01*
X135699501Y-124410018D01*
X135710000Y-124512796D01*
X135710001Y-124512799D01*
X135751707Y-124638657D01*
X135765186Y-124679334D01*
X135857288Y-124828656D01*
X135981344Y-124952712D01*
X136130666Y-125044814D01*
X136297203Y-125099999D01*
X136399991Y-125110500D01*
X137600008Y-125110499D01*
X137702797Y-125099999D01*
X137869334Y-125044814D01*
X138018656Y-124952712D01*
X138142712Y-124828656D01*
X138234814Y-124679334D01*
X138289999Y-124512797D01*
X138290000Y-124512792D01*
X138290912Y-124508533D01*
X138324199Y-124447102D01*
X138385414Y-124413419D01*
X138412163Y-124410500D01*
X154587837Y-124410500D01*
X154654876Y-124430185D01*
X154700631Y-124482989D01*
X154709089Y-124508541D01*
X154709999Y-124512792D01*
X154751707Y-124638656D01*
X154765186Y-124679334D01*
X154857288Y-124828656D01*
X154981344Y-124952712D01*
X155130666Y-125044814D01*
X155297203Y-125099999D01*
X155399991Y-125110500D01*
X156600008Y-125110499D01*
X156702797Y-125099999D01*
X156869334Y-125044814D01*
X157018656Y-124952712D01*
X157142712Y-124828656D01*
X157234814Y-124679334D01*
X157289999Y-124512797D01*
X157300500Y-124410009D01*
X157300500Y-124344500D01*
X157320185Y-124277461D01*
X157372989Y-124231706D01*
X157424500Y-124220500D01*
X173587837Y-124220500D01*
X173654876Y-124240185D01*
X173700631Y-124292989D01*
X173709089Y-124318541D01*
X173709999Y-124322792D01*
X173738903Y-124410018D01*
X173765186Y-124489334D01*
X173857288Y-124638656D01*
X173981344Y-124762712D01*
X174130666Y-124854814D01*
X174297203Y-124909999D01*
X174399991Y-124920500D01*
X175600008Y-124920499D01*
X175702797Y-124909999D01*
X175869334Y-124854814D01*
X176018656Y-124762712D01*
X176142712Y-124638656D01*
X176234814Y-124489334D01*
X176289999Y-124322797D01*
X176300500Y-124220009D01*
X176300499Y-123019992D01*
X176289999Y-122917203D01*
X176234814Y-122750666D01*
X176142712Y-122601344D01*
X176018656Y-122477288D01*
X175869334Y-122385186D01*
X175702797Y-122330001D01*
X175702795Y-122330000D01*
X175600010Y-122319500D01*
X174399998Y-122319500D01*
X174399981Y-122319501D01*
X174297203Y-122330000D01*
X174297200Y-122330001D01*
X174130668Y-122385185D01*
X174130663Y-122385187D01*
X173981342Y-122477289D01*
X173857289Y-122601342D01*
X173765187Y-122750663D01*
X173765185Y-122750668D01*
X173710000Y-122917204D01*
X173709088Y-122921467D01*
X173675801Y-122982898D01*
X173614586Y-123016581D01*
X173587837Y-123019500D01*
X166320015Y-123019500D01*
X166252976Y-122999815D01*
X166207221Y-122947011D01*
X166197277Y-122877853D01*
X166226302Y-122814297D01*
X166258015Y-122788113D01*
X166259998Y-122786967D01*
X166262994Y-122785238D01*
X166497042Y-122605646D01*
X166705646Y-122397042D01*
X166885238Y-122162994D01*
X167032743Y-121907507D01*
X167145639Y-121634952D01*
X167221993Y-121349993D01*
X167260500Y-121057506D01*
X167260500Y-120823389D01*
X168989500Y-120823389D01*
X168989500Y-120996611D01*
X169016598Y-121167701D01*
X169070127Y-121332445D01*
X169148768Y-121486788D01*
X169250586Y-121626928D01*
X169373072Y-121749414D01*
X169513212Y-121851232D01*
X169667555Y-121929873D01*
X169832299Y-121983402D01*
X170003389Y-122010500D01*
X170003390Y-122010500D01*
X170176610Y-122010500D01*
X170176611Y-122010500D01*
X170347701Y-121983402D01*
X170512445Y-121929873D01*
X170666788Y-121851232D01*
X170806928Y-121749414D01*
X170929414Y-121626928D01*
X171031232Y-121486788D01*
X171109873Y-121332445D01*
X171163402Y-121167701D01*
X171190500Y-120996611D01*
X171190500Y-120823389D01*
X171163402Y-120652299D01*
X171109873Y-120487555D01*
X171031232Y-120333212D01*
X170929414Y-120193072D01*
X170806928Y-120070586D01*
X170666788Y-119968768D01*
X170512445Y-119890127D01*
X170347701Y-119836598D01*
X170347699Y-119836597D01*
X170347698Y-119836597D01*
X170216271Y-119815781D01*
X170176611Y-119809500D01*
X170003389Y-119809500D01*
X169963728Y-119815781D01*
X169832302Y-119836597D01*
X169667552Y-119890128D01*
X169513211Y-119968768D01*
X169456289Y-120010125D01*
X169373072Y-120070586D01*
X169373070Y-120070588D01*
X169373069Y-120070588D01*
X169250588Y-120193069D01*
X169250588Y-120193070D01*
X169250586Y-120193072D01*
X169206859Y-120253256D01*
X169148768Y-120333211D01*
X169070128Y-120487552D01*
X169016597Y-120652302D01*
X168989500Y-120823389D01*
X167260500Y-120823389D01*
X167260500Y-120762494D01*
X167221993Y-120470007D01*
X167145639Y-120185048D01*
X167032743Y-119912493D01*
X166977309Y-119816479D01*
X166885238Y-119657006D01*
X166705647Y-119422959D01*
X166705641Y-119422952D01*
X166497047Y-119214358D01*
X166497040Y-119214352D01*
X166262993Y-119034761D01*
X166007510Y-118887258D01*
X166007500Y-118887254D01*
X165734961Y-118774364D01*
X165734954Y-118774362D01*
X165734952Y-118774361D01*
X165449993Y-118698007D01*
X165401113Y-118691571D01*
X165157513Y-118659500D01*
X165157506Y-118659500D01*
X164862494Y-118659500D01*
X164862486Y-118659500D01*
X164584085Y-118696153D01*
X164570007Y-118698007D01*
X164395428Y-118744785D01*
X164285048Y-118774361D01*
X164285038Y-118774364D01*
X164012499Y-118887254D01*
X164012489Y-118887258D01*
X163757006Y-119034761D01*
X163522959Y-119214352D01*
X163522952Y-119214358D01*
X163314358Y-119422952D01*
X163314352Y-119422959D01*
X163134761Y-119657006D01*
X162987258Y-119912489D01*
X162987254Y-119912499D01*
X162874364Y-120185038D01*
X162874361Y-120185048D01*
X162798008Y-120470004D01*
X162798006Y-120470015D01*
X162759500Y-120762486D01*
X162759500Y-121057513D01*
X162791571Y-121301113D01*
X162798007Y-121349993D01*
X162872212Y-121626930D01*
X162874361Y-121634951D01*
X162874364Y-121634961D01*
X162987254Y-121907500D01*
X162987258Y-121907510D01*
X163134761Y-122162993D01*
X163314352Y-122397040D01*
X163314358Y-122397047D01*
X163522952Y-122605641D01*
X163522959Y-122605647D01*
X163757006Y-122785238D01*
X163761985Y-122788113D01*
X163810201Y-122838680D01*
X163823424Y-122907287D01*
X163797456Y-122972152D01*
X163740542Y-123012680D01*
X163699985Y-123019500D01*
X157350478Y-123019500D01*
X157283439Y-122999815D01*
X157237684Y-122947011D01*
X157237213Y-122945813D01*
X157234815Y-122940670D01*
X157234814Y-122940666D01*
X157142712Y-122791344D01*
X157018656Y-122667288D01*
X156869334Y-122575186D01*
X156702797Y-122520001D01*
X156702795Y-122520000D01*
X156600010Y-122509500D01*
X155399998Y-122509500D01*
X155399981Y-122509501D01*
X155297203Y-122520000D01*
X155297200Y-122520001D01*
X155130668Y-122575185D01*
X155130663Y-122575187D01*
X154981342Y-122667289D01*
X154857289Y-122791342D01*
X154765187Y-122940663D01*
X154765185Y-122940668D01*
X154710000Y-123107204D01*
X154709088Y-123111467D01*
X154675801Y-123172898D01*
X154614586Y-123206581D01*
X154587837Y-123209500D01*
X146812747Y-123209500D01*
X146745708Y-123189815D01*
X146699953Y-123137011D01*
X146690009Y-123067853D01*
X146719034Y-123004297D01*
X146765294Y-122970939D01*
X146775919Y-122966537D01*
X146857507Y-122932743D01*
X147112994Y-122785238D01*
X147347042Y-122605646D01*
X147555646Y-122397042D01*
X147735238Y-122162994D01*
X147882743Y-121907507D01*
X147995639Y-121634952D01*
X148071993Y-121349993D01*
X148110500Y-121057506D01*
X148110500Y-120823389D01*
X149839500Y-120823389D01*
X149839500Y-120996611D01*
X149866598Y-121167701D01*
X149920127Y-121332445D01*
X149998768Y-121486788D01*
X150100586Y-121626928D01*
X150223072Y-121749414D01*
X150363212Y-121851232D01*
X150517555Y-121929873D01*
X150682299Y-121983402D01*
X150853389Y-122010500D01*
X150853390Y-122010500D01*
X151026610Y-122010500D01*
X151026611Y-122010500D01*
X151197701Y-121983402D01*
X151362445Y-121929873D01*
X151516788Y-121851232D01*
X151656928Y-121749414D01*
X151779414Y-121626928D01*
X151881232Y-121486788D01*
X151959873Y-121332445D01*
X152013402Y-121167701D01*
X152040500Y-120996611D01*
X152040500Y-120823389D01*
X158829500Y-120823389D01*
X158829500Y-120996611D01*
X158856598Y-121167701D01*
X158910127Y-121332445D01*
X158988768Y-121486788D01*
X159090586Y-121626928D01*
X159213072Y-121749414D01*
X159353212Y-121851232D01*
X159507555Y-121929873D01*
X159672299Y-121983402D01*
X159843389Y-122010500D01*
X159843390Y-122010500D01*
X160016610Y-122010500D01*
X160016611Y-122010500D01*
X160187701Y-121983402D01*
X160352445Y-121929873D01*
X160506788Y-121851232D01*
X160646928Y-121749414D01*
X160769414Y-121626928D01*
X160871232Y-121486788D01*
X160949873Y-121332445D01*
X161003402Y-121167701D01*
X161030500Y-120996611D01*
X161030500Y-120823389D01*
X161003402Y-120652299D01*
X160949873Y-120487555D01*
X160871232Y-120333212D01*
X160769414Y-120193072D01*
X160717482Y-120141140D01*
X160683997Y-120079817D01*
X160688981Y-120010125D01*
X160730853Y-119954192D01*
X160796317Y-119929775D01*
X160824561Y-119930986D01*
X160825212Y-119931089D01*
X160825215Y-119931090D01*
X161074038Y-119970500D01*
X161074039Y-119970500D01*
X161325961Y-119970500D01*
X161325962Y-119970500D01*
X161574785Y-119931090D01*
X161814379Y-119853241D01*
X162038845Y-119738870D01*
X162242656Y-119590793D01*
X162420793Y-119412656D01*
X162568870Y-119208845D01*
X162683241Y-118984379D01*
X162761090Y-118744785D01*
X162800500Y-118495962D01*
X162800500Y-118244038D01*
X162761090Y-117995215D01*
X162683241Y-117755621D01*
X162683239Y-117755618D01*
X162683239Y-117755616D01*
X162641747Y-117674184D01*
X162568870Y-117531155D01*
X162549952Y-117505117D01*
X162420798Y-117327350D01*
X162420794Y-117327345D01*
X162242654Y-117149205D01*
X162242649Y-117149201D01*
X162038848Y-117001132D01*
X162038847Y-117001131D01*
X162038845Y-117001130D01*
X161968747Y-116965413D01*
X161814383Y-116886760D01*
X161574785Y-116808910D01*
X161511894Y-116798949D01*
X161325962Y-116769500D01*
X161074038Y-116769500D01*
X160949626Y-116789205D01*
X160825214Y-116808910D01*
X160585616Y-116886760D01*
X160361151Y-117001132D01*
X160157350Y-117149201D01*
X160157345Y-117149205D01*
X159979205Y-117327345D01*
X159979201Y-117327350D01*
X159831132Y-117531151D01*
X159716760Y-117755616D01*
X159638910Y-117995214D01*
X159599500Y-118244038D01*
X159599500Y-118495961D01*
X159638910Y-118744785D01*
X159716760Y-118984383D01*
X159831132Y-119208848D01*
X159979201Y-119412649D01*
X159979205Y-119412654D01*
X159979207Y-119412656D01*
X160157344Y-119590793D01*
X160157345Y-119590794D01*
X160157344Y-119590794D01*
X160163661Y-119595383D01*
X160206327Y-119650714D01*
X160212305Y-119720327D01*
X160179699Y-119782122D01*
X160118860Y-119816479D01*
X160071378Y-119818174D01*
X160016611Y-119809500D01*
X159843389Y-119809500D01*
X159803728Y-119815781D01*
X159672302Y-119836597D01*
X159507552Y-119890128D01*
X159353211Y-119968768D01*
X159296289Y-120010125D01*
X159213072Y-120070586D01*
X159213070Y-120070588D01*
X159213069Y-120070588D01*
X159090588Y-120193069D01*
X159090588Y-120193070D01*
X159090586Y-120193072D01*
X159046859Y-120253256D01*
X158988768Y-120333211D01*
X158910128Y-120487552D01*
X158856597Y-120652302D01*
X158829500Y-120823389D01*
X152040500Y-120823389D01*
X152013402Y-120652299D01*
X151959873Y-120487555D01*
X151881232Y-120333212D01*
X151779414Y-120193072D01*
X151656928Y-120070586D01*
X151516788Y-119968768D01*
X151362445Y-119890127D01*
X151197701Y-119836598D01*
X151197699Y-119836597D01*
X151197698Y-119836597D01*
X151066271Y-119815781D01*
X151026611Y-119809500D01*
X150853389Y-119809500D01*
X150813728Y-119815781D01*
X150682302Y-119836597D01*
X150517552Y-119890128D01*
X150363211Y-119968768D01*
X150306289Y-120010125D01*
X150223072Y-120070586D01*
X150223070Y-120070588D01*
X150223069Y-120070588D01*
X150100588Y-120193069D01*
X150100588Y-120193070D01*
X150100586Y-120193072D01*
X150056859Y-120253256D01*
X149998768Y-120333211D01*
X149920128Y-120487552D01*
X149866597Y-120652302D01*
X149839500Y-120823389D01*
X148110500Y-120823389D01*
X148110500Y-120762494D01*
X148071993Y-120470007D01*
X147995639Y-120185048D01*
X147882743Y-119912493D01*
X147827309Y-119816479D01*
X147735238Y-119657006D01*
X147555647Y-119422959D01*
X147555641Y-119422952D01*
X147347047Y-119214358D01*
X147347040Y-119214352D01*
X147112993Y-119034761D01*
X146857510Y-118887258D01*
X146857500Y-118887254D01*
X146584961Y-118774364D01*
X146584954Y-118774362D01*
X146584952Y-118774361D01*
X146299993Y-118698007D01*
X146251113Y-118691571D01*
X146007513Y-118659500D01*
X146007506Y-118659500D01*
X145712494Y-118659500D01*
X145712486Y-118659500D01*
X145434085Y-118696153D01*
X145420007Y-118698007D01*
X145245428Y-118744785D01*
X145135048Y-118774361D01*
X145135038Y-118774364D01*
X144862499Y-118887254D01*
X144862489Y-118887258D01*
X144607006Y-119034761D01*
X144372959Y-119214352D01*
X144372952Y-119214358D01*
X144164358Y-119422952D01*
X144164352Y-119422959D01*
X143984761Y-119657006D01*
X143837258Y-119912489D01*
X143837254Y-119912499D01*
X143724364Y-120185038D01*
X143724361Y-120185048D01*
X143648008Y-120470004D01*
X143648006Y-120470015D01*
X143609500Y-120762486D01*
X143609500Y-121057513D01*
X143641571Y-121301113D01*
X143648007Y-121349993D01*
X143722212Y-121626930D01*
X143724361Y-121634951D01*
X143724364Y-121634961D01*
X143837254Y-121907500D01*
X143837258Y-121907510D01*
X143984761Y-122162993D01*
X144164352Y-122397040D01*
X144164358Y-122397047D01*
X144372952Y-122605641D01*
X144372959Y-122605647D01*
X144607006Y-122785238D01*
X144862489Y-122932741D01*
X144862490Y-122932741D01*
X144862493Y-122932743D01*
X144936774Y-122963511D01*
X144954706Y-122970939D01*
X145009109Y-123014780D01*
X145031174Y-123081074D01*
X145013895Y-123148773D01*
X144962758Y-123196384D01*
X144907253Y-123209500D01*
X138412163Y-123209500D01*
X138345124Y-123189815D01*
X138299369Y-123137011D01*
X138290911Y-123111459D01*
X138290000Y-123107207D01*
X138283324Y-123087059D01*
X138234814Y-122940666D01*
X138142712Y-122791344D01*
X138018656Y-122667288D01*
X137869334Y-122575186D01*
X137702797Y-122520001D01*
X137702795Y-122520000D01*
X137600010Y-122509500D01*
X136399998Y-122509500D01*
X136399981Y-122509501D01*
X136297203Y-122520000D01*
X136297200Y-122520001D01*
X136130668Y-122575185D01*
X136130663Y-122575187D01*
X135981342Y-122667289D01*
X135857289Y-122791342D01*
X135765187Y-122940663D01*
X135765185Y-122940668D01*
X135751192Y-122982898D01*
X135710001Y-123107203D01*
X135710001Y-123107204D01*
X135710000Y-123107204D01*
X135699500Y-123209983D01*
X112500500Y-123209983D01*
X112500500Y-120823389D01*
X120649500Y-120823389D01*
X120649500Y-120996611D01*
X120676598Y-121167701D01*
X120730127Y-121332445D01*
X120808768Y-121486788D01*
X120910586Y-121626928D01*
X121033072Y-121749414D01*
X121173212Y-121851232D01*
X121327555Y-121929873D01*
X121492299Y-121983402D01*
X121663389Y-122010500D01*
X121663390Y-122010500D01*
X121836610Y-122010500D01*
X121836611Y-122010500D01*
X122007701Y-121983402D01*
X122172445Y-121929873D01*
X122326788Y-121851232D01*
X122466928Y-121749414D01*
X122589414Y-121626928D01*
X122691232Y-121486788D01*
X122769873Y-121332445D01*
X122823402Y-121167701D01*
X122850500Y-120996611D01*
X122850500Y-120823389D01*
X122840854Y-120762486D01*
X124579500Y-120762486D01*
X124579500Y-121057513D01*
X124611571Y-121301113D01*
X124618007Y-121349993D01*
X124692212Y-121626930D01*
X124694361Y-121634951D01*
X124694364Y-121634961D01*
X124807254Y-121907500D01*
X124807258Y-121907510D01*
X124954761Y-122162993D01*
X125134352Y-122397040D01*
X125134358Y-122397047D01*
X125342952Y-122605641D01*
X125342959Y-122605647D01*
X125577006Y-122785238D01*
X125832489Y-122932741D01*
X125832490Y-122932741D01*
X125832493Y-122932743D01*
X126105048Y-123045639D01*
X126390007Y-123121993D01*
X126682494Y-123160500D01*
X126682501Y-123160500D01*
X126977499Y-123160500D01*
X126977506Y-123160500D01*
X127269993Y-123121993D01*
X127554952Y-123045639D01*
X127827507Y-122932743D01*
X128082994Y-122785238D01*
X128317042Y-122605646D01*
X128525646Y-122397042D01*
X128705238Y-122162994D01*
X128852743Y-121907507D01*
X128965639Y-121634952D01*
X129041993Y-121349993D01*
X129080500Y-121057506D01*
X129080500Y-120823389D01*
X130809500Y-120823389D01*
X130809500Y-120996611D01*
X130836598Y-121167701D01*
X130890127Y-121332445D01*
X130968768Y-121486788D01*
X131070586Y-121626928D01*
X131193072Y-121749414D01*
X131333212Y-121851232D01*
X131487555Y-121929873D01*
X131652299Y-121983402D01*
X131823389Y-122010500D01*
X131823390Y-122010500D01*
X131996610Y-122010500D01*
X131996611Y-122010500D01*
X132167701Y-121983402D01*
X132332445Y-121929873D01*
X132486788Y-121851232D01*
X132626928Y-121749414D01*
X132749414Y-121626928D01*
X132851232Y-121486788D01*
X132929873Y-121332445D01*
X132983402Y-121167701D01*
X133010500Y-120996611D01*
X133010500Y-120823389D01*
X139679500Y-120823389D01*
X139679500Y-120996611D01*
X139706598Y-121167701D01*
X139760127Y-121332445D01*
X139838768Y-121486788D01*
X139940586Y-121626928D01*
X140063072Y-121749414D01*
X140203212Y-121851232D01*
X140357555Y-121929873D01*
X140522299Y-121983402D01*
X140693389Y-122010500D01*
X140693390Y-122010500D01*
X140866610Y-122010500D01*
X140866611Y-122010500D01*
X141037701Y-121983402D01*
X141202445Y-121929873D01*
X141356788Y-121851232D01*
X141496928Y-121749414D01*
X141619414Y-121626928D01*
X141721232Y-121486788D01*
X141799873Y-121332445D01*
X141853402Y-121167701D01*
X141880500Y-120996611D01*
X141880500Y-120823389D01*
X141853402Y-120652299D01*
X141799873Y-120487555D01*
X141721232Y-120333212D01*
X141619414Y-120193072D01*
X141567482Y-120141140D01*
X141533997Y-120079817D01*
X141538981Y-120010125D01*
X141580853Y-119954192D01*
X141646317Y-119929775D01*
X141674561Y-119930986D01*
X141675212Y-119931089D01*
X141675215Y-119931090D01*
X141924038Y-119970500D01*
X141924039Y-119970500D01*
X142175961Y-119970500D01*
X142175962Y-119970500D01*
X142424785Y-119931090D01*
X142664379Y-119853241D01*
X142888845Y-119738870D01*
X143092656Y-119590793D01*
X143270793Y-119412656D01*
X143418870Y-119208845D01*
X143533241Y-118984379D01*
X143611090Y-118744785D01*
X143650500Y-118495962D01*
X143650500Y-118244038D01*
X143611090Y-117995215D01*
X143533241Y-117755621D01*
X143533239Y-117755618D01*
X143533239Y-117755616D01*
X143491747Y-117674184D01*
X143418870Y-117531155D01*
X143399952Y-117505117D01*
X143270798Y-117327350D01*
X143270794Y-117327345D01*
X143092654Y-117149205D01*
X143092649Y-117149201D01*
X142888848Y-117001132D01*
X142888847Y-117001131D01*
X142888845Y-117001130D01*
X142818747Y-116965413D01*
X142664383Y-116886760D01*
X142424785Y-116808910D01*
X142361894Y-116798949D01*
X142175962Y-116769500D01*
X141924038Y-116769500D01*
X141799626Y-116789205D01*
X141675214Y-116808910D01*
X141435616Y-116886760D01*
X141211151Y-117001132D01*
X141007350Y-117149201D01*
X141007345Y-117149205D01*
X140829205Y-117327345D01*
X140829201Y-117327350D01*
X140681132Y-117531151D01*
X140566760Y-117755616D01*
X140488910Y-117995214D01*
X140449500Y-118244038D01*
X140449500Y-118495961D01*
X140488910Y-118744785D01*
X140566760Y-118984383D01*
X140681132Y-119208848D01*
X140829201Y-119412649D01*
X140829205Y-119412654D01*
X140829207Y-119412656D01*
X141007344Y-119590793D01*
X141007345Y-119590794D01*
X141007344Y-119590794D01*
X141013661Y-119595383D01*
X141056327Y-119650714D01*
X141062305Y-119720327D01*
X141029699Y-119782122D01*
X140968860Y-119816479D01*
X140921378Y-119818174D01*
X140866611Y-119809500D01*
X140693389Y-119809500D01*
X140653728Y-119815781D01*
X140522302Y-119836597D01*
X140357552Y-119890128D01*
X140203211Y-119968768D01*
X140146289Y-120010125D01*
X140063072Y-120070586D01*
X140063070Y-120070588D01*
X140063069Y-120070588D01*
X139940588Y-120193069D01*
X139940588Y-120193070D01*
X139940586Y-120193072D01*
X139896859Y-120253256D01*
X139838768Y-120333211D01*
X139760128Y-120487552D01*
X139706597Y-120652302D01*
X139679500Y-120823389D01*
X133010500Y-120823389D01*
X132983402Y-120652299D01*
X132929873Y-120487555D01*
X132851232Y-120333212D01*
X132749414Y-120193072D01*
X132626928Y-120070586D01*
X132486788Y-119968768D01*
X132332445Y-119890127D01*
X132167701Y-119836598D01*
X132167699Y-119836597D01*
X132167698Y-119836597D01*
X132036271Y-119815781D01*
X131996611Y-119809500D01*
X131823389Y-119809500D01*
X131783728Y-119815781D01*
X131652302Y-119836597D01*
X131487552Y-119890128D01*
X131333211Y-119968768D01*
X131276289Y-120010125D01*
X131193072Y-120070586D01*
X131193070Y-120070588D01*
X131193069Y-120070588D01*
X131070588Y-120193069D01*
X131070588Y-120193070D01*
X131070586Y-120193072D01*
X131026859Y-120253256D01*
X130968768Y-120333211D01*
X130890128Y-120487552D01*
X130836597Y-120652302D01*
X130809500Y-120823389D01*
X129080500Y-120823389D01*
X129080500Y-120762494D01*
X129041993Y-120470007D01*
X128965639Y-120185048D01*
X128852743Y-119912493D01*
X128797309Y-119816479D01*
X128705238Y-119657006D01*
X128525647Y-119422959D01*
X128525641Y-119422952D01*
X128317047Y-119214358D01*
X128317040Y-119214352D01*
X128082993Y-119034761D01*
X127827510Y-118887258D01*
X127827500Y-118887254D01*
X127554961Y-118774364D01*
X127554954Y-118774362D01*
X127554952Y-118774361D01*
X127269993Y-118698007D01*
X127221113Y-118691571D01*
X126977513Y-118659500D01*
X126977506Y-118659500D01*
X126682494Y-118659500D01*
X126682486Y-118659500D01*
X126404085Y-118696153D01*
X126390007Y-118698007D01*
X126215428Y-118744785D01*
X126105048Y-118774361D01*
X126105038Y-118774364D01*
X125832499Y-118887254D01*
X125832489Y-118887258D01*
X125577006Y-119034761D01*
X125342959Y-119214352D01*
X125342952Y-119214358D01*
X125134358Y-119422952D01*
X125134352Y-119422959D01*
X124954761Y-119657006D01*
X124807258Y-119912489D01*
X124807254Y-119912499D01*
X124694364Y-120185038D01*
X124694361Y-120185048D01*
X124618008Y-120470004D01*
X124618006Y-120470015D01*
X124579500Y-120762486D01*
X122840854Y-120762486D01*
X122823402Y-120652299D01*
X122769873Y-120487555D01*
X122691232Y-120333212D01*
X122589414Y-120193072D01*
X122537482Y-120141140D01*
X122503997Y-120079817D01*
X122508981Y-120010125D01*
X122550853Y-119954192D01*
X122616317Y-119929775D01*
X122644561Y-119930986D01*
X122645212Y-119931089D01*
X122645215Y-119931090D01*
X122894038Y-119970500D01*
X122894039Y-119970500D01*
X123145961Y-119970500D01*
X123145962Y-119970500D01*
X123394785Y-119931090D01*
X123634379Y-119853241D01*
X123858845Y-119738870D01*
X124062656Y-119590793D01*
X124240793Y-119412656D01*
X124388870Y-119208845D01*
X124503241Y-118984379D01*
X124581090Y-118744785D01*
X124620500Y-118495962D01*
X124620500Y-118244038D01*
X124581090Y-117995215D01*
X124503241Y-117755621D01*
X124503239Y-117755618D01*
X124503239Y-117755616D01*
X124461747Y-117674184D01*
X124388870Y-117531155D01*
X124369952Y-117505117D01*
X124240798Y-117327350D01*
X124240794Y-117327345D01*
X124062654Y-117149205D01*
X124062649Y-117149201D01*
X123858848Y-117001132D01*
X123858847Y-117001131D01*
X123858845Y-117001130D01*
X123788747Y-116965413D01*
X123634383Y-116886760D01*
X123394785Y-116808910D01*
X123331894Y-116798949D01*
X123145962Y-116769500D01*
X122894038Y-116769500D01*
X122769626Y-116789205D01*
X122645214Y-116808910D01*
X122405616Y-116886760D01*
X122181151Y-117001132D01*
X121977350Y-117149201D01*
X121977345Y-117149205D01*
X121799205Y-117327345D01*
X121799201Y-117327350D01*
X121651132Y-117531151D01*
X121536760Y-117755616D01*
X121458910Y-117995214D01*
X121419500Y-118244038D01*
X121419500Y-118495961D01*
X121458910Y-118744785D01*
X121536760Y-118984383D01*
X121651132Y-119208848D01*
X121799201Y-119412649D01*
X121799205Y-119412654D01*
X121799207Y-119412656D01*
X121977344Y-119590793D01*
X121977345Y-119590794D01*
X121977344Y-119590794D01*
X121983661Y-119595383D01*
X122026327Y-119650714D01*
X122032305Y-119720327D01*
X121999699Y-119782122D01*
X121938860Y-119816479D01*
X121891378Y-119818174D01*
X121836611Y-119809500D01*
X121663389Y-119809500D01*
X121623728Y-119815781D01*
X121492302Y-119836597D01*
X121327552Y-119890128D01*
X121173211Y-119968768D01*
X121116289Y-120010125D01*
X121033072Y-120070586D01*
X121033070Y-120070588D01*
X121033069Y-120070588D01*
X120910588Y-120193069D01*
X120910588Y-120193070D01*
X120910586Y-120193072D01*
X120866859Y-120253256D01*
X120808768Y-120333211D01*
X120730128Y-120487552D01*
X120676597Y-120652302D01*
X120649500Y-120823389D01*
X112500500Y-120823389D01*
X112500500Y-115704038D01*
X127769500Y-115704038D01*
X127769500Y-115955961D01*
X127808910Y-116204785D01*
X127886760Y-116444383D01*
X127912314Y-116494534D01*
X127999234Y-116665124D01*
X128001132Y-116668848D01*
X128149201Y-116872649D01*
X128149205Y-116872654D01*
X128327345Y-117050794D01*
X128327350Y-117050798D01*
X128505117Y-117179952D01*
X128531155Y-117198870D01*
X128667767Y-117268477D01*
X128755616Y-117313239D01*
X128755618Y-117313239D01*
X128755621Y-117313241D01*
X128995215Y-117391090D01*
X129244038Y-117430500D01*
X129244039Y-117430500D01*
X129495961Y-117430500D01*
X129495962Y-117430500D01*
X129744785Y-117391090D01*
X129984379Y-117313241D01*
X130208845Y-117198870D01*
X130412656Y-117050793D01*
X130590793Y-116872656D01*
X130613346Y-116841613D01*
X130668677Y-116798949D01*
X130713664Y-116790500D01*
X135770398Y-116790500D01*
X135837437Y-116810185D01*
X135880883Y-116858205D01*
X135887715Y-116871614D01*
X136008028Y-117037213D01*
X136152786Y-117181971D01*
X136271854Y-117268477D01*
X136318390Y-117302287D01*
X136434607Y-117361503D01*
X136500776Y-117395218D01*
X136500778Y-117395218D01*
X136500781Y-117395220D01*
X136605137Y-117429127D01*
X136695465Y-117458477D01*
X136796557Y-117474488D01*
X136897648Y-117490500D01*
X136897649Y-117490500D01*
X137102351Y-117490500D01*
X137102352Y-117490500D01*
X137304534Y-117458477D01*
X137499219Y-117395220D01*
X137681610Y-117302287D01*
X137774590Y-117234732D01*
X137847213Y-117181971D01*
X137847215Y-117181968D01*
X137847219Y-117181966D01*
X137991966Y-117037219D01*
X137991968Y-117037215D01*
X137991971Y-117037213D01*
X138044732Y-116964590D01*
X138112287Y-116871610D01*
X138205220Y-116689219D01*
X138268477Y-116494534D01*
X138300500Y-116292352D01*
X138300500Y-116087648D01*
X138268477Y-115885466D01*
X138268476Y-115885462D01*
X138268476Y-115885461D01*
X138220395Y-115737484D01*
X138209527Y-115704038D01*
X146799500Y-115704038D01*
X146799500Y-115955961D01*
X146838910Y-116204785D01*
X146916760Y-116444383D01*
X146942314Y-116494534D01*
X147029234Y-116665124D01*
X147031132Y-116668848D01*
X147179201Y-116872649D01*
X147179205Y-116872654D01*
X147357345Y-117050794D01*
X147357350Y-117050798D01*
X147535117Y-117179952D01*
X147561155Y-117198870D01*
X147697767Y-117268477D01*
X147785616Y-117313239D01*
X147785618Y-117313239D01*
X147785621Y-117313241D01*
X148025215Y-117391090D01*
X148274038Y-117430500D01*
X148274039Y-117430500D01*
X148525961Y-117430500D01*
X148525962Y-117430500D01*
X148774785Y-117391090D01*
X149014379Y-117313241D01*
X149238845Y-117198870D01*
X149442656Y-117050793D01*
X149620793Y-116872656D01*
X149643346Y-116841613D01*
X149698677Y-116798949D01*
X149743664Y-116790500D01*
X154770398Y-116790500D01*
X154837437Y-116810185D01*
X154880883Y-116858205D01*
X154887715Y-116871614D01*
X155008028Y-117037213D01*
X155152786Y-117181971D01*
X155271854Y-117268477D01*
X155318390Y-117302287D01*
X155434607Y-117361503D01*
X155500776Y-117395218D01*
X155500778Y-117395218D01*
X155500781Y-117395220D01*
X155605137Y-117429127D01*
X155695465Y-117458477D01*
X155796557Y-117474488D01*
X155897648Y-117490500D01*
X155897649Y-117490500D01*
X156102351Y-117490500D01*
X156102352Y-117490500D01*
X156304534Y-117458477D01*
X156499219Y-117395220D01*
X156681610Y-117302287D01*
X156774590Y-117234732D01*
X156847213Y-117181971D01*
X156847215Y-117181968D01*
X156847219Y-117181966D01*
X156991966Y-117037219D01*
X156991968Y-117037215D01*
X156991971Y-117037213D01*
X157044732Y-116964590D01*
X157112287Y-116871610D01*
X157205220Y-116689219D01*
X157268477Y-116494534D01*
X157300500Y-116292352D01*
X157300500Y-116087648D01*
X157268477Y-115885466D01*
X157268476Y-115885462D01*
X157268476Y-115885461D01*
X157220395Y-115737484D01*
X157209527Y-115704038D01*
X165949500Y-115704038D01*
X165949500Y-115955961D01*
X165988910Y-116204785D01*
X166066760Y-116444383D01*
X166092314Y-116494534D01*
X166179234Y-116665124D01*
X166181132Y-116668848D01*
X166329201Y-116872649D01*
X166329205Y-116872654D01*
X166507345Y-117050794D01*
X166507350Y-117050798D01*
X166685117Y-117179952D01*
X166711155Y-117198870D01*
X166847767Y-117268477D01*
X166935616Y-117313239D01*
X166935618Y-117313239D01*
X166935621Y-117313241D01*
X167175215Y-117391090D01*
X167424038Y-117430500D01*
X167424039Y-117430500D01*
X167675961Y-117430500D01*
X167675962Y-117430500D01*
X167924785Y-117391090D01*
X168164379Y-117313241D01*
X168388845Y-117198870D01*
X168592656Y-117050793D01*
X168770793Y-116872656D01*
X168918870Y-116668845D01*
X168919193Y-116668210D01*
X168919378Y-116668014D01*
X168921411Y-116664697D01*
X168922107Y-116665124D01*
X168967162Y-116617414D01*
X169029680Y-116600500D01*
X173770398Y-116600500D01*
X173837437Y-116620185D01*
X173880882Y-116668204D01*
X173881211Y-116668849D01*
X173887715Y-116681614D01*
X174008028Y-116847213D01*
X174152786Y-116991971D01*
X174307749Y-117104556D01*
X174318390Y-117112287D01*
X174434607Y-117171503D01*
X174500776Y-117205218D01*
X174500778Y-117205218D01*
X174500781Y-117205220D01*
X174605137Y-117239127D01*
X174695465Y-117268477D01*
X174796557Y-117284488D01*
X174897648Y-117300500D01*
X174897649Y-117300500D01*
X175102351Y-117300500D01*
X175102352Y-117300500D01*
X175304534Y-117268477D01*
X175499219Y-117205220D01*
X175681610Y-117112287D01*
X175784941Y-117037213D01*
X175847213Y-116991971D01*
X175847215Y-116991968D01*
X175847219Y-116991966D01*
X175991966Y-116847219D01*
X175991968Y-116847215D01*
X175991971Y-116847213D01*
X176048432Y-116769500D01*
X176112287Y-116681610D01*
X176205220Y-116499219D01*
X176268477Y-116304534D01*
X176300500Y-116102352D01*
X176300500Y-115897648D01*
X176268477Y-115695466D01*
X176266953Y-115690777D01*
X176239127Y-115605137D01*
X176205220Y-115500781D01*
X176205218Y-115500778D01*
X176205218Y-115500776D01*
X176171503Y-115434607D01*
X176112287Y-115318390D01*
X176037622Y-115215621D01*
X175991971Y-115152786D01*
X175847213Y-115008028D01*
X175681613Y-114887715D01*
X175681612Y-114887714D01*
X175681610Y-114887713D01*
X175624653Y-114858691D01*
X175499223Y-114794781D01*
X175304534Y-114731522D01*
X175129995Y-114703878D01*
X175102352Y-114699500D01*
X174897648Y-114699500D01*
X174873329Y-114703351D01*
X174695465Y-114731522D01*
X174500776Y-114794781D01*
X174318386Y-114887715D01*
X174152786Y-115008028D01*
X174008028Y-115152786D01*
X173887715Y-115318385D01*
X173880883Y-115331795D01*
X173832909Y-115382591D01*
X173770398Y-115399500D01*
X169183078Y-115399500D01*
X169116039Y-115379815D01*
X169070284Y-115327011D01*
X169065147Y-115313818D01*
X169033241Y-115215621D01*
X168918870Y-114991155D01*
X168868279Y-114921522D01*
X168770798Y-114787350D01*
X168770794Y-114787345D01*
X168592654Y-114609205D01*
X168592649Y-114609201D01*
X168388848Y-114461132D01*
X168388847Y-114461131D01*
X168388845Y-114461130D01*
X168318747Y-114425413D01*
X168164383Y-114346760D01*
X167924785Y-114268910D01*
X167675962Y-114229500D01*
X167424038Y-114229500D01*
X167299626Y-114249205D01*
X167175214Y-114268910D01*
X166935616Y-114346760D01*
X166711151Y-114461132D01*
X166507350Y-114609201D01*
X166507345Y-114609205D01*
X166329205Y-114787345D01*
X166329201Y-114787350D01*
X166181132Y-114991151D01*
X166066760Y-115215616D01*
X165988910Y-115455214D01*
X165949500Y-115704038D01*
X157209527Y-115704038D01*
X157206742Y-115695466D01*
X157205220Y-115690781D01*
X157112287Y-115508390D01*
X157095221Y-115484900D01*
X156991971Y-115342786D01*
X156847213Y-115198028D01*
X156681613Y-115077715D01*
X156681612Y-115077714D01*
X156681610Y-115077713D01*
X156624653Y-115048691D01*
X156499223Y-114984781D01*
X156304534Y-114921522D01*
X156129995Y-114893878D01*
X156102352Y-114889500D01*
X155897648Y-114889500D01*
X155873329Y-114893351D01*
X155695465Y-114921522D01*
X155500776Y-114984781D01*
X155318386Y-115077715D01*
X155152786Y-115198028D01*
X155008028Y-115342786D01*
X154887715Y-115508385D01*
X154880883Y-115521795D01*
X154832909Y-115572591D01*
X154770398Y-115589500D01*
X150088265Y-115589500D01*
X150021226Y-115569815D01*
X149975471Y-115517011D01*
X149965792Y-115484900D01*
X149961090Y-115455216D01*
X149961090Y-115455215D01*
X149883241Y-115215621D01*
X149768870Y-114991155D01*
X149718279Y-114921522D01*
X149620798Y-114787350D01*
X149620794Y-114787345D01*
X149442654Y-114609205D01*
X149442649Y-114609201D01*
X149238848Y-114461132D01*
X149238847Y-114461131D01*
X149238845Y-114461130D01*
X149168747Y-114425413D01*
X149014383Y-114346760D01*
X148774785Y-114268910D01*
X148525962Y-114229500D01*
X148274038Y-114229500D01*
X148149626Y-114249205D01*
X148025214Y-114268910D01*
X147785616Y-114346760D01*
X147561151Y-114461132D01*
X147357350Y-114609201D01*
X147357345Y-114609205D01*
X147179205Y-114787345D01*
X147179201Y-114787350D01*
X147031132Y-114991151D01*
X146916760Y-115215616D01*
X146838910Y-115455214D01*
X146799500Y-115704038D01*
X138209527Y-115704038D01*
X138206742Y-115695466D01*
X138205220Y-115690781D01*
X138112287Y-115508390D01*
X138095221Y-115484900D01*
X137991971Y-115342786D01*
X137847213Y-115198028D01*
X137681613Y-115077715D01*
X137681612Y-115077714D01*
X137681610Y-115077713D01*
X137624653Y-115048691D01*
X137499223Y-114984781D01*
X137304534Y-114921522D01*
X137129995Y-114893878D01*
X137102352Y-114889500D01*
X136897648Y-114889500D01*
X136873329Y-114893351D01*
X136695465Y-114921522D01*
X136500776Y-114984781D01*
X136318386Y-115077715D01*
X136152786Y-115198028D01*
X136008028Y-115342786D01*
X135887715Y-115508385D01*
X135880883Y-115521795D01*
X135832909Y-115572591D01*
X135770398Y-115589500D01*
X131058265Y-115589500D01*
X130991226Y-115569815D01*
X130945471Y-115517011D01*
X130935792Y-115484900D01*
X130931090Y-115455216D01*
X130931090Y-115455215D01*
X130853241Y-115215621D01*
X130738870Y-114991155D01*
X130688279Y-114921522D01*
X130590798Y-114787350D01*
X130590794Y-114787345D01*
X130412654Y-114609205D01*
X130412649Y-114609201D01*
X130208848Y-114461132D01*
X130208847Y-114461131D01*
X130208845Y-114461130D01*
X130138747Y-114425413D01*
X129984383Y-114346760D01*
X129744785Y-114268910D01*
X129495962Y-114229500D01*
X129244038Y-114229500D01*
X129119626Y-114249205D01*
X128995214Y-114268910D01*
X128755616Y-114346760D01*
X128531151Y-114461132D01*
X128327350Y-114609201D01*
X128327345Y-114609205D01*
X128149205Y-114787345D01*
X128149201Y-114787350D01*
X128001132Y-114991151D01*
X127886760Y-115215616D01*
X127808910Y-115455214D01*
X127769500Y-115704038D01*
X112500500Y-115704038D01*
X112500500Y-104209983D01*
X135699500Y-104209983D01*
X135699500Y-105410001D01*
X135699501Y-105410018D01*
X135710000Y-105512796D01*
X135710001Y-105512799D01*
X135751707Y-105638657D01*
X135765186Y-105679334D01*
X135857288Y-105828656D01*
X135981344Y-105952712D01*
X136130666Y-106044814D01*
X136297203Y-106099999D01*
X136399991Y-106110500D01*
X137600008Y-106110499D01*
X137702797Y-106099999D01*
X137869334Y-106044814D01*
X138018656Y-105952712D01*
X138142712Y-105828656D01*
X138234814Y-105679334D01*
X138289999Y-105512797D01*
X138290000Y-105512792D01*
X138290912Y-105508533D01*
X138324199Y-105447102D01*
X138385414Y-105413419D01*
X138412163Y-105410500D01*
X154587837Y-105410500D01*
X154654876Y-105430185D01*
X154700631Y-105482989D01*
X154709089Y-105508541D01*
X154709999Y-105512792D01*
X154751707Y-105638656D01*
X154765186Y-105679334D01*
X154857288Y-105828656D01*
X154981344Y-105952712D01*
X155130666Y-106044814D01*
X155297203Y-106099999D01*
X155399991Y-106110500D01*
X156600008Y-106110499D01*
X156702797Y-106099999D01*
X156869334Y-106044814D01*
X157018656Y-105952712D01*
X157142712Y-105828656D01*
X157234814Y-105679334D01*
X157289999Y-105512797D01*
X157290000Y-105512792D01*
X157290912Y-105508533D01*
X157324199Y-105447102D01*
X157385414Y-105413419D01*
X157412163Y-105410500D01*
X173649522Y-105410500D01*
X173716561Y-105430185D01*
X173762316Y-105482989D01*
X173762786Y-105484186D01*
X173765185Y-105489331D01*
X173765186Y-105489334D01*
X173857288Y-105638656D01*
X173981344Y-105762712D01*
X174130666Y-105854814D01*
X174297203Y-105909999D01*
X174399991Y-105920500D01*
X175600008Y-105920499D01*
X175702797Y-105909999D01*
X175869334Y-105854814D01*
X176018656Y-105762712D01*
X176142712Y-105638656D01*
X176234814Y-105489334D01*
X176289999Y-105322797D01*
X176300500Y-105220009D01*
X176300499Y-104019992D01*
X176289999Y-103917203D01*
X176234814Y-103750666D01*
X176142712Y-103601344D01*
X176018656Y-103477288D01*
X175869334Y-103385186D01*
X175702797Y-103330001D01*
X175702795Y-103330000D01*
X175600010Y-103319500D01*
X174399998Y-103319500D01*
X174399981Y-103319501D01*
X174297203Y-103330000D01*
X174297200Y-103330001D01*
X174130668Y-103385185D01*
X174130663Y-103385187D01*
X173981342Y-103477289D01*
X173857289Y-103601342D01*
X173765187Y-103750663D01*
X173765185Y-103750668D01*
X173737349Y-103834670D01*
X173710001Y-103917203D01*
X173710001Y-103917204D01*
X173710000Y-103917204D01*
X173699500Y-104019983D01*
X173699500Y-104085500D01*
X173679815Y-104152539D01*
X173627011Y-104198294D01*
X173575500Y-104209500D01*
X165836179Y-104209500D01*
X165769140Y-104189815D01*
X165723385Y-104137011D01*
X165713441Y-104067853D01*
X165742466Y-104004297D01*
X165788726Y-103970939D01*
X165839829Y-103949770D01*
X165977507Y-103892743D01*
X166232994Y-103745238D01*
X166467042Y-103565646D01*
X166675646Y-103357042D01*
X166855238Y-103122994D01*
X167002743Y-102867507D01*
X167115639Y-102594952D01*
X167191993Y-102309993D01*
X167230500Y-102017506D01*
X167230500Y-101783389D01*
X168959500Y-101783389D01*
X168959500Y-101956610D01*
X168972312Y-102037506D01*
X168986598Y-102127701D01*
X168993096Y-102147701D01*
X169040128Y-102292447D01*
X169118768Y-102446788D01*
X169220586Y-102586928D01*
X169343072Y-102709414D01*
X169483212Y-102811232D01*
X169637555Y-102889873D01*
X169802299Y-102943402D01*
X169973389Y-102970500D01*
X169973390Y-102970500D01*
X170146610Y-102970500D01*
X170146611Y-102970500D01*
X170317701Y-102943402D01*
X170482445Y-102889873D01*
X170636788Y-102811232D01*
X170776928Y-102709414D01*
X170899414Y-102586928D01*
X171001232Y-102446788D01*
X171079873Y-102292445D01*
X171133402Y-102127701D01*
X171160500Y-101956611D01*
X171160500Y-101783389D01*
X171133402Y-101612299D01*
X171079873Y-101447555D01*
X171001232Y-101293212D01*
X170899414Y-101153072D01*
X170776928Y-101030586D01*
X170636788Y-100928768D01*
X170482445Y-100850127D01*
X170317701Y-100796598D01*
X170317699Y-100796597D01*
X170317698Y-100796597D01*
X170186271Y-100775781D01*
X170146611Y-100769500D01*
X169973389Y-100769500D01*
X169933728Y-100775781D01*
X169802302Y-100796597D01*
X169637552Y-100850128D01*
X169483211Y-100928768D01*
X169426289Y-100970125D01*
X169343072Y-101030586D01*
X169343070Y-101030588D01*
X169343069Y-101030588D01*
X169220588Y-101153069D01*
X169220588Y-101153070D01*
X169220586Y-101153072D01*
X169206057Y-101173070D01*
X169118768Y-101293211D01*
X169040128Y-101447552D01*
X168986597Y-101612302D01*
X168959500Y-101783389D01*
X167230500Y-101783389D01*
X167230500Y-101722494D01*
X167191993Y-101430007D01*
X167115639Y-101145048D01*
X167002743Y-100872493D01*
X166974307Y-100823241D01*
X166855238Y-100617006D01*
X166675647Y-100382959D01*
X166675641Y-100382952D01*
X166467047Y-100174358D01*
X166467040Y-100174352D01*
X166232993Y-99994761D01*
X165977510Y-99847258D01*
X165977500Y-99847254D01*
X165704961Y-99734364D01*
X165704954Y-99734362D01*
X165704952Y-99734361D01*
X165419993Y-99658007D01*
X165371113Y-99651571D01*
X165127513Y-99619500D01*
X165127506Y-99619500D01*
X164832494Y-99619500D01*
X164832486Y-99619500D01*
X164554085Y-99656153D01*
X164540007Y-99658007D01*
X164465362Y-99678008D01*
X164255048Y-99734361D01*
X164255038Y-99734364D01*
X163982499Y-99847254D01*
X163982489Y-99847258D01*
X163727006Y-99994761D01*
X163492959Y-100174352D01*
X163492952Y-100174358D01*
X163284358Y-100382952D01*
X163284352Y-100382959D01*
X163104761Y-100617006D01*
X162957258Y-100872489D01*
X162957254Y-100872499D01*
X162844364Y-101145038D01*
X162844361Y-101145048D01*
X162768008Y-101430004D01*
X162768006Y-101430015D01*
X162729500Y-101722486D01*
X162729500Y-102017513D01*
X162761571Y-102261113D01*
X162768007Y-102309993D01*
X162842212Y-102586930D01*
X162844361Y-102594951D01*
X162844364Y-102594961D01*
X162957254Y-102867500D01*
X162957258Y-102867510D01*
X163104761Y-103122993D01*
X163284352Y-103357040D01*
X163284358Y-103357047D01*
X163492952Y-103565641D01*
X163492959Y-103565647D01*
X163727006Y-103745238D01*
X163982489Y-103892741D01*
X163982490Y-103892741D01*
X163982493Y-103892743D01*
X164094330Y-103939067D01*
X164171274Y-103970939D01*
X164225677Y-104014780D01*
X164247742Y-104081074D01*
X164230463Y-104148774D01*
X164179326Y-104196384D01*
X164123821Y-104209500D01*
X157412163Y-104209500D01*
X157345124Y-104189815D01*
X157299369Y-104137011D01*
X157290911Y-104111459D01*
X157290000Y-104107207D01*
X157289999Y-104107203D01*
X157234814Y-103940666D01*
X157142712Y-103791344D01*
X157018656Y-103667288D01*
X156886294Y-103585647D01*
X156869336Y-103575187D01*
X156869331Y-103575185D01*
X156840529Y-103565641D01*
X156702797Y-103520001D01*
X156702795Y-103520000D01*
X156600010Y-103509500D01*
X155399998Y-103509500D01*
X155399981Y-103509501D01*
X155297203Y-103520000D01*
X155297200Y-103520001D01*
X155130668Y-103575185D01*
X155130663Y-103575187D01*
X154981342Y-103667289D01*
X154857289Y-103791342D01*
X154765187Y-103940663D01*
X154765185Y-103940668D01*
X154710000Y-104107204D01*
X154709088Y-104111467D01*
X154675801Y-104172898D01*
X154614586Y-104206581D01*
X154587837Y-104209500D01*
X146740321Y-104209500D01*
X146673282Y-104189815D01*
X146627527Y-104137011D01*
X146617583Y-104067853D01*
X146646608Y-104004297D01*
X146692868Y-103970939D01*
X146731918Y-103954763D01*
X146857507Y-103902743D01*
X147112994Y-103755238D01*
X147347042Y-103575646D01*
X147555646Y-103367042D01*
X147735238Y-103132994D01*
X147882743Y-102877507D01*
X147995639Y-102604952D01*
X148071993Y-102319993D01*
X148110500Y-102027506D01*
X148110500Y-101793389D01*
X149839500Y-101793389D01*
X149839500Y-101966610D01*
X149865013Y-102127697D01*
X149866598Y-102137701D01*
X149920127Y-102302445D01*
X149998768Y-102456788D01*
X150100586Y-102596928D01*
X150223072Y-102719414D01*
X150363212Y-102821232D01*
X150517555Y-102899873D01*
X150682299Y-102953402D01*
X150853389Y-102980500D01*
X150853390Y-102980500D01*
X151026610Y-102980500D01*
X151026611Y-102980500D01*
X151197701Y-102953402D01*
X151362445Y-102899873D01*
X151516788Y-102821232D01*
X151656928Y-102719414D01*
X151779414Y-102596928D01*
X151881232Y-102456788D01*
X151959873Y-102302445D01*
X152013402Y-102137701D01*
X152040500Y-101966611D01*
X152040500Y-101793389D01*
X152013402Y-101622299D01*
X151959873Y-101457555D01*
X151881232Y-101303212D01*
X151779414Y-101163072D01*
X151656928Y-101040586D01*
X151516788Y-100938768D01*
X151362445Y-100860127D01*
X151197701Y-100806598D01*
X151197699Y-100806597D01*
X151197698Y-100806597D01*
X151066271Y-100785781D01*
X151026611Y-100779500D01*
X150853389Y-100779500D01*
X150813728Y-100785781D01*
X150682302Y-100806597D01*
X150517552Y-100860128D01*
X150363211Y-100938768D01*
X150306289Y-100980125D01*
X150223072Y-101040586D01*
X150223070Y-101040588D01*
X150223069Y-101040588D01*
X150100588Y-101163069D01*
X150100588Y-101163070D01*
X150100586Y-101163072D01*
X150093323Y-101173069D01*
X149998768Y-101303211D01*
X149920128Y-101457552D01*
X149866597Y-101622302D01*
X149839500Y-101793389D01*
X148110500Y-101793389D01*
X148110500Y-101732494D01*
X148071993Y-101440007D01*
X147995639Y-101155048D01*
X147882743Y-100882493D01*
X147876967Y-100872489D01*
X147735238Y-100627006D01*
X147555647Y-100392959D01*
X147555641Y-100392952D01*
X147347047Y-100184358D01*
X147347040Y-100184352D01*
X147112993Y-100004761D01*
X146857510Y-99857258D01*
X146857500Y-99857254D01*
X146584961Y-99744364D01*
X146584954Y-99744362D01*
X146584952Y-99744361D01*
X146299993Y-99668007D01*
X146251113Y-99661571D01*
X146007513Y-99629500D01*
X146007506Y-99629500D01*
X145712494Y-99629500D01*
X145712486Y-99629500D01*
X145434085Y-99666153D01*
X145420007Y-99668007D01*
X145282749Y-99704785D01*
X145135048Y-99744361D01*
X145135038Y-99744364D01*
X144862499Y-99857254D01*
X144862489Y-99857258D01*
X144607006Y-100004761D01*
X144372959Y-100184352D01*
X144372952Y-100184358D01*
X144164358Y-100392952D01*
X144164352Y-100392959D01*
X143984761Y-100627006D01*
X143837258Y-100882489D01*
X143837254Y-100882499D01*
X143724364Y-101155038D01*
X143724361Y-101155048D01*
X143650685Y-101430015D01*
X143648008Y-101440004D01*
X143648006Y-101440015D01*
X143609500Y-101732486D01*
X143609500Y-102027513D01*
X143625324Y-102147701D01*
X143648007Y-102319993D01*
X143722212Y-102596930D01*
X143724361Y-102604951D01*
X143724364Y-102604961D01*
X143837254Y-102877500D01*
X143837258Y-102877510D01*
X143984761Y-103132993D01*
X144164352Y-103367040D01*
X144164358Y-103367047D01*
X144372952Y-103575641D01*
X144372959Y-103575647D01*
X144607006Y-103755238D01*
X144862489Y-103902741D01*
X144862490Y-103902741D01*
X144862493Y-103902743D01*
X144954040Y-103940663D01*
X145027132Y-103970939D01*
X145081535Y-104014780D01*
X145103600Y-104081074D01*
X145086321Y-104148773D01*
X145035184Y-104196384D01*
X144979679Y-104209500D01*
X138412163Y-104209500D01*
X138345124Y-104189815D01*
X138299369Y-104137011D01*
X138290911Y-104111459D01*
X138290000Y-104107207D01*
X138289999Y-104107203D01*
X138234814Y-103940666D01*
X138142712Y-103791344D01*
X138018656Y-103667288D01*
X137886294Y-103585647D01*
X137869336Y-103575187D01*
X137869331Y-103575185D01*
X137840529Y-103565641D01*
X137702797Y-103520001D01*
X137702795Y-103520000D01*
X137600010Y-103509500D01*
X136399998Y-103509500D01*
X136399981Y-103509501D01*
X136297203Y-103520000D01*
X136297200Y-103520001D01*
X136130668Y-103575185D01*
X136130663Y-103575187D01*
X135981342Y-103667289D01*
X135857289Y-103791342D01*
X135765187Y-103940663D01*
X135765185Y-103940668D01*
X135744101Y-104004297D01*
X135710001Y-104107203D01*
X135710001Y-104107204D01*
X135710000Y-104107204D01*
X135699500Y-104209983D01*
X112500500Y-104209983D01*
X112500500Y-101803389D01*
X120659500Y-101803389D01*
X120659500Y-101976610D01*
X120685013Y-102137697D01*
X120686598Y-102147701D01*
X120740127Y-102312445D01*
X120818768Y-102466788D01*
X120920586Y-102606928D01*
X121043072Y-102729414D01*
X121183212Y-102831232D01*
X121337555Y-102909873D01*
X121502299Y-102963402D01*
X121673389Y-102990500D01*
X121673390Y-102990500D01*
X121846610Y-102990500D01*
X121846611Y-102990500D01*
X122017701Y-102963402D01*
X122182445Y-102909873D01*
X122336788Y-102831232D01*
X122476928Y-102729414D01*
X122599414Y-102606928D01*
X122701232Y-102466788D01*
X122779873Y-102312445D01*
X122833402Y-102147701D01*
X122860500Y-101976611D01*
X122860500Y-101803389D01*
X122850854Y-101742486D01*
X124589500Y-101742486D01*
X124589500Y-102037513D01*
X124621571Y-102281113D01*
X124628007Y-102329993D01*
X124702212Y-102606930D01*
X124704361Y-102614951D01*
X124704364Y-102614961D01*
X124817254Y-102887500D01*
X124817258Y-102887510D01*
X124964761Y-103142993D01*
X125144352Y-103377040D01*
X125144358Y-103377047D01*
X125352952Y-103585641D01*
X125352959Y-103585647D01*
X125587006Y-103765238D01*
X125842489Y-103912741D01*
X125842490Y-103912741D01*
X125842493Y-103912743D01*
X125982991Y-103970939D01*
X126101412Y-104019991D01*
X126115048Y-104025639D01*
X126400007Y-104101993D01*
X126692494Y-104140500D01*
X126692501Y-104140500D01*
X126987499Y-104140500D01*
X126987506Y-104140500D01*
X127279993Y-104101993D01*
X127564952Y-104025639D01*
X127837507Y-103912743D01*
X128092994Y-103765238D01*
X128327042Y-103585646D01*
X128535646Y-103377042D01*
X128715238Y-103142994D01*
X128862743Y-102887507D01*
X128975639Y-102614952D01*
X129051993Y-102329993D01*
X129090500Y-102037506D01*
X129090500Y-101803389D01*
X130819500Y-101803389D01*
X130819500Y-101976610D01*
X130845013Y-102137697D01*
X130846598Y-102147701D01*
X130900127Y-102312445D01*
X130978768Y-102466788D01*
X131080586Y-102606928D01*
X131203072Y-102729414D01*
X131343212Y-102831232D01*
X131497555Y-102909873D01*
X131662299Y-102963402D01*
X131833389Y-102990500D01*
X131833390Y-102990500D01*
X132006610Y-102990500D01*
X132006611Y-102990500D01*
X132177701Y-102963402D01*
X132342445Y-102909873D01*
X132496788Y-102831232D01*
X132636928Y-102729414D01*
X132759414Y-102606928D01*
X132861232Y-102466788D01*
X132939873Y-102312445D01*
X132993402Y-102147701D01*
X133020500Y-101976611D01*
X133020500Y-101803389D01*
X133018916Y-101793389D01*
X139679500Y-101793389D01*
X139679500Y-101966610D01*
X139705013Y-102127697D01*
X139706598Y-102137701D01*
X139760127Y-102302445D01*
X139838768Y-102456788D01*
X139940586Y-102596928D01*
X140063072Y-102719414D01*
X140203212Y-102821232D01*
X140357555Y-102899873D01*
X140522299Y-102953402D01*
X140693389Y-102980500D01*
X140693390Y-102980500D01*
X140866610Y-102980500D01*
X140866611Y-102980500D01*
X141037701Y-102953402D01*
X141202445Y-102899873D01*
X141356788Y-102821232D01*
X141496928Y-102719414D01*
X141619414Y-102596928D01*
X141721232Y-102456788D01*
X141799873Y-102302445D01*
X141853402Y-102137701D01*
X141880500Y-101966611D01*
X141880500Y-101793389D01*
X141853402Y-101622299D01*
X141799873Y-101457555D01*
X141721232Y-101303212D01*
X141619414Y-101163072D01*
X141567482Y-101111140D01*
X141533997Y-101049817D01*
X141538981Y-100980125D01*
X141580853Y-100924192D01*
X141646317Y-100899775D01*
X141674561Y-100900986D01*
X141675212Y-100901089D01*
X141675215Y-100901090D01*
X141924038Y-100940500D01*
X141924039Y-100940500D01*
X142175961Y-100940500D01*
X142175962Y-100940500D01*
X142424785Y-100901090D01*
X142664379Y-100823241D01*
X142888845Y-100708870D01*
X143092656Y-100560793D01*
X143270793Y-100382656D01*
X143418870Y-100178845D01*
X143533241Y-99954379D01*
X143611090Y-99714785D01*
X143650500Y-99465962D01*
X143650500Y-99214038D01*
X143611090Y-98965215D01*
X143533241Y-98725621D01*
X143533239Y-98725618D01*
X143533239Y-98725616D01*
X143491747Y-98644184D01*
X143418870Y-98501155D01*
X143387863Y-98458477D01*
X143270798Y-98297350D01*
X143270794Y-98297345D01*
X143092654Y-98119205D01*
X143092649Y-98119201D01*
X142888848Y-97971132D01*
X142888847Y-97971131D01*
X142888845Y-97971130D01*
X142818747Y-97935413D01*
X142664383Y-97856760D01*
X142424785Y-97778910D01*
X142328747Y-97763699D01*
X142175962Y-97739500D01*
X141924038Y-97739500D01*
X141860901Y-97749500D01*
X141675214Y-97778910D01*
X141435616Y-97856760D01*
X141211151Y-97971132D01*
X141007350Y-98119201D01*
X141007345Y-98119205D01*
X140829205Y-98297345D01*
X140829201Y-98297350D01*
X140681132Y-98501151D01*
X140566760Y-98725616D01*
X140488910Y-98965214D01*
X140449500Y-99214038D01*
X140449500Y-99465961D01*
X140488910Y-99714785D01*
X140566760Y-99954383D01*
X140645413Y-100108747D01*
X140676036Y-100168848D01*
X140681132Y-100178848D01*
X140829201Y-100382649D01*
X140829205Y-100382654D01*
X140829207Y-100382656D01*
X141007344Y-100560793D01*
X141007345Y-100560794D01*
X141007344Y-100560794D01*
X141013661Y-100565383D01*
X141056327Y-100620714D01*
X141062305Y-100690327D01*
X141029699Y-100752122D01*
X140968860Y-100786479D01*
X140921378Y-100788174D01*
X140866611Y-100779500D01*
X140693389Y-100779500D01*
X140653728Y-100785781D01*
X140522302Y-100806597D01*
X140357552Y-100860128D01*
X140203211Y-100938768D01*
X140146289Y-100980125D01*
X140063072Y-101040586D01*
X140063070Y-101040588D01*
X140063069Y-101040588D01*
X139940588Y-101163069D01*
X139940588Y-101163070D01*
X139940586Y-101163072D01*
X139933323Y-101173069D01*
X139838768Y-101303211D01*
X139760128Y-101457552D01*
X139706597Y-101622302D01*
X139679500Y-101793389D01*
X133018916Y-101793389D01*
X132993402Y-101632299D01*
X132939873Y-101467555D01*
X132861232Y-101313212D01*
X132759414Y-101173072D01*
X132636928Y-101050586D01*
X132496788Y-100948768D01*
X132342445Y-100870127D01*
X132177701Y-100816598D01*
X132177699Y-100816597D01*
X132177698Y-100816597D01*
X132046271Y-100795781D01*
X132006611Y-100789500D01*
X131833389Y-100789500D01*
X131793728Y-100795781D01*
X131662302Y-100816597D01*
X131497552Y-100870128D01*
X131343211Y-100948768D01*
X131286289Y-100990125D01*
X131203072Y-101050586D01*
X131203070Y-101050588D01*
X131203069Y-101050588D01*
X131080588Y-101173069D01*
X131080588Y-101173070D01*
X131080586Y-101173072D01*
X131036859Y-101233256D01*
X130978768Y-101313211D01*
X130900128Y-101467552D01*
X130846597Y-101632302D01*
X130819500Y-101803389D01*
X129090500Y-101803389D01*
X129090500Y-101742494D01*
X129051993Y-101450007D01*
X128975639Y-101165048D01*
X128862743Y-100892493D01*
X128861932Y-100891089D01*
X128715238Y-100637006D01*
X128535647Y-100402959D01*
X128535641Y-100402952D01*
X128327047Y-100194358D01*
X128327040Y-100194352D01*
X128092993Y-100014761D01*
X127837510Y-99867258D01*
X127837500Y-99867254D01*
X127564961Y-99754364D01*
X127564954Y-99754362D01*
X127564952Y-99754361D01*
X127279993Y-99678007D01*
X127231113Y-99671571D01*
X126987513Y-99639500D01*
X126987506Y-99639500D01*
X126692494Y-99639500D01*
X126692486Y-99639500D01*
X126414085Y-99676153D01*
X126400007Y-99678007D01*
X126152369Y-99744361D01*
X126115048Y-99754361D01*
X126115038Y-99754364D01*
X125842499Y-99867254D01*
X125842489Y-99867258D01*
X125587006Y-100014761D01*
X125352959Y-100194352D01*
X125352952Y-100194358D01*
X125144358Y-100402952D01*
X125144352Y-100402959D01*
X124964761Y-100637006D01*
X124817258Y-100892489D01*
X124817254Y-100892499D01*
X124704364Y-101165038D01*
X124704361Y-101165048D01*
X124630685Y-101440015D01*
X124628008Y-101450004D01*
X124628006Y-101450015D01*
X124589500Y-101742486D01*
X122850854Y-101742486D01*
X122833402Y-101632299D01*
X122779873Y-101467555D01*
X122701232Y-101313212D01*
X122599414Y-101173072D01*
X122547482Y-101121140D01*
X122513997Y-101059817D01*
X122518981Y-100990125D01*
X122560853Y-100934192D01*
X122626317Y-100909775D01*
X122654561Y-100910986D01*
X122655212Y-100911089D01*
X122655215Y-100911090D01*
X122904038Y-100950500D01*
X122904039Y-100950500D01*
X123155961Y-100950500D01*
X123155962Y-100950500D01*
X123404785Y-100911090D01*
X123644379Y-100833241D01*
X123868845Y-100718870D01*
X124072656Y-100570793D01*
X124250793Y-100392656D01*
X124398870Y-100188845D01*
X124513241Y-99964379D01*
X124591090Y-99724785D01*
X124630500Y-99475962D01*
X124630500Y-99224038D01*
X124591090Y-98975215D01*
X124513241Y-98735621D01*
X124513239Y-98735618D01*
X124513239Y-98735616D01*
X124471747Y-98654184D01*
X124398870Y-98511155D01*
X124318475Y-98400500D01*
X124250798Y-98307350D01*
X124250794Y-98307345D01*
X124072654Y-98129205D01*
X124072649Y-98129201D01*
X123868848Y-97981132D01*
X123868847Y-97981131D01*
X123868845Y-97981130D01*
X123798747Y-97945413D01*
X123644383Y-97866760D01*
X123404785Y-97788910D01*
X123245610Y-97763699D01*
X123155962Y-97749500D01*
X122904038Y-97749500D01*
X122814390Y-97763699D01*
X122655214Y-97788910D01*
X122415616Y-97866760D01*
X122191151Y-97981132D01*
X121987350Y-98129201D01*
X121987345Y-98129205D01*
X121809205Y-98307345D01*
X121809201Y-98307350D01*
X121661132Y-98511151D01*
X121546760Y-98735616D01*
X121472159Y-98965215D01*
X121468910Y-98975215D01*
X121429500Y-99224038D01*
X121429500Y-99475962D01*
X121459917Y-99668006D01*
X121468910Y-99724785D01*
X121546760Y-99964383D01*
X121572430Y-100014762D01*
X121656036Y-100178848D01*
X121661132Y-100188848D01*
X121809201Y-100392649D01*
X121809205Y-100392654D01*
X121809207Y-100392656D01*
X121987344Y-100570793D01*
X121987345Y-100570794D01*
X121987344Y-100570794D01*
X121993661Y-100575383D01*
X122036327Y-100630714D01*
X122042305Y-100700327D01*
X122009699Y-100762122D01*
X121948860Y-100796479D01*
X121901378Y-100798174D01*
X121846611Y-100789500D01*
X121673389Y-100789500D01*
X121633728Y-100795781D01*
X121502302Y-100816597D01*
X121337552Y-100870128D01*
X121183211Y-100948768D01*
X121126289Y-100990125D01*
X121043072Y-101050586D01*
X121043070Y-101050588D01*
X121043069Y-101050588D01*
X120920588Y-101173069D01*
X120920588Y-101173070D01*
X120920586Y-101173072D01*
X120876859Y-101233256D01*
X120818768Y-101313211D01*
X120740128Y-101467552D01*
X120686597Y-101632302D01*
X120659500Y-101803389D01*
X112500500Y-101803389D01*
X112500500Y-96684038D01*
X127779500Y-96684038D01*
X127779500Y-96935961D01*
X127818910Y-97184785D01*
X127896760Y-97424383D01*
X127975413Y-97578747D01*
X128006036Y-97638848D01*
X128011132Y-97648848D01*
X128159201Y-97852649D01*
X128159205Y-97852654D01*
X128337345Y-98030794D01*
X128337350Y-98030798D01*
X128513623Y-98158867D01*
X128541155Y-98178870D01*
X128684184Y-98251747D01*
X128765616Y-98293239D01*
X128765618Y-98293239D01*
X128765621Y-98293241D01*
X129005215Y-98371090D01*
X129254038Y-98410500D01*
X129254039Y-98410500D01*
X129505961Y-98410500D01*
X129505962Y-98410500D01*
X129754785Y-98371090D01*
X129994379Y-98293241D01*
X130218845Y-98178870D01*
X130422656Y-98030793D01*
X130600793Y-97852656D01*
X130748870Y-97648845D01*
X130835815Y-97478204D01*
X130883789Y-97427409D01*
X130946300Y-97410500D01*
X135614128Y-97410500D01*
X135681167Y-97430185D01*
X135726922Y-97482989D01*
X135732055Y-97496173D01*
X135794780Y-97689219D01*
X135885241Y-97866759D01*
X135887715Y-97871613D01*
X136008028Y-98037213D01*
X136152786Y-98181971D01*
X136297824Y-98287345D01*
X136318390Y-98302287D01*
X136414171Y-98351090D01*
X136500776Y-98395218D01*
X136500778Y-98395218D01*
X136500781Y-98395220D01*
X136605137Y-98429127D01*
X136695465Y-98458477D01*
X136796557Y-98474488D01*
X136897648Y-98490500D01*
X136897649Y-98490500D01*
X137102351Y-98490500D01*
X137102352Y-98490500D01*
X137304534Y-98458477D01*
X137499219Y-98395220D01*
X137681610Y-98302287D01*
X137774590Y-98234732D01*
X137847213Y-98181971D01*
X137847215Y-98181968D01*
X137847219Y-98181966D01*
X137991966Y-98037219D01*
X137991968Y-98037215D01*
X137991971Y-98037213D01*
X138047247Y-97961130D01*
X138112287Y-97871610D01*
X138205220Y-97689219D01*
X138268477Y-97494534D01*
X138300500Y-97292352D01*
X138300500Y-97087648D01*
X138273307Y-96915961D01*
X138268477Y-96885465D01*
X138210647Y-96707485D01*
X138205218Y-96690776D01*
X138196690Y-96674038D01*
X146799500Y-96674038D01*
X146799500Y-96925962D01*
X146827438Y-97102352D01*
X146838910Y-97174785D01*
X146916760Y-97414383D01*
X146959987Y-97499219D01*
X147026036Y-97628848D01*
X147031132Y-97638848D01*
X147179201Y-97842649D01*
X147179205Y-97842654D01*
X147357345Y-98020794D01*
X147357350Y-98020798D01*
X147506555Y-98129201D01*
X147561155Y-98168870D01*
X147704184Y-98241747D01*
X147785616Y-98283239D01*
X147785618Y-98283239D01*
X147785621Y-98283241D01*
X148025215Y-98361090D01*
X148274038Y-98400500D01*
X148274039Y-98400500D01*
X148525961Y-98400500D01*
X148525962Y-98400500D01*
X148774785Y-98361090D01*
X149014379Y-98283241D01*
X149238845Y-98168870D01*
X149442656Y-98020793D01*
X149620793Y-97842656D01*
X149621553Y-97841610D01*
X149621943Y-97841309D01*
X149623959Y-97838949D01*
X149624454Y-97839372D01*
X149676885Y-97798947D01*
X149721868Y-97790500D01*
X154770398Y-97790500D01*
X154837437Y-97810185D01*
X154880883Y-97858205D01*
X154887715Y-97871614D01*
X155008028Y-98037213D01*
X155152786Y-98181971D01*
X155297824Y-98287345D01*
X155318390Y-98302287D01*
X155414171Y-98351090D01*
X155500776Y-98395218D01*
X155500778Y-98395218D01*
X155500781Y-98395220D01*
X155605137Y-98429127D01*
X155695465Y-98458477D01*
X155796557Y-98474488D01*
X155897648Y-98490500D01*
X155897649Y-98490500D01*
X156102351Y-98490500D01*
X156102352Y-98490500D01*
X156304534Y-98458477D01*
X156499219Y-98395220D01*
X156681610Y-98302287D01*
X156774590Y-98234732D01*
X156847213Y-98181971D01*
X156847215Y-98181968D01*
X156847219Y-98181966D01*
X156991966Y-98037219D01*
X156991968Y-98037215D01*
X156991971Y-98037213D01*
X157047247Y-97961130D01*
X157112287Y-97871610D01*
X157205220Y-97689219D01*
X157268477Y-97494534D01*
X157300500Y-97292352D01*
X157300500Y-97087648D01*
X157273307Y-96915961D01*
X157268477Y-96885465D01*
X157205218Y-96690776D01*
X157171503Y-96624607D01*
X157112287Y-96508390D01*
X157059123Y-96435215D01*
X156991971Y-96342786D01*
X156847213Y-96198028D01*
X156681613Y-96077715D01*
X156681612Y-96077714D01*
X156681610Y-96077713D01*
X156624653Y-96048691D01*
X156499223Y-95984781D01*
X156304534Y-95921522D01*
X156129995Y-95893878D01*
X156102352Y-95889500D01*
X155897648Y-95889500D01*
X155873329Y-95893351D01*
X155695465Y-95921522D01*
X155500776Y-95984781D01*
X155318386Y-96077715D01*
X155152786Y-96198028D01*
X155008028Y-96342786D01*
X154887715Y-96508385D01*
X154880883Y-96521795D01*
X154832909Y-96572591D01*
X154770398Y-96589500D01*
X150093016Y-96589500D01*
X150025977Y-96569815D01*
X149980222Y-96517011D01*
X149970543Y-96484898D01*
X149968657Y-96472994D01*
X149961090Y-96425215D01*
X149883241Y-96185621D01*
X149883239Y-96185618D01*
X149883239Y-96185616D01*
X149828259Y-96077713D01*
X149768870Y-95961155D01*
X149715513Y-95887715D01*
X149620798Y-95757350D01*
X149620794Y-95757345D01*
X149442654Y-95579205D01*
X149442649Y-95579201D01*
X149238848Y-95431132D01*
X149238847Y-95431131D01*
X149238845Y-95431130D01*
X149168747Y-95395413D01*
X149014383Y-95316760D01*
X148774785Y-95238910D01*
X148711648Y-95228910D01*
X148525962Y-95199500D01*
X148274038Y-95199500D01*
X148210901Y-95209500D01*
X148025214Y-95238910D01*
X147785616Y-95316760D01*
X147561151Y-95431132D01*
X147357350Y-95579201D01*
X147357345Y-95579205D01*
X147179205Y-95757345D01*
X147179201Y-95757350D01*
X147031132Y-95961151D01*
X146916760Y-96185616D01*
X146842159Y-96415215D01*
X146838910Y-96425215D01*
X146799500Y-96674038D01*
X138196690Y-96674038D01*
X138171503Y-96624607D01*
X138112287Y-96508390D01*
X138059123Y-96435215D01*
X137991971Y-96342786D01*
X137847213Y-96198028D01*
X137681613Y-96077715D01*
X137681612Y-96077714D01*
X137681610Y-96077713D01*
X137624653Y-96048691D01*
X137499223Y-95984781D01*
X137304534Y-95921522D01*
X137129995Y-95893878D01*
X137102352Y-95889500D01*
X136897648Y-95889500D01*
X136873329Y-95893351D01*
X136695465Y-95921522D01*
X136500776Y-95984781D01*
X136318386Y-96077715D01*
X136169594Y-96185818D01*
X136103788Y-96209298D01*
X136096709Y-96209500D01*
X130946300Y-96209500D01*
X130879261Y-96189815D01*
X130835815Y-96141795D01*
X130748870Y-95971155D01*
X130712810Y-95921522D01*
X130600798Y-95767350D01*
X130600794Y-95767345D01*
X130422654Y-95589205D01*
X130422649Y-95589201D01*
X130218848Y-95441132D01*
X130218847Y-95441131D01*
X130218845Y-95441130D01*
X130148747Y-95405413D01*
X129994383Y-95326760D01*
X129754785Y-95248910D01*
X129691648Y-95238910D01*
X129505962Y-95209500D01*
X129254038Y-95209500D01*
X129131489Y-95228910D01*
X129005214Y-95248910D01*
X128765616Y-95326760D01*
X128541151Y-95441132D01*
X128337350Y-95589201D01*
X128337345Y-95589205D01*
X128159205Y-95767345D01*
X128159201Y-95767350D01*
X128011132Y-95971151D01*
X127896760Y-96195616D01*
X127818910Y-96435214D01*
X127779500Y-96684038D01*
X112500500Y-96684038D01*
X112500500Y-82753389D01*
X120659500Y-82753389D01*
X120659500Y-82926610D01*
X120685013Y-83087697D01*
X120686598Y-83097701D01*
X120740127Y-83262445D01*
X120818768Y-83416788D01*
X120920586Y-83556928D01*
X121043072Y-83679414D01*
X121183212Y-83781232D01*
X121337555Y-83859873D01*
X121502299Y-83913402D01*
X121673389Y-83940500D01*
X121673390Y-83940500D01*
X121846610Y-83940500D01*
X121846611Y-83940500D01*
X122017701Y-83913402D01*
X122182445Y-83859873D01*
X122336788Y-83781232D01*
X122476928Y-83679414D01*
X122599414Y-83556928D01*
X122701232Y-83416788D01*
X122779873Y-83262445D01*
X122833402Y-83097701D01*
X122860500Y-82926611D01*
X122860500Y-82753389D01*
X122850854Y-82692486D01*
X124589500Y-82692486D01*
X124589500Y-82987513D01*
X124621571Y-83231113D01*
X124628007Y-83279993D01*
X124702212Y-83556930D01*
X124704361Y-83564951D01*
X124704364Y-83564961D01*
X124817254Y-83837500D01*
X124817258Y-83837510D01*
X124964761Y-84092993D01*
X125144352Y-84327040D01*
X125144358Y-84327047D01*
X125352952Y-84535641D01*
X125352959Y-84535647D01*
X125587006Y-84715238D01*
X125842489Y-84862741D01*
X125842490Y-84862741D01*
X125842493Y-84862743D01*
X126030616Y-84940666D01*
X126106629Y-84972152D01*
X126115048Y-84975639D01*
X126400007Y-85051993D01*
X126692494Y-85090500D01*
X126692501Y-85090500D01*
X126987499Y-85090500D01*
X126987506Y-85090500D01*
X127279993Y-85051993D01*
X127399457Y-85019983D01*
X135699500Y-85019983D01*
X135699500Y-86220001D01*
X135699501Y-86220018D01*
X135710000Y-86322796D01*
X135710001Y-86322799D01*
X135738903Y-86410018D01*
X135765186Y-86489334D01*
X135857288Y-86638656D01*
X135981344Y-86762712D01*
X136130666Y-86854814D01*
X136297203Y-86909999D01*
X136399991Y-86920500D01*
X137600008Y-86920499D01*
X137702797Y-86909999D01*
X137869334Y-86854814D01*
X138018656Y-86762712D01*
X138142712Y-86638656D01*
X138234814Y-86489334D01*
X138289999Y-86322797D01*
X138289999Y-86322793D01*
X138290912Y-86318533D01*
X138324199Y-86257102D01*
X138385414Y-86223419D01*
X138412163Y-86220500D01*
X154575501Y-86220500D01*
X154642540Y-86240185D01*
X154688295Y-86292989D01*
X154699501Y-86344500D01*
X154699501Y-86410018D01*
X154710000Y-86512796D01*
X154710001Y-86512799D01*
X154751707Y-86638657D01*
X154765186Y-86679334D01*
X154857288Y-86828656D01*
X154981344Y-86952712D01*
X155130666Y-87044814D01*
X155297203Y-87099999D01*
X155399991Y-87110500D01*
X156600008Y-87110499D01*
X156702797Y-87099999D01*
X156869334Y-87044814D01*
X157018656Y-86952712D01*
X157142712Y-86828656D01*
X157234814Y-86679334D01*
X157289999Y-86512797D01*
X157300500Y-86410009D01*
X157300499Y-85209992D01*
X157289999Y-85107203D01*
X157234814Y-84940666D01*
X157142712Y-84791344D01*
X157018656Y-84667288D01*
X156905031Y-84597204D01*
X156869336Y-84575187D01*
X156869331Y-84575185D01*
X156867862Y-84574698D01*
X156702797Y-84520001D01*
X156702795Y-84520000D01*
X156600010Y-84509500D01*
X155399998Y-84509500D01*
X155399981Y-84509501D01*
X155297203Y-84520000D01*
X155297200Y-84520001D01*
X155130668Y-84575185D01*
X155130663Y-84575187D01*
X154981342Y-84667289D01*
X154857289Y-84791342D01*
X154765187Y-84940663D01*
X154762136Y-84947209D01*
X154759344Y-84945907D01*
X154727410Y-84991986D01*
X154662882Y-85018778D01*
X154649522Y-85019500D01*
X147118771Y-85019500D01*
X147051732Y-84999815D01*
X147005977Y-84947011D01*
X146996033Y-84877853D01*
X147025058Y-84814297D01*
X147056771Y-84788113D01*
X147121627Y-84750668D01*
X147182994Y-84715238D01*
X147417042Y-84535646D01*
X147625646Y-84327042D01*
X147805238Y-84092994D01*
X147952743Y-83837507D01*
X148065639Y-83564952D01*
X148141993Y-83279993D01*
X148180500Y-82987506D01*
X148180500Y-82753389D01*
X149909500Y-82753389D01*
X149909500Y-82926610D01*
X149935013Y-83087697D01*
X149936598Y-83097701D01*
X149990127Y-83262445D01*
X150068768Y-83416788D01*
X150170586Y-83556928D01*
X150293072Y-83679414D01*
X150433212Y-83781232D01*
X150587555Y-83859873D01*
X150752299Y-83913402D01*
X150923389Y-83940500D01*
X150923390Y-83940500D01*
X151096610Y-83940500D01*
X151096611Y-83940500D01*
X151267701Y-83913402D01*
X151432445Y-83859873D01*
X151586788Y-83781232D01*
X151726928Y-83679414D01*
X151849414Y-83556928D01*
X151951232Y-83416788D01*
X152029873Y-83262445D01*
X152083402Y-83097701D01*
X152110500Y-82926611D01*
X152110500Y-82753389D01*
X152108916Y-82743389D01*
X158799500Y-82743389D01*
X158799500Y-82916610D01*
X158810727Y-82987499D01*
X158826598Y-83087701D01*
X158880127Y-83252445D01*
X158958768Y-83406788D01*
X159060586Y-83546928D01*
X159183072Y-83669414D01*
X159323212Y-83771232D01*
X159477555Y-83849873D01*
X159642299Y-83903402D01*
X159813389Y-83930500D01*
X159813390Y-83930500D01*
X159986610Y-83930500D01*
X159986611Y-83930500D01*
X160157701Y-83903402D01*
X160322445Y-83849873D01*
X160389206Y-83815856D01*
X160457874Y-83802961D01*
X160522615Y-83829237D01*
X160562872Y-83886344D01*
X160569500Y-83926342D01*
X160569500Y-97763699D01*
X160549815Y-97830738D01*
X160501795Y-97874184D01*
X160331151Y-97961132D01*
X160127350Y-98109201D01*
X160127345Y-98109205D01*
X159949205Y-98287345D01*
X159949201Y-98287350D01*
X159801132Y-98491151D01*
X159686760Y-98715616D01*
X159608910Y-98955214D01*
X159569500Y-99204038D01*
X159569500Y-99455961D01*
X159608910Y-99704785D01*
X159686760Y-99944383D01*
X159801132Y-100168848D01*
X159949201Y-100372649D01*
X159949205Y-100372654D01*
X159949207Y-100372656D01*
X160127344Y-100550793D01*
X160127345Y-100550794D01*
X160127344Y-100550794D01*
X160133661Y-100555383D01*
X160176327Y-100610714D01*
X160182305Y-100680327D01*
X160149699Y-100742122D01*
X160088860Y-100776479D01*
X160041378Y-100778174D01*
X159986611Y-100769500D01*
X159813389Y-100769500D01*
X159773728Y-100775781D01*
X159642302Y-100796597D01*
X159477552Y-100850128D01*
X159323211Y-100928768D01*
X159266289Y-100970125D01*
X159183072Y-101030586D01*
X159183070Y-101030588D01*
X159183069Y-101030588D01*
X159060588Y-101153069D01*
X159060588Y-101153070D01*
X159060586Y-101153072D01*
X159046057Y-101173070D01*
X158958768Y-101293211D01*
X158880128Y-101447552D01*
X158826597Y-101612302D01*
X158799500Y-101783389D01*
X158799500Y-101956610D01*
X158812312Y-102037506D01*
X158826598Y-102127701D01*
X158833096Y-102147701D01*
X158880128Y-102292447D01*
X158958768Y-102446788D01*
X159060586Y-102586928D01*
X159183072Y-102709414D01*
X159323212Y-102811232D01*
X159477555Y-102889873D01*
X159642299Y-102943402D01*
X159813389Y-102970500D01*
X159813390Y-102970500D01*
X159986610Y-102970500D01*
X159986611Y-102970500D01*
X160157701Y-102943402D01*
X160322445Y-102889873D01*
X160476788Y-102811232D01*
X160616928Y-102709414D01*
X160739414Y-102586928D01*
X160841232Y-102446788D01*
X160919873Y-102292445D01*
X160973402Y-102127701D01*
X161000500Y-101956611D01*
X161000500Y-101783389D01*
X160973402Y-101612299D01*
X160919873Y-101447555D01*
X160841232Y-101293212D01*
X160739414Y-101153072D01*
X160687482Y-101101140D01*
X160653997Y-101039817D01*
X160658981Y-100970125D01*
X160700853Y-100914192D01*
X160766317Y-100889775D01*
X160794561Y-100890986D01*
X160795212Y-100891089D01*
X160795215Y-100891090D01*
X161044038Y-100930500D01*
X161044039Y-100930500D01*
X161295961Y-100930500D01*
X161295962Y-100930500D01*
X161544785Y-100891090D01*
X161784379Y-100813241D01*
X162008845Y-100698870D01*
X162212656Y-100550793D01*
X162390793Y-100372656D01*
X162538870Y-100168845D01*
X162653241Y-99944379D01*
X162731090Y-99704785D01*
X162770500Y-99455962D01*
X162770500Y-99204038D01*
X162731090Y-98955215D01*
X162653241Y-98715621D01*
X162653239Y-98715618D01*
X162653239Y-98715616D01*
X162549058Y-98511151D01*
X162538870Y-98491155D01*
X162480271Y-98410500D01*
X162390798Y-98287350D01*
X162390794Y-98287345D01*
X162212654Y-98109205D01*
X162212649Y-98109201D01*
X162008848Y-97961132D01*
X162008847Y-97961131D01*
X162008845Y-97961130D01*
X161939186Y-97925637D01*
X161838205Y-97874184D01*
X161787409Y-97826209D01*
X161770500Y-97763699D01*
X161770500Y-96664038D01*
X165919500Y-96664038D01*
X165919500Y-96915961D01*
X165958910Y-97164785D01*
X166036760Y-97404383D01*
X166151132Y-97628848D01*
X166299201Y-97832649D01*
X166299205Y-97832654D01*
X166477345Y-98010794D01*
X166477350Y-98010798D01*
X166640327Y-98129207D01*
X166681155Y-98158870D01*
X166824184Y-98231747D01*
X166905616Y-98273239D01*
X166905618Y-98273239D01*
X166905621Y-98273241D01*
X167145215Y-98351090D01*
X167394038Y-98390500D01*
X167394039Y-98390500D01*
X167645961Y-98390500D01*
X167645962Y-98390500D01*
X167894785Y-98351090D01*
X168134379Y-98273241D01*
X168358845Y-98158870D01*
X168562656Y-98010793D01*
X168740793Y-97832656D01*
X168888870Y-97628845D01*
X168975815Y-97458204D01*
X169023789Y-97407409D01*
X169086300Y-97390500D01*
X173669364Y-97390500D01*
X173736403Y-97410185D01*
X173782158Y-97462989D01*
X173787291Y-97476173D01*
X173789507Y-97482989D01*
X173794781Y-97499223D01*
X173858691Y-97624653D01*
X173871018Y-97648845D01*
X173887715Y-97681613D01*
X174008028Y-97847213D01*
X174152786Y-97991971D01*
X174307749Y-98104556D01*
X174318390Y-98112287D01*
X174429434Y-98168867D01*
X174500776Y-98205218D01*
X174500778Y-98205218D01*
X174500781Y-98205220D01*
X174605137Y-98239127D01*
X174695465Y-98268477D01*
X174725544Y-98273241D01*
X174897648Y-98300500D01*
X174897649Y-98300500D01*
X175102351Y-98300500D01*
X175102352Y-98300500D01*
X175304534Y-98268477D01*
X175499219Y-98205220D01*
X175681610Y-98112287D01*
X175793771Y-98030798D01*
X175847213Y-97991971D01*
X175847215Y-97991968D01*
X175847219Y-97991966D01*
X175991966Y-97847219D01*
X175991968Y-97847215D01*
X175991971Y-97847213D01*
X176062962Y-97749500D01*
X176112287Y-97681610D01*
X176205220Y-97499219D01*
X176268477Y-97304534D01*
X176300500Y-97102352D01*
X176300500Y-96897648D01*
X176268477Y-96695466D01*
X176258265Y-96664038D01*
X176239127Y-96605137D01*
X176205220Y-96500781D01*
X176205218Y-96500778D01*
X176205218Y-96500776D01*
X176124717Y-96342786D01*
X176112287Y-96318390D01*
X176104556Y-96307749D01*
X175991971Y-96152786D01*
X175847213Y-96008028D01*
X175681613Y-95887715D01*
X175681612Y-95887714D01*
X175681610Y-95887713D01*
X175624653Y-95858691D01*
X175499223Y-95794781D01*
X175304534Y-95731522D01*
X175129995Y-95703878D01*
X175102352Y-95699500D01*
X174897648Y-95699500D01*
X174873329Y-95703351D01*
X174695465Y-95731522D01*
X174500776Y-95794781D01*
X174318386Y-95887715D01*
X174152786Y-96008028D01*
X174152782Y-96008032D01*
X174007634Y-96153181D01*
X173946311Y-96186666D01*
X173919953Y-96189500D01*
X169086300Y-96189500D01*
X169019261Y-96169815D01*
X168975815Y-96121795D01*
X168917851Y-96008034D01*
X168888870Y-95951155D01*
X168775258Y-95794781D01*
X168740798Y-95747350D01*
X168740794Y-95747345D01*
X168562654Y-95569205D01*
X168562649Y-95569201D01*
X168358848Y-95421132D01*
X168358847Y-95421131D01*
X168358845Y-95421130D01*
X168288747Y-95385413D01*
X168134383Y-95306760D01*
X167894785Y-95228910D01*
X167772236Y-95209500D01*
X167645962Y-95189500D01*
X167394038Y-95189500D01*
X167330901Y-95199500D01*
X167145214Y-95228910D01*
X166905616Y-95306760D01*
X166681151Y-95421132D01*
X166477350Y-95569201D01*
X166477345Y-95569205D01*
X166299205Y-95747345D01*
X166299201Y-95747350D01*
X166151132Y-95951151D01*
X166036760Y-96175616D01*
X165958910Y-96415214D01*
X165919500Y-96664038D01*
X161770500Y-96664038D01*
X161770500Y-82682486D01*
X162729500Y-82682486D01*
X162729500Y-82977513D01*
X162745324Y-83097701D01*
X162768007Y-83269993D01*
X162842212Y-83546930D01*
X162844361Y-83554951D01*
X162844364Y-83554961D01*
X162957254Y-83827500D01*
X162957258Y-83827510D01*
X163104761Y-84082993D01*
X163284352Y-84317040D01*
X163284358Y-84317047D01*
X163492952Y-84525641D01*
X163492959Y-84525647D01*
X163727006Y-84705238D01*
X163982489Y-84852741D01*
X163982490Y-84852741D01*
X163982493Y-84852743D01*
X164255048Y-84965639D01*
X164540007Y-85041993D01*
X164832494Y-85080500D01*
X164832501Y-85080500D01*
X165127499Y-85080500D01*
X165127506Y-85080500D01*
X165419993Y-85041993D01*
X165704952Y-84965639D01*
X165977507Y-84852743D01*
X166157086Y-84749063D01*
X166232989Y-84705241D01*
X166232989Y-84705240D01*
X166232994Y-84705238D01*
X166239842Y-84699983D01*
X173699500Y-84699983D01*
X173699500Y-85900001D01*
X173699501Y-85900018D01*
X173710000Y-86002796D01*
X173710001Y-86002799D01*
X173765185Y-86169331D01*
X173765186Y-86169334D01*
X173857288Y-86318656D01*
X173981344Y-86442712D01*
X174130666Y-86534814D01*
X174297203Y-86589999D01*
X174399991Y-86600500D01*
X175600008Y-86600499D01*
X175702797Y-86589999D01*
X175869334Y-86534814D01*
X176018656Y-86442712D01*
X176142712Y-86318656D01*
X176234814Y-86169334D01*
X176289999Y-86002797D01*
X176300500Y-85900009D01*
X176300499Y-84699992D01*
X176289999Y-84597203D01*
X176234814Y-84430666D01*
X176142712Y-84281344D01*
X176018656Y-84157288D01*
X175869334Y-84065186D01*
X175702797Y-84010001D01*
X175702795Y-84010000D01*
X175600010Y-83999500D01*
X174399998Y-83999500D01*
X174399981Y-83999501D01*
X174297203Y-84010000D01*
X174297200Y-84010001D01*
X174130668Y-84065185D01*
X174130663Y-84065187D01*
X173981342Y-84157289D01*
X173857289Y-84281342D01*
X173765187Y-84430663D01*
X173765185Y-84430668D01*
X173739063Y-84509500D01*
X173710001Y-84597203D01*
X173710001Y-84597204D01*
X173710000Y-84597204D01*
X173699500Y-84699983D01*
X166239842Y-84699983D01*
X166467042Y-84525646D01*
X166675646Y-84317042D01*
X166855238Y-84082994D01*
X167002743Y-83827507D01*
X167115639Y-83554952D01*
X167191993Y-83269993D01*
X167230500Y-82977506D01*
X167230500Y-82743389D01*
X168959500Y-82743389D01*
X168959500Y-82916610D01*
X168970727Y-82987499D01*
X168986598Y-83087701D01*
X169040127Y-83252445D01*
X169118768Y-83406788D01*
X169220586Y-83546928D01*
X169343072Y-83669414D01*
X169483212Y-83771232D01*
X169637555Y-83849873D01*
X169802299Y-83903402D01*
X169973389Y-83930500D01*
X169973390Y-83930500D01*
X170146610Y-83930500D01*
X170146611Y-83930500D01*
X170317701Y-83903402D01*
X170482445Y-83849873D01*
X170636788Y-83771232D01*
X170776928Y-83669414D01*
X170899414Y-83546928D01*
X171001232Y-83406788D01*
X171079873Y-83252445D01*
X171133402Y-83087701D01*
X171160500Y-82916611D01*
X171160500Y-82743389D01*
X171133402Y-82572299D01*
X171079873Y-82407555D01*
X171001232Y-82253212D01*
X170899414Y-82113072D01*
X170776928Y-81990586D01*
X170636788Y-81888768D01*
X170482445Y-81810127D01*
X170317701Y-81756598D01*
X170317699Y-81756597D01*
X170317698Y-81756597D01*
X170186271Y-81735781D01*
X170146611Y-81729500D01*
X169973389Y-81729500D01*
X169933728Y-81735781D01*
X169802302Y-81756597D01*
X169637552Y-81810128D01*
X169483211Y-81888768D01*
X169467064Y-81900500D01*
X169343072Y-81990586D01*
X169343070Y-81990588D01*
X169343069Y-81990588D01*
X169220588Y-82113069D01*
X169220588Y-82113070D01*
X169220586Y-82113072D01*
X169213323Y-82123069D01*
X169118768Y-82253211D01*
X169040128Y-82407552D01*
X168986597Y-82572302D01*
X168959500Y-82743389D01*
X167230500Y-82743389D01*
X167230500Y-82682494D01*
X167191993Y-82390007D01*
X167115639Y-82105048D01*
X167002743Y-81832493D01*
X166974307Y-81783241D01*
X166855238Y-81577006D01*
X166675647Y-81342959D01*
X166675641Y-81342952D01*
X166467047Y-81134358D01*
X166467040Y-81134352D01*
X166232993Y-80954761D01*
X165977510Y-80807258D01*
X165977500Y-80807254D01*
X165704961Y-80694364D01*
X165704954Y-80694362D01*
X165704952Y-80694361D01*
X165419993Y-80618007D01*
X165371113Y-80611571D01*
X165127513Y-80579500D01*
X165127506Y-80579500D01*
X164832494Y-80579500D01*
X164832486Y-80579500D01*
X164554085Y-80616153D01*
X164540007Y-80618007D01*
X164365428Y-80664785D01*
X164255048Y-80694361D01*
X164255038Y-80694364D01*
X163982499Y-80807254D01*
X163982489Y-80807258D01*
X163727006Y-80954761D01*
X163492959Y-81134352D01*
X163492952Y-81134358D01*
X163284358Y-81342952D01*
X163284352Y-81342959D01*
X163104761Y-81577006D01*
X162957258Y-81832489D01*
X162957254Y-81832499D01*
X162844364Y-82105038D01*
X162844361Y-82105048D01*
X162768008Y-82390004D01*
X162768006Y-82390015D01*
X162729500Y-82682486D01*
X161770500Y-82682486D01*
X161770500Y-81856300D01*
X161790185Y-81789261D01*
X161838204Y-81745815D01*
X162008845Y-81658870D01*
X162212656Y-81510793D01*
X162390793Y-81332656D01*
X162538870Y-81128845D01*
X162653241Y-80904379D01*
X162731090Y-80664785D01*
X162770500Y-80415962D01*
X162770500Y-80164038D01*
X162731090Y-79915215D01*
X162653241Y-79675621D01*
X162653239Y-79675618D01*
X162653239Y-79675616D01*
X162558917Y-79490500D01*
X162538870Y-79451155D01*
X162498231Y-79395220D01*
X162390798Y-79247350D01*
X162390794Y-79247345D01*
X162212654Y-79069205D01*
X162212649Y-79069201D01*
X162008848Y-78921132D01*
X162008847Y-78921131D01*
X162008845Y-78921130D01*
X161938364Y-78885218D01*
X161784383Y-78806760D01*
X161544785Y-78728910D01*
X161295962Y-78689500D01*
X161044038Y-78689500D01*
X160980901Y-78699500D01*
X160795214Y-78728910D01*
X160555616Y-78806760D01*
X160331151Y-78921132D01*
X160127350Y-79069201D01*
X160127345Y-79069205D01*
X159949205Y-79247345D01*
X159949201Y-79247350D01*
X159801132Y-79451151D01*
X159686760Y-79675616D01*
X159608910Y-79915214D01*
X159569500Y-80164038D01*
X159569500Y-80415961D01*
X159608910Y-80664785D01*
X159686760Y-80904383D01*
X159801132Y-81128848D01*
X159949201Y-81332649D01*
X159949205Y-81332654D01*
X159949207Y-81332656D01*
X160127344Y-81510793D01*
X160127345Y-81510794D01*
X160127344Y-81510794D01*
X160133661Y-81515383D01*
X160176327Y-81570714D01*
X160182305Y-81640327D01*
X160149699Y-81702122D01*
X160088860Y-81736479D01*
X160041378Y-81738174D01*
X159986611Y-81729500D01*
X159813389Y-81729500D01*
X159773728Y-81735781D01*
X159642302Y-81756597D01*
X159477552Y-81810128D01*
X159323211Y-81888768D01*
X159307064Y-81900500D01*
X159183072Y-81990586D01*
X159183070Y-81990588D01*
X159183069Y-81990588D01*
X159060588Y-82113069D01*
X159060588Y-82113070D01*
X159060586Y-82113072D01*
X159053323Y-82123069D01*
X158958768Y-82253211D01*
X158880128Y-82407552D01*
X158826597Y-82572302D01*
X158799500Y-82743389D01*
X152108916Y-82743389D01*
X152083402Y-82582299D01*
X152029873Y-82417555D01*
X151951232Y-82263212D01*
X151849414Y-82123072D01*
X151726928Y-82000586D01*
X151586788Y-81898768D01*
X151432445Y-81820127D01*
X151267701Y-81766598D01*
X151267699Y-81766597D01*
X151267698Y-81766597D01*
X151136271Y-81745781D01*
X151096611Y-81739500D01*
X150923389Y-81739500D01*
X150883728Y-81745781D01*
X150752302Y-81766597D01*
X150587552Y-81820128D01*
X150433211Y-81898768D01*
X150376289Y-81940125D01*
X150293072Y-82000586D01*
X150293070Y-82000588D01*
X150293069Y-82000588D01*
X150170588Y-82123069D01*
X150170588Y-82123070D01*
X150170586Y-82123072D01*
X150126859Y-82183256D01*
X150068768Y-82263211D01*
X149990128Y-82417552D01*
X149936597Y-82582302D01*
X149909500Y-82753389D01*
X148180500Y-82753389D01*
X148180500Y-82692494D01*
X148141993Y-82400007D01*
X148065639Y-82115048D01*
X147952743Y-81842493D01*
X147946967Y-81832489D01*
X147805238Y-81587006D01*
X147625647Y-81352959D01*
X147625641Y-81352952D01*
X147417047Y-81144358D01*
X147417040Y-81144352D01*
X147182993Y-80964761D01*
X146927510Y-80817258D01*
X146927500Y-80817254D01*
X146654961Y-80704364D01*
X146654954Y-80704362D01*
X146654952Y-80704361D01*
X146369993Y-80628007D01*
X146321113Y-80621571D01*
X146077513Y-80589500D01*
X146077506Y-80589500D01*
X145782494Y-80589500D01*
X145782486Y-80589500D01*
X145504085Y-80626153D01*
X145490007Y-80628007D01*
X145352749Y-80664785D01*
X145205048Y-80704361D01*
X145205038Y-80704364D01*
X144932499Y-80817254D01*
X144932489Y-80817258D01*
X144677006Y-80964761D01*
X144442959Y-81144352D01*
X144442952Y-81144358D01*
X144234358Y-81352952D01*
X144234352Y-81352959D01*
X144054761Y-81587006D01*
X143907258Y-81842489D01*
X143907254Y-81842499D01*
X143794364Y-82115038D01*
X143794361Y-82115048D01*
X143720685Y-82390015D01*
X143718008Y-82400004D01*
X143718006Y-82400015D01*
X143679500Y-82692486D01*
X143679500Y-82987513D01*
X143711571Y-83231113D01*
X143718007Y-83279993D01*
X143792212Y-83556930D01*
X143794361Y-83564951D01*
X143794364Y-83564961D01*
X143907254Y-83837500D01*
X143907258Y-83837510D01*
X144054761Y-84092993D01*
X144234352Y-84327040D01*
X144234358Y-84327047D01*
X144442952Y-84535641D01*
X144442959Y-84535647D01*
X144677006Y-84715238D01*
X144803229Y-84788113D01*
X144851445Y-84838680D01*
X144864668Y-84907287D01*
X144838700Y-84972152D01*
X144781786Y-85012680D01*
X144741229Y-85019500D01*
X138412163Y-85019500D01*
X138345124Y-84999815D01*
X138299369Y-84947011D01*
X138290911Y-84921459D01*
X138290000Y-84917207D01*
X138286713Y-84907287D01*
X138234814Y-84750666D01*
X138142712Y-84601344D01*
X138018656Y-84477288D01*
X137869334Y-84385186D01*
X137702797Y-84330001D01*
X137702795Y-84330000D01*
X137600010Y-84319500D01*
X136399998Y-84319500D01*
X136399981Y-84319501D01*
X136297203Y-84330000D01*
X136297200Y-84330001D01*
X136130668Y-84385185D01*
X136130663Y-84385187D01*
X135981342Y-84477289D01*
X135857289Y-84601342D01*
X135765187Y-84750663D01*
X135765185Y-84750668D01*
X135744101Y-84814297D01*
X135710001Y-84917203D01*
X135710001Y-84917204D01*
X135710000Y-84917204D01*
X135699500Y-85019983D01*
X127399457Y-85019983D01*
X127564952Y-84975639D01*
X127642521Y-84943508D01*
X127742074Y-84902273D01*
X127837500Y-84862746D01*
X127837501Y-84862745D01*
X127837507Y-84862743D01*
X128092994Y-84715238D01*
X128327042Y-84535646D01*
X128535646Y-84327042D01*
X128715238Y-84092994D01*
X128862743Y-83837507D01*
X128975639Y-83564952D01*
X129051993Y-83279993D01*
X129090500Y-82987506D01*
X129090500Y-82753389D01*
X130819500Y-82753389D01*
X130819500Y-82926610D01*
X130845013Y-83087697D01*
X130846598Y-83097701D01*
X130900127Y-83262445D01*
X130978768Y-83416788D01*
X131080586Y-83556928D01*
X131203072Y-83679414D01*
X131343212Y-83781232D01*
X131497555Y-83859873D01*
X131662299Y-83913402D01*
X131833389Y-83940500D01*
X131833390Y-83940500D01*
X132006610Y-83940500D01*
X132006611Y-83940500D01*
X132177701Y-83913402D01*
X132342445Y-83859873D01*
X132496788Y-83781232D01*
X132636928Y-83679414D01*
X132759414Y-83556928D01*
X132861232Y-83416788D01*
X132939873Y-83262445D01*
X132993402Y-83097701D01*
X133020500Y-82926611D01*
X133020500Y-82753389D01*
X139749500Y-82753389D01*
X139749500Y-82926610D01*
X139775013Y-83087697D01*
X139776598Y-83097701D01*
X139830127Y-83262445D01*
X139908768Y-83416788D01*
X140010586Y-83556928D01*
X140133072Y-83679414D01*
X140273212Y-83781232D01*
X140427555Y-83859873D01*
X140592299Y-83913402D01*
X140763389Y-83940500D01*
X140763390Y-83940500D01*
X140936610Y-83940500D01*
X140936611Y-83940500D01*
X141107701Y-83913402D01*
X141272445Y-83859873D01*
X141426788Y-83781232D01*
X141566928Y-83679414D01*
X141689414Y-83556928D01*
X141791232Y-83416788D01*
X141869873Y-83262445D01*
X141923402Y-83097701D01*
X141950500Y-82926611D01*
X141950500Y-82753389D01*
X141923402Y-82582299D01*
X141869873Y-82417555D01*
X141791232Y-82263212D01*
X141689414Y-82123072D01*
X141637482Y-82071140D01*
X141603997Y-82009817D01*
X141608981Y-81940125D01*
X141650853Y-81884192D01*
X141716317Y-81859775D01*
X141744561Y-81860986D01*
X141745212Y-81861089D01*
X141745215Y-81861090D01*
X141994038Y-81900500D01*
X141994039Y-81900500D01*
X142245961Y-81900500D01*
X142245962Y-81900500D01*
X142494785Y-81861090D01*
X142734379Y-81783241D01*
X142958845Y-81668870D01*
X143162656Y-81520793D01*
X143340793Y-81342656D01*
X143488870Y-81138845D01*
X143603241Y-80914379D01*
X143681090Y-80674785D01*
X143720500Y-80425962D01*
X143720500Y-80174038D01*
X143681090Y-79925215D01*
X143603241Y-79685621D01*
X143603239Y-79685618D01*
X143603239Y-79685616D01*
X143561747Y-79604184D01*
X143488870Y-79461155D01*
X143387107Y-79321090D01*
X143340798Y-79257350D01*
X143340794Y-79257345D01*
X143162654Y-79079205D01*
X143162649Y-79079201D01*
X142958848Y-78931132D01*
X142958847Y-78931131D01*
X142958845Y-78931130D01*
X142888747Y-78895413D01*
X142734383Y-78816760D01*
X142494785Y-78738910D01*
X142431648Y-78728910D01*
X142245962Y-78699500D01*
X141994038Y-78699500D01*
X141869626Y-78719205D01*
X141745214Y-78738910D01*
X141505616Y-78816760D01*
X141281151Y-78931132D01*
X141077350Y-79079201D01*
X141077345Y-79079205D01*
X140899205Y-79257345D01*
X140899201Y-79257350D01*
X140751132Y-79461151D01*
X140636760Y-79685616D01*
X140558910Y-79925214D01*
X140519500Y-80174038D01*
X140519500Y-80425961D01*
X140558910Y-80674785D01*
X140636760Y-80914383D01*
X140662430Y-80964762D01*
X140746036Y-81128848D01*
X140751132Y-81138848D01*
X140899201Y-81342649D01*
X140899205Y-81342654D01*
X140899207Y-81342656D01*
X141077344Y-81520793D01*
X141077345Y-81520794D01*
X141077344Y-81520794D01*
X141083661Y-81525383D01*
X141126327Y-81580714D01*
X141132305Y-81650327D01*
X141099699Y-81712122D01*
X141038860Y-81746479D01*
X140991378Y-81748174D01*
X140936611Y-81739500D01*
X140763389Y-81739500D01*
X140723728Y-81745781D01*
X140592302Y-81766597D01*
X140427552Y-81820128D01*
X140273211Y-81898768D01*
X140216289Y-81940125D01*
X140133072Y-82000586D01*
X140133070Y-82000588D01*
X140133069Y-82000588D01*
X140010588Y-82123069D01*
X140010588Y-82123070D01*
X140010586Y-82123072D01*
X139966859Y-82183256D01*
X139908768Y-82263211D01*
X139830128Y-82417552D01*
X139776597Y-82582302D01*
X139749500Y-82753389D01*
X133020500Y-82753389D01*
X132993402Y-82582299D01*
X132939873Y-82417555D01*
X132861232Y-82263212D01*
X132759414Y-82123072D01*
X132636928Y-82000586D01*
X132496788Y-81898768D01*
X132342445Y-81820127D01*
X132177701Y-81766598D01*
X132177699Y-81766597D01*
X132177698Y-81766597D01*
X132046271Y-81745781D01*
X132006611Y-81739500D01*
X131833389Y-81739500D01*
X131793728Y-81745781D01*
X131662302Y-81766597D01*
X131497552Y-81820128D01*
X131343211Y-81898768D01*
X131286289Y-81940125D01*
X131203072Y-82000586D01*
X131203070Y-82000588D01*
X131203069Y-82000588D01*
X131080588Y-82123069D01*
X131080588Y-82123070D01*
X131080586Y-82123072D01*
X131036859Y-82183256D01*
X130978768Y-82263211D01*
X130900128Y-82417552D01*
X130846597Y-82582302D01*
X130819500Y-82753389D01*
X129090500Y-82753389D01*
X129090500Y-82692494D01*
X129051993Y-82400007D01*
X128975639Y-82115048D01*
X128862743Y-81842493D01*
X128856967Y-81832489D01*
X128715238Y-81587006D01*
X128535647Y-81352959D01*
X128535641Y-81352952D01*
X128327047Y-81144358D01*
X128327040Y-81144352D01*
X128092993Y-80964761D01*
X127837510Y-80817258D01*
X127837500Y-80817254D01*
X127564961Y-80704364D01*
X127564954Y-80704362D01*
X127564952Y-80704361D01*
X127279993Y-80628007D01*
X127231113Y-80621571D01*
X126987513Y-80589500D01*
X126987506Y-80589500D01*
X126692494Y-80589500D01*
X126692486Y-80589500D01*
X126414085Y-80626153D01*
X126400007Y-80628007D01*
X126262749Y-80664785D01*
X126115048Y-80704361D01*
X126115038Y-80704364D01*
X125842499Y-80817254D01*
X125842489Y-80817258D01*
X125587006Y-80964761D01*
X125352959Y-81144352D01*
X125352952Y-81144358D01*
X125144358Y-81352952D01*
X125144352Y-81352959D01*
X124964761Y-81587006D01*
X124817258Y-81842489D01*
X124817254Y-81842499D01*
X124704364Y-82115038D01*
X124704361Y-82115048D01*
X124630685Y-82390015D01*
X124628008Y-82400004D01*
X124628006Y-82400015D01*
X124589500Y-82692486D01*
X122850854Y-82692486D01*
X122833402Y-82582299D01*
X122779873Y-82417555D01*
X122701232Y-82263212D01*
X122599414Y-82123072D01*
X122547482Y-82071140D01*
X122513997Y-82009817D01*
X122518981Y-81940125D01*
X122560853Y-81884192D01*
X122626317Y-81859775D01*
X122654561Y-81860986D01*
X122655212Y-81861089D01*
X122655215Y-81861090D01*
X122904038Y-81900500D01*
X122904039Y-81900500D01*
X123155961Y-81900500D01*
X123155962Y-81900500D01*
X123404785Y-81861090D01*
X123644379Y-81783241D01*
X123868845Y-81668870D01*
X124072656Y-81520793D01*
X124250793Y-81342656D01*
X124398870Y-81138845D01*
X124513241Y-80914379D01*
X124591090Y-80674785D01*
X124630500Y-80425962D01*
X124630500Y-80174038D01*
X124591090Y-79925215D01*
X124513241Y-79685621D01*
X124513239Y-79685618D01*
X124513239Y-79685616D01*
X124471747Y-79604184D01*
X124398870Y-79461155D01*
X124297107Y-79321090D01*
X124250798Y-79257350D01*
X124250794Y-79257345D01*
X124072654Y-79079205D01*
X124072649Y-79079201D01*
X123868848Y-78931132D01*
X123868847Y-78931131D01*
X123868845Y-78931130D01*
X123798747Y-78895413D01*
X123644383Y-78816760D01*
X123404785Y-78738910D01*
X123341648Y-78728910D01*
X123155962Y-78699500D01*
X122904038Y-78699500D01*
X122779626Y-78719205D01*
X122655214Y-78738910D01*
X122415616Y-78816760D01*
X122191151Y-78931132D01*
X121987350Y-79079201D01*
X121987345Y-79079205D01*
X121809205Y-79257345D01*
X121809201Y-79257350D01*
X121661132Y-79461151D01*
X121546760Y-79685616D01*
X121468910Y-79925214D01*
X121429500Y-80174038D01*
X121429500Y-80425961D01*
X121468910Y-80674785D01*
X121546760Y-80914383D01*
X121572430Y-80964762D01*
X121656036Y-81128848D01*
X121661132Y-81138848D01*
X121809201Y-81342649D01*
X121809205Y-81342654D01*
X121809207Y-81342656D01*
X121987344Y-81520793D01*
X121987345Y-81520794D01*
X121987344Y-81520794D01*
X121993661Y-81525383D01*
X122036327Y-81580714D01*
X122042305Y-81650327D01*
X122009699Y-81712122D01*
X121948860Y-81746479D01*
X121901378Y-81748174D01*
X121846611Y-81739500D01*
X121673389Y-81739500D01*
X121633728Y-81745781D01*
X121502302Y-81766597D01*
X121337552Y-81820128D01*
X121183211Y-81898768D01*
X121126289Y-81940125D01*
X121043072Y-82000586D01*
X121043070Y-82000588D01*
X121043069Y-82000588D01*
X120920588Y-82123069D01*
X120920588Y-82123070D01*
X120920586Y-82123072D01*
X120876859Y-82183256D01*
X120818768Y-82263211D01*
X120740128Y-82417552D01*
X120686597Y-82582302D01*
X120659500Y-82753389D01*
X112500500Y-82753389D01*
X112500500Y-77634038D01*
X127779500Y-77634038D01*
X127779500Y-77885961D01*
X127818910Y-78134785D01*
X127896760Y-78374383D01*
X127957981Y-78494534D01*
X128006036Y-78588848D01*
X128011132Y-78598848D01*
X128159201Y-78802649D01*
X128159205Y-78802654D01*
X128337345Y-78980794D01*
X128337350Y-78980798D01*
X128515117Y-79109952D01*
X128541155Y-79128870D01*
X128645362Y-79181966D01*
X128765616Y-79243239D01*
X128765618Y-79243239D01*
X128765621Y-79243241D01*
X129005215Y-79321090D01*
X129254038Y-79360500D01*
X129254039Y-79360500D01*
X129505961Y-79360500D01*
X129505962Y-79360500D01*
X129754785Y-79321090D01*
X129994379Y-79243241D01*
X130218845Y-79128870D01*
X130422656Y-78980793D01*
X130600793Y-78802656D01*
X130748870Y-78598845D01*
X130835815Y-78428204D01*
X130883789Y-78377409D01*
X130946300Y-78360500D01*
X135659616Y-78360500D01*
X135726655Y-78380185D01*
X135772410Y-78432989D01*
X135777547Y-78446181D01*
X135794781Y-78499223D01*
X135858691Y-78624653D01*
X135882799Y-78671966D01*
X135887715Y-78681613D01*
X136008028Y-78847213D01*
X136152786Y-78991971D01*
X136307749Y-79104556D01*
X136318390Y-79112287D01*
X136434607Y-79171503D01*
X136500776Y-79205218D01*
X136500778Y-79205218D01*
X136500781Y-79205220D01*
X136587015Y-79233239D01*
X136695465Y-79268477D01*
X136796557Y-79284488D01*
X136897648Y-79300500D01*
X136897649Y-79300500D01*
X137102351Y-79300500D01*
X137102352Y-79300500D01*
X137304534Y-79268477D01*
X137499219Y-79205220D01*
X137681610Y-79112287D01*
X137784941Y-79037213D01*
X137847213Y-78991971D01*
X137847215Y-78991968D01*
X137847219Y-78991966D01*
X137991966Y-78847219D01*
X137991968Y-78847215D01*
X137991971Y-78847213D01*
X138070656Y-78738910D01*
X138112287Y-78681610D01*
X138205220Y-78499219D01*
X138268477Y-78304534D01*
X138300500Y-78102352D01*
X138300500Y-77897648D01*
X138268477Y-77695466D01*
X138268475Y-77695462D01*
X138268475Y-77695457D01*
X138259389Y-77667495D01*
X138259386Y-77667485D01*
X138248518Y-77634038D01*
X146869500Y-77634038D01*
X146869500Y-77885961D01*
X146908910Y-78134785D01*
X146986760Y-78374383D01*
X147047981Y-78494534D01*
X147096036Y-78588848D01*
X147101132Y-78598848D01*
X147249201Y-78802649D01*
X147249205Y-78802654D01*
X147427345Y-78980794D01*
X147427350Y-78980798D01*
X147605117Y-79109952D01*
X147631155Y-79128870D01*
X147735362Y-79181966D01*
X147855616Y-79243239D01*
X147855618Y-79243239D01*
X147855621Y-79243241D01*
X148095215Y-79321090D01*
X148344038Y-79360500D01*
X148344039Y-79360500D01*
X148595961Y-79360500D01*
X148595962Y-79360500D01*
X148844785Y-79321090D01*
X149084379Y-79243241D01*
X149308845Y-79128870D01*
X149512656Y-78980793D01*
X149666630Y-78826819D01*
X149727953Y-78793334D01*
X149754311Y-78790500D01*
X154770398Y-78790500D01*
X154837437Y-78810185D01*
X154880883Y-78858205D01*
X154887715Y-78871614D01*
X155008028Y-79037213D01*
X155152786Y-79181971D01*
X155271854Y-79268477D01*
X155318390Y-79302287D01*
X155432639Y-79360500D01*
X155500776Y-79395218D01*
X155500778Y-79395218D01*
X155500781Y-79395220D01*
X155605137Y-79429127D01*
X155695465Y-79458477D01*
X155796557Y-79474488D01*
X155897648Y-79490500D01*
X155897649Y-79490500D01*
X156102351Y-79490500D01*
X156102352Y-79490500D01*
X156304534Y-79458477D01*
X156499219Y-79395220D01*
X156681610Y-79302287D01*
X156776647Y-79233239D01*
X156847213Y-79181971D01*
X156847215Y-79181968D01*
X156847219Y-79181966D01*
X156991966Y-79037219D01*
X156991968Y-79037215D01*
X156991971Y-79037213D01*
X157069042Y-78931132D01*
X157112287Y-78871610D01*
X157205220Y-78689219D01*
X157268477Y-78494534D01*
X157300500Y-78292352D01*
X157300500Y-78087648D01*
X157284168Y-77984534D01*
X157268477Y-77885465D01*
X157206742Y-77695466D01*
X157205220Y-77690781D01*
X157205217Y-77690777D01*
X157205217Y-77690774D01*
X157197415Y-77675462D01*
X157197414Y-77675461D01*
X157171213Y-77624038D01*
X165919500Y-77624038D01*
X165919500Y-77875961D01*
X165958910Y-78124785D01*
X166036760Y-78364383D01*
X166071717Y-78432989D01*
X166119726Y-78527212D01*
X166151132Y-78588848D01*
X166299201Y-78792649D01*
X166299205Y-78792654D01*
X166477345Y-78970794D01*
X166477350Y-78970798D01*
X166626555Y-79079201D01*
X166681155Y-79118870D01*
X166804988Y-79181966D01*
X166905616Y-79233239D01*
X166905618Y-79233239D01*
X166905621Y-79233241D01*
X167145215Y-79311090D01*
X167394038Y-79350500D01*
X167394039Y-79350500D01*
X167645961Y-79350500D01*
X167645962Y-79350500D01*
X167894785Y-79311090D01*
X168134379Y-79233241D01*
X168358845Y-79118870D01*
X168562656Y-78970793D01*
X168740793Y-78792656D01*
X168888870Y-78588845D01*
X168975815Y-78418204D01*
X169023789Y-78367409D01*
X169086300Y-78350500D01*
X173816459Y-78350500D01*
X173883498Y-78370185D01*
X173916777Y-78401615D01*
X174008028Y-78527212D01*
X174008032Y-78527217D01*
X174152786Y-78671971D01*
X174307749Y-78784556D01*
X174318390Y-78792287D01*
X174426188Y-78847213D01*
X174500776Y-78885218D01*
X174500778Y-78885218D01*
X174500781Y-78885220D01*
X174605137Y-78919127D01*
X174695465Y-78948477D01*
X174796557Y-78964488D01*
X174897648Y-78980500D01*
X174897649Y-78980500D01*
X175102351Y-78980500D01*
X175102352Y-78980500D01*
X175304534Y-78948477D01*
X175499219Y-78885220D01*
X175681610Y-78792287D01*
X175774590Y-78724732D01*
X175847213Y-78671971D01*
X175847215Y-78671968D01*
X175847219Y-78671966D01*
X175991966Y-78527219D01*
X175991968Y-78527215D01*
X175991971Y-78527213D01*
X176050843Y-78446181D01*
X176112287Y-78361610D01*
X176205220Y-78179219D01*
X176268477Y-77984534D01*
X176300500Y-77782352D01*
X176300500Y-77577648D01*
X176288325Y-77500781D01*
X176268477Y-77375465D01*
X176205218Y-77180776D01*
X176152704Y-77077713D01*
X176112287Y-76998390D01*
X176102399Y-76984780D01*
X175991971Y-76832786D01*
X175847213Y-76688028D01*
X175681613Y-76567715D01*
X175681612Y-76567714D01*
X175681610Y-76567713D01*
X175606026Y-76529201D01*
X175499223Y-76474781D01*
X175304534Y-76411522D01*
X175129995Y-76383878D01*
X175102352Y-76379500D01*
X174897648Y-76379500D01*
X174873329Y-76383351D01*
X174695465Y-76411522D01*
X174500776Y-76474781D01*
X174318386Y-76567715D01*
X174152786Y-76688028D01*
X174008028Y-76832786D01*
X173887715Y-76998386D01*
X173845216Y-77081795D01*
X173797241Y-77132591D01*
X173734731Y-77149500D01*
X169086300Y-77149500D01*
X169019261Y-77129815D01*
X168975815Y-77081795D01*
X168926384Y-76984781D01*
X168888870Y-76911155D01*
X168804319Y-76794780D01*
X168740798Y-76707350D01*
X168740794Y-76707345D01*
X168562654Y-76529205D01*
X168562649Y-76529201D01*
X168358848Y-76381132D01*
X168358847Y-76381131D01*
X168358845Y-76381130D01*
X168288747Y-76345413D01*
X168134383Y-76266760D01*
X167894785Y-76188910D01*
X167645962Y-76149500D01*
X167394038Y-76149500D01*
X167330901Y-76159500D01*
X167145214Y-76188910D01*
X166905616Y-76266760D01*
X166681151Y-76381132D01*
X166477350Y-76529201D01*
X166477345Y-76529205D01*
X166299205Y-76707345D01*
X166299201Y-76707350D01*
X166151132Y-76911151D01*
X166036760Y-77135616D01*
X165958910Y-77375214D01*
X165919500Y-77624038D01*
X157171213Y-77624038D01*
X157112287Y-77508390D01*
X157112285Y-77508387D01*
X157112284Y-77508385D01*
X156991971Y-77342786D01*
X156847213Y-77198028D01*
X156681613Y-77077715D01*
X156681612Y-77077714D01*
X156681610Y-77077713D01*
X156624653Y-77048691D01*
X156499223Y-76984781D01*
X156304534Y-76921522D01*
X156129995Y-76893878D01*
X156102352Y-76889500D01*
X155897648Y-76889500D01*
X155873329Y-76893351D01*
X155695465Y-76921522D01*
X155500776Y-76984781D01*
X155318386Y-77077715D01*
X155152786Y-77198028D01*
X155008028Y-77342786D01*
X154887715Y-77508385D01*
X154880883Y-77521795D01*
X154832909Y-77572591D01*
X154770398Y-77589500D01*
X150169352Y-77589500D01*
X150102313Y-77569815D01*
X150056558Y-77517011D01*
X150046879Y-77484899D01*
X150031090Y-77385217D01*
X150031090Y-77385215D01*
X149953241Y-77145621D01*
X149838870Y-76921155D01*
X149815871Y-76889500D01*
X149690798Y-76717350D01*
X149690794Y-76717345D01*
X149512654Y-76539205D01*
X149512649Y-76539201D01*
X149308848Y-76391132D01*
X149308847Y-76391131D01*
X149308845Y-76391130D01*
X149238747Y-76355413D01*
X149084383Y-76276760D01*
X148844785Y-76198910D01*
X148781648Y-76188910D01*
X148595962Y-76159500D01*
X148344038Y-76159500D01*
X148219626Y-76179205D01*
X148095214Y-76198910D01*
X147855616Y-76276760D01*
X147631151Y-76391132D01*
X147427350Y-76539201D01*
X147427345Y-76539205D01*
X147249205Y-76717345D01*
X147249201Y-76717350D01*
X147101132Y-76921151D01*
X146986760Y-77145616D01*
X146908910Y-77385214D01*
X146869500Y-77634038D01*
X138248518Y-77634038D01*
X138207692Y-77508390D01*
X138205220Y-77500781D01*
X138205218Y-77500778D01*
X138205218Y-77500776D01*
X138146336Y-77385215D01*
X138112287Y-77318390D01*
X138104556Y-77307749D01*
X137991971Y-77152786D01*
X137847213Y-77008028D01*
X137681613Y-76887715D01*
X137681612Y-76887714D01*
X137681610Y-76887713D01*
X137624653Y-76858691D01*
X137499223Y-76794781D01*
X137304534Y-76731522D01*
X137129995Y-76703878D01*
X137102352Y-76699500D01*
X136897648Y-76699500D01*
X136873329Y-76703351D01*
X136695465Y-76731522D01*
X136500776Y-76794781D01*
X136318386Y-76887715D01*
X136152786Y-77008028D01*
X136152782Y-77008032D01*
X136037634Y-77123181D01*
X135976311Y-77156666D01*
X135949953Y-77159500D01*
X130946300Y-77159500D01*
X130879261Y-77139815D01*
X130835815Y-77091795D01*
X130828640Y-77077713D01*
X130748870Y-76921155D01*
X130725871Y-76889500D01*
X130600798Y-76717350D01*
X130600794Y-76717345D01*
X130422654Y-76539205D01*
X130422649Y-76539201D01*
X130218848Y-76391132D01*
X130218847Y-76391131D01*
X130218845Y-76391130D01*
X130148747Y-76355413D01*
X129994383Y-76276760D01*
X129754785Y-76198910D01*
X129691648Y-76188910D01*
X129505962Y-76159500D01*
X129254038Y-76159500D01*
X129129626Y-76179205D01*
X129005214Y-76198910D01*
X128765616Y-76276760D01*
X128541151Y-76391132D01*
X128337350Y-76539201D01*
X128337345Y-76539205D01*
X128159205Y-76717345D01*
X128159201Y-76717350D01*
X128011132Y-76921151D01*
X127896760Y-77145616D01*
X127818910Y-77385214D01*
X127779500Y-77634038D01*
X112500500Y-77634038D01*
X112500500Y-58083713D01*
X117549500Y-58083713D01*
X117549500Y-58296287D01*
X117582754Y-58506243D01*
X117639091Y-58679631D01*
X117648444Y-58708414D01*
X117744951Y-58897820D01*
X117869890Y-59069786D01*
X118020213Y-59220109D01*
X118192182Y-59345050D01*
X118200946Y-59349516D01*
X118251742Y-59397491D01*
X118268536Y-59465312D01*
X118245998Y-59531447D01*
X118200946Y-59570484D01*
X118192182Y-59574949D01*
X118020213Y-59699890D01*
X117869890Y-59850213D01*
X117744951Y-60022179D01*
X117648444Y-60211585D01*
X117582753Y-60413760D01*
X117549500Y-60623713D01*
X117549500Y-60836286D01*
X117582753Y-61046239D01*
X117648444Y-61248414D01*
X117744951Y-61437820D01*
X117869890Y-61609786D01*
X118020213Y-61760109D01*
X118192182Y-61885050D01*
X118200946Y-61889516D01*
X118251742Y-61937491D01*
X118268536Y-62005312D01*
X118245998Y-62071447D01*
X118200946Y-62110484D01*
X118192182Y-62114949D01*
X118020213Y-62239890D01*
X117869890Y-62390213D01*
X117744951Y-62562179D01*
X117648444Y-62751585D01*
X117582753Y-62953760D01*
X117549500Y-63163713D01*
X117549500Y-63376286D01*
X117582753Y-63586239D01*
X117648444Y-63788414D01*
X117744951Y-63977820D01*
X117869890Y-64149786D01*
X117983818Y-64263714D01*
X118017303Y-64325037D01*
X118012319Y-64394729D01*
X117970447Y-64450662D01*
X117939471Y-64467577D01*
X117807912Y-64516646D01*
X117807906Y-64516649D01*
X117692812Y-64602809D01*
X117692809Y-64602812D01*
X117606649Y-64717906D01*
X117606645Y-64717913D01*
X117556403Y-64852620D01*
X117556401Y-64852627D01*
X117550000Y-64912155D01*
X117550000Y-65560000D01*
X118466988Y-65560000D01*
X118434075Y-65617007D01*
X118400000Y-65744174D01*
X118400000Y-65875826D01*
X118434075Y-66002993D01*
X118466988Y-66060000D01*
X117550000Y-66060000D01*
X117550000Y-66707844D01*
X117556401Y-66767372D01*
X117556403Y-66767379D01*
X117606645Y-66902086D01*
X117606649Y-66902093D01*
X117692809Y-67017187D01*
X117692812Y-67017190D01*
X117807906Y-67103350D01*
X117807913Y-67103354D01*
X117942620Y-67153596D01*
X117942627Y-67153598D01*
X118002155Y-67159999D01*
X118002172Y-67160000D01*
X118650000Y-67160000D01*
X118650000Y-66243012D01*
X118707007Y-66275925D01*
X118834174Y-66310000D01*
X118965826Y-66310000D01*
X119092993Y-66275925D01*
X119150000Y-66243012D01*
X119150000Y-67160000D01*
X119797828Y-67160000D01*
X119797844Y-67159999D01*
X119857372Y-67153598D01*
X119857379Y-67153596D01*
X119992086Y-67103354D01*
X119992093Y-67103350D01*
X120107187Y-67017190D01*
X120107190Y-67017187D01*
X120193350Y-66902093D01*
X120193354Y-66902086D01*
X120243596Y-66767379D01*
X120243598Y-66767372D01*
X120249999Y-66707844D01*
X120250000Y-66707827D01*
X120250000Y-66060000D01*
X119333012Y-66060000D01*
X119365925Y-66002993D01*
X119400000Y-65875826D01*
X119400000Y-65744174D01*
X119365925Y-65617007D01*
X119333012Y-65560000D01*
X120250000Y-65560000D01*
X120250000Y-64912172D01*
X120249999Y-64912155D01*
X120243598Y-64852627D01*
X120243596Y-64852620D01*
X120193354Y-64717913D01*
X120193350Y-64717906D01*
X120107190Y-64602812D01*
X120107187Y-64602809D01*
X119992093Y-64516649D01*
X119992088Y-64516646D01*
X119860528Y-64467577D01*
X119804595Y-64425705D01*
X119780178Y-64360241D01*
X119795030Y-64291968D01*
X119816175Y-64263720D01*
X119930104Y-64149792D01*
X119933937Y-64144517D01*
X120051674Y-63982464D01*
X120055051Y-63977816D01*
X120151557Y-63788412D01*
X120217246Y-63586243D01*
X120250500Y-63376287D01*
X120250500Y-63163713D01*
X120217246Y-62953757D01*
X120151557Y-62751588D01*
X120055051Y-62562184D01*
X120055049Y-62562181D01*
X120055048Y-62562179D01*
X119930109Y-62390213D01*
X119779786Y-62239890D01*
X119607820Y-62114951D01*
X119607115Y-62114591D01*
X119599054Y-62110485D01*
X119548259Y-62062512D01*
X119531463Y-61994692D01*
X119553999Y-61928556D01*
X119599054Y-61889515D01*
X119607816Y-61885051D01*
X119646384Y-61857030D01*
X119779786Y-61760109D01*
X119779788Y-61760106D01*
X119779792Y-61760104D01*
X119930104Y-61609792D01*
X119930106Y-61609788D01*
X119930109Y-61609786D01*
X120055048Y-61437820D01*
X120055047Y-61437820D01*
X120055051Y-61437816D01*
X120151557Y-61248412D01*
X120217246Y-61046243D01*
X120250500Y-60836287D01*
X120250500Y-60623713D01*
X120217246Y-60413757D01*
X120151557Y-60211588D01*
X120055051Y-60022184D01*
X120055049Y-60022181D01*
X120055048Y-60022179D01*
X119930109Y-59850213D01*
X119779786Y-59699890D01*
X119607820Y-59574951D01*
X119607115Y-59574591D01*
X119599054Y-59570485D01*
X119548259Y-59522512D01*
X119531463Y-59454692D01*
X119553999Y-59388556D01*
X119599054Y-59349515D01*
X119607816Y-59345051D01*
X119677617Y-59294338D01*
X119779786Y-59220109D01*
X119779788Y-59220106D01*
X119779792Y-59220104D01*
X119930104Y-59069792D01*
X119930106Y-59069788D01*
X119930109Y-59069786D01*
X120055048Y-58897820D01*
X120055047Y-58897820D01*
X120055051Y-58897816D01*
X120151557Y-58708412D01*
X120217246Y-58506243D01*
X120250500Y-58296287D01*
X120250500Y-58083713D01*
X120217246Y-57873757D01*
X120151557Y-57671588D01*
X120055051Y-57482184D01*
X120055049Y-57482181D01*
X120055048Y-57482179D01*
X120049774Y-57474919D01*
X120049771Y-57474916D01*
X119998580Y-57404458D01*
X135828500Y-57404458D01*
X135828500Y-58755541D01*
X135831412Y-58792546D01*
X135831413Y-58792552D01*
X135877434Y-58950954D01*
X135877435Y-58950957D01*
X135877436Y-58950959D01*
X135896218Y-58982718D01*
X135961405Y-59092943D01*
X135961412Y-59092952D01*
X136078047Y-59209587D01*
X136078050Y-59209589D01*
X136078053Y-59209592D01*
X136133418Y-59242335D01*
X136134996Y-59243268D01*
X136182679Y-59294338D01*
X136195182Y-59363079D01*
X136168536Y-59427669D01*
X136134996Y-59456731D01*
X136078053Y-59490408D01*
X136078047Y-59490412D01*
X135961412Y-59607047D01*
X135961405Y-59607056D01*
X135877435Y-59749042D01*
X135877434Y-59749045D01*
X135831413Y-59907447D01*
X135831412Y-59907453D01*
X135828500Y-59944458D01*
X135828500Y-61295541D01*
X135831412Y-61332546D01*
X135831413Y-61332552D01*
X135877434Y-61490954D01*
X135877435Y-61490957D01*
X135961405Y-61632943D01*
X135961412Y-61632952D01*
X136078047Y-61749587D01*
X136078050Y-61749589D01*
X136078053Y-61749592D01*
X136134996Y-61783268D01*
X136182679Y-61834338D01*
X136195182Y-61903079D01*
X136168536Y-61967669D01*
X136134996Y-61996732D01*
X136078053Y-62030408D01*
X136078047Y-62030412D01*
X135961412Y-62147047D01*
X135961405Y-62147056D01*
X135877435Y-62289042D01*
X135877434Y-62289045D01*
X135831413Y-62447447D01*
X135831412Y-62447453D01*
X135828500Y-62484458D01*
X135828500Y-63835541D01*
X135831412Y-63872546D01*
X135831413Y-63872552D01*
X135877434Y-64030954D01*
X135877435Y-64030957D01*
X135961405Y-64172943D01*
X135961412Y-64172952D01*
X136078047Y-64289587D01*
X136078050Y-64289589D01*
X136078053Y-64289592D01*
X136134996Y-64323268D01*
X136182679Y-64374338D01*
X136195182Y-64443079D01*
X136168536Y-64507669D01*
X136134996Y-64536732D01*
X136078053Y-64570408D01*
X136078047Y-64570412D01*
X135961412Y-64687047D01*
X135961405Y-64687056D01*
X135877435Y-64829042D01*
X135877434Y-64829045D01*
X135831413Y-64987447D01*
X135831412Y-64987453D01*
X135828500Y-65024458D01*
X135828500Y-66375541D01*
X135831412Y-66412546D01*
X135831413Y-66412552D01*
X135877434Y-66570954D01*
X135877435Y-66570957D01*
X135961405Y-66712943D01*
X135961412Y-66712952D01*
X136078047Y-66829587D01*
X136078050Y-66829589D01*
X136078053Y-66829592D01*
X136134996Y-66863268D01*
X136182679Y-66914338D01*
X136195182Y-66983079D01*
X136168536Y-67047669D01*
X136134996Y-67076732D01*
X136078053Y-67110408D01*
X136078047Y-67110412D01*
X135961412Y-67227047D01*
X135961405Y-67227056D01*
X135877435Y-67369042D01*
X135877434Y-67369045D01*
X135831413Y-67527447D01*
X135831412Y-67527453D01*
X135828500Y-67564458D01*
X135828500Y-68915541D01*
X135831412Y-68952546D01*
X135831413Y-68952552D01*
X135877434Y-69110954D01*
X135877435Y-69110957D01*
X135961405Y-69252943D01*
X135961412Y-69252952D01*
X136078047Y-69369587D01*
X136078051Y-69369590D01*
X136078053Y-69369592D01*
X136220041Y-69453564D01*
X136261816Y-69465701D01*
X136378447Y-69499586D01*
X136378450Y-69499586D01*
X136378452Y-69499587D01*
X136415466Y-69502500D01*
X136415474Y-69502500D01*
X138674526Y-69502500D01*
X138674534Y-69502500D01*
X138711548Y-69499587D01*
X138711550Y-69499586D01*
X138711552Y-69499586D01*
X138753323Y-69487449D01*
X138869959Y-69453564D01*
X139011947Y-69369592D01*
X139108148Y-69273389D01*
X139122939Y-69260758D01*
X139202464Y-69202981D01*
X139342981Y-69062464D01*
X139459787Y-68901694D01*
X139550005Y-68724632D01*
X139611413Y-68535636D01*
X139642500Y-68339361D01*
X139642500Y-68140639D01*
X139611413Y-67944364D01*
X139550005Y-67755368D01*
X139550005Y-67755367D01*
X139471094Y-67600498D01*
X139459787Y-67578306D01*
X139342981Y-67417536D01*
X139202464Y-67277019D01*
X139122937Y-67219239D01*
X139116175Y-67213960D01*
X139112000Y-67210461D01*
X139011947Y-67110408D01*
X138946259Y-67071560D01*
X138938477Y-67065038D01*
X138924510Y-67044073D01*
X138907321Y-67025663D01*
X138905471Y-67015492D01*
X138899740Y-67006890D01*
X138899324Y-66981702D01*
X138894817Y-66956921D01*
X138898758Y-66947366D01*
X138898588Y-66937030D01*
X138911856Y-66915616D01*
X138921462Y-66892332D01*
X138931874Y-66883309D01*
X138935389Y-66877638D01*
X138942127Y-66874425D01*
X138955004Y-66863268D01*
X139011947Y-66829592D01*
X139108148Y-66733389D01*
X139122939Y-66720758D01*
X139202464Y-66662981D01*
X139342981Y-66522464D01*
X139459787Y-66361694D01*
X139550005Y-66184632D01*
X139611413Y-65995636D01*
X139642500Y-65799361D01*
X139642500Y-65600639D01*
X139611413Y-65404364D01*
X139550005Y-65215368D01*
X139550005Y-65215367D01*
X139466830Y-65052129D01*
X139459787Y-65038306D01*
X139342981Y-64877536D01*
X139202464Y-64737019D01*
X139122937Y-64679239D01*
X139116175Y-64673960D01*
X139112000Y-64670461D01*
X139011947Y-64570408D01*
X138946259Y-64531560D01*
X138938477Y-64525038D01*
X138924510Y-64504073D01*
X138907321Y-64485663D01*
X138905471Y-64475492D01*
X138899740Y-64466890D01*
X138899324Y-64441702D01*
X138894817Y-64416921D01*
X138898758Y-64407366D01*
X138898588Y-64397030D01*
X138911856Y-64375616D01*
X138921462Y-64352332D01*
X138931874Y-64343309D01*
X138935389Y-64337638D01*
X138942127Y-64334425D01*
X138955004Y-64323268D01*
X139007929Y-64291968D01*
X139011947Y-64289592D01*
X139108148Y-64193389D01*
X139122939Y-64180758D01*
X139202464Y-64122981D01*
X139342981Y-63982464D01*
X139459787Y-63821694D01*
X139550005Y-63644632D01*
X139611413Y-63455636D01*
X139642500Y-63259361D01*
X139642500Y-63060639D01*
X139611413Y-62864364D01*
X139550005Y-62675368D01*
X139550005Y-62675367D01*
X139504035Y-62585149D01*
X139459787Y-62498306D01*
X139342981Y-62337536D01*
X139202464Y-62197019D01*
X139122937Y-62139239D01*
X139116175Y-62133960D01*
X139112000Y-62130461D01*
X139011947Y-62030408D01*
X138946259Y-61991560D01*
X138938477Y-61985038D01*
X138924510Y-61964073D01*
X138907321Y-61945663D01*
X138905471Y-61935492D01*
X138899740Y-61926890D01*
X138899324Y-61901702D01*
X138894817Y-61876921D01*
X138898758Y-61867366D01*
X138898588Y-61857030D01*
X138911856Y-61835616D01*
X138921462Y-61812332D01*
X138931874Y-61803309D01*
X138935389Y-61797638D01*
X138942127Y-61794425D01*
X138955004Y-61783268D01*
X139011947Y-61749592D01*
X139108148Y-61653389D01*
X139122939Y-61640758D01*
X139202464Y-61582981D01*
X139342981Y-61442464D01*
X139459787Y-61281694D01*
X139550005Y-61104632D01*
X139611413Y-60915636D01*
X139642500Y-60719361D01*
X139642500Y-60520639D01*
X139611413Y-60324364D01*
X139550005Y-60135368D01*
X139550005Y-60135367D01*
X139504035Y-60045149D01*
X139459787Y-59958306D01*
X139342981Y-59797536D01*
X139202464Y-59657019D01*
X139122937Y-59599239D01*
X139116175Y-59593960D01*
X139112000Y-59590461D01*
X139011947Y-59490408D01*
X138946259Y-59451560D01*
X138938477Y-59445038D01*
X138924510Y-59424073D01*
X138907321Y-59405663D01*
X138905471Y-59395492D01*
X138899740Y-59386890D01*
X138899324Y-59361702D01*
X138894817Y-59336921D01*
X138898758Y-59327366D01*
X138898588Y-59317030D01*
X138911856Y-59295616D01*
X138921462Y-59272332D01*
X138931874Y-59263309D01*
X138935389Y-59257638D01*
X138942127Y-59254425D01*
X138955004Y-59243268D01*
X138956582Y-59242335D01*
X139011947Y-59209592D01*
X139108148Y-59113389D01*
X139122939Y-59100758D01*
X139202464Y-59042981D01*
X139342981Y-58902464D01*
X139459787Y-58741694D01*
X139550005Y-58564632D01*
X139611413Y-58375636D01*
X139642500Y-58179361D01*
X139642500Y-57980639D01*
X139611413Y-57784364D01*
X139574769Y-57671585D01*
X139550006Y-57595370D01*
X139550005Y-57595367D01*
X139504035Y-57505149D01*
X139459787Y-57418306D01*
X139342981Y-57257536D01*
X139202464Y-57117019D01*
X139122937Y-57059239D01*
X139108147Y-57046608D01*
X139011947Y-56950408D01*
X139011944Y-56950406D01*
X139011943Y-56950405D01*
X138869957Y-56866435D01*
X138869954Y-56866434D01*
X138711552Y-56820413D01*
X138711546Y-56820412D01*
X138674541Y-56817500D01*
X138674534Y-56817500D01*
X136415466Y-56817500D01*
X136415458Y-56817500D01*
X136378453Y-56820412D01*
X136378447Y-56820413D01*
X136220045Y-56866434D01*
X136220042Y-56866435D01*
X136078056Y-56950405D01*
X136078047Y-56950412D01*
X135961412Y-57067047D01*
X135961405Y-57067056D01*
X135877435Y-57209042D01*
X135877434Y-57209045D01*
X135831413Y-57367447D01*
X135831412Y-57367453D01*
X135828500Y-57404458D01*
X119998580Y-57404458D01*
X119930104Y-57310208D01*
X119779792Y-57159896D01*
X119779786Y-57159890D01*
X119607820Y-57034951D01*
X119418414Y-56938444D01*
X119418413Y-56938443D01*
X119418412Y-56938443D01*
X119216243Y-56872754D01*
X119216241Y-56872753D01*
X119216240Y-56872753D01*
X119054957Y-56847208D01*
X119006287Y-56839500D01*
X118793713Y-56839500D01*
X118745042Y-56847208D01*
X118583760Y-56872753D01*
X118381585Y-56938444D01*
X118192179Y-57034951D01*
X118020213Y-57159890D01*
X117869890Y-57310213D01*
X117744951Y-57482179D01*
X117648444Y-57671585D01*
X117582753Y-57873760D01*
X117565825Y-57980639D01*
X117549500Y-58083713D01*
X112500500Y-58083713D01*
X112500500Y-52324458D01*
X135828500Y-52324458D01*
X135828500Y-53675541D01*
X135831412Y-53712546D01*
X135831413Y-53712552D01*
X135877434Y-53870954D01*
X135877435Y-53870957D01*
X135961405Y-54012943D01*
X135961412Y-54012952D01*
X136078047Y-54129587D01*
X136078051Y-54129590D01*
X136078053Y-54129592D01*
X136220041Y-54213564D01*
X136257703Y-54224506D01*
X136378447Y-54259586D01*
X136378450Y-54259586D01*
X136378452Y-54259587D01*
X136415466Y-54262500D01*
X136415474Y-54262500D01*
X138674526Y-54262500D01*
X138674534Y-54262500D01*
X138711548Y-54259587D01*
X138711550Y-54259586D01*
X138711552Y-54259586D01*
X138753323Y-54247449D01*
X138869959Y-54213564D01*
X139011947Y-54129592D01*
X139108148Y-54033389D01*
X139122939Y-54020758D01*
X139202464Y-53962981D01*
X139342981Y-53822464D01*
X139459787Y-53661694D01*
X139550005Y-53484632D01*
X139611413Y-53295636D01*
X139642500Y-53099361D01*
X139642500Y-52900639D01*
X152357500Y-52900639D01*
X152357500Y-53099360D01*
X152388587Y-53295637D01*
X152449993Y-53484629D01*
X152449994Y-53484632D01*
X152479457Y-53542455D01*
X152540213Y-53661694D01*
X152657019Y-53822464D01*
X152657021Y-53822466D01*
X152797539Y-53962984D01*
X152877060Y-54020758D01*
X152883824Y-54026039D01*
X152887998Y-54029537D01*
X152988053Y-54129592D01*
X153053737Y-54168437D01*
X153061522Y-54174962D01*
X153075488Y-54195926D01*
X153092679Y-54214338D01*
X153094528Y-54224506D01*
X153100260Y-54233110D01*
X153100674Y-54258297D01*
X153105182Y-54283079D01*
X153101239Y-54292634D01*
X153101410Y-54302970D01*
X153088143Y-54324381D01*
X153078536Y-54347669D01*
X153068122Y-54356692D01*
X153064609Y-54362363D01*
X153057871Y-54365575D01*
X153044996Y-54376732D01*
X152988053Y-54410408D01*
X152988046Y-54410413D01*
X152891854Y-54506604D01*
X152877061Y-54519239D01*
X152797536Y-54577018D01*
X152657021Y-54717533D01*
X152540213Y-54878305D01*
X152449994Y-55055367D01*
X152449993Y-55055370D01*
X152388587Y-55244362D01*
X152357500Y-55440639D01*
X152357500Y-55639360D01*
X152388587Y-55835637D01*
X152449993Y-56024629D01*
X152449994Y-56024632D01*
X152509964Y-56142328D01*
X152540213Y-56201694D01*
X152657019Y-56362464D01*
X152657021Y-56362466D01*
X152797539Y-56502984D01*
X152843597Y-56536446D01*
X152870794Y-56556206D01*
X152877060Y-56560758D01*
X152883824Y-56566039D01*
X152887998Y-56569537D01*
X152988053Y-56669592D01*
X153053737Y-56708437D01*
X153061522Y-56714962D01*
X153075488Y-56735926D01*
X153092679Y-56754338D01*
X153094528Y-56764506D01*
X153100260Y-56773110D01*
X153100674Y-56798297D01*
X153105182Y-56823079D01*
X153101239Y-56832634D01*
X153101410Y-56842970D01*
X153088143Y-56864381D01*
X153078536Y-56887669D01*
X153068122Y-56896692D01*
X153064609Y-56902363D01*
X153057871Y-56905575D01*
X153044996Y-56916732D01*
X152988053Y-56950408D01*
X152988046Y-56950413D01*
X152891854Y-57046604D01*
X152877061Y-57059239D01*
X152797536Y-57117018D01*
X152657021Y-57257533D01*
X152540213Y-57418305D01*
X152449994Y-57595367D01*
X152449993Y-57595370D01*
X152388587Y-57784362D01*
X152357500Y-57980639D01*
X152357500Y-58179360D01*
X152388587Y-58375637D01*
X152449993Y-58564629D01*
X152449994Y-58564632D01*
X152495160Y-58653273D01*
X152540213Y-58741694D01*
X152657019Y-58902464D01*
X152657021Y-58902466D01*
X152797539Y-59042984D01*
X152877060Y-59100758D01*
X152883824Y-59106039D01*
X152887998Y-59109537D01*
X152988053Y-59209592D01*
X153053737Y-59248437D01*
X153061522Y-59254962D01*
X153075488Y-59275926D01*
X153092679Y-59294338D01*
X153094528Y-59304506D01*
X153100260Y-59313110D01*
X153100674Y-59338297D01*
X153105182Y-59363079D01*
X153101239Y-59372634D01*
X153101410Y-59382970D01*
X153088143Y-59404381D01*
X153078536Y-59427669D01*
X153068122Y-59436692D01*
X153064609Y-59442363D01*
X153057871Y-59445575D01*
X153044996Y-59456731D01*
X152988053Y-59490408D01*
X152988046Y-59490413D01*
X152891854Y-59586604D01*
X152877061Y-59599239D01*
X152797536Y-59657018D01*
X152657021Y-59797533D01*
X152540213Y-59958305D01*
X152449994Y-60135367D01*
X152449993Y-60135370D01*
X152388587Y-60324362D01*
X152357500Y-60520639D01*
X152357500Y-60719360D01*
X152388587Y-60915637D01*
X152449993Y-61104629D01*
X152449994Y-61104632D01*
X152523255Y-61248412D01*
X152540213Y-61281694D01*
X152657019Y-61442464D01*
X152657021Y-61442466D01*
X152797539Y-61582984D01*
X152877060Y-61640758D01*
X152883824Y-61646039D01*
X152887998Y-61649537D01*
X152988053Y-61749592D01*
X153053737Y-61788437D01*
X153061522Y-61794962D01*
X153075488Y-61815926D01*
X153092679Y-61834338D01*
X153094528Y-61844506D01*
X153100260Y-61853110D01*
X153100674Y-61878297D01*
X153105182Y-61903079D01*
X153101239Y-61912634D01*
X153101410Y-61922970D01*
X153088143Y-61944381D01*
X153078536Y-61967669D01*
X153068122Y-61976692D01*
X153064609Y-61982363D01*
X153057871Y-61985575D01*
X153044996Y-61996732D01*
X152988053Y-62030408D01*
X152988046Y-62030413D01*
X152891854Y-62126604D01*
X152877061Y-62139239D01*
X152797536Y-62197018D01*
X152657021Y-62337533D01*
X152540213Y-62498305D01*
X152449994Y-62675367D01*
X152449993Y-62675370D01*
X152388587Y-62864362D01*
X152357500Y-63060639D01*
X152357500Y-63259360D01*
X152388587Y-63455637D01*
X152449993Y-63644629D01*
X152449994Y-63644632D01*
X152523255Y-63788412D01*
X152540213Y-63821694D01*
X152657019Y-63982464D01*
X152657021Y-63982466D01*
X152797539Y-64122984D01*
X152877060Y-64180758D01*
X152883824Y-64186039D01*
X152887998Y-64189537D01*
X152988053Y-64289592D01*
X153053737Y-64328437D01*
X153061522Y-64334962D01*
X153075488Y-64355926D01*
X153092679Y-64374338D01*
X153094528Y-64384506D01*
X153100260Y-64393110D01*
X153100674Y-64418297D01*
X153105182Y-64443079D01*
X153101239Y-64452634D01*
X153101410Y-64462970D01*
X153088143Y-64484381D01*
X153078536Y-64507669D01*
X153068122Y-64516692D01*
X153064609Y-64522363D01*
X153057871Y-64525575D01*
X153044996Y-64536732D01*
X152988053Y-64570408D01*
X152988046Y-64570413D01*
X152891854Y-64666604D01*
X152877061Y-64679239D01*
X152797536Y-64737018D01*
X152657021Y-64877533D01*
X152540213Y-65038305D01*
X152449994Y-65215367D01*
X152449993Y-65215370D01*
X152388587Y-65404362D01*
X152357500Y-65600639D01*
X152357500Y-65799360D01*
X152388587Y-65995637D01*
X152449993Y-66184629D01*
X152449994Y-66184632D01*
X152496511Y-66275925D01*
X152540213Y-66361694D01*
X152657019Y-66522464D01*
X152657021Y-66522466D01*
X152797539Y-66662984D01*
X152877060Y-66720758D01*
X152883824Y-66726039D01*
X152887998Y-66729537D01*
X152988053Y-66829592D01*
X153053737Y-66868437D01*
X153061522Y-66874962D01*
X153075488Y-66895926D01*
X153092679Y-66914338D01*
X153094528Y-66924506D01*
X153100260Y-66933110D01*
X153100674Y-66958297D01*
X153105182Y-66983079D01*
X153101239Y-66992634D01*
X153101410Y-67002970D01*
X153088143Y-67024381D01*
X153078536Y-67047669D01*
X153068122Y-67056692D01*
X153064609Y-67062363D01*
X153057871Y-67065575D01*
X153044996Y-67076732D01*
X152988053Y-67110408D01*
X152988046Y-67110413D01*
X152891854Y-67206604D01*
X152877061Y-67219239D01*
X152797536Y-67277018D01*
X152657021Y-67417533D01*
X152540213Y-67578305D01*
X152449994Y-67755367D01*
X152449993Y-67755370D01*
X152388587Y-67944362D01*
X152357500Y-68140639D01*
X152357500Y-68339360D01*
X152388587Y-68535637D01*
X152449993Y-68724629D01*
X152449994Y-68724632D01*
X152540213Y-68901694D01*
X152657019Y-69062464D01*
X152657021Y-69062466D01*
X152797539Y-69202984D01*
X152877060Y-69260758D01*
X152891851Y-69273390D01*
X152988053Y-69369592D01*
X153130041Y-69453564D01*
X153171816Y-69465701D01*
X153288447Y-69499586D01*
X153288450Y-69499586D01*
X153288452Y-69499587D01*
X153325466Y-69502500D01*
X153325474Y-69502500D01*
X155584526Y-69502500D01*
X155584534Y-69502500D01*
X155621548Y-69499587D01*
X155621550Y-69499586D01*
X155621552Y-69499586D01*
X155663323Y-69487449D01*
X155779959Y-69453564D01*
X155921947Y-69369592D01*
X156038592Y-69252947D01*
X156122564Y-69110959D01*
X156168587Y-68952548D01*
X156171500Y-68915534D01*
X156171500Y-67564466D01*
X156168587Y-67527452D01*
X156122564Y-67369041D01*
X156038592Y-67227053D01*
X156038590Y-67227051D01*
X156038587Y-67227047D01*
X155921952Y-67110412D01*
X155921944Y-67110406D01*
X155865004Y-67076732D01*
X155817321Y-67025663D01*
X155804817Y-66956921D01*
X155831462Y-66892332D01*
X155865004Y-66863268D01*
X155921947Y-66829592D01*
X156038592Y-66712947D01*
X156122564Y-66570959D01*
X156168587Y-66412548D01*
X156171500Y-66375534D01*
X156171500Y-65052135D01*
X163399500Y-65052135D01*
X163399500Y-67147870D01*
X163399501Y-67147876D01*
X163405908Y-67207483D01*
X163456202Y-67342328D01*
X163456206Y-67342335D01*
X163542452Y-67457544D01*
X163542455Y-67457547D01*
X163657664Y-67543793D01*
X163657671Y-67543797D01*
X163792517Y-67594091D01*
X163792516Y-67594091D01*
X163799444Y-67594835D01*
X163852127Y-67600500D01*
X167147872Y-67600499D01*
X167207483Y-67594091D01*
X167342331Y-67543796D01*
X167457546Y-67457546D01*
X167543796Y-67342331D01*
X167594091Y-67207483D01*
X167600500Y-67147873D01*
X167600499Y-65052128D01*
X167594091Y-64992517D01*
X167592202Y-64987453D01*
X167543797Y-64857671D01*
X167543793Y-64857664D01*
X167457547Y-64742455D01*
X167457544Y-64742452D01*
X167342335Y-64656206D01*
X167342328Y-64656202D01*
X167207482Y-64605908D01*
X167207483Y-64605908D01*
X167147883Y-64599501D01*
X167147881Y-64599500D01*
X167147873Y-64599500D01*
X167147864Y-64599500D01*
X163852129Y-64599500D01*
X163852123Y-64599501D01*
X163792516Y-64605908D01*
X163657671Y-64656202D01*
X163657664Y-64656206D01*
X163542455Y-64742452D01*
X163542452Y-64742455D01*
X163456206Y-64857664D01*
X163456202Y-64857671D01*
X163405908Y-64992517D01*
X163402473Y-65024473D01*
X163399501Y-65052123D01*
X163399500Y-65052135D01*
X156171500Y-65052135D01*
X156171500Y-65024466D01*
X156168587Y-64987452D01*
X156122564Y-64829041D01*
X156038592Y-64687053D01*
X156038590Y-64687051D01*
X156038587Y-64687047D01*
X155921952Y-64570412D01*
X155921944Y-64570406D01*
X155865004Y-64536732D01*
X155817321Y-64485663D01*
X155804817Y-64416921D01*
X155831462Y-64352332D01*
X155865004Y-64323268D01*
X155921947Y-64289592D01*
X156038592Y-64172947D01*
X156122564Y-64030959D01*
X156168587Y-63872548D01*
X156171500Y-63835534D01*
X156171500Y-63820097D01*
X156191185Y-63753058D01*
X156243989Y-63707303D01*
X156313147Y-63697359D01*
X156376703Y-63726384D01*
X156383174Y-63732409D01*
X156631284Y-63980520D01*
X156631286Y-63980521D01*
X156631290Y-63980524D01*
X156768209Y-64059573D01*
X156768216Y-64059577D01*
X156920943Y-64100501D01*
X156927112Y-64100501D01*
X156994151Y-64120186D01*
X157014793Y-64136820D01*
X157022490Y-64144517D01*
X157213567Y-64283343D01*
X157291924Y-64323268D01*
X157424003Y-64390566D01*
X157424005Y-64390566D01*
X157424008Y-64390568D01*
X157532148Y-64425705D01*
X157648631Y-64463553D01*
X157881903Y-64500500D01*
X157881908Y-64500500D01*
X158118097Y-64500500D01*
X158351368Y-64463553D01*
X158422585Y-64440413D01*
X158575992Y-64390568D01*
X158786433Y-64283343D01*
X158977510Y-64144517D01*
X159144517Y-63977510D01*
X159283343Y-63786433D01*
X159390568Y-63575992D01*
X159463553Y-63351368D01*
X159500500Y-63118097D01*
X159500500Y-62881902D01*
X170999500Y-62881902D01*
X170999500Y-63118097D01*
X171036446Y-63351368D01*
X171109433Y-63575996D01*
X171216657Y-63786433D01*
X171355483Y-63977510D01*
X171522490Y-64144517D01*
X171713567Y-64283343D01*
X171791924Y-64323268D01*
X171924003Y-64390566D01*
X171924005Y-64390566D01*
X171924008Y-64390568D01*
X172032148Y-64425705D01*
X172148631Y-64463553D01*
X172381903Y-64500500D01*
X172381908Y-64500500D01*
X172618097Y-64500500D01*
X172851368Y-64463553D01*
X172922585Y-64440413D01*
X173075992Y-64390568D01*
X173286433Y-64283343D01*
X173477510Y-64144517D01*
X173644517Y-63977510D01*
X173783343Y-63786433D01*
X173890568Y-63575992D01*
X173963553Y-63351368D01*
X174000500Y-63118097D01*
X174000500Y-62881902D01*
X173963553Y-62648631D01*
X173914709Y-62498306D01*
X173890568Y-62424008D01*
X173890566Y-62424005D01*
X173890566Y-62424003D01*
X173796755Y-62239890D01*
X173783343Y-62213567D01*
X173644517Y-62022490D01*
X173477510Y-61855483D01*
X173286433Y-61716657D01*
X173075996Y-61609433D01*
X172851368Y-61536446D01*
X172618097Y-61499500D01*
X172618092Y-61499500D01*
X172381908Y-61499500D01*
X172381903Y-61499500D01*
X172148631Y-61536446D01*
X171924003Y-61609433D01*
X171713566Y-61716657D01*
X171621885Y-61783268D01*
X171522490Y-61855483D01*
X171522488Y-61855485D01*
X171522487Y-61855485D01*
X171355485Y-62022487D01*
X171355485Y-62022488D01*
X171355483Y-62022490D01*
X171319914Y-62071447D01*
X171216657Y-62213566D01*
X171109433Y-62424003D01*
X171036446Y-62648631D01*
X170999500Y-62881902D01*
X159500500Y-62881902D01*
X159463553Y-62648631D01*
X159414709Y-62498306D01*
X159390568Y-62424008D01*
X159390566Y-62424005D01*
X159390566Y-62424003D01*
X159296755Y-62239890D01*
X159283343Y-62213567D01*
X159144517Y-62022490D01*
X158977510Y-61855483D01*
X158786433Y-61716657D01*
X158575996Y-61609433D01*
X158351368Y-61536446D01*
X158118097Y-61499500D01*
X158118092Y-61499500D01*
X157881908Y-61499500D01*
X157881903Y-61499500D01*
X157648631Y-61536446D01*
X157424003Y-61609433D01*
X157213566Y-61716657D01*
X157121885Y-61783268D01*
X157022490Y-61855483D01*
X157022488Y-61855485D01*
X157022487Y-61855485D01*
X156855484Y-62022488D01*
X156796818Y-62103235D01*
X156741487Y-62145900D01*
X156671874Y-62151879D01*
X156610079Y-62119273D01*
X156575722Y-62058434D01*
X156572500Y-62030349D01*
X156572500Y-59551677D01*
X156592185Y-59484638D01*
X156644989Y-59438883D01*
X156714147Y-59428939D01*
X156755930Y-59442847D01*
X156757667Y-59443795D01*
X156757668Y-59443795D01*
X156757669Y-59443796D01*
X156892517Y-59494091D01*
X156892516Y-59494091D01*
X156899444Y-59494835D01*
X156952127Y-59500500D01*
X159047872Y-59500499D01*
X159107483Y-59494091D01*
X159242331Y-59443796D01*
X159357546Y-59357546D01*
X159443796Y-59242331D01*
X159494091Y-59107483D01*
X159500500Y-59047873D01*
X159500499Y-57881902D01*
X170999500Y-57881902D01*
X170999500Y-58118097D01*
X171036446Y-58351368D01*
X171109433Y-58575996D01*
X171200913Y-58755534D01*
X171216657Y-58786433D01*
X171355483Y-58977510D01*
X171522490Y-59144517D01*
X171713567Y-59283343D01*
X171799967Y-59327366D01*
X171924003Y-59390566D01*
X171924005Y-59390566D01*
X171924008Y-59390568D01*
X172038193Y-59427669D01*
X172148631Y-59463553D01*
X172381903Y-59500500D01*
X172381908Y-59500500D01*
X172618097Y-59500500D01*
X172851368Y-59463553D01*
X172908351Y-59445038D01*
X173075992Y-59390568D01*
X173286433Y-59283343D01*
X173477510Y-59144517D01*
X173644517Y-58977510D01*
X173783343Y-58786433D01*
X173890568Y-58575992D01*
X173963553Y-58351368D01*
X173972277Y-58296286D01*
X174000500Y-58118097D01*
X174000500Y-57881902D01*
X173963553Y-57648631D01*
X173929689Y-57544412D01*
X173890568Y-57424008D01*
X173890566Y-57424005D01*
X173890566Y-57424003D01*
X173783342Y-57213566D01*
X173644517Y-57022490D01*
X173477510Y-56855483D01*
X173286433Y-56716657D01*
X173260156Y-56703268D01*
X173075996Y-56609433D01*
X172851368Y-56536446D01*
X172618097Y-56499500D01*
X172618092Y-56499500D01*
X172381908Y-56499500D01*
X172381903Y-56499500D01*
X172148631Y-56536446D01*
X171924003Y-56609433D01*
X171713566Y-56716657D01*
X171635866Y-56773110D01*
X171522490Y-56855483D01*
X171522488Y-56855485D01*
X171522487Y-56855485D01*
X171355485Y-57022487D01*
X171355485Y-57022488D01*
X171355483Y-57022490D01*
X171323106Y-57067053D01*
X171216657Y-57213566D01*
X171109433Y-57424003D01*
X171036446Y-57648631D01*
X170999500Y-57881902D01*
X159500499Y-57881902D01*
X159500499Y-56952128D01*
X159494091Y-56892517D01*
X159484363Y-56866436D01*
X159443797Y-56757671D01*
X159443793Y-56757664D01*
X159357547Y-56642455D01*
X159357544Y-56642452D01*
X159242335Y-56556206D01*
X159242328Y-56556202D01*
X159107482Y-56505908D01*
X159107483Y-56505908D01*
X159047883Y-56499501D01*
X159047881Y-56499500D01*
X159047873Y-56499500D01*
X159047864Y-56499500D01*
X156952129Y-56499500D01*
X156952123Y-56499501D01*
X156892516Y-56505908D01*
X156757671Y-56556202D01*
X156757664Y-56556206D01*
X156642455Y-56642452D01*
X156642452Y-56642455D01*
X156556206Y-56757664D01*
X156556202Y-56757671D01*
X156505908Y-56892517D01*
X156500971Y-56938443D01*
X156499501Y-56952123D01*
X156499500Y-56952135D01*
X156499500Y-58733273D01*
X156493261Y-58754518D01*
X156491682Y-58776607D01*
X156483609Y-58787390D01*
X156479815Y-58800312D01*
X156463081Y-58814811D01*
X156449810Y-58832540D01*
X156437189Y-58837247D01*
X156427011Y-58846067D01*
X156405093Y-58849218D01*
X156384346Y-58856957D01*
X156371185Y-58854094D01*
X156357853Y-58856011D01*
X156337709Y-58846811D01*
X156316073Y-58842105D01*
X156298347Y-58828836D01*
X156294297Y-58826986D01*
X156287819Y-58820954D01*
X156207819Y-58740954D01*
X156174334Y-58679631D01*
X156171500Y-58653273D01*
X156171500Y-57404473D01*
X156171499Y-57404458D01*
X156168587Y-57367453D01*
X156168586Y-57367447D01*
X156123879Y-57213567D01*
X156122564Y-57209041D01*
X156038592Y-57067053D01*
X156038590Y-57067051D01*
X156038587Y-57067047D01*
X155921952Y-56950412D01*
X155921944Y-56950406D01*
X155865004Y-56916732D01*
X155817321Y-56865663D01*
X155804817Y-56796921D01*
X155831462Y-56732332D01*
X155865004Y-56703268D01*
X155921947Y-56669592D01*
X156038592Y-56552947D01*
X156122564Y-56410959D01*
X156168587Y-56252548D01*
X156171500Y-56215534D01*
X156171500Y-54864466D01*
X156168587Y-54827452D01*
X156122564Y-54669041D01*
X156038592Y-54527053D01*
X156038590Y-54527051D01*
X156038587Y-54527047D01*
X155921952Y-54410412D01*
X155921944Y-54410406D01*
X155865004Y-54376732D01*
X155817321Y-54325663D01*
X155804817Y-54256921D01*
X155831462Y-54192332D01*
X155865004Y-54163268D01*
X155921947Y-54129592D01*
X156038592Y-54012947D01*
X156122564Y-53870959D01*
X156122565Y-53870956D01*
X156128033Y-53852135D01*
X163399500Y-53852135D01*
X163399500Y-55947870D01*
X163399501Y-55947876D01*
X163405908Y-56007483D01*
X163456202Y-56142328D01*
X163456206Y-56142335D01*
X163542452Y-56257544D01*
X163542455Y-56257547D01*
X163657664Y-56343793D01*
X163657671Y-56343797D01*
X163792517Y-56394091D01*
X163792516Y-56394091D01*
X163799444Y-56394835D01*
X163852127Y-56400500D01*
X167147872Y-56400499D01*
X167207483Y-56394091D01*
X167342331Y-56343796D01*
X167457546Y-56257546D01*
X167543796Y-56142331D01*
X167594091Y-56007483D01*
X167600500Y-55947873D01*
X167600499Y-53852128D01*
X167594091Y-53792517D01*
X167543796Y-53657669D01*
X167543795Y-53657668D01*
X167543793Y-53657664D01*
X167457547Y-53542455D01*
X167457544Y-53542452D01*
X167342335Y-53456206D01*
X167342328Y-53456202D01*
X167207482Y-53405908D01*
X167207483Y-53405908D01*
X167147883Y-53399501D01*
X167147881Y-53399500D01*
X167147873Y-53399500D01*
X167147864Y-53399500D01*
X163852129Y-53399500D01*
X163852123Y-53399501D01*
X163792516Y-53405908D01*
X163657671Y-53456202D01*
X163657664Y-53456206D01*
X163542455Y-53542452D01*
X163542452Y-53542455D01*
X163456206Y-53657664D01*
X163456202Y-53657671D01*
X163405908Y-53792517D01*
X163399501Y-53852116D01*
X163399501Y-53852123D01*
X163399500Y-53852135D01*
X156128033Y-53852135D01*
X156139052Y-53814210D01*
X156155846Y-53756399D01*
X156168587Y-53712548D01*
X156171500Y-53675534D01*
X156171500Y-52324466D01*
X156168587Y-52287452D01*
X156122564Y-52129041D01*
X156038592Y-51987053D01*
X156038590Y-51987051D01*
X156038587Y-51987047D01*
X155921952Y-51870412D01*
X155921943Y-51870405D01*
X155779957Y-51786435D01*
X155779954Y-51786434D01*
X155621552Y-51740413D01*
X155621546Y-51740412D01*
X155584541Y-51737500D01*
X155584534Y-51737500D01*
X153325466Y-51737500D01*
X153325458Y-51737500D01*
X153288453Y-51740412D01*
X153288447Y-51740413D01*
X153130045Y-51786434D01*
X153130042Y-51786435D01*
X152988056Y-51870405D01*
X152988046Y-51870413D01*
X152891854Y-51966604D01*
X152877061Y-51979239D01*
X152797536Y-52037018D01*
X152657021Y-52177533D01*
X152540213Y-52338305D01*
X152449994Y-52515367D01*
X152449993Y-52515370D01*
X152388587Y-52704362D01*
X152357500Y-52900639D01*
X139642500Y-52900639D01*
X139611413Y-52704364D01*
X139550005Y-52515368D01*
X139550005Y-52515367D01*
X139459786Y-52338305D01*
X139342981Y-52177536D01*
X139202464Y-52037019D01*
X139122937Y-51979239D01*
X139108147Y-51966608D01*
X139011947Y-51870408D01*
X139011946Y-51870407D01*
X139011943Y-51870405D01*
X138869957Y-51786435D01*
X138869954Y-51786434D01*
X138711552Y-51740413D01*
X138711546Y-51740412D01*
X138674541Y-51737500D01*
X138674534Y-51737500D01*
X136415466Y-51737500D01*
X136415458Y-51737500D01*
X136378453Y-51740412D01*
X136378447Y-51740413D01*
X136220045Y-51786434D01*
X136220042Y-51786435D01*
X136078056Y-51870405D01*
X136078047Y-51870412D01*
X135961412Y-51987047D01*
X135961405Y-51987056D01*
X135877435Y-52129042D01*
X135877434Y-52129045D01*
X135831413Y-52287447D01*
X135831412Y-52287453D01*
X135828500Y-52324458D01*
X112500500Y-52324458D01*
X112500500Y-50624500D01*
X112520185Y-50557461D01*
X112572989Y-50511706D01*
X112624500Y-50500500D01*
X179375500Y-50500500D01*
X179442539Y-50520185D01*
G37*
%TD.AperFunction*%
%TD*%
M02*
