M48
; DRILL file {KiCad 9.0.7} date 2026-02-07T02:01:35-0500
; FORMAT={-:-/ absolute / metric / decimal}
; #@! TF.CreationDate,2026-02-07T02:01:35-05:00
; #@! TF.GenerationSoftware,Kicad,Pcbnew,9.0.7
; #@! TF.FileFunction,NonPlated,1,2,NPTH
FMAT,2
METRIC
; #@! TA.AperFunction,NonPlated,NPTH,ComponentDrill
T1C1.700
; #@! TA.AperFunction,NonPlated,NPTH,ComponentDrill
T2C3.200
; #@! TA.AperFunction,NonPlated,NPTH,ComponentDrill
T3C4.000
%
G90
G05
T1
X121.75Y-120.91
X121.76Y-82.84
X121.76Y-101.89
X131.91Y-120.91
X131.92Y-82.84
X131.92Y-101.89
X140.78Y-101.88
X140.78Y-120.91
X140.85Y-82.84
X150.94Y-101.88
X150.94Y-120.91
X151.01Y-82.84
X159.9Y-82.83
X159.9Y-101.87
X159.93Y-120.91
X170.06Y-82.83
X170.06Y-101.87
X170.09Y-120.91
T2
X116.0Y-130.0
X176.0Y-130.0
T3
X126.83Y-120.91
X126.84Y-82.84
X126.84Y-101.89
X145.86Y-101.88
X145.86Y-120.91
X145.93Y-82.84
X164.98Y-82.83
X164.98Y-101.87
X165.01Y-120.91
M30
