%TF.GenerationSoftware,KiCad,Pcbnew,9.0.7*%
%TF.CreationDate,2026-02-04T22:49:18-05:00*%
%TF.ProjectId,Keypad,4b657970-6164-42e6-9b69-6361645f7063,rev?*%
%TF.SameCoordinates,Original*%
%TF.FileFunction,Copper,L2,Bot*%
%TF.FilePolarity,Positive*%
%FSLAX46Y46*%
G04 Gerber Fmt 4.6, Leading zero omitted, Abs format (unit mm)*
G04 Created by KiCad (PCBNEW 9.0.7) date 2026-02-04 22:49:18*
%MOMM*%
%LPD*%
G01*
G04 APERTURE LIST*
G04 Aperture macros list*
%AMRoundRect*
0 Rectangle with rounded corners*
0 $1 Rounding radius*
0 $2 $3 $4 $5 $6 $7 $8 $9 X,Y pos of 4 corners*
0 Add a 4 corners polygon primitive as box body*
4,1,4,$2,$3,$4,$5,$6,$7,$8,$9,$2,$3,0*
0 Add four circle primitives for the rounded corners*
1,1,$1+$1,$2,$3*
1,1,$1+$1,$4,$5*
1,1,$1+$1,$6,$7*
1,1,$1+$1,$8,$9*
0 Add four rect primitives between the rounded corners*
20,1,$1+$1,$2,$3,$4,$5,0*
20,1,$1+$1,$4,$5,$6,$7,0*
20,1,$1+$1,$6,$7,$8,$9,0*
20,1,$1+$1,$8,$9,$2,$3,0*%
G04 Aperture macros list end*
%TA.AperFunction,ComponentPad*%
%ADD10RoundRect,0.250000X0.550000X-0.550000X0.550000X0.550000X-0.550000X0.550000X-0.550000X-0.550000X0*%
%TD*%
%TA.AperFunction,ComponentPad*%
%ADD11C,1.600000*%
%TD*%
%TA.AperFunction,ComponentPad*%
%ADD12C,2.200000*%
%TD*%
%TA.AperFunction,ComponentPad*%
%ADD13R,2.000000X2.000000*%
%TD*%
%TA.AperFunction,ComponentPad*%
%ADD14C,2.000000*%
%TD*%
%TA.AperFunction,ComponentPad*%
%ADD15R,3.200000X2.000000*%
%TD*%
%TA.AperFunction,ComponentPad*%
%ADD16RoundRect,0.250000X0.550000X0.550000X-0.550000X0.550000X-0.550000X-0.550000X0.550000X-0.550000X0*%
%TD*%
%TA.AperFunction,ComponentPad*%
%ADD17R,1.700000X1.700000*%
%TD*%
%TA.AperFunction,ComponentPad*%
%ADD18O,1.700000X1.700000*%
%TD*%
%TA.AperFunction,ComponentPad*%
%ADD19C,1.524000*%
%TD*%
%TA.AperFunction,ViaPad*%
%ADD20C,0.600000*%
%TD*%
%TA.AperFunction,Conductor*%
%ADD21C,1.000000*%
%TD*%
%TA.AperFunction,Conductor*%
%ADD22C,0.200000*%
%TD*%
G04 APERTURE END LIST*
D10*
%TO.P,D6,1,K*%
%TO.N,Net-(D10-K)*%
X139500000Y-133850000D03*
D11*
%TO.P,D6,2,A*%
%TO.N,Net-(D6-A)*%
X139500000Y-126230000D03*
%TD*%
D12*
%TO.P,SW8,1,1*%
%TO.N,Net-(D8-A)*%
X132300000Y-84310000D03*
%TO.P,SW8,2,2*%
%TO.N,Net-(DB1-A)*%
X125950000Y-86850000D03*
%TD*%
D10*
%TO.P,D10,1,K*%
%TO.N,Net-(D10-K)*%
X159500000Y-133700000D03*
D11*
%TO.P,D10,2,A*%
%TO.N,Net-(D10-A)*%
X159500000Y-126080000D03*
%TD*%
D13*
%TO.P,SW0,A,A*%
%TO.N,Net-(DA1-K)*%
X155310000Y-62800000D03*
D14*
%TO.P,SW0,B,B*%
%TO.N,Net-(DB1-K)*%
X155310000Y-67800000D03*
%TO.P,SW0,C,C*%
%TO.N,Net-(DC1-K)*%
X155310000Y-65300000D03*
D15*
%TO.P,SW0,MP*%
%TO.N,N/C*%
X162810000Y-59700000D03*
X162810000Y-70900000D03*
D14*
%TO.P,SW0,S1,S1*%
%TO.N,Net-(DC1-A)*%
X169810000Y-67800000D03*
%TO.P,SW0,S2,S2*%
%TO.N,Net-(U1-GPIO28{slash}ADC2{slash}A2)*%
X169810000Y-62800000D03*
%TD*%
D16*
%TO.P,DC1,1,K*%
%TO.N,Net-(DC1-K)*%
X151660000Y-67640000D03*
D11*
%TO.P,DC1,2,A*%
%TO.N,Net-(DC1-A)*%
X144040000Y-67640000D03*
%TD*%
D10*
%TO.P,D11,1,K*%
%TO.N,Net-(D11-K)*%
X159500000Y-114700000D03*
D11*
%TO.P,D11,2,A*%
%TO.N,Net-(D11-A)*%
X159500000Y-107080000D03*
%TD*%
D16*
%TO.P,DB1,1,K*%
%TO.N,Net-(DB1-K)*%
X151660000Y-63880000D03*
D11*
%TO.P,DB1,2,A*%
%TO.N,Net-(DB1-A)*%
X144040000Y-63880000D03*
%TD*%
D10*
%TO.P,D9,1,K*%
%TO.N,Net-(D1-K)*%
X159500000Y-152800000D03*
D11*
%TO.P,D9,2,A*%
%TO.N,Net-(D9-A)*%
X159500000Y-145180000D03*
%TD*%
D10*
%TO.P,D5,1,K*%
%TO.N,Net-(D1-K)*%
X139500000Y-153200000D03*
D11*
%TO.P,D5,2,A*%
%TO.N,Net-(D5-A)*%
X139500000Y-145580000D03*
%TD*%
D12*
%TO.P,SW4,1,1*%
%TO.N,Net-(D4-A)*%
X113250000Y-84310000D03*
%TO.P,SW4,2,2*%
%TO.N,Net-(DA1-A)*%
X106900000Y-86850000D03*
%TD*%
D10*
%TO.P,D7,1,K*%
%TO.N,Net-(D11-K)*%
X139600000Y-115300000D03*
D11*
%TO.P,D7,2,A*%
%TO.N,Net-(D7-A)*%
X139600000Y-107680000D03*
%TD*%
D12*
%TO.P,SW9,1,1*%
%TO.N,Net-(D9-A)*%
X151350000Y-141460000D03*
%TO.P,SW9,2,2*%
%TO.N,Net-(U1-GPIO28{slash}ADC2{slash}A2)*%
X145000000Y-144000000D03*
%TD*%
%TO.P,SW2,1,1*%
%TO.N,Net-(D2-A)*%
X113250000Y-122410000D03*
%TO.P,SW2,2,2*%
%TO.N,Net-(DA1-A)*%
X106900000Y-124950000D03*
%TD*%
D10*
%TO.P,D12,1,K*%
%TO.N,Net-(D12-K)*%
X159500000Y-95700000D03*
D11*
%TO.P,D12,2,A*%
%TO.N,Net-(D12-A)*%
X159500000Y-88080000D03*
%TD*%
D10*
%TO.P,D4,1,K*%
%TO.N,Net-(D12-K)*%
X120500000Y-96350000D03*
D11*
%TO.P,D4,2,A*%
%TO.N,Net-(D4-A)*%
X120500000Y-88730000D03*
%TD*%
D12*
%TO.P,SW10,1,1*%
%TO.N,Net-(D10-A)*%
X151350000Y-122450000D03*
%TO.P,SW10,2,2*%
%TO.N,Net-(U1-GPIO28{slash}ADC2{slash}A2)*%
X145000000Y-124990000D03*
%TD*%
%TO.P,SW12,1,1*%
%TO.N,Net-(D12-A)*%
X151360000Y-84320000D03*
%TO.P,SW12,2,2*%
%TO.N,Net-(U1-GPIO28{slash}ADC2{slash}A2)*%
X145010000Y-86860000D03*
%TD*%
%TO.P,SW1,1,1*%
%TO.N,Net-(D1-A)*%
X113250000Y-141460000D03*
%TO.P,SW1,2,2*%
%TO.N,Net-(DA1-A)*%
X106900000Y-144000000D03*
%TD*%
D10*
%TO.P,D3,1,K*%
%TO.N,Net-(D11-K)*%
X120500000Y-114850000D03*
D11*
%TO.P,D3,2,A*%
%TO.N,Net-(D3-A)*%
X120500000Y-107230000D03*
%TD*%
D17*
%TO.P,O1,1,Pin_1*%
%TO.N,GND*%
X87000000Y-69195000D03*
D18*
%TO.P,O1,2,Pin_2*%
%TO.N,+5V*%
X87000000Y-66655000D03*
%TO.P,O1,3,Pin_3*%
%TO.N,Net-(O1-Pin_3)*%
X87000000Y-64115000D03*
%TO.P,O1,4,Pin_4*%
%TO.N,Net-(O1-Pin_4)*%
X87000000Y-61575000D03*
%TD*%
D10*
%TO.P,D2,1,K*%
%TO.N,Net-(D10-K)*%
X120500000Y-133850000D03*
D11*
%TO.P,D2,2,A*%
%TO.N,Net-(D2-A)*%
X120500000Y-126230000D03*
%TD*%
D10*
%TO.P,D8,1,K*%
%TO.N,Net-(D12-K)*%
X139500000Y-96200000D03*
D11*
%TO.P,D8,2,A*%
%TO.N,Net-(D8-A)*%
X139500000Y-88580000D03*
%TD*%
D10*
%TO.P,D1,1,K*%
%TO.N,Net-(D1-K)*%
X120500000Y-153350000D03*
D11*
%TO.P,D1,2,A*%
%TO.N,Net-(D1-A)*%
X120500000Y-145730000D03*
%TD*%
D12*
%TO.P,SW7,1,1*%
%TO.N,Net-(D7-A)*%
X132300000Y-103360000D03*
%TO.P,SW7,2,2*%
%TO.N,Net-(DB1-A)*%
X125950000Y-105900000D03*
%TD*%
%TO.P,SW11,1,1*%
%TO.N,Net-(D11-A)*%
X151350000Y-103390000D03*
%TO.P,SW11,2,2*%
%TO.N,Net-(U1-GPIO28{slash}ADC2{slash}A2)*%
X145000000Y-105930000D03*
%TD*%
D16*
%TO.P,DA1,1,K*%
%TO.N,Net-(DA1-K)*%
X151660000Y-59950000D03*
D11*
%TO.P,DA1,2,A*%
%TO.N,Net-(DA1-A)*%
X144040000Y-59950000D03*
%TD*%
D19*
%TO.P,U1,1,GPIO26/ADC0/A0*%
%TO.N,Net-(DA1-A)*%
X124880000Y-60928500D03*
%TO.P,U1,2,GPIO27/ADC1/A1*%
%TO.N,Net-(DC1-K)*%
X124880000Y-63468500D03*
%TO.P,U1,3,GPIO28/ADC2/A2*%
%TO.N,Net-(U1-GPIO28{slash}ADC2{slash}A2)*%
X124880000Y-66008500D03*
%TO.P,U1,4,GPIO29/ADC3/A3*%
%TO.N,Net-(DB1-A)*%
X124880000Y-68548500D03*
%TO.P,U1,5,GPIO6/SDA*%
%TO.N,Net-(O1-Pin_4)*%
X124880000Y-71088500D03*
%TO.P,U1,6,GPIO7/SCL*%
%TO.N,Net-(O1-Pin_3)*%
X124880000Y-73628500D03*
%TO.P,U1,7,GPIO0/TX*%
%TO.N,Net-(LED4-DIN)*%
X124880000Y-76168500D03*
%TO.P,U1,8,GPIO1/RX*%
%TO.N,Net-(D12-K)*%
X140120000Y-76168500D03*
%TO.P,U1,9,GPIO2/SCK*%
%TO.N,Net-(D11-K)*%
X140120000Y-73628500D03*
%TO.P,U1,10,GPIO4/MISO*%
%TO.N,Net-(D10-K)*%
X140120000Y-71088500D03*
%TO.P,U1,11,GPIO3/MOSI*%
%TO.N,Net-(D1-K)*%
X140120000Y-68548500D03*
%TO.P,U1,12,3V3*%
%TO.N,unconnected-(U1-3V3-Pad12)_1*%
X140120000Y-66008500D03*
%TO.P,U1,13,GND*%
%TO.N,GND*%
X140120000Y-63468500D03*
%TO.P,U1,14,VBUS*%
%TO.N,+5V*%
X140120000Y-60928500D03*
%TD*%
D12*
%TO.P,SW6,1,1*%
%TO.N,Net-(D6-A)*%
X132300000Y-122410000D03*
%TO.P,SW6,2,2*%
%TO.N,Net-(DB1-A)*%
X125950000Y-124950000D03*
%TD*%
%TO.P,SW3,1,1*%
%TO.N,Net-(D3-A)*%
X113250000Y-103360000D03*
%TO.P,SW3,2,2*%
%TO.N,Net-(DA1-A)*%
X106900000Y-105900000D03*
%TD*%
%TO.P,SW5,1,1*%
%TO.N,Net-(D5-A)*%
X132300000Y-141460000D03*
%TO.P,SW5,2,2*%
%TO.N,Net-(DB1-A)*%
X125950000Y-144000000D03*
%TD*%
D20*
%TO.N,GND*%
X110000000Y-102000000D03*
X128000000Y-120000000D03*
X116000000Y-138000000D03*
X154000000Y-135000000D03*
X134000000Y-98000000D03*
X153000000Y-117000000D03*
X115000000Y-155000000D03*
X128000000Y-140000000D03*
X153000000Y-98000000D03*
X125000000Y-156000000D03*
X154000000Y-154000000D03*
X115000000Y-117000000D03*
%TO.N,+5V*%
X136000000Y-120000000D03*
X141000000Y-138000000D03*
X143000000Y-154000000D03*
X135000000Y-116000000D03*
X143000000Y-135000000D03*
X140000000Y-156000000D03*
%TD*%
D21*
%TO.N,+5V*%
X143000000Y-154000000D02*
X141000000Y-156000000D01*
X135000000Y-119000000D02*
X136000000Y-120000000D01*
X141000000Y-156000000D02*
X140000000Y-156000000D01*
X135000000Y-116000000D02*
X135000000Y-119000000D01*
X141000000Y-137000000D02*
X141000000Y-138000000D01*
X143000000Y-135000000D02*
X141000000Y-137000000D01*
D22*
%TO.N,Net-(D1-K)*%
X161904000Y-82004229D02*
X149210270Y-69310499D01*
X159500000Y-152800000D02*
X159500000Y-152200000D01*
X159500000Y-152200000D02*
X161904000Y-149796000D01*
X161904000Y-149796000D02*
X161904000Y-82004229D01*
X149210270Y-69310499D02*
X140881999Y-69310499D01*
X140881999Y-69310499D02*
X140120000Y-68548500D01*
%TO.N,Net-(D1-A)*%
X116230000Y-141460000D02*
X120500000Y-145730000D01*
X113250000Y-141460000D02*
X116230000Y-141460000D01*
%TO.N,Net-(D2-A)*%
X113250000Y-122410000D02*
X116680000Y-122410000D01*
X116680000Y-122410000D02*
X120500000Y-126230000D01*
%TO.N,Net-(D3-A)*%
X113250000Y-103360000D02*
X116630000Y-103360000D01*
X116630000Y-103360000D02*
X120500000Y-107230000D01*
%TO.N,Net-(D4-A)*%
X116080000Y-84310000D02*
X120500000Y-88730000D01*
X113250000Y-84310000D02*
X116080000Y-84310000D01*
%TO.N,Net-(O1-Pin_3)*%
X87000000Y-64115000D02*
X109385000Y-64115000D01*
X109385000Y-64115000D02*
X109500000Y-64000000D01*
X119128500Y-73628500D02*
X124880000Y-73628500D01*
X109500000Y-64000000D02*
X119128500Y-73628500D01*
%TO.N,Net-(O1-Pin_4)*%
X109575000Y-61575000D02*
X119088500Y-71088500D01*
X87000000Y-61575000D02*
X109575000Y-61575000D01*
X119088500Y-71088500D02*
X124880000Y-71088500D01*
%TO.N,Net-(DA1-A)*%
X143240001Y-59150001D02*
X144040000Y-59950000D01*
X124880000Y-60928500D02*
X126658499Y-59150001D01*
X126658499Y-59150001D02*
X143240001Y-59150001D01*
%TO.N,Net-(D10-K)*%
X161503000Y-82170329D02*
X150421171Y-71088500D01*
X161503000Y-131197000D02*
X161503000Y-82170329D01*
X159500000Y-133200000D02*
X159500000Y-133700000D01*
X150421171Y-71088500D02*
X140120000Y-71088500D01*
X161503000Y-131197000D02*
X159500000Y-133200000D01*
%TO.N,Net-(D11-K)*%
X161102000Y-82336429D02*
X152394071Y-73628500D01*
X159500000Y-114700000D02*
X161102000Y-113098000D01*
X161102000Y-113098000D02*
X161102000Y-82336429D01*
X152394071Y-73628500D02*
X140120000Y-73628500D01*
%TO.N,Net-(D12-K)*%
X154366971Y-76168500D02*
X140120000Y-76168500D01*
X160701000Y-94499000D02*
X160701000Y-82502529D01*
X159500000Y-95700000D02*
X160701000Y-94499000D01*
X160701000Y-82502529D02*
X154366971Y-76168500D01*
%TO.N,Net-(D5-A)*%
X132300000Y-141460000D02*
X135380000Y-141460000D01*
X135380000Y-141460000D02*
X139500000Y-145580000D01*
%TO.N,Net-(D6-A)*%
X135680000Y-122410000D02*
X139500000Y-126230000D01*
X132300000Y-122410000D02*
X135680000Y-122410000D01*
%TO.N,Net-(D7-A)*%
X132300000Y-103360000D02*
X135280000Y-103360000D01*
X135280000Y-103360000D02*
X139600000Y-107680000D01*
%TO.N,Net-(D8-A)*%
X132300000Y-84310000D02*
X135230000Y-84310000D01*
X135230000Y-84310000D02*
X139500000Y-88580000D01*
%TO.N,Net-(D9-A)*%
X155780000Y-141460000D02*
X159500000Y-145180000D01*
X151350000Y-141460000D02*
X155780000Y-141460000D01*
%TO.N,Net-(D10-A)*%
X152800000Y-121000000D02*
X153500000Y-121000000D01*
X154420000Y-121000000D02*
X159500000Y-126080000D01*
X151350000Y-122450000D02*
X152800000Y-121000000D01*
X153500000Y-121000000D02*
X154420000Y-121000000D01*
%TO.N,Net-(D11-A)*%
X151350000Y-103390000D02*
X155810000Y-103390000D01*
X155810000Y-103390000D02*
X159500000Y-107080000D01*
%TO.N,Net-(D12-A)*%
X155740000Y-84320000D02*
X159500000Y-88080000D01*
X151360000Y-84320000D02*
X155740000Y-84320000D01*
%TO.N,Net-(DB1-A)*%
X125950000Y-105900000D02*
X125950000Y-86850000D01*
X140848500Y-67071500D02*
X126357000Y-67071500D01*
X125950000Y-124950000D02*
X125950000Y-105900000D01*
X126357000Y-67071500D02*
X124880000Y-68548500D01*
X125950000Y-144000000D02*
X125950000Y-124950000D01*
X144040000Y-63880000D02*
X140848500Y-67071500D01*
%TO.N,Net-(DB1-K)*%
X151660000Y-63880000D02*
X151660000Y-64150000D01*
X151660000Y-64150000D02*
X155310000Y-67800000D01*
%TO.N,Net-(DC1-A)*%
X169810000Y-67800000D02*
X168509000Y-69101000D01*
X150689000Y-69101000D02*
X149228000Y-67640000D01*
X149228000Y-67640000D02*
X144040000Y-67640000D01*
X168509000Y-69101000D02*
X150689000Y-69101000D01*
%TO.N,Net-(U1-GPIO28{slash}ADC2{slash}A2)*%
X145000000Y-105930000D02*
X145000000Y-124990000D01*
X145000000Y-86870000D02*
X145010000Y-86860000D01*
X145000000Y-105930000D02*
X145000000Y-86870000D01*
X145000000Y-124990000D02*
X145000000Y-144000000D01*
%TD*%
%TA.AperFunction,Conductor*%
%TO.N,GND*%
G36*
X126226441Y-58520185D02*
G01*
X126272196Y-58572989D01*
X126282140Y-58642147D01*
X126253115Y-58705703D01*
X126247083Y-58712181D01*
X126177977Y-58781287D01*
X125294526Y-59664737D01*
X125233203Y-59698222D01*
X125180478Y-59697658D01*
X125180448Y-59697849D01*
X125179156Y-59697644D01*
X125177903Y-59697631D01*
X125175636Y-59697086D01*
X125006196Y-59670250D01*
X124979361Y-59666000D01*
X124780639Y-59666000D01*
X124715214Y-59676362D01*
X124584362Y-59697087D01*
X124395370Y-59758493D01*
X124395367Y-59758494D01*
X124218305Y-59848713D01*
X124057533Y-59965521D01*
X123917021Y-60106033D01*
X123800213Y-60266805D01*
X123709994Y-60443867D01*
X123709993Y-60443870D01*
X123648587Y-60632862D01*
X123638712Y-60695213D01*
X123617500Y-60829139D01*
X123617500Y-61027861D01*
X123622050Y-61056588D01*
X123648587Y-61224137D01*
X123709993Y-61413129D01*
X123709994Y-61413132D01*
X123800213Y-61590194D01*
X123917019Y-61750964D01*
X124057536Y-61891481D01*
X124218306Y-62008287D01*
X124228667Y-62013566D01*
X124374780Y-62088015D01*
X124425576Y-62135990D01*
X124442371Y-62203811D01*
X124419833Y-62269946D01*
X124374780Y-62308985D01*
X124218305Y-62388713D01*
X124057533Y-62505521D01*
X123917021Y-62646033D01*
X123800213Y-62806805D01*
X123709994Y-62983867D01*
X123709993Y-62983870D01*
X123648587Y-63172862D01*
X123617500Y-63369139D01*
X123617500Y-63567861D01*
X123622050Y-63596588D01*
X123648587Y-63764137D01*
X123709993Y-63953129D01*
X123709994Y-63953132D01*
X123776341Y-64083343D01*
X123800213Y-64130194D01*
X123917019Y-64290964D01*
X124057536Y-64431481D01*
X124218306Y-64548287D01*
X124297778Y-64588780D01*
X124374780Y-64628015D01*
X124425576Y-64675990D01*
X124442371Y-64743811D01*
X124419833Y-64809946D01*
X124374780Y-64848985D01*
X124218305Y-64928713D01*
X124057533Y-65045521D01*
X123917021Y-65186033D01*
X123800213Y-65346805D01*
X123709994Y-65523867D01*
X123709993Y-65523870D01*
X123648587Y-65712862D01*
X123638712Y-65775213D01*
X123617500Y-65909139D01*
X123617500Y-66107861D01*
X123622050Y-66136588D01*
X123648587Y-66304137D01*
X123709993Y-66493129D01*
X123709994Y-66493132D01*
X123788919Y-66648028D01*
X123800213Y-66670194D01*
X123917019Y-66830964D01*
X124057536Y-66971481D01*
X124218306Y-67088287D01*
X124321321Y-67140776D01*
X124374780Y-67168015D01*
X124425576Y-67215990D01*
X124442371Y-67283811D01*
X124419833Y-67349946D01*
X124374780Y-67388985D01*
X124218305Y-67468713D01*
X124057533Y-67585521D01*
X123917021Y-67726033D01*
X123800213Y-67886805D01*
X123709994Y-68063867D01*
X123709993Y-68063870D01*
X123648587Y-68252862D01*
X123617500Y-68449139D01*
X123617500Y-68647860D01*
X123648587Y-68844137D01*
X123709993Y-69033129D01*
X123709994Y-69033132D01*
X123758931Y-69129174D01*
X123800213Y-69210194D01*
X123917019Y-69370964D01*
X124057536Y-69511481D01*
X124218306Y-69628287D01*
X124336832Y-69688679D01*
X124374780Y-69708015D01*
X124425576Y-69755990D01*
X124442371Y-69823811D01*
X124419833Y-69889946D01*
X124374780Y-69928985D01*
X124218305Y-70008713D01*
X124057533Y-70125521D01*
X123917021Y-70266033D01*
X123800210Y-70426809D01*
X123799000Y-70428785D01*
X123798343Y-70429378D01*
X123797349Y-70430748D01*
X123797061Y-70430539D01*
X123747190Y-70475663D01*
X123693270Y-70488000D01*
X119388598Y-70488000D01*
X119321559Y-70468315D01*
X119300917Y-70451681D01*
X110062590Y-61213355D01*
X110062588Y-61213352D01*
X109943717Y-61094481D01*
X109943716Y-61094480D01*
X109856904Y-61044360D01*
X109856904Y-61044359D01*
X109856900Y-61044358D01*
X109806785Y-61015423D01*
X109654057Y-60974499D01*
X109495943Y-60974499D01*
X109488347Y-60974499D01*
X109488331Y-60974500D01*
X88285719Y-60974500D01*
X88218680Y-60954815D01*
X88175235Y-60906795D01*
X88155052Y-60867185D01*
X88155051Y-60867184D01*
X88030109Y-60695213D01*
X87879786Y-60544890D01*
X87707820Y-60419951D01*
X87518414Y-60323444D01*
X87518413Y-60323443D01*
X87518412Y-60323443D01*
X87316243Y-60257754D01*
X87316241Y-60257753D01*
X87316240Y-60257753D01*
X87154957Y-60232208D01*
X87106287Y-60224500D01*
X86893713Y-60224500D01*
X86845042Y-60232208D01*
X86683760Y-60257753D01*
X86481585Y-60323444D01*
X86292179Y-60419951D01*
X86120213Y-60544890D01*
X85969890Y-60695213D01*
X85844951Y-60867179D01*
X85748444Y-61056585D01*
X85682753Y-61258760D01*
X85649500Y-61468713D01*
X85649500Y-61681286D01*
X85671864Y-61822490D01*
X85682754Y-61891243D01*
X85746689Y-62088015D01*
X85748444Y-62093414D01*
X85844951Y-62282820D01*
X85969890Y-62454786D01*
X86120213Y-62605109D01*
X86292182Y-62730050D01*
X86300946Y-62734516D01*
X86351742Y-62782491D01*
X86368536Y-62850312D01*
X86345998Y-62916447D01*
X86300946Y-62955484D01*
X86292182Y-62959949D01*
X86120213Y-63084890D01*
X85969890Y-63235213D01*
X85844951Y-63407179D01*
X85748444Y-63596585D01*
X85682753Y-63798760D01*
X85665533Y-63907483D01*
X85649500Y-64008713D01*
X85649500Y-64221287D01*
X85682754Y-64431243D01*
X85747883Y-64631690D01*
X85748444Y-64633414D01*
X85844951Y-64822820D01*
X85969890Y-64994786D01*
X86120213Y-65145109D01*
X86292182Y-65270050D01*
X86300946Y-65274516D01*
X86351742Y-65322491D01*
X86368536Y-65390312D01*
X86345998Y-65456447D01*
X86300946Y-65495484D01*
X86292182Y-65499949D01*
X86120213Y-65624890D01*
X85969890Y-65775213D01*
X85844951Y-65947179D01*
X85748444Y-66136585D01*
X85682753Y-66338760D01*
X85660909Y-66476681D01*
X85649500Y-66548713D01*
X85649500Y-66761287D01*
X85650986Y-66770668D01*
X85680717Y-66958386D01*
X85682754Y-66971243D01*
X85746689Y-67168015D01*
X85748444Y-67173414D01*
X85844951Y-67362820D01*
X85969890Y-67534786D01*
X86083818Y-67648714D01*
X86117303Y-67710037D01*
X86112319Y-67779729D01*
X86070447Y-67835662D01*
X86039471Y-67852577D01*
X85907912Y-67901646D01*
X85907906Y-67901649D01*
X85792812Y-67987809D01*
X85792809Y-67987812D01*
X85706649Y-68102906D01*
X85706645Y-68102913D01*
X85656403Y-68237620D01*
X85656401Y-68237627D01*
X85650000Y-68297155D01*
X85650000Y-68945000D01*
X86566988Y-68945000D01*
X86534075Y-69002007D01*
X86500000Y-69129174D01*
X86500000Y-69260826D01*
X86534075Y-69387993D01*
X86566988Y-69445000D01*
X85650000Y-69445000D01*
X85650000Y-70092844D01*
X85656401Y-70152372D01*
X85656403Y-70152379D01*
X85706645Y-70287086D01*
X85706649Y-70287093D01*
X85792809Y-70402187D01*
X85792812Y-70402190D01*
X85907906Y-70488350D01*
X85907913Y-70488354D01*
X86042620Y-70538596D01*
X86042627Y-70538598D01*
X86102155Y-70544999D01*
X86102172Y-70545000D01*
X86750000Y-70545000D01*
X86750000Y-69628012D01*
X86807007Y-69660925D01*
X86934174Y-69695000D01*
X87065826Y-69695000D01*
X87192993Y-69660925D01*
X87250000Y-69628012D01*
X87250000Y-70545000D01*
X87897828Y-70545000D01*
X87897844Y-70544999D01*
X87957372Y-70538598D01*
X87957379Y-70538596D01*
X88092086Y-70488354D01*
X88092093Y-70488350D01*
X88207187Y-70402190D01*
X88207190Y-70402187D01*
X88293350Y-70287093D01*
X88293354Y-70287086D01*
X88343596Y-70152379D01*
X88343598Y-70152372D01*
X88349999Y-70092844D01*
X88350000Y-70092827D01*
X88350000Y-69445000D01*
X87433012Y-69445000D01*
X87465925Y-69387993D01*
X87500000Y-69260826D01*
X87500000Y-69129174D01*
X87465925Y-69002007D01*
X87433012Y-68945000D01*
X88350000Y-68945000D01*
X88350000Y-68297172D01*
X88349999Y-68297155D01*
X88343598Y-68237627D01*
X88343596Y-68237620D01*
X88293354Y-68102913D01*
X88293350Y-68102906D01*
X88207190Y-67987812D01*
X88207187Y-67987809D01*
X88092093Y-67901649D01*
X88092088Y-67901646D01*
X87960528Y-67852577D01*
X87904595Y-67810705D01*
X87880178Y-67745241D01*
X87895030Y-67676968D01*
X87916175Y-67648720D01*
X88030104Y-67534792D01*
X88092703Y-67448632D01*
X88155048Y-67362820D01*
X88155047Y-67362820D01*
X88155051Y-67362816D01*
X88251557Y-67173412D01*
X88317246Y-66971243D01*
X88350500Y-66761287D01*
X88350500Y-66548713D01*
X88317246Y-66338757D01*
X88251557Y-66136588D01*
X88155051Y-65947184D01*
X88155049Y-65947181D01*
X88155048Y-65947179D01*
X88030109Y-65775213D01*
X87879786Y-65624890D01*
X87707820Y-65499951D01*
X87707115Y-65499591D01*
X87699054Y-65495485D01*
X87648259Y-65447512D01*
X87631463Y-65379692D01*
X87653999Y-65313556D01*
X87699054Y-65274515D01*
X87707816Y-65270051D01*
X87754216Y-65236340D01*
X87879786Y-65145109D01*
X87879788Y-65145106D01*
X87879792Y-65145104D01*
X88030104Y-64994792D01*
X88030106Y-64994788D01*
X88030109Y-64994786D01*
X88119338Y-64871971D01*
X88155051Y-64822816D01*
X88166162Y-64801010D01*
X88175235Y-64783205D01*
X88223209Y-64732409D01*
X88285719Y-64715500D01*
X109298338Y-64715500D01*
X109305940Y-64715500D01*
X109305943Y-64715501D01*
X109314911Y-64715501D01*
X109349359Y-64725618D01*
X109381943Y-64735186D01*
X109381946Y-64735189D01*
X109381950Y-64735190D01*
X109381954Y-64735195D01*
X109402585Y-64751820D01*
X118643639Y-73992874D01*
X118643649Y-73992885D01*
X118647979Y-73997215D01*
X118647980Y-73997216D01*
X118759784Y-74109020D01*
X118846595Y-74159139D01*
X118846597Y-74159141D01*
X118896713Y-74188076D01*
X118896715Y-74188077D01*
X119049442Y-74229000D01*
X119049443Y-74229000D01*
X123693270Y-74229000D01*
X123760309Y-74248685D01*
X123797191Y-74286366D01*
X123797349Y-74286252D01*
X123798127Y-74287323D01*
X123799000Y-74288215D01*
X123800210Y-74290190D01*
X123800213Y-74290194D01*
X123917019Y-74450964D01*
X124057536Y-74591481D01*
X124218306Y-74708287D01*
X124336832Y-74768679D01*
X124374780Y-74788015D01*
X124425576Y-74835990D01*
X124442371Y-74903811D01*
X124419833Y-74969946D01*
X124374780Y-75008985D01*
X124218305Y-75088713D01*
X124057533Y-75205521D01*
X123917021Y-75346033D01*
X123800213Y-75506805D01*
X123709994Y-75683867D01*
X123709993Y-75683870D01*
X123648587Y-75872862D01*
X123617500Y-76069139D01*
X123617500Y-76267860D01*
X123648587Y-76464137D01*
X123709993Y-76653129D01*
X123709994Y-76653132D01*
X123769033Y-76769000D01*
X123800213Y-76830194D01*
X123917019Y-76990964D01*
X124057536Y-77131481D01*
X124218306Y-77248287D01*
X124305149Y-77292535D01*
X124395367Y-77338505D01*
X124395370Y-77338506D01*
X124489866Y-77369209D01*
X124584364Y-77399913D01*
X124780639Y-77431000D01*
X124780640Y-77431000D01*
X124979360Y-77431000D01*
X124979361Y-77431000D01*
X125175636Y-77399913D01*
X125364632Y-77338505D01*
X125541694Y-77248287D01*
X125702464Y-77131481D01*
X125842981Y-76990964D01*
X125959787Y-76830194D01*
X126050005Y-76653132D01*
X126111413Y-76464136D01*
X126142500Y-76267861D01*
X126142500Y-76069139D01*
X126111413Y-75872864D01*
X126050005Y-75683868D01*
X126050005Y-75683867D01*
X125978365Y-75543267D01*
X125959787Y-75506806D01*
X125842981Y-75346036D01*
X125702464Y-75205519D01*
X125541694Y-75088713D01*
X125385218Y-75008984D01*
X125334423Y-74961010D01*
X125317628Y-74893189D01*
X125340165Y-74827054D01*
X125385218Y-74788015D01*
X125541694Y-74708287D01*
X125702464Y-74591481D01*
X125842981Y-74450964D01*
X125959787Y-74290194D01*
X126050005Y-74113132D01*
X126111413Y-73924136D01*
X126142500Y-73727861D01*
X126142500Y-73529139D01*
X126111413Y-73332864D01*
X126050005Y-73143868D01*
X126050005Y-73143867D01*
X125978365Y-73003267D01*
X125959787Y-72966806D01*
X125842981Y-72806036D01*
X125702464Y-72665519D01*
X125541694Y-72548713D01*
X125385218Y-72468984D01*
X125334423Y-72421010D01*
X125317628Y-72353189D01*
X125340165Y-72287054D01*
X125385218Y-72248015D01*
X125541694Y-72168287D01*
X125702464Y-72051481D01*
X125842981Y-71910964D01*
X125959787Y-71750194D01*
X126050005Y-71573132D01*
X126111413Y-71384136D01*
X126142500Y-71187861D01*
X126142500Y-70989139D01*
X126111413Y-70792864D01*
X126050005Y-70603868D01*
X126050005Y-70603867D01*
X125978365Y-70463267D01*
X125959787Y-70426806D01*
X125842981Y-70266036D01*
X125702464Y-70125519D01*
X125541694Y-70008713D01*
X125385218Y-69928984D01*
X125334423Y-69881010D01*
X125317628Y-69813189D01*
X125340165Y-69747054D01*
X125385218Y-69708015D01*
X125541694Y-69628287D01*
X125702464Y-69511481D01*
X125842981Y-69370964D01*
X125959787Y-69210194D01*
X126050005Y-69033132D01*
X126111413Y-68844136D01*
X126142500Y-68647861D01*
X126142500Y-68449139D01*
X126111413Y-68252864D01*
X126111411Y-68252858D01*
X126110870Y-68250604D01*
X126110914Y-68249715D01*
X126110651Y-68248052D01*
X126111000Y-68247996D01*
X126114359Y-68180821D01*
X126143762Y-68133972D01*
X126355470Y-67922265D01*
X126569416Y-67708319D01*
X126630739Y-67674834D01*
X126657097Y-67672000D01*
X138952915Y-67672000D01*
X139019954Y-67691685D01*
X139065709Y-67744489D01*
X139075653Y-67813647D01*
X139053232Y-67868886D01*
X139040215Y-67886801D01*
X138949994Y-68063867D01*
X138949993Y-68063870D01*
X138888587Y-68252862D01*
X138857500Y-68449139D01*
X138857500Y-68647860D01*
X138888587Y-68844137D01*
X138949993Y-69033129D01*
X138949994Y-69033132D01*
X138998931Y-69129174D01*
X139040213Y-69210194D01*
X139157019Y-69370964D01*
X139297536Y-69511481D01*
X139458306Y-69628287D01*
X139576832Y-69688679D01*
X139614780Y-69708015D01*
X139665576Y-69755990D01*
X139682371Y-69823811D01*
X139659833Y-69889946D01*
X139614780Y-69928985D01*
X139458305Y-70008713D01*
X139297533Y-70125521D01*
X139157021Y-70266033D01*
X139040213Y-70426805D01*
X138949994Y-70603867D01*
X138949993Y-70603870D01*
X138888587Y-70792862D01*
X138857500Y-70989139D01*
X138857500Y-71187860D01*
X138888587Y-71384137D01*
X138949993Y-71573129D01*
X138949994Y-71573132D01*
X139009033Y-71689000D01*
X139040213Y-71750194D01*
X139157019Y-71910964D01*
X139297536Y-72051481D01*
X139458306Y-72168287D01*
X139576832Y-72228679D01*
X139614780Y-72248015D01*
X139665576Y-72295990D01*
X139682371Y-72363811D01*
X139659833Y-72429946D01*
X139614780Y-72468985D01*
X139458305Y-72548713D01*
X139297533Y-72665521D01*
X139157021Y-72806033D01*
X139040213Y-72966805D01*
X138949994Y-73143867D01*
X138949993Y-73143870D01*
X138888587Y-73332862D01*
X138857500Y-73529139D01*
X138857500Y-73727860D01*
X138888587Y-73924137D01*
X138949993Y-74113129D01*
X138949994Y-74113132D01*
X139009032Y-74228999D01*
X139040213Y-74290194D01*
X139157019Y-74450964D01*
X139297536Y-74591481D01*
X139458306Y-74708287D01*
X139576832Y-74768679D01*
X139614780Y-74788015D01*
X139665576Y-74835990D01*
X139682371Y-74903811D01*
X139659833Y-74969946D01*
X139614780Y-75008985D01*
X139458305Y-75088713D01*
X139297533Y-75205521D01*
X139157021Y-75346033D01*
X139040213Y-75506805D01*
X138949994Y-75683867D01*
X138949993Y-75683870D01*
X138888587Y-75872862D01*
X138857500Y-76069139D01*
X138857500Y-76267860D01*
X138888587Y-76464137D01*
X138949993Y-76653129D01*
X138949994Y-76653132D01*
X139009033Y-76769000D01*
X139040213Y-76830194D01*
X139157019Y-76990964D01*
X139297536Y-77131481D01*
X139458306Y-77248287D01*
X139545149Y-77292535D01*
X139635367Y-77338505D01*
X139635370Y-77338506D01*
X139729866Y-77369209D01*
X139824364Y-77399913D01*
X140020639Y-77431000D01*
X140020640Y-77431000D01*
X140219360Y-77431000D01*
X140219361Y-77431000D01*
X140415636Y-77399913D01*
X140604632Y-77338505D01*
X140781694Y-77248287D01*
X140942464Y-77131481D01*
X141082981Y-76990964D01*
X141199787Y-76830194D01*
X141199789Y-76830189D01*
X141201000Y-76828215D01*
X141201656Y-76827621D01*
X141202651Y-76826252D01*
X141202938Y-76826460D01*
X141252810Y-76781337D01*
X141306730Y-76769000D01*
X154066874Y-76769000D01*
X154133913Y-76788685D01*
X154154555Y-76805319D01*
X160064181Y-82714945D01*
X160097666Y-82776268D01*
X160100500Y-82802626D01*
X160100500Y-86737016D01*
X160080815Y-86804055D01*
X160028011Y-86849810D01*
X159958853Y-86859754D01*
X159938182Y-86854947D01*
X159804537Y-86811523D01*
X159642898Y-86785922D01*
X159602352Y-86779500D01*
X159397648Y-86779500D01*
X159359599Y-86785526D01*
X159195468Y-86811522D01*
X159186717Y-86814365D01*
X159181154Y-86816173D01*
X159111313Y-86818167D01*
X159055157Y-86785922D01*
X156227590Y-83958355D01*
X156227588Y-83958352D01*
X156108717Y-83839481D01*
X156108716Y-83839480D01*
X156021904Y-83789360D01*
X156021904Y-83789359D01*
X156021900Y-83789358D01*
X155971785Y-83760423D01*
X155819057Y-83719499D01*
X155660943Y-83719499D01*
X155653347Y-83719499D01*
X155653331Y-83719500D01*
X152926300Y-83719500D01*
X152859261Y-83699815D01*
X152815815Y-83651795D01*
X152810720Y-83641795D01*
X152728870Y-83481155D01*
X152709952Y-83455117D01*
X152580798Y-83277350D01*
X152580794Y-83277345D01*
X152402654Y-83099205D01*
X152402649Y-83099201D01*
X152198848Y-82951132D01*
X152198847Y-82951131D01*
X152198845Y-82951130D01*
X152128747Y-82915413D01*
X151974383Y-82836760D01*
X151734785Y-82758910D01*
X151671648Y-82748910D01*
X151485962Y-82719500D01*
X151234038Y-82719500D01*
X151109626Y-82739205D01*
X150985214Y-82758910D01*
X150745616Y-82836760D01*
X150521151Y-82951132D01*
X150317350Y-83099201D01*
X150317345Y-83099205D01*
X150139205Y-83277345D01*
X150139201Y-83277350D01*
X149991132Y-83481151D01*
X149876760Y-83705616D01*
X149798910Y-83945214D01*
X149759500Y-84194038D01*
X149759500Y-84445961D01*
X149798910Y-84694785D01*
X149876760Y-84934383D01*
X149955413Y-85088747D01*
X149986036Y-85148848D01*
X149991132Y-85158848D01*
X150139201Y-85362649D01*
X150139205Y-85362654D01*
X150317345Y-85540794D01*
X150317350Y-85540798D01*
X150495117Y-85669952D01*
X150521155Y-85688870D01*
X150664184Y-85761747D01*
X150745616Y-85803239D01*
X150745618Y-85803239D01*
X150745621Y-85803241D01*
X150985215Y-85881090D01*
X151234038Y-85920500D01*
X151234039Y-85920500D01*
X151485961Y-85920500D01*
X151485962Y-85920500D01*
X151734785Y-85881090D01*
X151974379Y-85803241D01*
X152198845Y-85688870D01*
X152402656Y-85540793D01*
X152580793Y-85362656D01*
X152728870Y-85158845D01*
X152815815Y-84988204D01*
X152863789Y-84937409D01*
X152926300Y-84920500D01*
X155439903Y-84920500D01*
X155506942Y-84940185D01*
X155527584Y-84956819D01*
X158205922Y-87635157D01*
X158239407Y-87696480D01*
X158236173Y-87761155D01*
X158231522Y-87775468D01*
X158199500Y-87977648D01*
X158199500Y-88182351D01*
X158231522Y-88384534D01*
X158294781Y-88579223D01*
X158387715Y-88761613D01*
X158508028Y-88927213D01*
X158652786Y-89071971D01*
X158807749Y-89184556D01*
X158818390Y-89192287D01*
X158934607Y-89251503D01*
X159000776Y-89285218D01*
X159000778Y-89285218D01*
X159000781Y-89285220D01*
X159056715Y-89303394D01*
X159195465Y-89348477D01*
X159296557Y-89364488D01*
X159397648Y-89380500D01*
X159397649Y-89380500D01*
X159602351Y-89380500D01*
X159602352Y-89380500D01*
X159804534Y-89348477D01*
X159938182Y-89305051D01*
X160008022Y-89303057D01*
X160067855Y-89339137D01*
X160098684Y-89401838D01*
X160100500Y-89422983D01*
X160100500Y-94198901D01*
X160091855Y-94228341D01*
X160085332Y-94258328D01*
X160081577Y-94263343D01*
X160080815Y-94265940D01*
X160064181Y-94286582D01*
X159987582Y-94363181D01*
X159926259Y-94396666D01*
X159899901Y-94399500D01*
X158899998Y-94399500D01*
X158899980Y-94399501D01*
X158797203Y-94410000D01*
X158797200Y-94410001D01*
X158630668Y-94465185D01*
X158630663Y-94465187D01*
X158481342Y-94557289D01*
X158357289Y-94681342D01*
X158265187Y-94830663D01*
X158265186Y-94830666D01*
X158210001Y-94997203D01*
X158210001Y-94997204D01*
X158210000Y-94997204D01*
X158199500Y-95099983D01*
X158199500Y-96300001D01*
X158199501Y-96300018D01*
X158210000Y-96402796D01*
X158210001Y-96402799D01*
X158265185Y-96569331D01*
X158265186Y-96569334D01*
X158357288Y-96718656D01*
X158481344Y-96842712D01*
X158630666Y-96934814D01*
X158797203Y-96989999D01*
X158899991Y-97000500D01*
X160100008Y-97000499D01*
X160202797Y-96989999D01*
X160338498Y-96945031D01*
X160408324Y-96942630D01*
X160468366Y-96978361D01*
X160499559Y-97040882D01*
X160501500Y-97062738D01*
X160501500Y-105956761D01*
X160481815Y-106023800D01*
X160429011Y-106069555D01*
X160359853Y-106079499D01*
X160304615Y-106057080D01*
X160181609Y-105967712D01*
X159999223Y-105874781D01*
X159804534Y-105811522D01*
X159629995Y-105783878D01*
X159602352Y-105779500D01*
X159397648Y-105779500D01*
X159359599Y-105785526D01*
X159195468Y-105811522D01*
X159186717Y-105814365D01*
X159181154Y-105816173D01*
X159111313Y-105818167D01*
X159055157Y-105785922D01*
X156297590Y-103028355D01*
X156297588Y-103028352D01*
X156178717Y-102909481D01*
X156178716Y-102909480D01*
X156091904Y-102859360D01*
X156091904Y-102859359D01*
X156091900Y-102859358D01*
X156041785Y-102830423D01*
X155889057Y-102789499D01*
X155730943Y-102789499D01*
X155723347Y-102789499D01*
X155723331Y-102789500D01*
X152916300Y-102789500D01*
X152849261Y-102769815D01*
X152805815Y-102721795D01*
X152718870Y-102551155D01*
X152697071Y-102521151D01*
X152570798Y-102347350D01*
X152570794Y-102347345D01*
X152392654Y-102169205D01*
X152392649Y-102169201D01*
X152188848Y-102021132D01*
X152188847Y-102021131D01*
X152188845Y-102021130D01*
X152118747Y-101985413D01*
X151964383Y-101906760D01*
X151724785Y-101828910D01*
X151475962Y-101789500D01*
X151224038Y-101789500D01*
X151099626Y-101809205D01*
X150975214Y-101828910D01*
X150735616Y-101906760D01*
X150511151Y-102021132D01*
X150307350Y-102169201D01*
X150307345Y-102169205D01*
X150129205Y-102347345D01*
X150129201Y-102347350D01*
X149981132Y-102551151D01*
X149866760Y-102775616D01*
X149788910Y-103015214D01*
X149749500Y-103264038D01*
X149749500Y-103515961D01*
X149788910Y-103764785D01*
X149866760Y-104004383D01*
X149945413Y-104158747D01*
X149965844Y-104198845D01*
X149981132Y-104228848D01*
X150129201Y-104432649D01*
X150129205Y-104432654D01*
X150307345Y-104610794D01*
X150307350Y-104610798D01*
X150469859Y-104728867D01*
X150511155Y-104758870D01*
X150654184Y-104831747D01*
X150735616Y-104873239D01*
X150735618Y-104873239D01*
X150735621Y-104873241D01*
X150975215Y-104951090D01*
X151224038Y-104990500D01*
X151224039Y-104990500D01*
X151475961Y-104990500D01*
X151475962Y-104990500D01*
X151724785Y-104951090D01*
X151964379Y-104873241D01*
X152188845Y-104758870D01*
X152392656Y-104610793D01*
X152570793Y-104432656D01*
X152718870Y-104228845D01*
X152805815Y-104058204D01*
X152853789Y-104007409D01*
X152916300Y-103990500D01*
X155509903Y-103990500D01*
X155576942Y-104010185D01*
X155597584Y-104026819D01*
X158205922Y-106635157D01*
X158239407Y-106696480D01*
X158236173Y-106761155D01*
X158231522Y-106775468D01*
X158199500Y-106977648D01*
X158199500Y-107182351D01*
X158231522Y-107384534D01*
X158294781Y-107579223D01*
X158341616Y-107671140D01*
X158383361Y-107753069D01*
X158387715Y-107761613D01*
X158508028Y-107927213D01*
X158652786Y-108071971D01*
X158800403Y-108179219D01*
X158818390Y-108192287D01*
X158934607Y-108251503D01*
X159000776Y-108285218D01*
X159000778Y-108285218D01*
X159000781Y-108285220D01*
X159070374Y-108307832D01*
X159195465Y-108348477D01*
X159226510Y-108353394D01*
X159397648Y-108380500D01*
X159397649Y-108380500D01*
X159602351Y-108380500D01*
X159602352Y-108380500D01*
X159804534Y-108348477D01*
X159999219Y-108285220D01*
X160181610Y-108192287D01*
X160250965Y-108141897D01*
X160304615Y-108102920D01*
X160370421Y-108079440D01*
X160438475Y-108095266D01*
X160487170Y-108145372D01*
X160501500Y-108203238D01*
X160501500Y-112797902D01*
X160481815Y-112864941D01*
X160465181Y-112885583D01*
X159987583Y-113363181D01*
X159926260Y-113396666D01*
X159899902Y-113399500D01*
X158899998Y-113399500D01*
X158899980Y-113399501D01*
X158797203Y-113410000D01*
X158797200Y-113410001D01*
X158630668Y-113465185D01*
X158630663Y-113465187D01*
X158481342Y-113557289D01*
X158357289Y-113681342D01*
X158265187Y-113830663D01*
X158265186Y-113830666D01*
X158210001Y-113997203D01*
X158210001Y-113997204D01*
X158210000Y-113997204D01*
X158199500Y-114099983D01*
X158199500Y-115300001D01*
X158199501Y-115300018D01*
X158210000Y-115402796D01*
X158210001Y-115402799D01*
X158259706Y-115552796D01*
X158265186Y-115569334D01*
X158357288Y-115718656D01*
X158481344Y-115842712D01*
X158630666Y-115934814D01*
X158797203Y-115989999D01*
X158899991Y-116000500D01*
X160100008Y-116000499D01*
X160202797Y-115989999D01*
X160369334Y-115934814D01*
X160518656Y-115842712D01*
X160642712Y-115718656D01*
X160672961Y-115669613D01*
X160724909Y-115622889D01*
X160793871Y-115611666D01*
X160857953Y-115639509D01*
X160896810Y-115697578D01*
X160902500Y-115734710D01*
X160902500Y-125451467D01*
X160882815Y-125518506D01*
X160830011Y-125564261D01*
X160760853Y-125574205D01*
X160697297Y-125545180D01*
X160668015Y-125507762D01*
X160647377Y-125467258D01*
X160612287Y-125398390D01*
X160600950Y-125382786D01*
X160491971Y-125232786D01*
X160347213Y-125088028D01*
X160181613Y-124967715D01*
X160181612Y-124967714D01*
X160181610Y-124967713D01*
X160106613Y-124929500D01*
X159999223Y-124874781D01*
X159804534Y-124811522D01*
X159629995Y-124783878D01*
X159602352Y-124779500D01*
X159397648Y-124779500D01*
X159359599Y-124785526D01*
X159195468Y-124811522D01*
X159186717Y-124814365D01*
X159181154Y-124816173D01*
X159111313Y-124818167D01*
X159055157Y-124785922D01*
X154907590Y-120638355D01*
X154907588Y-120638352D01*
X154788717Y-120519481D01*
X154788716Y-120519480D01*
X154701904Y-120469360D01*
X154701904Y-120469359D01*
X154701900Y-120469358D01*
X154651785Y-120440423D01*
X154499057Y-120399499D01*
X154340943Y-120399499D01*
X154333347Y-120399499D01*
X154333331Y-120399500D01*
X152886670Y-120399500D01*
X152886654Y-120399499D01*
X152879058Y-120399499D01*
X152720943Y-120399499D01*
X152644579Y-120419961D01*
X152568214Y-120440423D01*
X152568209Y-120440426D01*
X152431290Y-120519475D01*
X152431282Y-120519481D01*
X152032922Y-120917840D01*
X151971599Y-120951325D01*
X151906923Y-120948090D01*
X151724787Y-120888910D01*
X151558903Y-120862636D01*
X151475962Y-120849500D01*
X151224038Y-120849500D01*
X151099626Y-120869205D01*
X150975214Y-120888910D01*
X150735616Y-120966760D01*
X150511151Y-121081132D01*
X150307350Y-121229201D01*
X150307345Y-121229205D01*
X150129205Y-121407345D01*
X150129201Y-121407350D01*
X149981132Y-121611151D01*
X149866760Y-121835616D01*
X149788910Y-122075214D01*
X149749500Y-122324038D01*
X149749500Y-122575961D01*
X149788910Y-122824785D01*
X149866760Y-123064383D01*
X149981132Y-123288848D01*
X150129201Y-123492649D01*
X150129205Y-123492654D01*
X150307345Y-123670794D01*
X150307350Y-123670798D01*
X150485117Y-123799952D01*
X150511155Y-123818870D01*
X150654184Y-123891747D01*
X150735616Y-123933239D01*
X150735618Y-123933239D01*
X150735621Y-123933241D01*
X150975215Y-124011090D01*
X151224038Y-124050500D01*
X151224039Y-124050500D01*
X151475961Y-124050500D01*
X151475962Y-124050500D01*
X151724785Y-124011090D01*
X151964379Y-123933241D01*
X152188845Y-123818870D01*
X152392656Y-123670793D01*
X152570793Y-123492656D01*
X152718870Y-123288845D01*
X152833241Y-123064379D01*
X152911090Y-122824785D01*
X152950500Y-122575962D01*
X152950500Y-122324038D01*
X152911090Y-122075215D01*
X152851907Y-121893071D01*
X152851473Y-121877861D01*
X152846155Y-121863602D01*
X152850496Y-121843646D01*
X152849913Y-121823235D01*
X152858000Y-121809149D01*
X152861007Y-121795329D01*
X152882151Y-121767083D01*
X153012418Y-121636816D01*
X153073741Y-121603334D01*
X153100098Y-121600500D01*
X153420943Y-121600500D01*
X154119903Y-121600500D01*
X154186942Y-121620185D01*
X154207584Y-121636819D01*
X158205922Y-125635157D01*
X158239407Y-125696480D01*
X158236173Y-125761155D01*
X158231522Y-125775468D01*
X158199500Y-125977648D01*
X158199500Y-126182351D01*
X158231522Y-126384534D01*
X158294781Y-126579223D01*
X158336907Y-126661898D01*
X158367092Y-126721140D01*
X158387715Y-126761613D01*
X158508028Y-126927213D01*
X158652786Y-127071971D01*
X158807749Y-127184556D01*
X158818390Y-127192287D01*
X158896918Y-127232299D01*
X159000776Y-127285218D01*
X159000778Y-127285218D01*
X159000781Y-127285220D01*
X159105137Y-127319127D01*
X159195465Y-127348477D01*
X159254511Y-127357829D01*
X159397648Y-127380500D01*
X159397649Y-127380500D01*
X159602351Y-127380500D01*
X159602352Y-127380500D01*
X159804534Y-127348477D01*
X159999219Y-127285220D01*
X160181610Y-127192287D01*
X160298239Y-127107552D01*
X160347213Y-127071971D01*
X160347215Y-127071968D01*
X160347219Y-127071966D01*
X160491966Y-126927219D01*
X160491968Y-126927215D01*
X160491971Y-126927213D01*
X160612284Y-126761614D01*
X160612285Y-126761613D01*
X160612287Y-126761610D01*
X160668015Y-126652236D01*
X160715989Y-126601441D01*
X160783810Y-126584646D01*
X160849945Y-126607183D01*
X160893397Y-126661898D01*
X160902500Y-126708532D01*
X160902500Y-130896902D01*
X160882815Y-130963941D01*
X160866181Y-130984583D01*
X159487582Y-132363181D01*
X159426259Y-132396666D01*
X159399901Y-132399500D01*
X158899998Y-132399500D01*
X158899980Y-132399501D01*
X158797203Y-132410000D01*
X158797200Y-132410001D01*
X158630668Y-132465185D01*
X158630663Y-132465187D01*
X158481342Y-132557289D01*
X158357289Y-132681342D01*
X158265187Y-132830663D01*
X158265186Y-132830666D01*
X158210001Y-132997203D01*
X158210001Y-132997204D01*
X158210000Y-132997204D01*
X158199500Y-133099983D01*
X158199500Y-134300001D01*
X158199501Y-134300018D01*
X158210000Y-134402796D01*
X158210001Y-134402799D01*
X158259706Y-134552796D01*
X158265186Y-134569334D01*
X158357288Y-134718656D01*
X158481344Y-134842712D01*
X158630666Y-134934814D01*
X158797203Y-134989999D01*
X158899991Y-135000500D01*
X160100008Y-135000499D01*
X160202797Y-134989999D01*
X160369334Y-134934814D01*
X160518656Y-134842712D01*
X160642712Y-134718656D01*
X160734814Y-134569334D01*
X160789999Y-134402797D01*
X160800500Y-134300009D01*
X160800499Y-133099992D01*
X160789999Y-132997203D01*
X160754827Y-132891063D01*
X160752426Y-132821237D01*
X160784851Y-132764382D01*
X161091820Y-132457414D01*
X161153142Y-132423930D01*
X161222834Y-132428914D01*
X161278767Y-132470786D01*
X161303184Y-132536250D01*
X161303500Y-132545096D01*
X161303500Y-149495902D01*
X161283815Y-149562941D01*
X161267181Y-149583583D01*
X159387582Y-151463181D01*
X159326259Y-151496666D01*
X159299901Y-151499500D01*
X158899998Y-151499500D01*
X158899980Y-151499501D01*
X158797203Y-151510000D01*
X158797200Y-151510001D01*
X158630668Y-151565185D01*
X158630663Y-151565187D01*
X158481342Y-151657289D01*
X158357289Y-151781342D01*
X158265187Y-151930663D01*
X158265185Y-151930668D01*
X158253747Y-151965186D01*
X158210001Y-152097203D01*
X158210001Y-152097204D01*
X158210000Y-152097204D01*
X158199500Y-152199983D01*
X158199500Y-153400001D01*
X158199501Y-153400018D01*
X158210000Y-153502796D01*
X158210001Y-153502799D01*
X158217718Y-153526086D01*
X158265186Y-153669334D01*
X158357288Y-153818656D01*
X158481344Y-153942712D01*
X158630666Y-154034814D01*
X158797203Y-154089999D01*
X158899991Y-154100500D01*
X160100008Y-154100499D01*
X160202797Y-154089999D01*
X160369334Y-154034814D01*
X160518656Y-153942712D01*
X160642712Y-153818656D01*
X160734814Y-153669334D01*
X160789999Y-153502797D01*
X160800500Y-153400009D01*
X160800500Y-153393713D01*
X166649500Y-153393713D01*
X166649500Y-153606286D01*
X166680182Y-153800009D01*
X166682754Y-153816243D01*
X166726220Y-153950018D01*
X166748444Y-154018414D01*
X166844951Y-154207820D01*
X166969890Y-154379786D01*
X167120213Y-154530109D01*
X167292179Y-154655048D01*
X167292181Y-154655049D01*
X167292184Y-154655051D01*
X167481588Y-154751557D01*
X167683757Y-154817246D01*
X167893713Y-154850500D01*
X167893714Y-154850500D01*
X168106286Y-154850500D01*
X168106287Y-154850500D01*
X168316243Y-154817246D01*
X168518412Y-154751557D01*
X168707816Y-154655051D01*
X168804490Y-154584814D01*
X168879786Y-154530109D01*
X168879788Y-154530106D01*
X168879792Y-154530104D01*
X169030104Y-154379792D01*
X169030106Y-154379788D01*
X169030109Y-154379786D01*
X169155048Y-154207820D01*
X169155047Y-154207820D01*
X169155051Y-154207816D01*
X169251557Y-154018412D01*
X169317246Y-153816243D01*
X169350500Y-153606287D01*
X169350500Y-153393713D01*
X169317246Y-153183757D01*
X169251557Y-152981588D01*
X169155051Y-152792184D01*
X169155049Y-152792181D01*
X169155048Y-152792179D01*
X169030109Y-152620213D01*
X168879786Y-152469890D01*
X168707820Y-152344951D01*
X168518414Y-152248444D01*
X168518413Y-152248443D01*
X168518412Y-152248443D01*
X168316243Y-152182754D01*
X168316241Y-152182753D01*
X168316240Y-152182753D01*
X168154957Y-152157208D01*
X168106287Y-152149500D01*
X167893713Y-152149500D01*
X167845042Y-152157208D01*
X167683760Y-152182753D01*
X167481585Y-152248444D01*
X167292179Y-152344951D01*
X167120213Y-152469890D01*
X166969890Y-152620213D01*
X166844951Y-152792179D01*
X166748444Y-152981585D01*
X166682753Y-153183760D01*
X166649500Y-153393713D01*
X160800500Y-153393713D01*
X160800499Y-152199992D01*
X160789999Y-152097203D01*
X160734814Y-151930666D01*
X160734808Y-151930656D01*
X160734544Y-151930089D01*
X160734477Y-151929652D01*
X160732542Y-151923811D01*
X160733539Y-151923480D01*
X160724045Y-151861013D01*
X160752559Y-151797226D01*
X160759227Y-151790006D01*
X162262506Y-150286728D01*
X162262511Y-150286724D01*
X162272714Y-150276520D01*
X162272716Y-150276520D01*
X162384520Y-150164716D01*
X162463577Y-150027784D01*
X162504500Y-149875057D01*
X162504500Y-81925172D01*
X162463577Y-81772445D01*
X162463577Y-81772444D01*
X162463577Y-81772443D01*
X162434639Y-81722324D01*
X162434637Y-81722321D01*
X162384520Y-81635513D01*
X162272716Y-81523709D01*
X162272715Y-81523708D01*
X162268385Y-81519378D01*
X162268374Y-81519368D01*
X160642719Y-79893713D01*
X166649500Y-79893713D01*
X166649500Y-80106286D01*
X166682753Y-80316239D01*
X166748444Y-80518414D01*
X166844951Y-80707820D01*
X166969890Y-80879786D01*
X167120213Y-81030109D01*
X167292179Y-81155048D01*
X167292181Y-81155049D01*
X167292184Y-81155051D01*
X167481588Y-81251557D01*
X167683757Y-81317246D01*
X167893713Y-81350500D01*
X167893714Y-81350500D01*
X168106286Y-81350500D01*
X168106287Y-81350500D01*
X168316243Y-81317246D01*
X168518412Y-81251557D01*
X168707816Y-81155051D01*
X168729789Y-81139086D01*
X168879786Y-81030109D01*
X168879788Y-81030106D01*
X168879792Y-81030104D01*
X169030104Y-80879792D01*
X169030106Y-80879788D01*
X169030109Y-80879786D01*
X169155048Y-80707820D01*
X169155047Y-80707820D01*
X169155051Y-80707816D01*
X169251557Y-80518412D01*
X169317246Y-80316243D01*
X169350500Y-80106287D01*
X169350500Y-79893713D01*
X169317246Y-79683757D01*
X169251557Y-79481588D01*
X169155051Y-79292184D01*
X169155049Y-79292181D01*
X169155048Y-79292179D01*
X169030109Y-79120213D01*
X168879786Y-78969890D01*
X168707820Y-78844951D01*
X168518414Y-78748444D01*
X168518413Y-78748443D01*
X168518412Y-78748443D01*
X168316243Y-78682754D01*
X168316241Y-78682753D01*
X168316240Y-78682753D01*
X168154957Y-78657208D01*
X168106287Y-78649500D01*
X167893713Y-78649500D01*
X167845042Y-78657208D01*
X167683760Y-78682753D01*
X167481585Y-78748444D01*
X167292179Y-78844951D01*
X167120213Y-78969890D01*
X166969890Y-79120213D01*
X166844951Y-79292179D01*
X166748444Y-79481585D01*
X166682753Y-79683760D01*
X166649500Y-79893713D01*
X160642719Y-79893713D01*
X150662188Y-69913182D01*
X150651577Y-69893749D01*
X150637077Y-69877017D01*
X150635159Y-69863682D01*
X150628703Y-69851859D01*
X150630282Y-69829775D01*
X150627130Y-69807859D01*
X150632726Y-69795604D01*
X150633687Y-69782167D01*
X150646956Y-69764441D01*
X150656153Y-69744302D01*
X150667485Y-69737018D01*
X150675559Y-69726234D01*
X150696303Y-69718496D01*
X150714930Y-69706525D01*
X150736851Y-69703372D01*
X150741023Y-69701817D01*
X150749864Y-69701501D01*
X150768057Y-69701501D01*
X150768059Y-69701500D01*
X150775664Y-69701500D01*
X160587649Y-69701500D01*
X160654688Y-69721185D01*
X160700443Y-69773989D01*
X160710937Y-69838755D01*
X160709989Y-69847574D01*
X160709500Y-69852124D01*
X160709500Y-71947870D01*
X160709501Y-71947876D01*
X160715908Y-72007483D01*
X160766202Y-72142328D01*
X160766206Y-72142335D01*
X160852452Y-72257544D01*
X160852455Y-72257547D01*
X160967664Y-72343793D01*
X160967671Y-72343797D01*
X161102517Y-72394091D01*
X161102516Y-72394091D01*
X161109444Y-72394835D01*
X161162127Y-72400500D01*
X164457872Y-72400499D01*
X164517483Y-72394091D01*
X164652331Y-72343796D01*
X164767546Y-72257546D01*
X164853796Y-72142331D01*
X164904091Y-72007483D01*
X164910500Y-71947873D01*
X164910499Y-69852128D01*
X164910499Y-69852124D01*
X164910498Y-69852112D01*
X164909062Y-69838756D01*
X164921467Y-69769996D01*
X164969077Y-69718859D01*
X165032351Y-69701500D01*
X168422331Y-69701500D01*
X168422347Y-69701501D01*
X168429943Y-69701501D01*
X168588054Y-69701501D01*
X168588057Y-69701501D01*
X168740785Y-69660577D01*
X168796712Y-69628287D01*
X168877716Y-69581520D01*
X168989520Y-69469716D01*
X168989520Y-69469714D01*
X168999724Y-69459511D01*
X168999728Y-69459506D01*
X169206437Y-69252796D01*
X169267758Y-69219313D01*
X169332433Y-69222547D01*
X169458632Y-69263553D01*
X169546110Y-69277408D01*
X169691903Y-69300500D01*
X169691908Y-69300500D01*
X169928097Y-69300500D01*
X170161368Y-69263553D01*
X170194468Y-69252798D01*
X170385992Y-69190568D01*
X170596433Y-69083343D01*
X170787510Y-68944517D01*
X170954517Y-68777510D01*
X171093343Y-68586433D01*
X171200568Y-68375992D01*
X171273553Y-68151368D01*
X171276308Y-68133972D01*
X171310500Y-67918097D01*
X171310500Y-67681902D01*
X171273553Y-67448631D01*
X171218225Y-67278352D01*
X171200568Y-67224008D01*
X171200566Y-67224005D01*
X171200566Y-67224003D01*
X171106807Y-67039992D01*
X171093343Y-67013567D01*
X170954517Y-66822490D01*
X170787510Y-66655483D01*
X170596433Y-66516657D01*
X170587142Y-66511923D01*
X170385996Y-66409433D01*
X170161368Y-66336446D01*
X169928097Y-66299500D01*
X169928092Y-66299500D01*
X169691908Y-66299500D01*
X169691903Y-66299500D01*
X169458631Y-66336446D01*
X169234003Y-66409433D01*
X169023566Y-66516657D01*
X168977674Y-66550000D01*
X168832490Y-66655483D01*
X168832488Y-66655485D01*
X168832487Y-66655485D01*
X168665485Y-66822487D01*
X168665485Y-66822488D01*
X168665483Y-66822490D01*
X168659325Y-66830966D01*
X168526657Y-67013566D01*
X168419433Y-67224003D01*
X168346446Y-67448631D01*
X168309500Y-67681902D01*
X168309500Y-67918097D01*
X168346447Y-68151369D01*
X168346447Y-68151372D01*
X168387450Y-68277563D01*
X168387884Y-68292774D01*
X168393203Y-68307033D01*
X168388861Y-68326990D01*
X168389445Y-68347404D01*
X168381357Y-68361490D01*
X168378352Y-68375306D01*
X168357202Y-68403561D01*
X168296585Y-68464180D01*
X168235262Y-68497666D01*
X168208902Y-68500500D01*
X156830784Y-68500500D01*
X156763745Y-68480815D01*
X156717990Y-68428011D01*
X156708046Y-68358853D01*
X156712851Y-68338187D01*
X156773553Y-68151368D01*
X156776308Y-68133972D01*
X156810500Y-67918097D01*
X156810500Y-67681902D01*
X156773553Y-67448631D01*
X156718225Y-67278352D01*
X156700568Y-67224008D01*
X156700566Y-67224005D01*
X156700566Y-67224003D01*
X156606807Y-67039992D01*
X156593343Y-67013567D01*
X156454517Y-66822490D01*
X156287510Y-66655483D01*
X156280401Y-66650318D01*
X156237735Y-66594988D01*
X156231756Y-66525375D01*
X156264362Y-66463580D01*
X156280401Y-66449682D01*
X156280500Y-66449609D01*
X156287510Y-66444517D01*
X156454517Y-66277510D01*
X156593343Y-66086433D01*
X156700568Y-65875992D01*
X156773553Y-65651368D01*
X156785700Y-65574676D01*
X156810500Y-65418097D01*
X156810500Y-65181902D01*
X156773553Y-64948631D01*
X156728491Y-64809946D01*
X156700568Y-64724008D01*
X156700566Y-64724005D01*
X156700566Y-64724003D01*
X156622284Y-64570367D01*
X156593343Y-64513567D01*
X156523793Y-64417840D01*
X156500314Y-64352036D01*
X156516139Y-64283982D01*
X156549801Y-64245689D01*
X156552328Y-64243796D01*
X156552331Y-64243796D01*
X156667546Y-64157546D01*
X156753796Y-64042331D01*
X156804091Y-63907483D01*
X156810500Y-63847873D01*
X156810499Y-62681902D01*
X168309500Y-62681902D01*
X168309500Y-62918097D01*
X168346446Y-63151368D01*
X168419433Y-63375996D01*
X168521069Y-63575466D01*
X168526657Y-63586433D01*
X168665483Y-63777510D01*
X168832490Y-63944517D01*
X169023567Y-64083343D01*
X169115517Y-64130194D01*
X169234003Y-64190566D01*
X169234005Y-64190566D01*
X169234008Y-64190568D01*
X169328548Y-64221286D01*
X169458631Y-64263553D01*
X169691903Y-64300500D01*
X169691908Y-64300500D01*
X169928097Y-64300500D01*
X170161368Y-64263553D01*
X170216344Y-64245690D01*
X170385992Y-64190568D01*
X170596433Y-64083343D01*
X170787510Y-63944517D01*
X170954517Y-63777510D01*
X171093343Y-63586433D01*
X171200568Y-63375992D01*
X171273553Y-63151368D01*
X171284082Y-63084890D01*
X171310500Y-62918097D01*
X171310500Y-62681902D01*
X171273553Y-62448631D01*
X171219676Y-62282816D01*
X171200568Y-62224008D01*
X171200566Y-62224005D01*
X171200566Y-62224003D01*
X171144002Y-62112991D01*
X171093343Y-62013567D01*
X170954517Y-61822490D01*
X170787510Y-61655483D01*
X170596433Y-61516657D01*
X170502338Y-61468713D01*
X170385996Y-61409433D01*
X170161368Y-61336446D01*
X169928097Y-61299500D01*
X169928092Y-61299500D01*
X169691908Y-61299500D01*
X169691903Y-61299500D01*
X169458631Y-61336446D01*
X169234003Y-61409433D01*
X169023566Y-61516657D01*
X168967119Y-61557669D01*
X168832490Y-61655483D01*
X168832488Y-61655485D01*
X168832487Y-61655485D01*
X168665485Y-61822487D01*
X168665485Y-61822488D01*
X168665483Y-61822490D01*
X168615534Y-61891239D01*
X168526657Y-62013566D01*
X168419433Y-62224003D01*
X168346446Y-62448631D01*
X168309500Y-62681902D01*
X156810499Y-62681902D01*
X156810499Y-61752128D01*
X156804091Y-61692517D01*
X156799902Y-61681287D01*
X156753797Y-61557671D01*
X156753793Y-61557664D01*
X156667547Y-61442455D01*
X156667544Y-61442452D01*
X156552335Y-61356206D01*
X156552328Y-61356202D01*
X156417482Y-61305908D01*
X156417483Y-61305908D01*
X156357883Y-61299501D01*
X156357881Y-61299500D01*
X156357873Y-61299500D01*
X156357864Y-61299500D01*
X154262129Y-61299500D01*
X154262123Y-61299501D01*
X154202516Y-61305908D01*
X154067671Y-61356202D01*
X154067664Y-61356206D01*
X153952455Y-61442452D01*
X153952452Y-61442455D01*
X153866206Y-61557664D01*
X153866202Y-61557671D01*
X153815908Y-61692517D01*
X153809625Y-61750964D01*
X153809501Y-61752123D01*
X153809500Y-61752135D01*
X153809500Y-63847870D01*
X153809501Y-63847876D01*
X153815908Y-63907483D01*
X153866202Y-64042328D01*
X153866206Y-64042335D01*
X153952452Y-64157544D01*
X153952455Y-64157547D01*
X154070198Y-64245690D01*
X154112069Y-64301623D01*
X154117053Y-64371315D01*
X154096205Y-64417841D01*
X154026659Y-64513563D01*
X153919433Y-64724003D01*
X153846446Y-64948631D01*
X153810877Y-65173205D01*
X153780948Y-65236340D01*
X153721636Y-65273271D01*
X153651773Y-65272273D01*
X153600723Y-65241488D01*
X153354027Y-64994792D01*
X152990926Y-64631690D01*
X152957441Y-64570367D01*
X152955249Y-64531406D01*
X152960500Y-64480009D01*
X152960499Y-63279992D01*
X152949999Y-63177203D01*
X152894814Y-63010666D01*
X152802712Y-62861344D01*
X152678656Y-62737288D01*
X152530712Y-62646036D01*
X152529336Y-62645187D01*
X152529331Y-62645185D01*
X152527862Y-62644698D01*
X152362797Y-62590001D01*
X152362795Y-62590000D01*
X152260010Y-62579500D01*
X151059998Y-62579500D01*
X151059981Y-62579501D01*
X150957203Y-62590000D01*
X150957200Y-62590001D01*
X150790668Y-62645185D01*
X150790663Y-62645187D01*
X150641342Y-62737289D01*
X150517289Y-62861342D01*
X150425187Y-63010663D01*
X150425186Y-63010666D01*
X150370001Y-63177203D01*
X150370001Y-63177204D01*
X150370000Y-63177204D01*
X150359500Y-63279983D01*
X150359500Y-64480001D01*
X150359501Y-64480018D01*
X150370000Y-64582796D01*
X150370001Y-64582799D01*
X150413975Y-64715501D01*
X150425186Y-64749334D01*
X150517288Y-64898656D01*
X150641344Y-65022712D01*
X150790666Y-65114814D01*
X150957203Y-65169999D01*
X151059991Y-65180500D01*
X151789902Y-65180499D01*
X151856941Y-65200183D01*
X151877583Y-65216818D01*
X153857200Y-67196435D01*
X153890685Y-67257758D01*
X153887450Y-67322433D01*
X153846447Y-67448628D01*
X153809500Y-67681902D01*
X153809500Y-67918097D01*
X153846446Y-68151368D01*
X153879425Y-68252864D01*
X153907147Y-68338182D01*
X153909142Y-68408022D01*
X153873062Y-68467855D01*
X153810361Y-68498684D01*
X153789216Y-68500500D01*
X153069461Y-68500500D01*
X153002422Y-68480815D01*
X152956667Y-68428011D01*
X152946723Y-68358853D01*
X152948930Y-68349486D01*
X152948582Y-68349412D01*
X152949995Y-68342807D01*
X152949999Y-68342797D01*
X152960500Y-68240009D01*
X152960499Y-67039992D01*
X152949999Y-66937203D01*
X152894814Y-66770666D01*
X152802712Y-66621344D01*
X152678656Y-66497288D01*
X152529334Y-66405186D01*
X152362797Y-66350001D01*
X152362795Y-66350000D01*
X152260010Y-66339500D01*
X151059998Y-66339500D01*
X151059981Y-66339501D01*
X150957203Y-66350000D01*
X150957200Y-66350001D01*
X150790668Y-66405185D01*
X150790663Y-66405187D01*
X150641342Y-66497289D01*
X150517289Y-66621342D01*
X150425187Y-66770663D01*
X150425185Y-66770668D01*
X150397349Y-66854670D01*
X150370001Y-66937203D01*
X150370001Y-66937204D01*
X150370000Y-66937204D01*
X150359500Y-67039983D01*
X150359500Y-67622903D01*
X150339815Y-67689942D01*
X150287011Y-67735697D01*
X150217853Y-67745641D01*
X150154297Y-67716616D01*
X150147819Y-67710584D01*
X149715590Y-67278355D01*
X149715588Y-67278352D01*
X149596717Y-67159481D01*
X149596716Y-67159480D01*
X149509904Y-67109360D01*
X149509904Y-67109359D01*
X149509900Y-67109358D01*
X149459785Y-67080423D01*
X149307057Y-67039499D01*
X149148943Y-67039499D01*
X149141347Y-67039499D01*
X149141331Y-67039500D01*
X145269602Y-67039500D01*
X145202563Y-67019815D01*
X145159117Y-66971795D01*
X145158957Y-66971481D01*
X145152287Y-66958390D01*
X145152285Y-66958387D01*
X145152284Y-66958385D01*
X145031971Y-66792786D01*
X144887213Y-66648028D01*
X144721613Y-66527715D01*
X144721612Y-66527714D01*
X144721610Y-66527713D01*
X144631825Y-66481965D01*
X144539223Y-66434781D01*
X144344534Y-66371522D01*
X144169995Y-66343878D01*
X144142352Y-66339500D01*
X143937648Y-66339500D01*
X143913329Y-66343351D01*
X143735465Y-66371522D01*
X143540776Y-66434781D01*
X143358386Y-66527715D01*
X143192786Y-66648028D01*
X143048028Y-66792786D01*
X142927715Y-66958386D01*
X142834781Y-67140776D01*
X142771522Y-67335465D01*
X142750418Y-67468713D01*
X142739500Y-67537648D01*
X142739500Y-67742352D01*
X142739958Y-67745241D01*
X142771522Y-67944534D01*
X142834781Y-68139223D01*
X142892684Y-68252862D01*
X142913020Y-68292774D01*
X142927715Y-68321613D01*
X143048028Y-68487213D01*
X143059133Y-68498318D01*
X143092618Y-68559641D01*
X143087634Y-68629333D01*
X143045762Y-68685266D01*
X142980298Y-68709683D01*
X142971452Y-68709999D01*
X141506500Y-68709999D01*
X141439461Y-68690314D01*
X141393706Y-68637510D01*
X141382500Y-68585999D01*
X141382500Y-68449139D01*
X141370915Y-68375996D01*
X141351413Y-68252864D01*
X141312783Y-68133972D01*
X141290006Y-68063870D01*
X141290005Y-68063867D01*
X141217854Y-67922265D01*
X141199787Y-67886806D01*
X141144497Y-67810705D01*
X141114527Y-67769455D01*
X141109315Y-67754849D01*
X141099728Y-67742658D01*
X141097813Y-67722613D01*
X141091047Y-67703649D01*
X141094559Y-67688543D01*
X141093085Y-67673105D01*
X141102311Y-67655208D01*
X141106872Y-67635595D01*
X141118446Y-67623909D01*
X141125101Y-67611002D01*
X141152837Y-67589188D01*
X141159193Y-67585519D01*
X141217216Y-67552020D01*
X141329020Y-67440216D01*
X141329020Y-67440214D01*
X141339224Y-67430011D01*
X141339227Y-67430006D01*
X143595159Y-65174075D01*
X143656480Y-65140592D01*
X143721154Y-65143826D01*
X143735466Y-65148477D01*
X143937648Y-65180500D01*
X143937649Y-65180500D01*
X144142351Y-65180500D01*
X144142352Y-65180500D01*
X144344534Y-65148477D01*
X144539219Y-65085220D01*
X144721610Y-64992287D01*
X144850482Y-64898657D01*
X144887213Y-64871971D01*
X144887215Y-64871968D01*
X144887219Y-64871966D01*
X145031966Y-64727219D01*
X145031968Y-64727215D01*
X145031971Y-64727213D01*
X145104041Y-64628015D01*
X145152287Y-64561610D01*
X145245220Y-64379219D01*
X145308477Y-64184534D01*
X145340500Y-63982352D01*
X145340500Y-63777648D01*
X145317318Y-63631284D01*
X145308477Y-63575465D01*
X145279127Y-63485137D01*
X145245220Y-63380781D01*
X145245218Y-63380778D01*
X145245218Y-63380776D01*
X145193865Y-63279991D01*
X145152287Y-63198390D01*
X145136892Y-63177200D01*
X145031971Y-63032786D01*
X144887213Y-62888028D01*
X144721613Y-62767715D01*
X144721612Y-62767714D01*
X144721610Y-62767713D01*
X144656457Y-62734516D01*
X144539223Y-62674781D01*
X144344534Y-62611522D01*
X144169995Y-62583878D01*
X144142352Y-62579500D01*
X143937648Y-62579500D01*
X143913329Y-62583351D01*
X143735465Y-62611522D01*
X143540776Y-62674781D01*
X143358386Y-62767715D01*
X143192786Y-62888028D01*
X143048028Y-63032786D01*
X142927715Y-63198386D01*
X142834781Y-63380776D01*
X142771522Y-63575465D01*
X142739500Y-63777648D01*
X142739500Y-63982351D01*
X142771523Y-64184535D01*
X142776172Y-64198845D01*
X142778165Y-64268687D01*
X142745921Y-64324841D01*
X141496087Y-65574676D01*
X141434764Y-65608161D01*
X141365072Y-65603177D01*
X141309139Y-65561305D01*
X141292025Y-65528303D01*
X141291869Y-65528368D01*
X141291116Y-65526550D01*
X141290476Y-65525316D01*
X141290006Y-65523872D01*
X141290005Y-65523867D01*
X141228645Y-65403443D01*
X141199787Y-65346806D01*
X141082981Y-65186036D01*
X140942464Y-65045519D01*
X140781694Y-64928713D01*
X140604632Y-64838494D01*
X140604629Y-64838493D01*
X140415637Y-64777087D01*
X140317498Y-64761543D01*
X140219361Y-64746000D01*
X140020639Y-64746000D01*
X139955214Y-64756362D01*
X139824362Y-64777087D01*
X139635370Y-64838493D01*
X139635367Y-64838494D01*
X139458305Y-64928713D01*
X139297533Y-65045521D01*
X139157021Y-65186033D01*
X139040213Y-65346805D01*
X138949994Y-65523867D01*
X138949993Y-65523870D01*
X138888587Y-65712862D01*
X138857500Y-65909139D01*
X138857500Y-66107860D01*
X138888586Y-66304136D01*
X138890063Y-66308679D01*
X138892060Y-66378520D01*
X138855981Y-66438354D01*
X138793281Y-66469183D01*
X138772133Y-66471000D01*
X126277940Y-66471000D01*
X126256737Y-66476681D01*
X126186887Y-66475016D01*
X126129026Y-66435851D01*
X126101524Y-66371621D01*
X126106719Y-66318582D01*
X126111412Y-66304138D01*
X126111413Y-66304136D01*
X126142500Y-66107861D01*
X126142500Y-65909139D01*
X126111413Y-65712864D01*
X126075774Y-65603177D01*
X126050006Y-65523870D01*
X126050005Y-65523867D01*
X125988645Y-65403443D01*
X125959787Y-65346806D01*
X125842981Y-65186036D01*
X125702464Y-65045519D01*
X125541694Y-64928713D01*
X125385218Y-64848984D01*
X125334423Y-64801010D01*
X125317628Y-64733189D01*
X125340165Y-64667054D01*
X125385218Y-64628015D01*
X125541694Y-64548287D01*
X125702464Y-64431481D01*
X125842981Y-64290964D01*
X125959787Y-64130194D01*
X126050005Y-63953132D01*
X126111413Y-63764136D01*
X126142500Y-63567861D01*
X126142500Y-63369139D01*
X126111413Y-63172864D01*
X126050005Y-62983868D01*
X126050005Y-62983867D01*
X125988645Y-62863443D01*
X125959787Y-62806806D01*
X125842981Y-62646036D01*
X125702464Y-62505519D01*
X125541694Y-62388713D01*
X125385218Y-62308984D01*
X125334423Y-62261010D01*
X125317628Y-62193189D01*
X125340165Y-62127054D01*
X125385218Y-62088015D01*
X125541694Y-62008287D01*
X125702464Y-61891481D01*
X125842981Y-61750964D01*
X125959787Y-61590194D01*
X126050005Y-61413132D01*
X126111413Y-61224136D01*
X126142500Y-61027861D01*
X126142500Y-60829139D01*
X126111413Y-60632864D01*
X126111411Y-60632858D01*
X126110870Y-60630604D01*
X126110914Y-60629715D01*
X126110651Y-60628052D01*
X126111000Y-60627996D01*
X126114359Y-60560821D01*
X126143762Y-60513972D01*
X126870915Y-59786820D01*
X126932238Y-59753335D01*
X126958596Y-59750501D01*
X139213192Y-59750501D01*
X139280231Y-59770186D01*
X139325986Y-59822990D01*
X139335930Y-59892148D01*
X139306905Y-59955704D01*
X139300873Y-59962182D01*
X139157021Y-60106033D01*
X139040213Y-60266805D01*
X138949994Y-60443867D01*
X138949993Y-60443870D01*
X138888587Y-60632862D01*
X138878712Y-60695213D01*
X138857500Y-60829139D01*
X138857500Y-61027861D01*
X138862050Y-61056588D01*
X138888587Y-61224137D01*
X138949993Y-61413129D01*
X138949994Y-61413132D01*
X139040213Y-61590194D01*
X139157019Y-61750964D01*
X139297536Y-61891481D01*
X139458306Y-62008287D01*
X139468667Y-62013566D01*
X139635367Y-62098505D01*
X139635370Y-62098506D01*
X139729866Y-62129209D01*
X139824364Y-62159913D01*
X140020639Y-62191000D01*
X140020640Y-62191000D01*
X140219360Y-62191000D01*
X140219361Y-62191000D01*
X140415636Y-62159913D01*
X140604632Y-62098505D01*
X140781694Y-62008287D01*
X140942464Y-61891481D01*
X141082981Y-61750964D01*
X141199787Y-61590194D01*
X141290005Y-61413132D01*
X141351413Y-61224136D01*
X141382500Y-61027861D01*
X141382500Y-60829139D01*
X141351413Y-60632864D01*
X141290005Y-60443868D01*
X141290005Y-60443867D01*
X141244035Y-60353649D01*
X141199787Y-60266806D01*
X141082981Y-60106036D01*
X140942464Y-59965519D01*
X140939127Y-59962182D01*
X140905642Y-59900859D01*
X140910626Y-59831167D01*
X140952498Y-59775234D01*
X141017962Y-59750817D01*
X141026808Y-59750501D01*
X142615500Y-59750501D01*
X142682539Y-59770186D01*
X142728294Y-59822990D01*
X142739500Y-59874501D01*
X142739500Y-60052351D01*
X142771522Y-60254534D01*
X142834781Y-60449223D01*
X142886135Y-60550009D01*
X142927200Y-60630604D01*
X142927715Y-60631613D01*
X143048028Y-60797213D01*
X143192786Y-60941971D01*
X143333714Y-61044359D01*
X143358390Y-61062287D01*
X143474607Y-61121503D01*
X143540776Y-61155218D01*
X143540778Y-61155218D01*
X143540781Y-61155220D01*
X143631856Y-61184812D01*
X143735465Y-61218477D01*
X143771201Y-61224137D01*
X143937648Y-61250500D01*
X143937649Y-61250500D01*
X144142351Y-61250500D01*
X144142352Y-61250500D01*
X144344534Y-61218477D01*
X144539219Y-61155220D01*
X144721610Y-61062287D01*
X144814590Y-60994732D01*
X144887213Y-60941971D01*
X144887215Y-60941968D01*
X144887219Y-60941966D01*
X145031966Y-60797219D01*
X145031968Y-60797215D01*
X145031971Y-60797213D01*
X145106077Y-60695213D01*
X145152287Y-60631610D01*
X145245220Y-60449219D01*
X145308477Y-60254534D01*
X145340500Y-60052352D01*
X145340500Y-59847648D01*
X145337890Y-59831167D01*
X145308477Y-59645465D01*
X145245218Y-59450776D01*
X145193865Y-59349991D01*
X145152287Y-59268390D01*
X145136892Y-59247200D01*
X145031971Y-59102786D01*
X144887213Y-58958028D01*
X144721613Y-58837715D01*
X144721612Y-58837714D01*
X144721610Y-58837713D01*
X144610864Y-58781285D01*
X144539222Y-58744781D01*
X144539219Y-58744780D01*
X144531986Y-58742430D01*
X144474313Y-58702992D01*
X144447115Y-58638634D01*
X144459030Y-58569787D01*
X144506275Y-58518312D01*
X144570307Y-58500500D01*
X150701489Y-58500500D01*
X150768528Y-58520185D01*
X150814283Y-58572989D01*
X150824227Y-58642147D01*
X150795202Y-58705703D01*
X150766587Y-58730037D01*
X150742685Y-58744781D01*
X150641342Y-58807289D01*
X150517289Y-58931342D01*
X150425187Y-59080663D01*
X150425186Y-59080666D01*
X150370001Y-59247203D01*
X150370001Y-59247204D01*
X150370000Y-59247204D01*
X150359500Y-59349983D01*
X150359500Y-60550001D01*
X150359501Y-60550018D01*
X150370000Y-60652796D01*
X150370001Y-60652799D01*
X150384056Y-60695213D01*
X150425186Y-60819334D01*
X150517288Y-60968656D01*
X150641344Y-61092712D01*
X150790666Y-61184814D01*
X150957203Y-61239999D01*
X151059991Y-61250500D01*
X152260008Y-61250499D01*
X152362797Y-61239999D01*
X152529334Y-61184814D01*
X152678656Y-61092712D01*
X152802712Y-60968656D01*
X152894814Y-60819334D01*
X152949999Y-60652797D01*
X152960500Y-60550009D01*
X152960499Y-59349992D01*
X152949999Y-59247203D01*
X152894814Y-59080666D01*
X152802712Y-58931344D01*
X152678656Y-58807288D01*
X152553413Y-58730038D01*
X152506690Y-58678091D01*
X152495467Y-58609129D01*
X152523311Y-58545046D01*
X152581379Y-58506190D01*
X152618511Y-58500500D01*
X160587756Y-58500500D01*
X160654795Y-58520185D01*
X160700550Y-58572989D01*
X160711045Y-58637752D01*
X160709500Y-58652127D01*
X160709500Y-58652133D01*
X160709500Y-58652134D01*
X160709500Y-60747870D01*
X160709501Y-60747876D01*
X160715908Y-60807483D01*
X160766202Y-60942328D01*
X160766206Y-60942335D01*
X160852452Y-61057544D01*
X160852455Y-61057547D01*
X160967664Y-61143793D01*
X160967671Y-61143797D01*
X161102517Y-61194091D01*
X161102516Y-61194091D01*
X161109444Y-61194835D01*
X161162127Y-61200500D01*
X164457872Y-61200499D01*
X164517483Y-61194091D01*
X164652331Y-61143796D01*
X164767546Y-61057546D01*
X164853796Y-60942331D01*
X164904091Y-60807483D01*
X164910500Y-60747873D01*
X164910499Y-58652128D01*
X164909426Y-58642147D01*
X164908954Y-58637752D01*
X164921361Y-58568993D01*
X164968973Y-58517857D01*
X165032244Y-58500500D01*
X171825500Y-58500500D01*
X171892539Y-58520185D01*
X171938294Y-58572989D01*
X171949500Y-58624500D01*
X171949500Y-157375500D01*
X171929815Y-157442539D01*
X171877011Y-157488294D01*
X171825500Y-157499500D01*
X85514500Y-157499500D01*
X85447461Y-157479815D01*
X85401706Y-157427011D01*
X85390500Y-157375500D01*
X85390500Y-156098543D01*
X138999499Y-156098543D01*
X139037947Y-156291829D01*
X139037950Y-156291839D01*
X139113364Y-156473907D01*
X139113371Y-156473920D01*
X139222860Y-156637781D01*
X139222863Y-156637785D01*
X139362214Y-156777136D01*
X139362218Y-156777139D01*
X139526079Y-156886628D01*
X139526092Y-156886635D01*
X139708160Y-156962049D01*
X139708165Y-156962051D01*
X139708169Y-156962051D01*
X139708170Y-156962052D01*
X139901456Y-157000500D01*
X139901459Y-157000500D01*
X141098542Y-157000500D01*
X141129566Y-156994328D01*
X141195188Y-156981275D01*
X141291836Y-156962051D01*
X141345165Y-156939961D01*
X141473914Y-156886632D01*
X141637782Y-156777139D01*
X141777139Y-156637782D01*
X141777140Y-156637779D01*
X141784206Y-156630714D01*
X141784208Y-156630710D01*
X143777139Y-154637781D01*
X143886631Y-154473914D01*
X143962051Y-154291836D01*
X144000500Y-154098540D01*
X144000500Y-153901460D01*
X144000500Y-153901457D01*
X144000499Y-153901455D01*
X143980322Y-153800018D01*
X143962051Y-153708164D01*
X143886631Y-153526086D01*
X143886629Y-153526083D01*
X143886627Y-153526079D01*
X143777139Y-153362219D01*
X143777136Y-153362215D01*
X143637784Y-153222863D01*
X143637780Y-153222860D01*
X143473920Y-153113372D01*
X143473910Y-153113367D01*
X143291836Y-153037949D01*
X143291828Y-153037947D01*
X143098543Y-152999500D01*
X143098540Y-152999500D01*
X142901460Y-152999500D01*
X142901457Y-152999500D01*
X142708171Y-153037947D01*
X142708163Y-153037949D01*
X142526089Y-153113367D01*
X142526079Y-153113372D01*
X142362219Y-153222860D01*
X142362215Y-153222863D01*
X140621899Y-154963181D01*
X140560576Y-154996666D01*
X140534218Y-154999500D01*
X139901457Y-154999500D01*
X139708170Y-155037947D01*
X139708160Y-155037950D01*
X139526092Y-155113364D01*
X139526079Y-155113371D01*
X139362218Y-155222860D01*
X139362214Y-155222863D01*
X139222863Y-155362214D01*
X139222860Y-155362218D01*
X139113371Y-155526079D01*
X139113364Y-155526092D01*
X139037950Y-155708160D01*
X139037947Y-155708170D01*
X138999500Y-155901456D01*
X138999500Y-155901459D01*
X138999500Y-156098541D01*
X138999500Y-156098543D01*
X138999499Y-156098543D01*
X85390500Y-156098543D01*
X85390500Y-153393713D01*
X89649500Y-153393713D01*
X89649500Y-153606286D01*
X89680182Y-153800009D01*
X89682754Y-153816243D01*
X89726220Y-153950018D01*
X89748444Y-154018414D01*
X89844951Y-154207820D01*
X89969890Y-154379786D01*
X90120213Y-154530109D01*
X90292179Y-154655048D01*
X90292181Y-154655049D01*
X90292184Y-154655051D01*
X90481588Y-154751557D01*
X90683757Y-154817246D01*
X90893713Y-154850500D01*
X90893714Y-154850500D01*
X91106286Y-154850500D01*
X91106287Y-154850500D01*
X91316243Y-154817246D01*
X91518412Y-154751557D01*
X91707816Y-154655051D01*
X91804490Y-154584814D01*
X91879786Y-154530109D01*
X91879788Y-154530106D01*
X91879792Y-154530104D01*
X92030104Y-154379792D01*
X92030106Y-154379788D01*
X92030109Y-154379786D01*
X92155048Y-154207820D01*
X92155047Y-154207820D01*
X92155051Y-154207816D01*
X92251557Y-154018412D01*
X92317246Y-153816243D01*
X92350500Y-153606287D01*
X92350500Y-153393713D01*
X92317246Y-153183757D01*
X92251557Y-152981588D01*
X92155051Y-152792184D01*
X92155049Y-152792180D01*
X92124391Y-152749983D01*
X119199500Y-152749983D01*
X119199500Y-153950001D01*
X119199501Y-153950018D01*
X119210000Y-154052796D01*
X119210001Y-154052799D01*
X119225808Y-154100500D01*
X119265186Y-154219334D01*
X119357288Y-154368656D01*
X119481344Y-154492712D01*
X119630666Y-154584814D01*
X119797203Y-154639999D01*
X119899991Y-154650500D01*
X121100008Y-154650499D01*
X121202797Y-154639999D01*
X121369334Y-154584814D01*
X121518656Y-154492712D01*
X121642712Y-154368656D01*
X121734814Y-154219334D01*
X121789999Y-154052797D01*
X121800500Y-153950009D01*
X121800499Y-152749992D01*
X121789999Y-152647203D01*
X121774352Y-152599983D01*
X138199500Y-152599983D01*
X138199500Y-153800001D01*
X138199501Y-153800018D01*
X138210000Y-153902796D01*
X138210001Y-153902799D01*
X138265185Y-154069331D01*
X138265187Y-154069336D01*
X138283203Y-154098544D01*
X138357288Y-154218656D01*
X138481344Y-154342712D01*
X138630666Y-154434814D01*
X138797203Y-154489999D01*
X138899991Y-154500500D01*
X140100008Y-154500499D01*
X140202797Y-154489999D01*
X140369334Y-154434814D01*
X140518656Y-154342712D01*
X140642712Y-154218656D01*
X140734814Y-154069334D01*
X140789999Y-153902797D01*
X140800500Y-153800009D01*
X140800499Y-152599992D01*
X140789999Y-152497203D01*
X140734814Y-152330666D01*
X140642712Y-152181344D01*
X140518656Y-152057288D01*
X140369334Y-151965186D01*
X140202797Y-151910001D01*
X140202795Y-151910000D01*
X140100010Y-151899500D01*
X138899998Y-151899500D01*
X138899981Y-151899501D01*
X138797203Y-151910000D01*
X138797200Y-151910001D01*
X138630668Y-151965185D01*
X138630663Y-151965187D01*
X138481342Y-152057289D01*
X138357289Y-152181342D01*
X138265187Y-152330663D01*
X138265186Y-152330666D01*
X138210001Y-152497203D01*
X138210001Y-152497204D01*
X138210000Y-152497204D01*
X138199500Y-152599983D01*
X121774352Y-152599983D01*
X121734814Y-152480666D01*
X121642712Y-152331344D01*
X121518656Y-152207288D01*
X121369334Y-152115186D01*
X121202797Y-152060001D01*
X121202795Y-152060000D01*
X121100010Y-152049500D01*
X119899998Y-152049500D01*
X119899981Y-152049501D01*
X119797203Y-152060000D01*
X119797200Y-152060001D01*
X119630668Y-152115185D01*
X119630663Y-152115187D01*
X119481342Y-152207289D01*
X119357289Y-152331342D01*
X119265187Y-152480663D01*
X119265186Y-152480666D01*
X119210001Y-152647203D01*
X119210001Y-152647204D01*
X119210000Y-152647204D01*
X119199500Y-152749983D01*
X92124391Y-152749983D01*
X92030109Y-152620213D01*
X91879786Y-152469890D01*
X91707820Y-152344951D01*
X91518414Y-152248444D01*
X91518413Y-152248443D01*
X91518412Y-152248443D01*
X91316243Y-152182754D01*
X91316241Y-152182753D01*
X91316240Y-152182753D01*
X91154957Y-152157208D01*
X91106287Y-152149500D01*
X90893713Y-152149500D01*
X90845042Y-152157208D01*
X90683760Y-152182753D01*
X90481585Y-152248444D01*
X90292179Y-152344951D01*
X90120213Y-152469890D01*
X89969890Y-152620213D01*
X89844951Y-152792179D01*
X89748444Y-152981585D01*
X89682753Y-153183760D01*
X89649500Y-153393713D01*
X85390500Y-153393713D01*
X85390500Y-146453389D01*
X104529500Y-146453389D01*
X104529500Y-146626610D01*
X104544603Y-146721971D01*
X104556598Y-146797701D01*
X104610127Y-146962445D01*
X104688768Y-147116788D01*
X104790586Y-147256928D01*
X104913072Y-147379414D01*
X105053212Y-147481232D01*
X105207555Y-147559873D01*
X105372299Y-147613402D01*
X105543389Y-147640500D01*
X105543390Y-147640500D01*
X105716610Y-147640500D01*
X105716611Y-147640500D01*
X105887701Y-147613402D01*
X106052445Y-147559873D01*
X106206788Y-147481232D01*
X106346928Y-147379414D01*
X106469414Y-147256928D01*
X106571232Y-147116788D01*
X106649873Y-146962445D01*
X106703402Y-146797701D01*
X106730500Y-146626611D01*
X106730500Y-146453389D01*
X106720854Y-146392486D01*
X108459500Y-146392486D01*
X108459500Y-146687513D01*
X108479877Y-146842284D01*
X108498007Y-146979993D01*
X108572212Y-147256930D01*
X108574361Y-147264951D01*
X108574364Y-147264961D01*
X108687254Y-147537500D01*
X108687258Y-147537510D01*
X108834761Y-147792993D01*
X109014352Y-148027040D01*
X109014358Y-148027047D01*
X109222952Y-148235641D01*
X109222959Y-148235647D01*
X109457006Y-148415238D01*
X109712489Y-148562741D01*
X109712490Y-148562741D01*
X109712493Y-148562743D01*
X109985048Y-148675639D01*
X110270007Y-148751993D01*
X110562494Y-148790500D01*
X110562501Y-148790500D01*
X110857499Y-148790500D01*
X110857506Y-148790500D01*
X111149993Y-148751993D01*
X111434952Y-148675639D01*
X111707507Y-148562743D01*
X111962994Y-148415238D01*
X112197042Y-148235646D01*
X112405646Y-148027042D01*
X112585238Y-147792994D01*
X112732743Y-147537507D01*
X112845639Y-147264952D01*
X112921993Y-146979993D01*
X112960500Y-146687506D01*
X112960500Y-146453389D01*
X114689500Y-146453389D01*
X114689500Y-146626610D01*
X114704603Y-146721971D01*
X114716598Y-146797701D01*
X114770127Y-146962445D01*
X114848768Y-147116788D01*
X114950586Y-147256928D01*
X115073072Y-147379414D01*
X115213212Y-147481232D01*
X115367555Y-147559873D01*
X115532299Y-147613402D01*
X115703389Y-147640500D01*
X115703390Y-147640500D01*
X115876610Y-147640500D01*
X115876611Y-147640500D01*
X116047701Y-147613402D01*
X116212445Y-147559873D01*
X116366788Y-147481232D01*
X116506928Y-147379414D01*
X116629414Y-147256928D01*
X116731232Y-147116788D01*
X116809873Y-146962445D01*
X116863402Y-146797701D01*
X116890500Y-146626611D01*
X116890500Y-146453389D01*
X116863402Y-146282299D01*
X116809873Y-146117555D01*
X116731232Y-145963212D01*
X116629414Y-145823072D01*
X116506928Y-145700586D01*
X116366788Y-145598768D01*
X116212445Y-145520127D01*
X116047701Y-145466598D01*
X116047699Y-145466597D01*
X116047698Y-145466597D01*
X115916271Y-145445781D01*
X115876611Y-145439500D01*
X115703389Y-145439500D01*
X115663728Y-145445781D01*
X115532302Y-145466597D01*
X115367552Y-145520128D01*
X115213211Y-145598768D01*
X115173462Y-145627648D01*
X115073072Y-145700586D01*
X115073070Y-145700588D01*
X115073069Y-145700588D01*
X114950588Y-145823069D01*
X114950588Y-145823070D01*
X114950586Y-145823072D01*
X114922584Y-145861613D01*
X114848768Y-145963211D01*
X114770128Y-146117552D01*
X114716597Y-146282302D01*
X114689500Y-146453389D01*
X112960500Y-146453389D01*
X112960500Y-146392494D01*
X112921993Y-146100007D01*
X112845639Y-145815048D01*
X112732743Y-145542493D01*
X112699280Y-145484534D01*
X112585238Y-145287006D01*
X112405647Y-145052959D01*
X112405641Y-145052952D01*
X112197047Y-144844358D01*
X112197040Y-144844352D01*
X111962993Y-144664761D01*
X111707510Y-144517258D01*
X111707500Y-144517254D01*
X111434961Y-144404364D01*
X111434954Y-144404362D01*
X111434952Y-144404361D01*
X111149993Y-144328007D01*
X111101113Y-144321571D01*
X110857513Y-144289500D01*
X110857506Y-144289500D01*
X110562494Y-144289500D01*
X110562486Y-144289500D01*
X110284085Y-144326153D01*
X110270007Y-144328007D01*
X110095447Y-144374780D01*
X109985048Y-144404361D01*
X109985038Y-144404364D01*
X109712499Y-144517254D01*
X109712489Y-144517258D01*
X109457006Y-144664761D01*
X109222959Y-144844352D01*
X109222952Y-144844358D01*
X109014358Y-145052952D01*
X109014352Y-145052959D01*
X108834761Y-145287006D01*
X108687258Y-145542489D01*
X108687254Y-145542499D01*
X108574364Y-145815038D01*
X108574361Y-145815048D01*
X108498008Y-146100004D01*
X108498006Y-146100015D01*
X108459500Y-146392486D01*
X106720854Y-146392486D01*
X106703402Y-146282299D01*
X106649873Y-146117555D01*
X106571232Y-145963212D01*
X106469414Y-145823072D01*
X106417482Y-145771140D01*
X106383997Y-145709817D01*
X106388981Y-145640125D01*
X106430853Y-145584192D01*
X106496317Y-145559775D01*
X106524561Y-145560986D01*
X106525212Y-145561089D01*
X106525215Y-145561090D01*
X106774038Y-145600500D01*
X106774039Y-145600500D01*
X107025961Y-145600500D01*
X107025962Y-145600500D01*
X107274785Y-145561090D01*
X107514379Y-145483241D01*
X107738845Y-145368870D01*
X107942656Y-145220793D01*
X108120793Y-145042656D01*
X108268870Y-144838845D01*
X108383241Y-144614379D01*
X108461090Y-144374785D01*
X108500500Y-144125962D01*
X108500500Y-143874038D01*
X108461090Y-143625215D01*
X108383241Y-143385621D01*
X108383239Y-143385618D01*
X108383239Y-143385616D01*
X108341747Y-143304184D01*
X108268870Y-143161155D01*
X108167107Y-143021090D01*
X108120798Y-142957350D01*
X108120794Y-142957345D01*
X107942654Y-142779205D01*
X107942649Y-142779201D01*
X107738848Y-142631132D01*
X107738847Y-142631131D01*
X107738845Y-142631130D01*
X107668747Y-142595413D01*
X107514383Y-142516760D01*
X107274785Y-142438910D01*
X107241884Y-142433699D01*
X107025962Y-142399500D01*
X106774038Y-142399500D01*
X106649626Y-142419205D01*
X106525214Y-142438910D01*
X106285616Y-142516760D01*
X106061151Y-142631132D01*
X105857350Y-142779201D01*
X105857345Y-142779205D01*
X105679205Y-142957345D01*
X105679201Y-142957350D01*
X105531132Y-143161151D01*
X105416760Y-143385616D01*
X105338910Y-143625214D01*
X105299500Y-143874038D01*
X105299500Y-144125961D01*
X105338910Y-144374785D01*
X105416760Y-144614383D01*
X105531132Y-144838848D01*
X105679201Y-145042649D01*
X105679205Y-145042654D01*
X105679207Y-145042656D01*
X105857344Y-145220793D01*
X105857345Y-145220794D01*
X105857344Y-145220794D01*
X105863661Y-145225383D01*
X105906327Y-145280714D01*
X105912305Y-145350327D01*
X105879699Y-145412122D01*
X105818860Y-145446479D01*
X105771378Y-145448174D01*
X105716611Y-145439500D01*
X105543389Y-145439500D01*
X105503728Y-145445781D01*
X105372302Y-145466597D01*
X105207552Y-145520128D01*
X105053211Y-145598768D01*
X105013462Y-145627648D01*
X104913072Y-145700586D01*
X104913070Y-145700588D01*
X104913069Y-145700588D01*
X104790588Y-145823069D01*
X104790588Y-145823070D01*
X104790586Y-145823072D01*
X104762584Y-145861613D01*
X104688768Y-145963211D01*
X104610128Y-146117552D01*
X104556597Y-146282302D01*
X104529500Y-146453389D01*
X85390500Y-146453389D01*
X85390500Y-141334038D01*
X111649500Y-141334038D01*
X111649500Y-141585961D01*
X111688910Y-141834785D01*
X111766760Y-142074383D01*
X111881132Y-142298848D01*
X112029201Y-142502649D01*
X112029205Y-142502654D01*
X112207345Y-142680794D01*
X112207350Y-142680798D01*
X112385117Y-142809952D01*
X112411155Y-142828870D01*
X112554184Y-142901747D01*
X112635616Y-142943239D01*
X112635618Y-142943239D01*
X112635621Y-142943241D01*
X112875215Y-143021090D01*
X113124038Y-143060500D01*
X113124039Y-143060500D01*
X113375961Y-143060500D01*
X113375962Y-143060500D01*
X113624785Y-143021090D01*
X113864379Y-142943241D01*
X114088845Y-142828870D01*
X114292656Y-142680793D01*
X114470793Y-142502656D01*
X114618870Y-142298845D01*
X114705815Y-142128204D01*
X114753789Y-142077409D01*
X114816300Y-142060500D01*
X115929903Y-142060500D01*
X115996942Y-142080185D01*
X116017584Y-142096819D01*
X119205922Y-145285157D01*
X119239407Y-145346480D01*
X119236173Y-145411155D01*
X119231522Y-145425468D01*
X119199500Y-145627648D01*
X119199500Y-145832351D01*
X119231522Y-146034534D01*
X119294781Y-146229223D01*
X119358691Y-146354653D01*
X119385786Y-146407829D01*
X119387715Y-146411613D01*
X119508028Y-146577213D01*
X119652786Y-146721971D01*
X119757022Y-146797701D01*
X119818390Y-146842287D01*
X119934607Y-146901503D01*
X120000776Y-146935218D01*
X120000778Y-146935218D01*
X120000781Y-146935220D01*
X120084571Y-146962445D01*
X120195465Y-146998477D01*
X120296557Y-147014488D01*
X120397648Y-147030500D01*
X120397649Y-147030500D01*
X120602351Y-147030500D01*
X120602352Y-147030500D01*
X120804534Y-146998477D01*
X120999219Y-146935220D01*
X121181610Y-146842287D01*
X121274590Y-146774732D01*
X121347213Y-146721971D01*
X121347215Y-146721968D01*
X121347219Y-146721966D01*
X121491966Y-146577219D01*
X121491968Y-146577215D01*
X121491971Y-146577213D01*
X121581933Y-146453389D01*
X121612287Y-146411610D01*
X121705220Y-146229219D01*
X121768477Y-146034534D01*
X121800500Y-145832352D01*
X121800500Y-145627648D01*
X121777628Y-145483241D01*
X121768477Y-145425465D01*
X121739127Y-145335137D01*
X121705220Y-145230781D01*
X121705218Y-145230778D01*
X121705218Y-145230776D01*
X121656497Y-145135157D01*
X121612287Y-145048390D01*
X121604556Y-145037749D01*
X121491971Y-144882786D01*
X121347213Y-144738028D01*
X121181613Y-144617715D01*
X121181612Y-144617714D01*
X121181610Y-144617713D01*
X121123350Y-144588028D01*
X120999223Y-144524781D01*
X120804534Y-144461522D01*
X120629995Y-144433878D01*
X120602352Y-144429500D01*
X120397648Y-144429500D01*
X120359599Y-144435526D01*
X120195468Y-144461522D01*
X120186717Y-144464365D01*
X120181154Y-144466173D01*
X120111313Y-144468167D01*
X120055157Y-144435922D01*
X116717590Y-141098355D01*
X116717588Y-141098352D01*
X116598717Y-140979481D01*
X116598716Y-140979480D01*
X116511904Y-140929360D01*
X116511904Y-140929359D01*
X116511900Y-140929358D01*
X116461785Y-140900423D01*
X116309057Y-140859499D01*
X116150943Y-140859499D01*
X116143347Y-140859499D01*
X116143331Y-140859500D01*
X114816300Y-140859500D01*
X114749261Y-140839815D01*
X114705815Y-140791795D01*
X114618870Y-140621155D01*
X114599952Y-140595117D01*
X114470798Y-140417350D01*
X114470794Y-140417345D01*
X114292654Y-140239205D01*
X114292649Y-140239201D01*
X114088848Y-140091132D01*
X114088847Y-140091131D01*
X114088845Y-140091130D01*
X114018747Y-140055413D01*
X113864383Y-139976760D01*
X113624785Y-139898910D01*
X113375962Y-139859500D01*
X113124038Y-139859500D01*
X112999626Y-139879205D01*
X112875214Y-139898910D01*
X112635616Y-139976760D01*
X112411151Y-140091132D01*
X112207350Y-140239201D01*
X112207345Y-140239205D01*
X112029205Y-140417345D01*
X112029201Y-140417350D01*
X111881132Y-140621151D01*
X111766760Y-140845616D01*
X111688910Y-141085214D01*
X111649500Y-141334038D01*
X85390500Y-141334038D01*
X85390500Y-133249983D01*
X119199500Y-133249983D01*
X119199500Y-134450001D01*
X119199501Y-134450018D01*
X119210000Y-134552796D01*
X119210001Y-134552799D01*
X119215481Y-134569336D01*
X119265186Y-134719334D01*
X119357288Y-134868656D01*
X119481344Y-134992712D01*
X119630666Y-135084814D01*
X119797203Y-135139999D01*
X119899991Y-135150500D01*
X121100008Y-135150499D01*
X121202797Y-135139999D01*
X121369334Y-135084814D01*
X121518656Y-134992712D01*
X121642712Y-134868656D01*
X121734814Y-134719334D01*
X121789999Y-134552797D01*
X121800500Y-134450009D01*
X121800499Y-133249992D01*
X121789999Y-133147203D01*
X121734814Y-132980666D01*
X121642712Y-132831344D01*
X121518656Y-132707288D01*
X121369334Y-132615186D01*
X121202797Y-132560001D01*
X121202795Y-132560000D01*
X121100010Y-132549500D01*
X119899998Y-132549500D01*
X119899981Y-132549501D01*
X119797203Y-132560000D01*
X119797200Y-132560001D01*
X119630668Y-132615185D01*
X119630663Y-132615187D01*
X119481342Y-132707289D01*
X119357289Y-132831342D01*
X119265187Y-132980663D01*
X119265186Y-132980666D01*
X119210001Y-133147203D01*
X119210001Y-133147204D01*
X119210000Y-133147204D01*
X119199500Y-133249983D01*
X85390500Y-133249983D01*
X85390500Y-127403389D01*
X104529500Y-127403389D01*
X104529500Y-127576611D01*
X104556598Y-127747701D01*
X104610127Y-127912445D01*
X104688768Y-128066788D01*
X104790586Y-128206928D01*
X104913072Y-128329414D01*
X105053212Y-128431232D01*
X105207555Y-128509873D01*
X105372299Y-128563402D01*
X105543389Y-128590500D01*
X105543390Y-128590500D01*
X105716610Y-128590500D01*
X105716611Y-128590500D01*
X105887701Y-128563402D01*
X106052445Y-128509873D01*
X106206788Y-128431232D01*
X106346928Y-128329414D01*
X106469414Y-128206928D01*
X106571232Y-128066788D01*
X106649873Y-127912445D01*
X106703402Y-127747701D01*
X106730500Y-127576611D01*
X106730500Y-127403389D01*
X106720854Y-127342486D01*
X108459500Y-127342486D01*
X108459500Y-127637513D01*
X108491571Y-127881113D01*
X108498007Y-127929993D01*
X108572212Y-128206930D01*
X108574361Y-128214951D01*
X108574364Y-128214961D01*
X108687254Y-128487500D01*
X108687258Y-128487510D01*
X108834761Y-128742993D01*
X109014352Y-128977040D01*
X109014358Y-128977047D01*
X109222952Y-129185641D01*
X109222959Y-129185647D01*
X109457006Y-129365238D01*
X109712489Y-129512741D01*
X109712490Y-129512741D01*
X109712493Y-129512743D01*
X109985048Y-129625639D01*
X110270007Y-129701993D01*
X110562494Y-129740500D01*
X110562501Y-129740500D01*
X110857499Y-129740500D01*
X110857506Y-129740500D01*
X111149993Y-129701993D01*
X111434952Y-129625639D01*
X111707507Y-129512743D01*
X111962994Y-129365238D01*
X112197042Y-129185646D01*
X112405646Y-128977042D01*
X112585238Y-128742994D01*
X112732743Y-128487507D01*
X112845639Y-128214952D01*
X112921993Y-127929993D01*
X112960500Y-127637506D01*
X112960500Y-127403389D01*
X114689500Y-127403389D01*
X114689500Y-127576611D01*
X114716598Y-127747701D01*
X114770127Y-127912445D01*
X114848768Y-128066788D01*
X114950586Y-128206928D01*
X115073072Y-128329414D01*
X115213212Y-128431232D01*
X115367555Y-128509873D01*
X115532299Y-128563402D01*
X115703389Y-128590500D01*
X115703390Y-128590500D01*
X115876610Y-128590500D01*
X115876611Y-128590500D01*
X116047701Y-128563402D01*
X116212445Y-128509873D01*
X116366788Y-128431232D01*
X116506928Y-128329414D01*
X116629414Y-128206928D01*
X116731232Y-128066788D01*
X116809873Y-127912445D01*
X116863402Y-127747701D01*
X116890500Y-127576611D01*
X116890500Y-127403389D01*
X116863402Y-127232299D01*
X116809873Y-127067555D01*
X116731232Y-126913212D01*
X116629414Y-126773072D01*
X116506928Y-126650586D01*
X116366788Y-126548768D01*
X116212445Y-126470127D01*
X116047701Y-126416598D01*
X116047699Y-126416597D01*
X116047698Y-126416597D01*
X115916271Y-126395781D01*
X115876611Y-126389500D01*
X115703389Y-126389500D01*
X115663728Y-126395781D01*
X115532302Y-126416597D01*
X115367552Y-126470128D01*
X115213211Y-126548768D01*
X115171294Y-126579223D01*
X115073072Y-126650586D01*
X115073070Y-126650588D01*
X115073069Y-126650588D01*
X114950588Y-126773069D01*
X114950588Y-126773070D01*
X114950586Y-126773072D01*
X114921526Y-126813070D01*
X114848768Y-126913211D01*
X114770128Y-127067552D01*
X114716597Y-127232302D01*
X114693125Y-127380500D01*
X114689500Y-127403389D01*
X112960500Y-127403389D01*
X112960500Y-127342494D01*
X112921993Y-127050007D01*
X112845639Y-126765048D01*
X112732743Y-126492493D01*
X112700403Y-126436479D01*
X112585238Y-126237006D01*
X112405647Y-126002959D01*
X112405641Y-126002952D01*
X112197047Y-125794358D01*
X112197040Y-125794352D01*
X111962993Y-125614761D01*
X111707510Y-125467258D01*
X111707500Y-125467254D01*
X111434961Y-125354364D01*
X111434954Y-125354362D01*
X111434952Y-125354361D01*
X111149993Y-125278007D01*
X111101113Y-125271571D01*
X110857513Y-125239500D01*
X110857506Y-125239500D01*
X110562494Y-125239500D01*
X110562486Y-125239500D01*
X110284085Y-125276153D01*
X110270007Y-125278007D01*
X110095428Y-125324785D01*
X109985048Y-125354361D01*
X109985038Y-125354364D01*
X109712499Y-125467254D01*
X109712489Y-125467258D01*
X109457006Y-125614761D01*
X109222959Y-125794352D01*
X109222952Y-125794358D01*
X109014358Y-126002952D01*
X109014352Y-126002959D01*
X108834761Y-126237006D01*
X108687258Y-126492489D01*
X108687254Y-126492499D01*
X108574364Y-126765038D01*
X108574361Y-126765048D01*
X108498008Y-127050004D01*
X108498006Y-127050015D01*
X108459500Y-127342486D01*
X106720854Y-127342486D01*
X106703402Y-127232299D01*
X106649873Y-127067555D01*
X106571232Y-126913212D01*
X106469414Y-126773072D01*
X106417482Y-126721140D01*
X106383997Y-126659817D01*
X106388981Y-126590125D01*
X106430853Y-126534192D01*
X106496317Y-126509775D01*
X106524561Y-126510986D01*
X106525212Y-126511089D01*
X106525215Y-126511090D01*
X106774038Y-126550500D01*
X106774039Y-126550500D01*
X107025961Y-126550500D01*
X107025962Y-126550500D01*
X107274785Y-126511090D01*
X107514379Y-126433241D01*
X107738845Y-126318870D01*
X107942656Y-126170793D01*
X108120793Y-125992656D01*
X108268870Y-125788845D01*
X108383241Y-125564379D01*
X108461090Y-125324785D01*
X108500500Y-125075962D01*
X108500500Y-124824038D01*
X108461090Y-124575215D01*
X108383241Y-124335621D01*
X108383239Y-124335618D01*
X108383239Y-124335616D01*
X108341747Y-124254184D01*
X108268870Y-124111155D01*
X108167107Y-123971090D01*
X108120798Y-123907350D01*
X108120794Y-123907345D01*
X107942654Y-123729205D01*
X107942649Y-123729201D01*
X107738848Y-123581132D01*
X107738847Y-123581131D01*
X107738845Y-123581130D01*
X107646708Y-123534184D01*
X107514383Y-123466760D01*
X107274785Y-123388910D01*
X107241884Y-123383699D01*
X107025962Y-123349500D01*
X106774038Y-123349500D01*
X106649626Y-123369205D01*
X106525214Y-123388910D01*
X106285616Y-123466760D01*
X106061151Y-123581132D01*
X105857350Y-123729201D01*
X105857345Y-123729205D01*
X105679205Y-123907345D01*
X105679201Y-123907350D01*
X105531132Y-124111151D01*
X105416760Y-124335616D01*
X105338910Y-124575214D01*
X105306554Y-124779500D01*
X105299500Y-124824038D01*
X105299500Y-125075962D01*
X105306113Y-125117713D01*
X105338910Y-125324785D01*
X105416760Y-125564383D01*
X105462811Y-125654762D01*
X105517021Y-125761155D01*
X105531132Y-125788848D01*
X105679201Y-125992649D01*
X105679205Y-125992654D01*
X105679207Y-125992656D01*
X105857344Y-126170793D01*
X105857345Y-126170794D01*
X105857344Y-126170794D01*
X105863661Y-126175383D01*
X105906327Y-126230714D01*
X105912305Y-126300327D01*
X105879699Y-126362122D01*
X105818860Y-126396479D01*
X105771378Y-126398174D01*
X105716611Y-126389500D01*
X105543389Y-126389500D01*
X105503728Y-126395781D01*
X105372302Y-126416597D01*
X105207552Y-126470128D01*
X105053211Y-126548768D01*
X105011294Y-126579223D01*
X104913072Y-126650586D01*
X104913070Y-126650588D01*
X104913069Y-126650588D01*
X104790588Y-126773069D01*
X104790588Y-126773070D01*
X104790586Y-126773072D01*
X104761526Y-126813070D01*
X104688768Y-126913211D01*
X104610128Y-127067552D01*
X104556597Y-127232302D01*
X104533125Y-127380500D01*
X104529500Y-127403389D01*
X85390500Y-127403389D01*
X85390500Y-122284038D01*
X111649500Y-122284038D01*
X111649500Y-122535962D01*
X111688910Y-122784785D01*
X111766760Y-123024383D01*
X111881132Y-123248848D01*
X112029201Y-123452649D01*
X112029205Y-123452654D01*
X112207345Y-123630794D01*
X112207350Y-123630798D01*
X112385117Y-123759952D01*
X112411155Y-123778870D01*
X112489654Y-123818867D01*
X112635616Y-123893239D01*
X112635618Y-123893239D01*
X112635621Y-123893241D01*
X112875215Y-123971090D01*
X113124038Y-124010500D01*
X113124039Y-124010500D01*
X113375961Y-124010500D01*
X113375962Y-124010500D01*
X113624785Y-123971090D01*
X113864379Y-123893241D01*
X114088845Y-123778870D01*
X114292656Y-123630793D01*
X114470793Y-123452656D01*
X114618870Y-123248845D01*
X114705815Y-123078204D01*
X114753789Y-123027409D01*
X114816300Y-123010500D01*
X116379903Y-123010500D01*
X116446942Y-123030185D01*
X116467584Y-123046819D01*
X119205922Y-125785157D01*
X119239407Y-125846480D01*
X119236173Y-125911155D01*
X119231522Y-125925468D01*
X119199500Y-126127648D01*
X119199500Y-126332351D01*
X119231522Y-126534534D01*
X119294781Y-126729223D01*
X119387715Y-126911613D01*
X119508028Y-127077213D01*
X119652786Y-127221971D01*
X119739843Y-127285220D01*
X119818390Y-127342287D01*
X119934607Y-127401503D01*
X120000776Y-127435218D01*
X120000778Y-127435218D01*
X120000781Y-127435220D01*
X120025923Y-127443389D01*
X120195465Y-127498477D01*
X120296557Y-127514488D01*
X120397648Y-127530500D01*
X120397649Y-127530500D01*
X120602351Y-127530500D01*
X120602352Y-127530500D01*
X120804534Y-127498477D01*
X120999219Y-127435220D01*
X121181610Y-127342287D01*
X121332997Y-127232299D01*
X121347213Y-127221971D01*
X121347215Y-127221968D01*
X121347219Y-127221966D01*
X121491966Y-127077219D01*
X121491968Y-127077215D01*
X121491971Y-127077213D01*
X121544732Y-127004590D01*
X121612287Y-126911610D01*
X121705220Y-126729219D01*
X121768477Y-126534534D01*
X121800500Y-126332352D01*
X121800500Y-126127648D01*
X121768477Y-125925466D01*
X121705220Y-125730781D01*
X121705218Y-125730778D01*
X121705218Y-125730776D01*
X121646105Y-125614762D01*
X121612287Y-125548390D01*
X121590575Y-125518506D01*
X121491971Y-125382786D01*
X121347213Y-125238028D01*
X121181613Y-125117715D01*
X121181612Y-125117714D01*
X121181610Y-125117713D01*
X121123350Y-125088028D01*
X120999223Y-125024781D01*
X120804534Y-124961522D01*
X120629995Y-124933878D01*
X120602352Y-124929500D01*
X120397648Y-124929500D01*
X120359599Y-124935526D01*
X120195468Y-124961522D01*
X120186717Y-124964365D01*
X120181154Y-124966173D01*
X120111313Y-124968167D01*
X120055157Y-124935922D01*
X117167590Y-122048355D01*
X117167588Y-122048352D01*
X117048717Y-121929481D01*
X117048716Y-121929480D01*
X116961904Y-121879360D01*
X116961904Y-121879359D01*
X116961900Y-121879358D01*
X116911785Y-121850423D01*
X116759057Y-121809499D01*
X116600943Y-121809499D01*
X116593347Y-121809499D01*
X116593331Y-121809500D01*
X114816300Y-121809500D01*
X114749261Y-121789815D01*
X114705815Y-121741795D01*
X114652327Y-121636819D01*
X114618870Y-121571155D01*
X114499859Y-121407350D01*
X114470798Y-121367350D01*
X114470794Y-121367345D01*
X114292654Y-121189205D01*
X114292649Y-121189201D01*
X114088848Y-121041132D01*
X114088847Y-121041131D01*
X114088845Y-121041130D01*
X114009104Y-121000500D01*
X113864383Y-120926760D01*
X113624785Y-120848910D01*
X113375962Y-120809500D01*
X113124038Y-120809500D01*
X112999626Y-120829205D01*
X112875214Y-120848910D01*
X112635616Y-120926760D01*
X112411151Y-121041132D01*
X112207350Y-121189201D01*
X112207345Y-121189205D01*
X112029205Y-121367345D01*
X112029201Y-121367350D01*
X111881132Y-121571151D01*
X111766760Y-121795616D01*
X111688910Y-122035214D01*
X111649500Y-122284038D01*
X85390500Y-122284038D01*
X85390500Y-114249983D01*
X119199500Y-114249983D01*
X119199500Y-115450001D01*
X119199501Y-115450018D01*
X119210000Y-115552796D01*
X119210001Y-115552799D01*
X119248710Y-115669614D01*
X119265186Y-115719334D01*
X119357288Y-115868656D01*
X119481344Y-115992712D01*
X119630666Y-116084814D01*
X119797203Y-116139999D01*
X119899991Y-116150500D01*
X121100008Y-116150499D01*
X121202797Y-116139999D01*
X121369334Y-116084814D01*
X121518656Y-115992712D01*
X121642712Y-115868656D01*
X121734814Y-115719334D01*
X121789999Y-115552797D01*
X121800500Y-115450009D01*
X121800499Y-114249992D01*
X121789999Y-114147203D01*
X121734814Y-113980666D01*
X121642712Y-113831344D01*
X121518656Y-113707288D01*
X121369334Y-113615186D01*
X121202797Y-113560001D01*
X121202795Y-113560000D01*
X121100010Y-113549500D01*
X119899998Y-113549500D01*
X119899981Y-113549501D01*
X119797203Y-113560000D01*
X119797200Y-113560001D01*
X119630668Y-113615185D01*
X119630663Y-113615187D01*
X119481342Y-113707289D01*
X119357289Y-113831342D01*
X119265187Y-113980663D01*
X119265185Y-113980668D01*
X119255465Y-114010001D01*
X119210001Y-114147203D01*
X119210001Y-114147204D01*
X119210000Y-114147204D01*
X119199500Y-114249983D01*
X85390500Y-114249983D01*
X85390500Y-108353389D01*
X104529500Y-108353389D01*
X104529500Y-108526611D01*
X104529596Y-108527219D01*
X104552522Y-108671971D01*
X104556598Y-108697701D01*
X104566344Y-108727697D01*
X104610128Y-108862447D01*
X104688768Y-109016788D01*
X104790586Y-109156928D01*
X104913072Y-109279414D01*
X105053212Y-109381232D01*
X105207555Y-109459873D01*
X105372299Y-109513402D01*
X105543389Y-109540500D01*
X105543390Y-109540500D01*
X105716610Y-109540500D01*
X105716611Y-109540500D01*
X105887701Y-109513402D01*
X106052445Y-109459873D01*
X106206788Y-109381232D01*
X106346928Y-109279414D01*
X106469414Y-109156928D01*
X106571232Y-109016788D01*
X106649873Y-108862445D01*
X106703402Y-108697701D01*
X106730500Y-108526611D01*
X106730500Y-108353389D01*
X106720854Y-108292486D01*
X108459500Y-108292486D01*
X108459500Y-108587513D01*
X108477957Y-108727701D01*
X108498007Y-108879993D01*
X108572212Y-109156930D01*
X108574361Y-109164951D01*
X108574364Y-109164961D01*
X108687254Y-109437500D01*
X108687258Y-109437510D01*
X108834761Y-109692993D01*
X109014352Y-109927040D01*
X109014358Y-109927047D01*
X109222952Y-110135641D01*
X109222959Y-110135647D01*
X109457006Y-110315238D01*
X109712489Y-110462741D01*
X109712490Y-110462741D01*
X109712493Y-110462743D01*
X109985048Y-110575639D01*
X110270007Y-110651993D01*
X110562494Y-110690500D01*
X110562501Y-110690500D01*
X110857499Y-110690500D01*
X110857506Y-110690500D01*
X111149993Y-110651993D01*
X111434952Y-110575639D01*
X111707507Y-110462743D01*
X111962994Y-110315238D01*
X112197042Y-110135646D01*
X112405646Y-109927042D01*
X112585238Y-109692994D01*
X112732743Y-109437507D01*
X112845639Y-109164952D01*
X112921993Y-108879993D01*
X112960500Y-108587506D01*
X112960500Y-108353389D01*
X114689500Y-108353389D01*
X114689500Y-108526611D01*
X114689596Y-108527219D01*
X114712522Y-108671971D01*
X114716598Y-108697701D01*
X114726344Y-108727697D01*
X114770128Y-108862447D01*
X114848768Y-109016788D01*
X114950586Y-109156928D01*
X115073072Y-109279414D01*
X115213212Y-109381232D01*
X115367555Y-109459873D01*
X115532299Y-109513402D01*
X115703389Y-109540500D01*
X115703390Y-109540500D01*
X115876610Y-109540500D01*
X115876611Y-109540500D01*
X116047701Y-109513402D01*
X116212445Y-109459873D01*
X116366788Y-109381232D01*
X116506928Y-109279414D01*
X116629414Y-109156928D01*
X116731232Y-109016788D01*
X116809873Y-108862445D01*
X116863402Y-108697701D01*
X116890500Y-108526611D01*
X116890500Y-108353389D01*
X116863402Y-108182299D01*
X116809873Y-108017555D01*
X116731232Y-107863212D01*
X116629414Y-107723072D01*
X116506928Y-107600586D01*
X116366788Y-107498768D01*
X116212445Y-107420127D01*
X116047701Y-107366598D01*
X116047699Y-107366597D01*
X116047698Y-107366597D01*
X115916271Y-107345781D01*
X115876611Y-107339500D01*
X115703389Y-107339500D01*
X115663728Y-107345781D01*
X115532302Y-107366597D01*
X115367552Y-107420128D01*
X115213211Y-107498768D01*
X115163984Y-107534534D01*
X115073072Y-107600586D01*
X115073070Y-107600588D01*
X115073069Y-107600588D01*
X114950588Y-107723069D01*
X114950588Y-107723070D01*
X114950586Y-107723072D01*
X114922584Y-107761613D01*
X114848768Y-107863211D01*
X114770128Y-108017552D01*
X114716597Y-108182302D01*
X114694393Y-108322494D01*
X114689500Y-108353389D01*
X112960500Y-108353389D01*
X112960500Y-108292494D01*
X112921993Y-108000007D01*
X112845639Y-107715048D01*
X112732743Y-107442493D01*
X112715854Y-107413241D01*
X112585238Y-107187006D01*
X112405647Y-106952959D01*
X112405641Y-106952952D01*
X112197047Y-106744358D01*
X112197040Y-106744352D01*
X111962993Y-106564761D01*
X111707510Y-106417258D01*
X111707500Y-106417254D01*
X111434961Y-106304364D01*
X111434954Y-106304362D01*
X111434952Y-106304361D01*
X111149993Y-106228007D01*
X111085377Y-106219500D01*
X110857513Y-106189500D01*
X110857506Y-106189500D01*
X110562494Y-106189500D01*
X110562486Y-106189500D01*
X110284085Y-106226153D01*
X110270007Y-106228007D01*
X110158045Y-106258007D01*
X109985048Y-106304361D01*
X109985038Y-106304364D01*
X109712499Y-106417254D01*
X109712489Y-106417258D01*
X109457006Y-106564761D01*
X109222959Y-106744352D01*
X109222952Y-106744358D01*
X109014358Y-106952952D01*
X109014352Y-106952959D01*
X108834761Y-107187006D01*
X108687258Y-107442489D01*
X108687254Y-107442499D01*
X108574364Y-107715038D01*
X108574361Y-107715048D01*
X108526623Y-107893212D01*
X108498008Y-108000004D01*
X108498006Y-108000015D01*
X108459500Y-108292486D01*
X106720854Y-108292486D01*
X106703402Y-108182299D01*
X106649873Y-108017555D01*
X106571232Y-107863212D01*
X106469414Y-107723072D01*
X106417482Y-107671140D01*
X106383997Y-107609817D01*
X106388981Y-107540125D01*
X106430853Y-107484192D01*
X106496317Y-107459775D01*
X106524561Y-107460986D01*
X106525212Y-107461089D01*
X106525215Y-107461090D01*
X106774038Y-107500500D01*
X106774039Y-107500500D01*
X107025961Y-107500500D01*
X107025962Y-107500500D01*
X107274785Y-107461090D01*
X107514379Y-107383241D01*
X107738845Y-107268870D01*
X107942656Y-107120793D01*
X108120793Y-106942656D01*
X108268870Y-106738845D01*
X108383241Y-106514379D01*
X108461090Y-106274785D01*
X108500500Y-106025962D01*
X108500500Y-105774038D01*
X108461090Y-105525215D01*
X108383241Y-105285621D01*
X108383239Y-105285618D01*
X108383239Y-105285616D01*
X108341747Y-105204184D01*
X108268870Y-105061155D01*
X108195740Y-104960500D01*
X108120798Y-104857350D01*
X108120794Y-104857345D01*
X107942654Y-104679205D01*
X107942649Y-104679201D01*
X107738848Y-104531132D01*
X107738847Y-104531131D01*
X107738845Y-104531130D01*
X107668747Y-104495413D01*
X107514383Y-104416760D01*
X107274785Y-104338910D01*
X107241884Y-104333699D01*
X107025962Y-104299500D01*
X106774038Y-104299500D01*
X106649626Y-104319205D01*
X106525214Y-104338910D01*
X106285616Y-104416760D01*
X106061151Y-104531132D01*
X105857350Y-104679201D01*
X105857345Y-104679205D01*
X105679205Y-104857345D01*
X105679201Y-104857350D01*
X105531132Y-105061151D01*
X105416760Y-105285616D01*
X105338910Y-105525214D01*
X105334158Y-105555215D01*
X105299500Y-105774038D01*
X105299500Y-106025962D01*
X105309331Y-106088034D01*
X105338910Y-106274785D01*
X105416760Y-106514383D01*
X105457716Y-106594762D01*
X105527021Y-106730781D01*
X105531132Y-106738848D01*
X105679201Y-106942649D01*
X105679205Y-106942654D01*
X105679207Y-106942656D01*
X105857344Y-107120793D01*
X105857345Y-107120794D01*
X105857344Y-107120794D01*
X105863661Y-107125383D01*
X105906327Y-107180714D01*
X105912305Y-107250327D01*
X105879699Y-107312122D01*
X105818860Y-107346479D01*
X105771378Y-107348174D01*
X105716611Y-107339500D01*
X105543389Y-107339500D01*
X105503728Y-107345781D01*
X105372302Y-107366597D01*
X105207552Y-107420128D01*
X105053211Y-107498768D01*
X105003984Y-107534534D01*
X104913072Y-107600586D01*
X104913070Y-107600588D01*
X104913069Y-107600588D01*
X104790588Y-107723069D01*
X104790588Y-107723070D01*
X104790586Y-107723072D01*
X104762584Y-107761613D01*
X104688768Y-107863211D01*
X104610128Y-108017552D01*
X104556597Y-108182302D01*
X104534393Y-108322494D01*
X104529500Y-108353389D01*
X85390500Y-108353389D01*
X85390500Y-103234038D01*
X111649500Y-103234038D01*
X111649500Y-103485962D01*
X111654252Y-103515962D01*
X111688910Y-103734785D01*
X111766760Y-103974383D01*
X111881132Y-104198848D01*
X112029201Y-104402649D01*
X112029205Y-104402654D01*
X112207345Y-104580794D01*
X112207350Y-104580798D01*
X112384083Y-104709201D01*
X112411155Y-104728870D01*
X112554184Y-104801747D01*
X112635616Y-104843239D01*
X112635618Y-104843239D01*
X112635621Y-104843241D01*
X112875215Y-104921090D01*
X113124038Y-104960500D01*
X113124039Y-104960500D01*
X113375961Y-104960500D01*
X113375962Y-104960500D01*
X113624785Y-104921090D01*
X113864379Y-104843241D01*
X114088845Y-104728870D01*
X114292656Y-104580793D01*
X114470793Y-104402656D01*
X114618870Y-104198845D01*
X114705815Y-104028204D01*
X114753789Y-103977409D01*
X114816300Y-103960500D01*
X116329903Y-103960500D01*
X116396942Y-103980185D01*
X116417584Y-103996819D01*
X119205922Y-106785157D01*
X119239407Y-106846480D01*
X119236173Y-106911155D01*
X119231522Y-106925468D01*
X119200586Y-107120793D01*
X119199500Y-107127648D01*
X119199500Y-107332352D01*
X119201738Y-107346479D01*
X119231522Y-107534534D01*
X119294781Y-107729223D01*
X119358691Y-107854653D01*
X119378338Y-107893211D01*
X119387715Y-107911613D01*
X119508028Y-108077213D01*
X119652786Y-108221971D01*
X119791136Y-108322486D01*
X119818390Y-108342287D01*
X119934607Y-108401503D01*
X120000776Y-108435218D01*
X120000778Y-108435218D01*
X120000781Y-108435220D01*
X120105137Y-108469127D01*
X120195465Y-108498477D01*
X120296557Y-108514488D01*
X120397648Y-108530500D01*
X120397649Y-108530500D01*
X120602351Y-108530500D01*
X120602352Y-108530500D01*
X120804534Y-108498477D01*
X120999219Y-108435220D01*
X121181610Y-108342287D01*
X121274590Y-108274732D01*
X121347213Y-108221971D01*
X121347215Y-108221968D01*
X121347219Y-108221966D01*
X121491966Y-108077219D01*
X121491968Y-108077215D01*
X121491971Y-108077213D01*
X121544732Y-108004590D01*
X121612287Y-107911610D01*
X121705220Y-107729219D01*
X121768477Y-107534534D01*
X121800500Y-107332352D01*
X121800500Y-107127648D01*
X121772832Y-106952959D01*
X121768477Y-106925465D01*
X121722888Y-106785157D01*
X121705220Y-106730781D01*
X121705218Y-106730778D01*
X121705218Y-106730776D01*
X121656497Y-106635157D01*
X121612287Y-106548390D01*
X121587577Y-106514379D01*
X121491971Y-106382786D01*
X121347213Y-106238028D01*
X121181613Y-106117715D01*
X121181612Y-106117714D01*
X121181610Y-106117713D01*
X121087095Y-106069555D01*
X120999223Y-106024781D01*
X120804534Y-105961522D01*
X120629995Y-105933878D01*
X120602352Y-105929500D01*
X120397648Y-105929500D01*
X120359599Y-105935526D01*
X120195468Y-105961522D01*
X120186717Y-105964365D01*
X120181154Y-105966173D01*
X120111313Y-105968167D01*
X120055157Y-105935922D01*
X117117590Y-102998355D01*
X117117588Y-102998352D01*
X116998717Y-102879481D01*
X116998716Y-102879480D01*
X116911904Y-102829360D01*
X116911904Y-102829359D01*
X116911900Y-102829358D01*
X116861785Y-102800423D01*
X116709057Y-102759499D01*
X116550943Y-102759499D01*
X116543347Y-102759499D01*
X116543331Y-102759500D01*
X114816300Y-102759500D01*
X114749261Y-102739815D01*
X114705815Y-102691795D01*
X114618870Y-102521155D01*
X114492590Y-102347345D01*
X114470798Y-102317350D01*
X114470794Y-102317345D01*
X114292654Y-102139205D01*
X114292649Y-102139201D01*
X114088848Y-101991132D01*
X114088847Y-101991131D01*
X114088845Y-101991130D01*
X114018747Y-101955413D01*
X113864383Y-101876760D01*
X113624785Y-101798910D01*
X113565373Y-101789500D01*
X113375962Y-101759500D01*
X113124038Y-101759500D01*
X112999626Y-101779205D01*
X112875214Y-101798910D01*
X112635616Y-101876760D01*
X112411151Y-101991132D01*
X112207350Y-102139201D01*
X112207345Y-102139205D01*
X112029205Y-102317345D01*
X112029201Y-102317350D01*
X111881132Y-102521151D01*
X111766760Y-102745616D01*
X111688910Y-102985214D01*
X111684158Y-103015215D01*
X111649500Y-103234038D01*
X85390500Y-103234038D01*
X85390500Y-95749983D01*
X119199500Y-95749983D01*
X119199500Y-96950001D01*
X119199501Y-96950018D01*
X119210000Y-97052796D01*
X119210001Y-97052799D01*
X119215481Y-97069336D01*
X119265186Y-97219334D01*
X119357288Y-97368656D01*
X119481344Y-97492712D01*
X119630666Y-97584814D01*
X119797203Y-97639999D01*
X119899991Y-97650500D01*
X121100008Y-97650499D01*
X121202797Y-97639999D01*
X121369334Y-97584814D01*
X121518656Y-97492712D01*
X121642712Y-97368656D01*
X121734814Y-97219334D01*
X121789999Y-97052797D01*
X121800500Y-96950009D01*
X121800499Y-95749992D01*
X121789999Y-95647203D01*
X121734814Y-95480666D01*
X121642712Y-95331344D01*
X121518656Y-95207288D01*
X121369334Y-95115186D01*
X121202797Y-95060001D01*
X121202795Y-95060000D01*
X121100010Y-95049500D01*
X119899998Y-95049500D01*
X119899981Y-95049501D01*
X119797203Y-95060000D01*
X119797200Y-95060001D01*
X119630668Y-95115185D01*
X119630663Y-95115187D01*
X119481342Y-95207289D01*
X119357289Y-95331342D01*
X119265187Y-95480663D01*
X119265186Y-95480666D01*
X119210001Y-95647203D01*
X119210001Y-95647204D01*
X119210000Y-95647204D01*
X119199500Y-95749983D01*
X85390500Y-95749983D01*
X85390500Y-89303389D01*
X104529500Y-89303389D01*
X104529500Y-89476610D01*
X104544603Y-89571971D01*
X104556598Y-89647701D01*
X104610127Y-89812445D01*
X104688768Y-89966788D01*
X104790586Y-90106928D01*
X104913072Y-90229414D01*
X105053212Y-90331232D01*
X105207555Y-90409873D01*
X105372299Y-90463402D01*
X105543389Y-90490500D01*
X105543390Y-90490500D01*
X105716610Y-90490500D01*
X105716611Y-90490500D01*
X105887701Y-90463402D01*
X106052445Y-90409873D01*
X106206788Y-90331232D01*
X106346928Y-90229414D01*
X106469414Y-90106928D01*
X106571232Y-89966788D01*
X106649873Y-89812445D01*
X106703402Y-89647701D01*
X106730500Y-89476611D01*
X106730500Y-89303389D01*
X106720854Y-89242486D01*
X108459500Y-89242486D01*
X108459500Y-89537513D01*
X108491571Y-89781113D01*
X108498007Y-89829993D01*
X108572212Y-90106930D01*
X108574361Y-90114951D01*
X108574364Y-90114961D01*
X108687254Y-90387500D01*
X108687258Y-90387510D01*
X108834761Y-90642993D01*
X109014352Y-90877040D01*
X109014358Y-90877047D01*
X109222952Y-91085641D01*
X109222959Y-91085647D01*
X109457006Y-91265238D01*
X109712489Y-91412741D01*
X109712490Y-91412741D01*
X109712493Y-91412743D01*
X109985048Y-91525639D01*
X110270007Y-91601993D01*
X110562494Y-91640500D01*
X110562501Y-91640500D01*
X110857499Y-91640500D01*
X110857506Y-91640500D01*
X111149993Y-91601993D01*
X111434952Y-91525639D01*
X111707507Y-91412743D01*
X111962994Y-91265238D01*
X112197042Y-91085646D01*
X112405646Y-90877042D01*
X112585238Y-90642994D01*
X112732743Y-90387507D01*
X112845639Y-90114952D01*
X112921993Y-89829993D01*
X112960500Y-89537506D01*
X112960500Y-89303389D01*
X114689500Y-89303389D01*
X114689500Y-89476610D01*
X114704603Y-89571971D01*
X114716598Y-89647701D01*
X114770127Y-89812445D01*
X114848768Y-89966788D01*
X114950586Y-90106928D01*
X115073072Y-90229414D01*
X115213212Y-90331232D01*
X115367555Y-90409873D01*
X115532299Y-90463402D01*
X115703389Y-90490500D01*
X115703390Y-90490500D01*
X115876610Y-90490500D01*
X115876611Y-90490500D01*
X116047701Y-90463402D01*
X116212445Y-90409873D01*
X116366788Y-90331232D01*
X116506928Y-90229414D01*
X116629414Y-90106928D01*
X116731232Y-89966788D01*
X116809873Y-89812445D01*
X116863402Y-89647701D01*
X116890500Y-89476611D01*
X116890500Y-89303389D01*
X116863402Y-89132299D01*
X116809873Y-88967555D01*
X116731232Y-88813212D01*
X116629414Y-88673072D01*
X116506928Y-88550586D01*
X116366788Y-88448768D01*
X116212445Y-88370127D01*
X116047701Y-88316598D01*
X116047699Y-88316597D01*
X116047698Y-88316597D01*
X115916271Y-88295781D01*
X115876611Y-88289500D01*
X115703389Y-88289500D01*
X115663728Y-88295781D01*
X115532302Y-88316597D01*
X115367552Y-88370128D01*
X115213211Y-88448768D01*
X115173462Y-88477648D01*
X115073072Y-88550586D01*
X115073070Y-88550588D01*
X115073069Y-88550588D01*
X114950588Y-88673069D01*
X114950588Y-88673070D01*
X114950586Y-88673072D01*
X114943844Y-88682352D01*
X114848768Y-88813211D01*
X114770128Y-88967552D01*
X114716597Y-89132302D01*
X114689500Y-89303389D01*
X112960500Y-89303389D01*
X112960500Y-89242494D01*
X112921993Y-88950007D01*
X112845639Y-88665048D01*
X112732743Y-88392493D01*
X112706177Y-88346480D01*
X112585238Y-88137006D01*
X112405647Y-87902959D01*
X112405641Y-87902952D01*
X112197047Y-87694358D01*
X112197040Y-87694352D01*
X111962993Y-87514761D01*
X111707510Y-87367258D01*
X111707500Y-87367254D01*
X111434961Y-87254364D01*
X111434954Y-87254362D01*
X111434952Y-87254361D01*
X111149993Y-87178007D01*
X111101113Y-87171571D01*
X110857513Y-87139500D01*
X110857506Y-87139500D01*
X110562494Y-87139500D01*
X110562486Y-87139500D01*
X110284085Y-87176153D01*
X110270007Y-87178007D01*
X110095428Y-87224785D01*
X109985048Y-87254361D01*
X109985038Y-87254364D01*
X109712499Y-87367254D01*
X109712489Y-87367258D01*
X109457006Y-87514761D01*
X109222959Y-87694352D01*
X109222952Y-87694358D01*
X109014358Y-87902952D01*
X109014352Y-87902959D01*
X108834761Y-88137006D01*
X108687258Y-88392489D01*
X108687254Y-88392499D01*
X108574364Y-88665038D01*
X108574361Y-88665048D01*
X108548488Y-88761610D01*
X108498008Y-88950004D01*
X108498006Y-88950015D01*
X108459500Y-89242486D01*
X106720854Y-89242486D01*
X106703402Y-89132299D01*
X106649873Y-88967555D01*
X106571232Y-88813212D01*
X106469414Y-88673072D01*
X106417482Y-88621140D01*
X106383997Y-88559817D01*
X106388981Y-88490125D01*
X106430853Y-88434192D01*
X106496317Y-88409775D01*
X106524561Y-88410986D01*
X106525212Y-88411089D01*
X106525215Y-88411090D01*
X106774038Y-88450500D01*
X106774039Y-88450500D01*
X107025961Y-88450500D01*
X107025962Y-88450500D01*
X107274785Y-88411090D01*
X107514379Y-88333241D01*
X107738845Y-88218870D01*
X107942656Y-88070793D01*
X108120793Y-87892656D01*
X108268870Y-87688845D01*
X108383241Y-87464379D01*
X108461090Y-87224785D01*
X108500500Y-86975962D01*
X108500500Y-86724038D01*
X108461090Y-86475215D01*
X108383241Y-86235621D01*
X108383239Y-86235618D01*
X108383239Y-86235616D01*
X108341747Y-86154184D01*
X108268870Y-86011155D01*
X108249952Y-85985117D01*
X108120798Y-85807350D01*
X108120794Y-85807345D01*
X107942654Y-85629205D01*
X107942649Y-85629201D01*
X107738848Y-85481132D01*
X107738847Y-85481131D01*
X107738845Y-85481130D01*
X107668747Y-85445413D01*
X107514383Y-85366760D01*
X107274785Y-85288910D01*
X107025962Y-85249500D01*
X106774038Y-85249500D01*
X106710901Y-85259500D01*
X106525214Y-85288910D01*
X106285616Y-85366760D01*
X106061151Y-85481132D01*
X105857350Y-85629201D01*
X105857345Y-85629205D01*
X105679205Y-85807345D01*
X105679201Y-85807350D01*
X105531132Y-86011151D01*
X105416760Y-86235616D01*
X105338910Y-86475214D01*
X105299500Y-86724038D01*
X105299500Y-86975961D01*
X105338910Y-87224785D01*
X105416760Y-87464383D01*
X105531132Y-87688848D01*
X105679201Y-87892649D01*
X105679205Y-87892654D01*
X105679207Y-87892656D01*
X105857344Y-88070793D01*
X105857345Y-88070794D01*
X105857344Y-88070794D01*
X105863661Y-88075383D01*
X105906327Y-88130714D01*
X105912305Y-88200327D01*
X105879699Y-88262122D01*
X105818860Y-88296479D01*
X105771378Y-88298174D01*
X105716611Y-88289500D01*
X105543389Y-88289500D01*
X105503728Y-88295781D01*
X105372302Y-88316597D01*
X105207552Y-88370128D01*
X105053211Y-88448768D01*
X105013462Y-88477648D01*
X104913072Y-88550586D01*
X104913070Y-88550588D01*
X104913069Y-88550588D01*
X104790588Y-88673069D01*
X104790588Y-88673070D01*
X104790586Y-88673072D01*
X104783844Y-88682352D01*
X104688768Y-88813211D01*
X104610128Y-88967552D01*
X104556597Y-89132302D01*
X104529500Y-89303389D01*
X85390500Y-89303389D01*
X85390500Y-84184038D01*
X111649500Y-84184038D01*
X111649500Y-84435961D01*
X111688910Y-84684785D01*
X111766760Y-84924383D01*
X111881132Y-85148848D01*
X112029201Y-85352649D01*
X112029205Y-85352654D01*
X112207345Y-85530794D01*
X112207350Y-85530798D01*
X112356555Y-85639201D01*
X112411155Y-85678870D01*
X112554184Y-85751747D01*
X112635616Y-85793239D01*
X112635618Y-85793239D01*
X112635621Y-85793241D01*
X112875215Y-85871090D01*
X113124038Y-85910500D01*
X113124039Y-85910500D01*
X113375961Y-85910500D01*
X113375962Y-85910500D01*
X113624785Y-85871090D01*
X113864379Y-85793241D01*
X114088845Y-85678870D01*
X114292656Y-85530793D01*
X114470793Y-85352656D01*
X114618870Y-85148845D01*
X114705815Y-84978204D01*
X114753789Y-84927409D01*
X114816300Y-84910500D01*
X115779903Y-84910500D01*
X115846942Y-84930185D01*
X115867584Y-84946819D01*
X119205922Y-88285157D01*
X119239407Y-88346480D01*
X119236173Y-88411155D01*
X119231522Y-88425468D01*
X119199500Y-88627648D01*
X119199500Y-88832351D01*
X119231522Y-89034534D01*
X119294781Y-89229223D01*
X119387715Y-89411613D01*
X119508028Y-89577213D01*
X119652786Y-89721971D01*
X119791082Y-89822447D01*
X119818390Y-89842287D01*
X119934607Y-89901503D01*
X120000776Y-89935218D01*
X120000778Y-89935218D01*
X120000781Y-89935220D01*
X120097937Y-89966788D01*
X120195465Y-89998477D01*
X120296557Y-90014488D01*
X120397648Y-90030500D01*
X120397649Y-90030500D01*
X120602351Y-90030500D01*
X120602352Y-90030500D01*
X120804534Y-89998477D01*
X120999219Y-89935220D01*
X121181610Y-89842287D01*
X121274590Y-89774732D01*
X121347213Y-89721971D01*
X121347215Y-89721968D01*
X121347219Y-89721966D01*
X121491966Y-89577219D01*
X121491968Y-89577215D01*
X121491971Y-89577213D01*
X121600946Y-89427219D01*
X121612287Y-89411610D01*
X121667428Y-89303389D01*
X123579500Y-89303389D01*
X123579500Y-89476610D01*
X123594603Y-89571971D01*
X123606598Y-89647701D01*
X123660127Y-89812445D01*
X123738768Y-89966788D01*
X123840586Y-90106928D01*
X123963072Y-90229414D01*
X124103212Y-90331232D01*
X124257555Y-90409873D01*
X124422299Y-90463402D01*
X124593389Y-90490500D01*
X124593390Y-90490500D01*
X124766610Y-90490500D01*
X124766611Y-90490500D01*
X124937701Y-90463402D01*
X125102445Y-90409873D01*
X125169206Y-90375856D01*
X125237874Y-90362961D01*
X125302615Y-90389237D01*
X125342872Y-90446344D01*
X125349500Y-90486342D01*
X125349500Y-104333699D01*
X125329815Y-104400738D01*
X125281795Y-104444184D01*
X125111151Y-104531132D01*
X124907350Y-104679201D01*
X124907345Y-104679205D01*
X124729205Y-104857345D01*
X124729201Y-104857350D01*
X124581132Y-105061151D01*
X124466760Y-105285616D01*
X124388910Y-105525214D01*
X124384158Y-105555215D01*
X124349500Y-105774038D01*
X124349500Y-106025962D01*
X124359331Y-106088034D01*
X124388910Y-106274785D01*
X124466760Y-106514383D01*
X124507716Y-106594762D01*
X124577021Y-106730781D01*
X124581132Y-106738848D01*
X124729201Y-106942649D01*
X124729205Y-106942654D01*
X124729207Y-106942656D01*
X124907344Y-107120793D01*
X124907345Y-107120794D01*
X124907344Y-107120794D01*
X124913661Y-107125383D01*
X124956327Y-107180714D01*
X124962305Y-107250327D01*
X124929699Y-107312122D01*
X124868860Y-107346479D01*
X124821378Y-107348174D01*
X124766611Y-107339500D01*
X124593389Y-107339500D01*
X124553728Y-107345781D01*
X124422302Y-107366597D01*
X124257552Y-107420128D01*
X124103211Y-107498768D01*
X124053984Y-107534534D01*
X123963072Y-107600586D01*
X123963070Y-107600588D01*
X123963069Y-107600588D01*
X123840588Y-107723069D01*
X123840588Y-107723070D01*
X123840586Y-107723072D01*
X123812584Y-107761613D01*
X123738768Y-107863211D01*
X123660128Y-108017552D01*
X123606597Y-108182302D01*
X123584393Y-108322494D01*
X123579500Y-108353389D01*
X123579500Y-108526611D01*
X123579596Y-108527219D01*
X123602522Y-108671971D01*
X123606598Y-108697701D01*
X123616344Y-108727697D01*
X123660128Y-108862447D01*
X123738768Y-109016788D01*
X123840586Y-109156928D01*
X123963072Y-109279414D01*
X124103212Y-109381232D01*
X124257555Y-109459873D01*
X124422299Y-109513402D01*
X124593389Y-109540500D01*
X124593390Y-109540500D01*
X124766610Y-109540500D01*
X124766611Y-109540500D01*
X124937701Y-109513402D01*
X125102445Y-109459873D01*
X125169206Y-109425856D01*
X125237874Y-109412961D01*
X125302615Y-109439237D01*
X125342872Y-109496344D01*
X125349500Y-109536342D01*
X125349500Y-123383699D01*
X125329815Y-123450738D01*
X125281795Y-123494184D01*
X125111151Y-123581132D01*
X124907350Y-123729201D01*
X124907345Y-123729205D01*
X124729205Y-123907345D01*
X124729201Y-123907350D01*
X124581132Y-124111151D01*
X124466760Y-124335616D01*
X124388910Y-124575214D01*
X124356554Y-124779500D01*
X124349500Y-124824038D01*
X124349500Y-125075962D01*
X124356113Y-125117713D01*
X124388910Y-125324785D01*
X124466760Y-125564383D01*
X124512811Y-125654762D01*
X124567021Y-125761155D01*
X124581132Y-125788848D01*
X124729201Y-125992649D01*
X124729205Y-125992654D01*
X124729207Y-125992656D01*
X124907344Y-126170793D01*
X124907345Y-126170794D01*
X124907344Y-126170794D01*
X124913661Y-126175383D01*
X124956327Y-126230714D01*
X124962305Y-126300327D01*
X124929699Y-126362122D01*
X124868860Y-126396479D01*
X124821378Y-126398174D01*
X124766611Y-126389500D01*
X124593389Y-126389500D01*
X124553728Y-126395781D01*
X124422302Y-126416597D01*
X124257552Y-126470128D01*
X124103211Y-126548768D01*
X124061294Y-126579223D01*
X123963072Y-126650586D01*
X123963070Y-126650588D01*
X123963069Y-126650588D01*
X123840588Y-126773069D01*
X123840588Y-126773070D01*
X123840586Y-126773072D01*
X123811526Y-126813070D01*
X123738768Y-126913211D01*
X123660128Y-127067552D01*
X123606597Y-127232302D01*
X123583125Y-127380500D01*
X123579500Y-127403389D01*
X123579500Y-127576611D01*
X123606598Y-127747701D01*
X123660127Y-127912445D01*
X123738768Y-128066788D01*
X123840586Y-128206928D01*
X123963072Y-128329414D01*
X124103212Y-128431232D01*
X124257555Y-128509873D01*
X124422299Y-128563402D01*
X124593389Y-128590500D01*
X124593390Y-128590500D01*
X124766610Y-128590500D01*
X124766611Y-128590500D01*
X124937701Y-128563402D01*
X125102445Y-128509873D01*
X125169206Y-128475856D01*
X125237874Y-128462961D01*
X125302615Y-128489237D01*
X125342872Y-128546344D01*
X125349500Y-128586342D01*
X125349500Y-142433699D01*
X125329815Y-142500738D01*
X125281795Y-142544184D01*
X125111151Y-142631132D01*
X124907350Y-142779201D01*
X124907345Y-142779205D01*
X124729205Y-142957345D01*
X124729201Y-142957350D01*
X124581132Y-143161151D01*
X124466760Y-143385616D01*
X124388910Y-143625214D01*
X124349500Y-143874038D01*
X124349500Y-144125961D01*
X124388910Y-144374785D01*
X124466760Y-144614383D01*
X124581132Y-144838848D01*
X124729201Y-145042649D01*
X124729205Y-145042654D01*
X124729207Y-145042656D01*
X124907344Y-145220793D01*
X124907345Y-145220794D01*
X124907344Y-145220794D01*
X124913661Y-145225383D01*
X124956327Y-145280714D01*
X124962305Y-145350327D01*
X124929699Y-145412122D01*
X124868860Y-145446479D01*
X124821378Y-145448174D01*
X124766611Y-145439500D01*
X124593389Y-145439500D01*
X124553728Y-145445781D01*
X124422302Y-145466597D01*
X124257552Y-145520128D01*
X124103211Y-145598768D01*
X124063462Y-145627648D01*
X123963072Y-145700586D01*
X123963070Y-145700588D01*
X123963069Y-145700588D01*
X123840588Y-145823069D01*
X123840588Y-145823070D01*
X123840586Y-145823072D01*
X123812584Y-145861613D01*
X123738768Y-145963211D01*
X123660128Y-146117552D01*
X123606597Y-146282302D01*
X123579500Y-146453389D01*
X123579500Y-146626610D01*
X123594603Y-146721971D01*
X123606598Y-146797701D01*
X123660127Y-146962445D01*
X123738768Y-147116788D01*
X123840586Y-147256928D01*
X123963072Y-147379414D01*
X124103212Y-147481232D01*
X124257555Y-147559873D01*
X124422299Y-147613402D01*
X124593389Y-147640500D01*
X124593390Y-147640500D01*
X124766610Y-147640500D01*
X124766611Y-147640500D01*
X124937701Y-147613402D01*
X125102445Y-147559873D01*
X125256788Y-147481232D01*
X125396928Y-147379414D01*
X125519414Y-147256928D01*
X125621232Y-147116788D01*
X125699873Y-146962445D01*
X125753402Y-146797701D01*
X125780500Y-146626611D01*
X125780500Y-146453389D01*
X125770854Y-146392486D01*
X127509500Y-146392486D01*
X127509500Y-146687513D01*
X127529877Y-146842284D01*
X127548007Y-146979993D01*
X127622212Y-147256930D01*
X127624361Y-147264951D01*
X127624364Y-147264961D01*
X127737254Y-147537500D01*
X127737258Y-147537510D01*
X127884761Y-147792993D01*
X128064352Y-148027040D01*
X128064358Y-148027047D01*
X128272952Y-148235641D01*
X128272959Y-148235647D01*
X128507006Y-148415238D01*
X128762489Y-148562741D01*
X128762490Y-148562741D01*
X128762493Y-148562743D01*
X129035048Y-148675639D01*
X129320007Y-148751993D01*
X129612494Y-148790500D01*
X129612501Y-148790500D01*
X129907499Y-148790500D01*
X129907506Y-148790500D01*
X130199993Y-148751993D01*
X130484952Y-148675639D01*
X130757507Y-148562743D01*
X131012994Y-148415238D01*
X131247042Y-148235646D01*
X131455646Y-148027042D01*
X131635238Y-147792994D01*
X131782743Y-147537507D01*
X131895639Y-147264952D01*
X131971993Y-146979993D01*
X132010500Y-146687506D01*
X132010500Y-146453389D01*
X133739500Y-146453389D01*
X133739500Y-146626610D01*
X133754603Y-146721971D01*
X133766598Y-146797701D01*
X133820127Y-146962445D01*
X133898768Y-147116788D01*
X134000586Y-147256928D01*
X134123072Y-147379414D01*
X134263212Y-147481232D01*
X134417555Y-147559873D01*
X134582299Y-147613402D01*
X134753389Y-147640500D01*
X134753390Y-147640500D01*
X134926610Y-147640500D01*
X134926611Y-147640500D01*
X135097701Y-147613402D01*
X135262445Y-147559873D01*
X135416788Y-147481232D01*
X135556928Y-147379414D01*
X135679414Y-147256928D01*
X135781232Y-147116788D01*
X135859873Y-146962445D01*
X135913402Y-146797701D01*
X135940500Y-146626611D01*
X135940500Y-146453389D01*
X135913402Y-146282299D01*
X135859873Y-146117555D01*
X135781232Y-145963212D01*
X135679414Y-145823072D01*
X135556928Y-145700586D01*
X135416788Y-145598768D01*
X135262445Y-145520127D01*
X135097701Y-145466598D01*
X135097699Y-145466597D01*
X135097698Y-145466597D01*
X134966271Y-145445781D01*
X134926611Y-145439500D01*
X134753389Y-145439500D01*
X134713728Y-145445781D01*
X134582302Y-145466597D01*
X134417552Y-145520128D01*
X134263211Y-145598768D01*
X134223462Y-145627648D01*
X134123072Y-145700586D01*
X134123070Y-145700588D01*
X134123069Y-145700588D01*
X134000588Y-145823069D01*
X134000588Y-145823070D01*
X134000586Y-145823072D01*
X133972584Y-145861613D01*
X133898768Y-145963211D01*
X133820128Y-146117552D01*
X133766597Y-146282302D01*
X133739500Y-146453389D01*
X132010500Y-146453389D01*
X132010500Y-146392494D01*
X131971993Y-146100007D01*
X131895639Y-145815048D01*
X131782743Y-145542493D01*
X131749280Y-145484534D01*
X131635238Y-145287006D01*
X131455647Y-145052959D01*
X131455641Y-145052952D01*
X131247047Y-144844358D01*
X131247040Y-144844352D01*
X131012993Y-144664761D01*
X130757510Y-144517258D01*
X130757500Y-144517254D01*
X130484961Y-144404364D01*
X130484954Y-144404362D01*
X130484952Y-144404361D01*
X130199993Y-144328007D01*
X130151113Y-144321571D01*
X129907513Y-144289500D01*
X129907506Y-144289500D01*
X129612494Y-144289500D01*
X129612486Y-144289500D01*
X129334085Y-144326153D01*
X129320007Y-144328007D01*
X129145447Y-144374780D01*
X129035048Y-144404361D01*
X129035038Y-144404364D01*
X128762499Y-144517254D01*
X128762489Y-144517258D01*
X128507006Y-144664761D01*
X128272959Y-144844352D01*
X128272952Y-144844358D01*
X128064358Y-145052952D01*
X128064352Y-145052959D01*
X127884761Y-145287006D01*
X127737258Y-145542489D01*
X127737254Y-145542499D01*
X127624364Y-145815038D01*
X127624361Y-145815048D01*
X127548008Y-146100004D01*
X127548006Y-146100015D01*
X127509500Y-146392486D01*
X125770854Y-146392486D01*
X125753402Y-146282299D01*
X125699873Y-146117555D01*
X125621232Y-145963212D01*
X125519414Y-145823072D01*
X125467482Y-145771140D01*
X125433997Y-145709817D01*
X125438981Y-145640125D01*
X125480853Y-145584192D01*
X125546317Y-145559775D01*
X125574561Y-145560986D01*
X125575212Y-145561089D01*
X125575215Y-145561090D01*
X125824038Y-145600500D01*
X125824039Y-145600500D01*
X126075961Y-145600500D01*
X126075962Y-145600500D01*
X126324785Y-145561090D01*
X126564379Y-145483241D01*
X126788845Y-145368870D01*
X126992656Y-145220793D01*
X127170793Y-145042656D01*
X127318870Y-144838845D01*
X127433241Y-144614379D01*
X127511090Y-144374785D01*
X127550500Y-144125962D01*
X127550500Y-143874038D01*
X127511090Y-143625215D01*
X127433241Y-143385621D01*
X127433239Y-143385618D01*
X127433239Y-143385616D01*
X127391747Y-143304184D01*
X127318870Y-143161155D01*
X127217107Y-143021090D01*
X127170798Y-142957350D01*
X127170794Y-142957345D01*
X126992654Y-142779205D01*
X126992649Y-142779201D01*
X126788848Y-142631132D01*
X126788847Y-142631131D01*
X126788845Y-142631130D01*
X126719186Y-142595637D01*
X126618205Y-142544184D01*
X126567409Y-142496209D01*
X126550500Y-142433699D01*
X126550500Y-141334038D01*
X130699500Y-141334038D01*
X130699500Y-141585961D01*
X130738910Y-141834785D01*
X130816760Y-142074383D01*
X130931132Y-142298848D01*
X131079201Y-142502649D01*
X131079205Y-142502654D01*
X131257345Y-142680794D01*
X131257350Y-142680798D01*
X131435117Y-142809952D01*
X131461155Y-142828870D01*
X131604184Y-142901747D01*
X131685616Y-142943239D01*
X131685618Y-142943239D01*
X131685621Y-142943241D01*
X131925215Y-143021090D01*
X132174038Y-143060500D01*
X132174039Y-143060500D01*
X132425961Y-143060500D01*
X132425962Y-143060500D01*
X132674785Y-143021090D01*
X132914379Y-142943241D01*
X133138845Y-142828870D01*
X133342656Y-142680793D01*
X133520793Y-142502656D01*
X133668870Y-142298845D01*
X133755815Y-142128204D01*
X133803789Y-142077409D01*
X133866300Y-142060500D01*
X135079903Y-142060500D01*
X135146942Y-142080185D01*
X135167584Y-142096819D01*
X138205922Y-145135157D01*
X138239407Y-145196480D01*
X138236173Y-145261155D01*
X138231522Y-145275468D01*
X138199500Y-145477648D01*
X138199500Y-145682351D01*
X138231522Y-145884534D01*
X138294781Y-146079223D01*
X138387715Y-146261613D01*
X138508028Y-146427213D01*
X138652786Y-146571971D01*
X138807749Y-146684556D01*
X138818390Y-146692287D01*
X138934607Y-146751503D01*
X139000776Y-146785218D01*
X139000778Y-146785218D01*
X139000781Y-146785220D01*
X139039194Y-146797701D01*
X139195465Y-146848477D01*
X139296557Y-146864488D01*
X139397648Y-146880500D01*
X139397649Y-146880500D01*
X139602351Y-146880500D01*
X139602352Y-146880500D01*
X139804534Y-146848477D01*
X139999219Y-146785220D01*
X140181610Y-146692287D01*
X140274590Y-146624732D01*
X140347213Y-146571971D01*
X140347215Y-146571968D01*
X140347219Y-146571966D01*
X140491966Y-146427219D01*
X140491968Y-146427215D01*
X140491971Y-146427213D01*
X140544732Y-146354590D01*
X140612287Y-146261610D01*
X140705220Y-146079219D01*
X140768477Y-145884534D01*
X140800500Y-145682352D01*
X140800500Y-145477648D01*
X140769568Y-145282352D01*
X140768477Y-145275465D01*
X140705218Y-145080776D01*
X140671503Y-145014607D01*
X140612287Y-144898390D01*
X140600950Y-144882786D01*
X140491971Y-144732786D01*
X140347213Y-144588028D01*
X140181613Y-144467715D01*
X140181612Y-144467714D01*
X140181610Y-144467713D01*
X140106613Y-144429500D01*
X139999223Y-144374781D01*
X139804534Y-144311522D01*
X139629995Y-144283878D01*
X139602352Y-144279500D01*
X139397648Y-144279500D01*
X139359599Y-144285526D01*
X139195468Y-144311522D01*
X139186717Y-144314365D01*
X139181154Y-144316173D01*
X139111313Y-144318167D01*
X139055157Y-144285922D01*
X135867590Y-141098355D01*
X135867588Y-141098352D01*
X135748717Y-140979481D01*
X135748716Y-140979480D01*
X135661904Y-140929360D01*
X135661904Y-140929359D01*
X135661900Y-140929358D01*
X135611785Y-140900423D01*
X135459057Y-140859499D01*
X135300943Y-140859499D01*
X135293347Y-140859499D01*
X135293331Y-140859500D01*
X133866300Y-140859500D01*
X133799261Y-140839815D01*
X133755815Y-140791795D01*
X133668870Y-140621155D01*
X133649952Y-140595117D01*
X133520798Y-140417350D01*
X133520794Y-140417345D01*
X133342654Y-140239205D01*
X133342649Y-140239201D01*
X133138848Y-140091132D01*
X133138847Y-140091131D01*
X133138845Y-140091130D01*
X133068747Y-140055413D01*
X132914383Y-139976760D01*
X132674785Y-139898910D01*
X132425962Y-139859500D01*
X132174038Y-139859500D01*
X132049626Y-139879205D01*
X131925214Y-139898910D01*
X131685616Y-139976760D01*
X131461151Y-140091132D01*
X131257350Y-140239201D01*
X131257345Y-140239205D01*
X131079205Y-140417345D01*
X131079201Y-140417350D01*
X130931132Y-140621151D01*
X130816760Y-140845616D01*
X130738910Y-141085214D01*
X130699500Y-141334038D01*
X126550500Y-141334038D01*
X126550500Y-138098543D01*
X139999499Y-138098543D01*
X140037947Y-138291829D01*
X140037950Y-138291839D01*
X140113364Y-138473907D01*
X140113371Y-138473920D01*
X140222860Y-138637781D01*
X140222863Y-138637785D01*
X140362214Y-138777136D01*
X140362218Y-138777139D01*
X140526079Y-138886628D01*
X140526092Y-138886635D01*
X140708160Y-138962049D01*
X140708165Y-138962051D01*
X140708169Y-138962051D01*
X140708170Y-138962052D01*
X140901456Y-139000500D01*
X140901459Y-139000500D01*
X141098543Y-139000500D01*
X141228582Y-138974632D01*
X141291835Y-138962051D01*
X141473914Y-138886632D01*
X141637782Y-138777139D01*
X141777139Y-138637782D01*
X141886632Y-138473914D01*
X141962051Y-138291835D01*
X142000500Y-138098541D01*
X142000500Y-137465782D01*
X142020185Y-137398743D01*
X142036819Y-137378101D01*
X143777136Y-135637784D01*
X143777139Y-135637781D01*
X143886631Y-135473914D01*
X143962051Y-135291836D01*
X144000500Y-135098540D01*
X144000500Y-134901460D01*
X144000500Y-134901457D01*
X144000499Y-134901455D01*
X143964273Y-134719336D01*
X143962051Y-134708164D01*
X143886631Y-134526086D01*
X143886629Y-134526083D01*
X143886627Y-134526079D01*
X143777139Y-134362219D01*
X143777136Y-134362215D01*
X143637784Y-134222863D01*
X143637780Y-134222860D01*
X143473920Y-134113372D01*
X143473910Y-134113367D01*
X143291836Y-134037949D01*
X143291828Y-134037947D01*
X143098543Y-133999500D01*
X143098540Y-133999500D01*
X142901460Y-133999500D01*
X142901457Y-133999500D01*
X142708171Y-134037947D01*
X142708163Y-134037949D01*
X142526089Y-134113367D01*
X142526079Y-134113372D01*
X142362219Y-134222860D01*
X142362215Y-134222863D01*
X141293251Y-135291828D01*
X140362221Y-136222858D01*
X140362218Y-136222861D01*
X140292538Y-136292540D01*
X140222859Y-136362219D01*
X140113371Y-136526079D01*
X140113364Y-136526092D01*
X140037950Y-136708160D01*
X140037947Y-136708170D01*
X139999500Y-136901456D01*
X139999500Y-136901459D01*
X139999500Y-138098541D01*
X139999500Y-138098543D01*
X139999499Y-138098543D01*
X126550500Y-138098543D01*
X126550500Y-133249983D01*
X138199500Y-133249983D01*
X138199500Y-134450001D01*
X138199501Y-134450018D01*
X138210000Y-134552796D01*
X138210001Y-134552799D01*
X138215481Y-134569336D01*
X138265186Y-134719334D01*
X138357288Y-134868656D01*
X138481344Y-134992712D01*
X138630666Y-135084814D01*
X138797203Y-135139999D01*
X138899991Y-135150500D01*
X140100008Y-135150499D01*
X140202797Y-135139999D01*
X140369334Y-135084814D01*
X140518656Y-134992712D01*
X140642712Y-134868656D01*
X140734814Y-134719334D01*
X140789999Y-134552797D01*
X140800500Y-134450009D01*
X140800499Y-133249992D01*
X140789999Y-133147203D01*
X140734814Y-132980666D01*
X140642712Y-132831344D01*
X140518656Y-132707288D01*
X140369334Y-132615186D01*
X140202797Y-132560001D01*
X140202795Y-132560000D01*
X140100010Y-132549500D01*
X138899998Y-132549500D01*
X138899981Y-132549501D01*
X138797203Y-132560000D01*
X138797200Y-132560001D01*
X138630668Y-132615185D01*
X138630663Y-132615187D01*
X138481342Y-132707289D01*
X138357289Y-132831342D01*
X138265187Y-132980663D01*
X138265186Y-132980666D01*
X138210001Y-133147203D01*
X138210001Y-133147204D01*
X138210000Y-133147204D01*
X138199500Y-133249983D01*
X126550500Y-133249983D01*
X126550500Y-127342486D01*
X127509500Y-127342486D01*
X127509500Y-127637513D01*
X127541571Y-127881113D01*
X127548007Y-127929993D01*
X127622212Y-128206930D01*
X127624361Y-128214951D01*
X127624364Y-128214961D01*
X127737254Y-128487500D01*
X127737258Y-128487510D01*
X127884761Y-128742993D01*
X128064352Y-128977040D01*
X128064358Y-128977047D01*
X128272952Y-129185641D01*
X128272959Y-129185647D01*
X128507006Y-129365238D01*
X128762489Y-129512741D01*
X128762490Y-129512741D01*
X128762493Y-129512743D01*
X129035048Y-129625639D01*
X129320007Y-129701993D01*
X129612494Y-129740500D01*
X129612501Y-129740500D01*
X129907499Y-129740500D01*
X129907506Y-129740500D01*
X130199993Y-129701993D01*
X130484952Y-129625639D01*
X130757507Y-129512743D01*
X131012994Y-129365238D01*
X131247042Y-129185646D01*
X131455646Y-128977042D01*
X131635238Y-128742994D01*
X131782743Y-128487507D01*
X131895639Y-128214952D01*
X131971993Y-127929993D01*
X132010500Y-127637506D01*
X132010500Y-127403389D01*
X133739500Y-127403389D01*
X133739500Y-127576611D01*
X133766598Y-127747701D01*
X133820127Y-127912445D01*
X133898768Y-128066788D01*
X134000586Y-128206928D01*
X134123072Y-128329414D01*
X134263212Y-128431232D01*
X134417555Y-128509873D01*
X134582299Y-128563402D01*
X134753389Y-128590500D01*
X134753390Y-128590500D01*
X134926610Y-128590500D01*
X134926611Y-128590500D01*
X135097701Y-128563402D01*
X135262445Y-128509873D01*
X135416788Y-128431232D01*
X135556928Y-128329414D01*
X135679414Y-128206928D01*
X135781232Y-128066788D01*
X135859873Y-127912445D01*
X135913402Y-127747701D01*
X135940500Y-127576611D01*
X135940500Y-127403389D01*
X135913402Y-127232299D01*
X135859873Y-127067555D01*
X135781232Y-126913212D01*
X135679414Y-126773072D01*
X135556928Y-126650586D01*
X135416788Y-126548768D01*
X135262445Y-126470127D01*
X135097701Y-126416598D01*
X135097699Y-126416597D01*
X135097698Y-126416597D01*
X134966271Y-126395781D01*
X134926611Y-126389500D01*
X134753389Y-126389500D01*
X134713728Y-126395781D01*
X134582302Y-126416597D01*
X134417552Y-126470128D01*
X134263211Y-126548768D01*
X134221294Y-126579223D01*
X134123072Y-126650586D01*
X134123070Y-126650588D01*
X134123069Y-126650588D01*
X134000588Y-126773069D01*
X134000588Y-126773070D01*
X134000586Y-126773072D01*
X133971526Y-126813070D01*
X133898768Y-126913211D01*
X133820128Y-127067552D01*
X133766597Y-127232302D01*
X133743125Y-127380500D01*
X133739500Y-127403389D01*
X132010500Y-127403389D01*
X132010500Y-127342494D01*
X131971993Y-127050007D01*
X131895639Y-126765048D01*
X131782743Y-126492493D01*
X131750403Y-126436479D01*
X131635238Y-126237006D01*
X131455647Y-126002959D01*
X131455641Y-126002952D01*
X131247047Y-125794358D01*
X131247040Y-125794352D01*
X131012993Y-125614761D01*
X130757510Y-125467258D01*
X130757500Y-125467254D01*
X130484961Y-125354364D01*
X130484954Y-125354362D01*
X130484952Y-125354361D01*
X130199993Y-125278007D01*
X130151113Y-125271571D01*
X129907513Y-125239500D01*
X129907506Y-125239500D01*
X129612494Y-125239500D01*
X129612486Y-125239500D01*
X129334085Y-125276153D01*
X129320007Y-125278007D01*
X129145428Y-125324785D01*
X129035048Y-125354361D01*
X129035038Y-125354364D01*
X128762499Y-125467254D01*
X128762489Y-125467258D01*
X128507006Y-125614761D01*
X128272959Y-125794352D01*
X128272952Y-125794358D01*
X128064358Y-126002952D01*
X128064352Y-126002959D01*
X127884761Y-126237006D01*
X127737258Y-126492489D01*
X127737254Y-126492499D01*
X127624364Y-126765038D01*
X127624361Y-126765048D01*
X127548008Y-127050004D01*
X127548006Y-127050015D01*
X127509500Y-127342486D01*
X126550500Y-127342486D01*
X126550500Y-126516300D01*
X126570185Y-126449261D01*
X126618204Y-126405815D01*
X126788845Y-126318870D01*
X126992656Y-126170793D01*
X127170793Y-125992656D01*
X127318870Y-125788845D01*
X127433241Y-125564379D01*
X127511090Y-125324785D01*
X127550500Y-125075962D01*
X127550500Y-124824038D01*
X127511090Y-124575215D01*
X127433241Y-124335621D01*
X127433239Y-124335618D01*
X127433239Y-124335616D01*
X127391747Y-124254184D01*
X127318870Y-124111155D01*
X127217107Y-123971090D01*
X127170798Y-123907350D01*
X127170794Y-123907345D01*
X126992654Y-123729205D01*
X126992649Y-123729201D01*
X126788848Y-123581132D01*
X126788847Y-123581131D01*
X126788845Y-123581130D01*
X126696708Y-123534184D01*
X126618205Y-123494184D01*
X126567409Y-123446209D01*
X126550500Y-123383699D01*
X126550500Y-122284038D01*
X130699500Y-122284038D01*
X130699500Y-122535962D01*
X130738910Y-122784785D01*
X130816760Y-123024383D01*
X130931132Y-123248848D01*
X131079201Y-123452649D01*
X131079205Y-123452654D01*
X131257345Y-123630794D01*
X131257350Y-123630798D01*
X131435117Y-123759952D01*
X131461155Y-123778870D01*
X131539654Y-123818867D01*
X131685616Y-123893239D01*
X131685618Y-123893239D01*
X131685621Y-123893241D01*
X131925215Y-123971090D01*
X132174038Y-124010500D01*
X132174039Y-124010500D01*
X132425961Y-124010500D01*
X132425962Y-124010500D01*
X132674785Y-123971090D01*
X132914379Y-123893241D01*
X133138845Y-123778870D01*
X133342656Y-123630793D01*
X133520793Y-123452656D01*
X133668870Y-123248845D01*
X133755815Y-123078204D01*
X133803789Y-123027409D01*
X133866300Y-123010500D01*
X135379903Y-123010500D01*
X135446942Y-123030185D01*
X135467584Y-123046819D01*
X138205922Y-125785157D01*
X138239407Y-125846480D01*
X138236173Y-125911155D01*
X138231522Y-125925468D01*
X138199500Y-126127648D01*
X138199500Y-126332351D01*
X138231522Y-126534534D01*
X138294781Y-126729223D01*
X138387715Y-126911613D01*
X138508028Y-127077213D01*
X138652786Y-127221971D01*
X138739843Y-127285220D01*
X138818390Y-127342287D01*
X138934607Y-127401503D01*
X139000776Y-127435218D01*
X139000778Y-127435218D01*
X139000781Y-127435220D01*
X139025923Y-127443389D01*
X139195465Y-127498477D01*
X139296557Y-127514488D01*
X139397648Y-127530500D01*
X139397649Y-127530500D01*
X139602351Y-127530500D01*
X139602352Y-127530500D01*
X139804534Y-127498477D01*
X139999219Y-127435220D01*
X140181610Y-127342287D01*
X140332997Y-127232299D01*
X140347213Y-127221971D01*
X140347215Y-127221968D01*
X140347219Y-127221966D01*
X140491966Y-127077219D01*
X140491968Y-127077215D01*
X140491971Y-127077213D01*
X140544732Y-127004590D01*
X140612287Y-126911610D01*
X140705220Y-126729219D01*
X140768477Y-126534534D01*
X140800500Y-126332352D01*
X140800500Y-126127648D01*
X140768477Y-125925466D01*
X140705220Y-125730781D01*
X140705218Y-125730778D01*
X140705218Y-125730776D01*
X140646105Y-125614762D01*
X140612287Y-125548390D01*
X140590575Y-125518506D01*
X140491971Y-125382786D01*
X140347213Y-125238028D01*
X140181613Y-125117715D01*
X140181612Y-125117714D01*
X140181610Y-125117713D01*
X140123350Y-125088028D01*
X139999223Y-125024781D01*
X139804534Y-124961522D01*
X139629995Y-124933878D01*
X139602352Y-124929500D01*
X139397648Y-124929500D01*
X139359599Y-124935526D01*
X139195468Y-124961522D01*
X139186717Y-124964365D01*
X139181154Y-124966173D01*
X139111313Y-124968167D01*
X139055157Y-124935922D01*
X136167590Y-122048355D01*
X136167588Y-122048352D01*
X136048717Y-121929481D01*
X136048716Y-121929480D01*
X135961904Y-121879360D01*
X135961904Y-121879359D01*
X135961900Y-121879358D01*
X135911785Y-121850423D01*
X135759057Y-121809499D01*
X135600943Y-121809499D01*
X135593347Y-121809499D01*
X135593331Y-121809500D01*
X133866300Y-121809500D01*
X133799261Y-121789815D01*
X133755815Y-121741795D01*
X133702327Y-121636819D01*
X133668870Y-121571155D01*
X133549859Y-121407350D01*
X133520798Y-121367350D01*
X133520794Y-121367345D01*
X133342654Y-121189205D01*
X133342649Y-121189201D01*
X133138848Y-121041132D01*
X133138847Y-121041131D01*
X133138845Y-121041130D01*
X133059104Y-121000500D01*
X132914383Y-120926760D01*
X132674785Y-120848910D01*
X132425962Y-120809500D01*
X132174038Y-120809500D01*
X132049626Y-120829205D01*
X131925214Y-120848910D01*
X131685616Y-120926760D01*
X131461151Y-121041132D01*
X131257350Y-121189201D01*
X131257345Y-121189205D01*
X131079205Y-121367345D01*
X131079201Y-121367350D01*
X130931132Y-121571151D01*
X130816760Y-121795616D01*
X130738910Y-122035214D01*
X130699500Y-122284038D01*
X126550500Y-122284038D01*
X126550500Y-115901456D01*
X133999500Y-115901456D01*
X133999500Y-119098543D01*
X134037700Y-119290589D01*
X134037701Y-119290589D01*
X134037949Y-119291834D01*
X134037950Y-119291840D01*
X134113364Y-119473907D01*
X134113371Y-119473920D01*
X134222859Y-119637780D01*
X134222860Y-119637781D01*
X134222861Y-119637782D01*
X134362218Y-119777139D01*
X134362219Y-119777139D01*
X134369286Y-119784206D01*
X134369285Y-119784206D01*
X134369289Y-119784209D01*
X135362215Y-120777137D01*
X135362219Y-120777140D01*
X135526079Y-120886628D01*
X135526088Y-120886633D01*
X135567334Y-120903717D01*
X135708165Y-120962052D01*
X135901455Y-121000500D01*
X135901458Y-121000501D01*
X135901460Y-121000501D01*
X136098543Y-121000501D01*
X136098544Y-121000500D01*
X136291836Y-120962052D01*
X136473915Y-120886632D01*
X136637782Y-120777140D01*
X136777140Y-120637782D01*
X136886632Y-120473915D01*
X136962052Y-120291836D01*
X137000501Y-120098541D01*
X137000501Y-119901460D01*
X137000501Y-119901457D01*
X137000500Y-119901455D01*
X136977178Y-119784209D01*
X136962052Y-119708165D01*
X136886632Y-119526086D01*
X136886631Y-119526085D01*
X136886628Y-119526079D01*
X136777140Y-119362219D01*
X136777137Y-119362215D01*
X136036819Y-118621897D01*
X136003334Y-118560574D01*
X136000500Y-118534216D01*
X136000500Y-115901456D01*
X135962052Y-115708170D01*
X135962051Y-115708169D01*
X135962051Y-115708165D01*
X135897696Y-115552796D01*
X135886635Y-115526092D01*
X135886628Y-115526079D01*
X135777139Y-115362218D01*
X135777136Y-115362214D01*
X135637785Y-115222863D01*
X135637781Y-115222860D01*
X135473920Y-115113371D01*
X135473907Y-115113364D01*
X135291839Y-115037950D01*
X135291829Y-115037947D01*
X135098543Y-114999500D01*
X135098541Y-114999500D01*
X134901459Y-114999500D01*
X134901457Y-114999500D01*
X134708170Y-115037947D01*
X134708160Y-115037950D01*
X134526092Y-115113364D01*
X134526079Y-115113371D01*
X134362218Y-115222860D01*
X134362214Y-115222863D01*
X134222863Y-115362214D01*
X134222860Y-115362218D01*
X134113371Y-115526079D01*
X134113364Y-115526092D01*
X134037950Y-115708160D01*
X134037947Y-115708170D01*
X133999500Y-115901456D01*
X126550500Y-115901456D01*
X126550500Y-114699983D01*
X138299500Y-114699983D01*
X138299500Y-115900001D01*
X138299501Y-115900018D01*
X138310000Y-116002796D01*
X138310001Y-116002799D01*
X138355465Y-116139998D01*
X138365186Y-116169334D01*
X138457288Y-116318656D01*
X138581344Y-116442712D01*
X138730666Y-116534814D01*
X138897203Y-116589999D01*
X138999991Y-116600500D01*
X140200008Y-116600499D01*
X140302797Y-116589999D01*
X140469334Y-116534814D01*
X140618656Y-116442712D01*
X140742712Y-116318656D01*
X140834814Y-116169334D01*
X140889999Y-116002797D01*
X140900500Y-115900009D01*
X140900499Y-114699992D01*
X140889999Y-114597203D01*
X140834814Y-114430666D01*
X140742712Y-114281344D01*
X140618656Y-114157288D01*
X140469334Y-114065186D01*
X140302797Y-114010001D01*
X140302795Y-114010000D01*
X140200010Y-113999500D01*
X138999998Y-113999500D01*
X138999981Y-113999501D01*
X138897203Y-114010000D01*
X138897200Y-114010001D01*
X138730668Y-114065185D01*
X138730663Y-114065187D01*
X138581342Y-114157289D01*
X138457289Y-114281342D01*
X138365187Y-114430663D01*
X138365186Y-114430666D01*
X138310001Y-114597203D01*
X138310001Y-114597204D01*
X138310000Y-114597204D01*
X138299500Y-114699983D01*
X126550500Y-114699983D01*
X126550500Y-108292486D01*
X127509500Y-108292486D01*
X127509500Y-108587513D01*
X127527957Y-108727701D01*
X127548007Y-108879993D01*
X127622212Y-109156930D01*
X127624361Y-109164951D01*
X127624364Y-109164961D01*
X127737254Y-109437500D01*
X127737258Y-109437510D01*
X127884761Y-109692993D01*
X128064352Y-109927040D01*
X128064358Y-109927047D01*
X128272952Y-110135641D01*
X128272959Y-110135647D01*
X128507006Y-110315238D01*
X128762489Y-110462741D01*
X128762490Y-110462741D01*
X128762493Y-110462743D01*
X129035048Y-110575639D01*
X129320007Y-110651993D01*
X129612494Y-110690500D01*
X129612501Y-110690500D01*
X129907499Y-110690500D01*
X129907506Y-110690500D01*
X130199993Y-110651993D01*
X130484952Y-110575639D01*
X130757507Y-110462743D01*
X131012994Y-110315238D01*
X131247042Y-110135646D01*
X131455646Y-109927042D01*
X131635238Y-109692994D01*
X131782743Y-109437507D01*
X131895639Y-109164952D01*
X131971993Y-108879993D01*
X132010500Y-108587506D01*
X132010500Y-108353389D01*
X133739500Y-108353389D01*
X133739500Y-108526611D01*
X133739596Y-108527219D01*
X133762522Y-108671971D01*
X133766598Y-108697701D01*
X133776344Y-108727697D01*
X133820128Y-108862447D01*
X133898768Y-109016788D01*
X134000586Y-109156928D01*
X134123072Y-109279414D01*
X134263212Y-109381232D01*
X134417555Y-109459873D01*
X134582299Y-109513402D01*
X134753389Y-109540500D01*
X134753390Y-109540500D01*
X134926610Y-109540500D01*
X134926611Y-109540500D01*
X135097701Y-109513402D01*
X135262445Y-109459873D01*
X135416788Y-109381232D01*
X135556928Y-109279414D01*
X135679414Y-109156928D01*
X135781232Y-109016788D01*
X135859873Y-108862445D01*
X135913402Y-108697701D01*
X135940500Y-108526611D01*
X135940500Y-108353389D01*
X135913402Y-108182299D01*
X135859873Y-108017555D01*
X135781232Y-107863212D01*
X135679414Y-107723072D01*
X135556928Y-107600586D01*
X135416788Y-107498768D01*
X135262445Y-107420127D01*
X135097701Y-107366598D01*
X135097699Y-107366597D01*
X135097698Y-107366597D01*
X134966271Y-107345781D01*
X134926611Y-107339500D01*
X134753389Y-107339500D01*
X134713728Y-107345781D01*
X134582302Y-107366597D01*
X134417552Y-107420128D01*
X134263211Y-107498768D01*
X134213984Y-107534534D01*
X134123072Y-107600586D01*
X134123070Y-107600588D01*
X134123069Y-107600588D01*
X134000588Y-107723069D01*
X134000588Y-107723070D01*
X134000586Y-107723072D01*
X133972584Y-107761613D01*
X133898768Y-107863211D01*
X133820128Y-108017552D01*
X133766597Y-108182302D01*
X133744393Y-108322494D01*
X133739500Y-108353389D01*
X132010500Y-108353389D01*
X132010500Y-108292494D01*
X131971993Y-108000007D01*
X131895639Y-107715048D01*
X131782743Y-107442493D01*
X131765854Y-107413241D01*
X131635238Y-107187006D01*
X131455647Y-106952959D01*
X131455641Y-106952952D01*
X131247047Y-106744358D01*
X131247040Y-106744352D01*
X131012993Y-106564761D01*
X130757510Y-106417258D01*
X130757500Y-106417254D01*
X130484961Y-106304364D01*
X130484954Y-106304362D01*
X130484952Y-106304361D01*
X130199993Y-106228007D01*
X130135377Y-106219500D01*
X129907513Y-106189500D01*
X129907506Y-106189500D01*
X129612494Y-106189500D01*
X129612486Y-106189500D01*
X129334085Y-106226153D01*
X129320007Y-106228007D01*
X129208045Y-106258007D01*
X129035048Y-106304361D01*
X129035038Y-106304364D01*
X128762499Y-106417254D01*
X128762489Y-106417258D01*
X128507006Y-106564761D01*
X128272959Y-106744352D01*
X128272952Y-106744358D01*
X128064358Y-106952952D01*
X128064352Y-106952959D01*
X127884761Y-107187006D01*
X127737258Y-107442489D01*
X127737254Y-107442499D01*
X127624364Y-107715038D01*
X127624361Y-107715048D01*
X127576623Y-107893212D01*
X127548008Y-108000004D01*
X127548006Y-108000015D01*
X127509500Y-108292486D01*
X126550500Y-108292486D01*
X126550500Y-107466300D01*
X126570185Y-107399261D01*
X126618204Y-107355815D01*
X126788845Y-107268870D01*
X126992656Y-107120793D01*
X127170793Y-106942656D01*
X127318870Y-106738845D01*
X127433241Y-106514379D01*
X127511090Y-106274785D01*
X127550500Y-106025962D01*
X127550500Y-105774038D01*
X127511090Y-105525215D01*
X127433241Y-105285621D01*
X127433239Y-105285618D01*
X127433239Y-105285616D01*
X127391747Y-105204184D01*
X127318870Y-105061155D01*
X127245740Y-104960500D01*
X127170798Y-104857350D01*
X127170794Y-104857345D01*
X126992654Y-104679205D01*
X126992649Y-104679201D01*
X126788848Y-104531132D01*
X126788847Y-104531131D01*
X126788845Y-104531130D01*
X126719186Y-104495637D01*
X126618205Y-104444184D01*
X126567409Y-104396209D01*
X126550500Y-104333699D01*
X126550500Y-103234038D01*
X130699500Y-103234038D01*
X130699500Y-103485962D01*
X130704252Y-103515962D01*
X130738910Y-103734785D01*
X130816760Y-103974383D01*
X130931132Y-104198848D01*
X131079201Y-104402649D01*
X131079205Y-104402654D01*
X131257345Y-104580794D01*
X131257350Y-104580798D01*
X131434083Y-104709201D01*
X131461155Y-104728870D01*
X131604184Y-104801747D01*
X131685616Y-104843239D01*
X131685618Y-104843239D01*
X131685621Y-104843241D01*
X131925215Y-104921090D01*
X132174038Y-104960500D01*
X132174039Y-104960500D01*
X132425961Y-104960500D01*
X132425962Y-104960500D01*
X132674785Y-104921090D01*
X132914379Y-104843241D01*
X133138845Y-104728870D01*
X133342656Y-104580793D01*
X133520793Y-104402656D01*
X133668870Y-104198845D01*
X133755815Y-104028204D01*
X133803789Y-103977409D01*
X133866300Y-103960500D01*
X134979903Y-103960500D01*
X135046942Y-103980185D01*
X135067584Y-103996819D01*
X138305921Y-107235157D01*
X138339406Y-107296480D01*
X138336173Y-107361149D01*
X138331523Y-107375460D01*
X138331523Y-107375462D01*
X138299500Y-107577648D01*
X138299500Y-107782351D01*
X138331522Y-107984534D01*
X138394781Y-108179223D01*
X138452500Y-108292500D01*
X138483524Y-108353389D01*
X138487715Y-108361613D01*
X138608028Y-108527213D01*
X138752786Y-108671971D01*
X138907749Y-108784556D01*
X138918390Y-108792287D01*
X139034607Y-108851503D01*
X139100776Y-108885218D01*
X139100778Y-108885218D01*
X139100781Y-108885220D01*
X139177031Y-108909995D01*
X139295465Y-108948477D01*
X139396557Y-108964488D01*
X139497648Y-108980500D01*
X139497649Y-108980500D01*
X139702351Y-108980500D01*
X139702352Y-108980500D01*
X139904534Y-108948477D01*
X140099219Y-108885220D01*
X140281610Y-108792287D01*
X140411803Y-108697697D01*
X140447213Y-108671971D01*
X140447215Y-108671968D01*
X140447219Y-108671966D01*
X140591966Y-108527219D01*
X140591968Y-108527215D01*
X140591971Y-108527213D01*
X140696464Y-108383389D01*
X142629500Y-108383389D01*
X142629500Y-108556611D01*
X142656598Y-108727701D01*
X142710127Y-108892445D01*
X142788768Y-109046788D01*
X142890586Y-109186928D01*
X143013072Y-109309414D01*
X143153212Y-109411232D01*
X143307555Y-109489873D01*
X143472299Y-109543402D01*
X143643389Y-109570500D01*
X143643390Y-109570500D01*
X143816610Y-109570500D01*
X143816611Y-109570500D01*
X143987701Y-109543402D01*
X144152445Y-109489873D01*
X144219206Y-109455856D01*
X144287874Y-109442961D01*
X144352615Y-109469237D01*
X144392872Y-109526344D01*
X144399500Y-109566342D01*
X144399500Y-123423699D01*
X144379815Y-123490738D01*
X144331795Y-123534184D01*
X144161151Y-123621132D01*
X143957350Y-123769201D01*
X143957345Y-123769205D01*
X143779205Y-123947345D01*
X143779201Y-123947350D01*
X143631132Y-124151151D01*
X143516760Y-124375616D01*
X143438910Y-124615214D01*
X143438910Y-124615215D01*
X143399500Y-124864038D01*
X143399500Y-125115962D01*
X143425166Y-125278007D01*
X143438910Y-125364785D01*
X143516760Y-125604383D01*
X143631132Y-125828848D01*
X143779201Y-126032649D01*
X143779205Y-126032654D01*
X143779207Y-126032656D01*
X143957344Y-126210793D01*
X143957345Y-126210794D01*
X143957344Y-126210794D01*
X143963661Y-126215383D01*
X144006327Y-126270714D01*
X144012305Y-126340327D01*
X143979699Y-126402122D01*
X143918860Y-126436479D01*
X143871378Y-126438174D01*
X143816611Y-126429500D01*
X143643389Y-126429500D01*
X143603728Y-126435781D01*
X143472302Y-126456597D01*
X143307552Y-126510128D01*
X143153211Y-126588768D01*
X143073256Y-126646859D01*
X143013072Y-126690586D01*
X143013070Y-126690588D01*
X143013069Y-126690588D01*
X142890588Y-126813069D01*
X142890588Y-126813070D01*
X142890586Y-126813072D01*
X142846859Y-126873256D01*
X142788768Y-126953211D01*
X142710128Y-127107552D01*
X142656597Y-127272302D01*
X142630794Y-127435218D01*
X142629500Y-127443389D01*
X142629500Y-127616611D01*
X142632811Y-127637513D01*
X142650262Y-127747701D01*
X142656598Y-127787701D01*
X142710127Y-127952445D01*
X142788768Y-128106788D01*
X142890586Y-128246928D01*
X143013072Y-128369414D01*
X143153212Y-128471232D01*
X143307555Y-128549873D01*
X143472299Y-128603402D01*
X143643389Y-128630500D01*
X143643390Y-128630500D01*
X143816610Y-128630500D01*
X143816611Y-128630500D01*
X143987701Y-128603402D01*
X144152445Y-128549873D01*
X144219206Y-128515856D01*
X144287874Y-128502961D01*
X144352615Y-128529237D01*
X144392872Y-128586344D01*
X144399500Y-128626342D01*
X144399500Y-142433699D01*
X144379815Y-142500738D01*
X144331795Y-142544184D01*
X144161151Y-142631132D01*
X143957350Y-142779201D01*
X143957345Y-142779205D01*
X143779205Y-142957345D01*
X143779201Y-142957350D01*
X143631132Y-143161151D01*
X143516760Y-143385616D01*
X143438910Y-143625214D01*
X143399500Y-143874038D01*
X143399500Y-144125961D01*
X143438910Y-144374785D01*
X143516760Y-144614383D01*
X143631132Y-144838848D01*
X143779201Y-145042649D01*
X143779205Y-145042654D01*
X143779207Y-145042656D01*
X143957344Y-145220793D01*
X143957345Y-145220794D01*
X143957344Y-145220794D01*
X143963661Y-145225383D01*
X144006327Y-145280714D01*
X144012305Y-145350327D01*
X143979699Y-145412122D01*
X143918860Y-145446479D01*
X143871378Y-145448174D01*
X143816611Y-145439500D01*
X143643389Y-145439500D01*
X143603728Y-145445781D01*
X143472302Y-145466597D01*
X143307552Y-145520128D01*
X143153211Y-145598768D01*
X143113462Y-145627648D01*
X143013072Y-145700586D01*
X143013070Y-145700588D01*
X143013069Y-145700588D01*
X142890588Y-145823069D01*
X142890588Y-145823070D01*
X142890586Y-145823072D01*
X142862584Y-145861613D01*
X142788768Y-145963211D01*
X142710128Y-146117552D01*
X142656597Y-146282302D01*
X142629500Y-146453389D01*
X142629500Y-146626610D01*
X142644603Y-146721971D01*
X142656598Y-146797701D01*
X142710127Y-146962445D01*
X142788768Y-147116788D01*
X142890586Y-147256928D01*
X143013072Y-147379414D01*
X143153212Y-147481232D01*
X143307555Y-147559873D01*
X143472299Y-147613402D01*
X143643389Y-147640500D01*
X143643390Y-147640500D01*
X143816610Y-147640500D01*
X143816611Y-147640500D01*
X143987701Y-147613402D01*
X144152445Y-147559873D01*
X144306788Y-147481232D01*
X144446928Y-147379414D01*
X144569414Y-147256928D01*
X144671232Y-147116788D01*
X144749873Y-146962445D01*
X144803402Y-146797701D01*
X144830500Y-146626611D01*
X144830500Y-146453389D01*
X144820854Y-146392486D01*
X146559500Y-146392486D01*
X146559500Y-146687513D01*
X146579877Y-146842284D01*
X146598007Y-146979993D01*
X146672212Y-147256930D01*
X146674361Y-147264951D01*
X146674364Y-147264961D01*
X146787254Y-147537500D01*
X146787258Y-147537510D01*
X146934761Y-147792993D01*
X147114352Y-148027040D01*
X147114358Y-148027047D01*
X147322952Y-148235641D01*
X147322959Y-148235647D01*
X147557006Y-148415238D01*
X147812489Y-148562741D01*
X147812490Y-148562741D01*
X147812493Y-148562743D01*
X148085048Y-148675639D01*
X148370007Y-148751993D01*
X148662494Y-148790500D01*
X148662501Y-148790500D01*
X148957499Y-148790500D01*
X148957506Y-148790500D01*
X149249993Y-148751993D01*
X149534952Y-148675639D01*
X149807507Y-148562743D01*
X150062994Y-148415238D01*
X150297042Y-148235646D01*
X150505646Y-148027042D01*
X150685238Y-147792994D01*
X150832743Y-147537507D01*
X150945639Y-147264952D01*
X151021993Y-146979993D01*
X151060500Y-146687506D01*
X151060500Y-146453389D01*
X152789500Y-146453389D01*
X152789500Y-146626610D01*
X152804603Y-146721971D01*
X152816598Y-146797701D01*
X152870127Y-146962445D01*
X152948768Y-147116788D01*
X153050586Y-147256928D01*
X153173072Y-147379414D01*
X153313212Y-147481232D01*
X153467555Y-147559873D01*
X153632299Y-147613402D01*
X153803389Y-147640500D01*
X153803390Y-147640500D01*
X153976610Y-147640500D01*
X153976611Y-147640500D01*
X154147701Y-147613402D01*
X154312445Y-147559873D01*
X154466788Y-147481232D01*
X154606928Y-147379414D01*
X154729414Y-147256928D01*
X154831232Y-147116788D01*
X154909873Y-146962445D01*
X154963402Y-146797701D01*
X154990500Y-146626611D01*
X154990500Y-146453389D01*
X154963402Y-146282299D01*
X154909873Y-146117555D01*
X154831232Y-145963212D01*
X154729414Y-145823072D01*
X154606928Y-145700586D01*
X154466788Y-145598768D01*
X154312445Y-145520127D01*
X154147701Y-145466598D01*
X154147699Y-145466597D01*
X154147698Y-145466597D01*
X154016271Y-145445781D01*
X153976611Y-145439500D01*
X153803389Y-145439500D01*
X153763728Y-145445781D01*
X153632302Y-145466597D01*
X153467552Y-145520128D01*
X153313211Y-145598768D01*
X153273462Y-145627648D01*
X153173072Y-145700586D01*
X153173070Y-145700588D01*
X153173069Y-145700588D01*
X153050588Y-145823069D01*
X153050588Y-145823070D01*
X153050586Y-145823072D01*
X153022584Y-145861613D01*
X152948768Y-145963211D01*
X152870128Y-146117552D01*
X152816597Y-146282302D01*
X152789500Y-146453389D01*
X151060500Y-146453389D01*
X151060500Y-146392494D01*
X151021993Y-146100007D01*
X150945639Y-145815048D01*
X150832743Y-145542493D01*
X150799280Y-145484534D01*
X150685238Y-145287006D01*
X150505647Y-145052959D01*
X150505641Y-145052952D01*
X150297047Y-144844358D01*
X150297040Y-144844352D01*
X150062993Y-144664761D01*
X149807510Y-144517258D01*
X149807500Y-144517254D01*
X149534961Y-144404364D01*
X149534954Y-144404362D01*
X149534952Y-144404361D01*
X149249993Y-144328007D01*
X149201113Y-144321571D01*
X148957513Y-144289500D01*
X148957506Y-144289500D01*
X148662494Y-144289500D01*
X148662486Y-144289500D01*
X148384085Y-144326153D01*
X148370007Y-144328007D01*
X148195447Y-144374780D01*
X148085048Y-144404361D01*
X148085038Y-144404364D01*
X147812499Y-144517254D01*
X147812489Y-144517258D01*
X147557006Y-144664761D01*
X147322959Y-144844352D01*
X147322952Y-144844358D01*
X147114358Y-145052952D01*
X147114352Y-145052959D01*
X146934761Y-145287006D01*
X146787258Y-145542489D01*
X146787254Y-145542499D01*
X146674364Y-145815038D01*
X146674361Y-145815048D01*
X146598008Y-146100004D01*
X146598006Y-146100015D01*
X146559500Y-146392486D01*
X144820854Y-146392486D01*
X144803402Y-146282299D01*
X144749873Y-146117555D01*
X144671232Y-145963212D01*
X144569414Y-145823072D01*
X144517482Y-145771140D01*
X144483997Y-145709817D01*
X144488981Y-145640125D01*
X144530853Y-145584192D01*
X144596317Y-145559775D01*
X144624561Y-145560986D01*
X144625212Y-145561089D01*
X144625215Y-145561090D01*
X144874038Y-145600500D01*
X144874039Y-145600500D01*
X145125961Y-145600500D01*
X145125962Y-145600500D01*
X145374785Y-145561090D01*
X145614379Y-145483241D01*
X145838845Y-145368870D01*
X146042656Y-145220793D01*
X146220793Y-145042656D01*
X146368870Y-144838845D01*
X146483241Y-144614379D01*
X146561090Y-144374785D01*
X146600500Y-144125962D01*
X146600500Y-143874038D01*
X146561090Y-143625215D01*
X146483241Y-143385621D01*
X146483239Y-143385618D01*
X146483239Y-143385616D01*
X146441747Y-143304184D01*
X146368870Y-143161155D01*
X146267107Y-143021090D01*
X146220798Y-142957350D01*
X146220794Y-142957345D01*
X146042654Y-142779205D01*
X146042649Y-142779201D01*
X145838848Y-142631132D01*
X145838847Y-142631131D01*
X145838845Y-142631130D01*
X145769186Y-142595637D01*
X145668205Y-142544184D01*
X145617409Y-142496209D01*
X145600500Y-142433699D01*
X145600500Y-141334038D01*
X149749500Y-141334038D01*
X149749500Y-141585961D01*
X149788910Y-141834785D01*
X149866760Y-142074383D01*
X149981132Y-142298848D01*
X150129201Y-142502649D01*
X150129205Y-142502654D01*
X150307345Y-142680794D01*
X150307350Y-142680798D01*
X150485117Y-142809952D01*
X150511155Y-142828870D01*
X150654184Y-142901747D01*
X150735616Y-142943239D01*
X150735618Y-142943239D01*
X150735621Y-142943241D01*
X150975215Y-143021090D01*
X151224038Y-143060500D01*
X151224039Y-143060500D01*
X151475961Y-143060500D01*
X151475962Y-143060500D01*
X151724785Y-143021090D01*
X151964379Y-142943241D01*
X152188845Y-142828870D01*
X152392656Y-142680793D01*
X152570793Y-142502656D01*
X152718870Y-142298845D01*
X152805815Y-142128204D01*
X152853789Y-142077409D01*
X152916300Y-142060500D01*
X155479903Y-142060500D01*
X155546942Y-142080185D01*
X155567584Y-142096819D01*
X158205922Y-144735157D01*
X158239407Y-144796480D01*
X158236173Y-144861155D01*
X158231522Y-144875468D01*
X158199500Y-145077648D01*
X158199500Y-145282351D01*
X158231522Y-145484534D01*
X158294781Y-145679223D01*
X158310370Y-145709817D01*
X158372805Y-145832352D01*
X158387715Y-145861613D01*
X158508028Y-146027213D01*
X158652786Y-146171971D01*
X158804643Y-146282299D01*
X158818390Y-146292287D01*
X158934607Y-146351503D01*
X159000776Y-146385218D01*
X159000778Y-146385218D01*
X159000781Y-146385220D01*
X159105137Y-146419127D01*
X159195465Y-146448477D01*
X159226510Y-146453394D01*
X159397648Y-146480500D01*
X159397649Y-146480500D01*
X159602351Y-146480500D01*
X159602352Y-146480500D01*
X159804534Y-146448477D01*
X159999219Y-146385220D01*
X160181610Y-146292287D01*
X160274590Y-146224732D01*
X160347213Y-146171971D01*
X160347215Y-146171968D01*
X160347219Y-146171966D01*
X160491966Y-146027219D01*
X160491968Y-146027215D01*
X160491971Y-146027213D01*
X160544732Y-145954590D01*
X160612287Y-145861610D01*
X160705220Y-145679219D01*
X160768477Y-145484534D01*
X160800500Y-145282352D01*
X160800500Y-145077648D01*
X160772107Y-144898386D01*
X160768477Y-144875465D01*
X160739127Y-144785137D01*
X160705220Y-144680781D01*
X160705218Y-144680778D01*
X160705218Y-144680776D01*
X160657960Y-144588028D01*
X160612287Y-144498390D01*
X160590329Y-144468167D01*
X160491971Y-144332786D01*
X160347213Y-144188028D01*
X160181613Y-144067715D01*
X160181612Y-144067714D01*
X160181610Y-144067713D01*
X160124653Y-144038691D01*
X159999223Y-143974781D01*
X159804534Y-143911522D01*
X159629995Y-143883878D01*
X159602352Y-143879500D01*
X159397648Y-143879500D01*
X159359599Y-143885526D01*
X159195468Y-143911522D01*
X159186717Y-143914365D01*
X159181154Y-143916173D01*
X159111313Y-143918167D01*
X159055157Y-143885922D01*
X156267590Y-141098355D01*
X156267588Y-141098352D01*
X156148717Y-140979481D01*
X156148716Y-140979480D01*
X156061904Y-140929360D01*
X156061904Y-140929359D01*
X156061900Y-140929358D01*
X156011785Y-140900423D01*
X155859057Y-140859499D01*
X155700943Y-140859499D01*
X155693347Y-140859499D01*
X155693331Y-140859500D01*
X152916300Y-140859500D01*
X152849261Y-140839815D01*
X152805815Y-140791795D01*
X152718870Y-140621155D01*
X152699952Y-140595117D01*
X152570798Y-140417350D01*
X152570794Y-140417345D01*
X152392654Y-140239205D01*
X152392649Y-140239201D01*
X152188848Y-140091132D01*
X152188847Y-140091131D01*
X152188845Y-140091130D01*
X152118747Y-140055413D01*
X151964383Y-139976760D01*
X151724785Y-139898910D01*
X151475962Y-139859500D01*
X151224038Y-139859500D01*
X151099626Y-139879205D01*
X150975214Y-139898910D01*
X150735616Y-139976760D01*
X150511151Y-140091132D01*
X150307350Y-140239201D01*
X150307345Y-140239205D01*
X150129205Y-140417345D01*
X150129201Y-140417350D01*
X149981132Y-140621151D01*
X149866760Y-140845616D01*
X149788910Y-141085214D01*
X149749500Y-141334038D01*
X145600500Y-141334038D01*
X145600500Y-127382486D01*
X146559500Y-127382486D01*
X146559500Y-127677513D01*
X146590431Y-127912445D01*
X146598007Y-127969993D01*
X146672212Y-128246930D01*
X146674361Y-128254951D01*
X146674364Y-128254961D01*
X146787254Y-128527500D01*
X146787258Y-128527510D01*
X146934761Y-128782993D01*
X147114352Y-129017040D01*
X147114358Y-129017047D01*
X147322952Y-129225641D01*
X147322959Y-129225647D01*
X147557006Y-129405238D01*
X147812489Y-129552741D01*
X147812490Y-129552741D01*
X147812493Y-129552743D01*
X148085048Y-129665639D01*
X148370007Y-129741993D01*
X148662494Y-129780500D01*
X148662501Y-129780500D01*
X148957499Y-129780500D01*
X148957506Y-129780500D01*
X149249993Y-129741993D01*
X149534952Y-129665639D01*
X149807507Y-129552743D01*
X150062994Y-129405238D01*
X150297042Y-129225646D01*
X150505646Y-129017042D01*
X150685238Y-128782994D01*
X150832743Y-128527507D01*
X150945639Y-128254952D01*
X151021993Y-127969993D01*
X151060500Y-127677506D01*
X151060500Y-127443389D01*
X152789500Y-127443389D01*
X152789500Y-127616611D01*
X152792811Y-127637513D01*
X152810262Y-127747701D01*
X152816598Y-127787701D01*
X152870127Y-127952445D01*
X152948768Y-128106788D01*
X153050586Y-128246928D01*
X153173072Y-128369414D01*
X153313212Y-128471232D01*
X153467555Y-128549873D01*
X153632299Y-128603402D01*
X153803389Y-128630500D01*
X153803390Y-128630500D01*
X153976610Y-128630500D01*
X153976611Y-128630500D01*
X154147701Y-128603402D01*
X154312445Y-128549873D01*
X154466788Y-128471232D01*
X154606928Y-128369414D01*
X154729414Y-128246928D01*
X154831232Y-128106788D01*
X154909873Y-127952445D01*
X154963402Y-127787701D01*
X154990500Y-127616611D01*
X154990500Y-127443389D01*
X154963402Y-127272299D01*
X154909873Y-127107555D01*
X154831232Y-126953212D01*
X154729414Y-126813072D01*
X154606928Y-126690586D01*
X154466788Y-126588768D01*
X154312445Y-126510127D01*
X154147701Y-126456598D01*
X154147699Y-126456597D01*
X154147698Y-126456597D01*
X154016271Y-126435781D01*
X153976611Y-126429500D01*
X153803389Y-126429500D01*
X153763728Y-126435781D01*
X153632302Y-126456597D01*
X153467552Y-126510128D01*
X153313211Y-126588768D01*
X153233256Y-126646859D01*
X153173072Y-126690586D01*
X153173070Y-126690588D01*
X153173069Y-126690588D01*
X153050588Y-126813069D01*
X153050588Y-126813070D01*
X153050586Y-126813072D01*
X153006859Y-126873256D01*
X152948768Y-126953211D01*
X152870128Y-127107552D01*
X152816597Y-127272302D01*
X152790794Y-127435218D01*
X152789500Y-127443389D01*
X151060500Y-127443389D01*
X151060500Y-127382494D01*
X151060237Y-127380500D01*
X151057253Y-127357829D01*
X151021993Y-127090007D01*
X150945639Y-126805048D01*
X150929070Y-126765048D01*
X150883954Y-126656127D01*
X150832743Y-126532493D01*
X150820385Y-126511089D01*
X150685238Y-126277006D01*
X150505647Y-126042959D01*
X150505641Y-126042952D01*
X150297047Y-125834358D01*
X150297040Y-125834352D01*
X150062993Y-125654761D01*
X149807510Y-125507258D01*
X149807500Y-125507254D01*
X149534961Y-125394364D01*
X149534954Y-125394362D01*
X149534952Y-125394361D01*
X149249993Y-125318007D01*
X149201113Y-125311571D01*
X148957513Y-125279500D01*
X148957506Y-125279500D01*
X148662494Y-125279500D01*
X148662486Y-125279500D01*
X148384085Y-125316153D01*
X148370007Y-125318007D01*
X148128247Y-125382786D01*
X148085048Y-125394361D01*
X148085038Y-125394364D01*
X147812499Y-125507254D01*
X147812489Y-125507258D01*
X147557006Y-125654761D01*
X147322959Y-125834352D01*
X147322952Y-125834358D01*
X147114358Y-126042952D01*
X147114352Y-126042959D01*
X146934761Y-126277006D01*
X146787258Y-126532489D01*
X146787254Y-126532499D01*
X146674364Y-126805038D01*
X146674361Y-126805048D01*
X146598008Y-127090004D01*
X146598006Y-127090015D01*
X146559500Y-127382486D01*
X145600500Y-127382486D01*
X145600500Y-126556300D01*
X145620185Y-126489261D01*
X145668204Y-126445815D01*
X145838845Y-126358870D01*
X146042656Y-126210793D01*
X146220793Y-126032656D01*
X146368870Y-125828845D01*
X146483241Y-125604379D01*
X146561090Y-125364785D01*
X146600500Y-125115962D01*
X146600500Y-124864038D01*
X146561090Y-124615215D01*
X146483241Y-124375621D01*
X146483239Y-124375618D01*
X146483239Y-124375616D01*
X146441747Y-124294184D01*
X146368870Y-124151155D01*
X146339808Y-124111155D01*
X146220798Y-123947350D01*
X146220794Y-123947345D01*
X146042654Y-123769205D01*
X146042649Y-123769201D01*
X145838848Y-123621132D01*
X145838847Y-123621131D01*
X145838845Y-123621130D01*
X145769186Y-123585637D01*
X145668205Y-123534184D01*
X145617409Y-123486209D01*
X145600500Y-123423699D01*
X145600500Y-108322486D01*
X146559500Y-108322486D01*
X146559500Y-108617513D01*
X146591571Y-108861113D01*
X146598007Y-108909993D01*
X146672212Y-109186930D01*
X146674361Y-109194951D01*
X146674364Y-109194961D01*
X146787254Y-109467500D01*
X146787258Y-109467510D01*
X146934761Y-109722993D01*
X147114352Y-109957040D01*
X147114358Y-109957047D01*
X147322952Y-110165641D01*
X147322959Y-110165647D01*
X147557006Y-110345238D01*
X147812489Y-110492741D01*
X147812490Y-110492741D01*
X147812493Y-110492743D01*
X148085048Y-110605639D01*
X148370007Y-110681993D01*
X148662494Y-110720500D01*
X148662501Y-110720500D01*
X148957499Y-110720500D01*
X148957506Y-110720500D01*
X149249993Y-110681993D01*
X149534952Y-110605639D01*
X149807507Y-110492743D01*
X150062994Y-110345238D01*
X150297042Y-110165646D01*
X150505646Y-109957042D01*
X150685238Y-109722994D01*
X150832743Y-109467507D01*
X150945639Y-109194952D01*
X151021993Y-108909993D01*
X151060500Y-108617506D01*
X151060500Y-108383389D01*
X152789500Y-108383389D01*
X152789500Y-108556611D01*
X152816598Y-108727701D01*
X152870127Y-108892445D01*
X152948768Y-109046788D01*
X153050586Y-109186928D01*
X153173072Y-109309414D01*
X153313212Y-109411232D01*
X153467555Y-109489873D01*
X153632299Y-109543402D01*
X153803389Y-109570500D01*
X153803390Y-109570500D01*
X153976610Y-109570500D01*
X153976611Y-109570500D01*
X154147701Y-109543402D01*
X154312445Y-109489873D01*
X154466788Y-109411232D01*
X154606928Y-109309414D01*
X154729414Y-109186928D01*
X154831232Y-109046788D01*
X154909873Y-108892445D01*
X154963402Y-108727701D01*
X154990500Y-108556611D01*
X154990500Y-108383389D01*
X154963402Y-108212299D01*
X154909873Y-108047555D01*
X154831232Y-107893212D01*
X154729414Y-107753072D01*
X154606928Y-107630586D01*
X154466788Y-107528768D01*
X154312445Y-107450127D01*
X154147701Y-107396598D01*
X154147699Y-107396597D01*
X154147698Y-107396597D01*
X154014279Y-107375466D01*
X153976611Y-107369500D01*
X153803389Y-107369500D01*
X153765721Y-107375466D01*
X153632302Y-107396597D01*
X153467552Y-107450128D01*
X153313211Y-107528768D01*
X153297580Y-107540125D01*
X153173072Y-107630586D01*
X153173070Y-107630588D01*
X153173069Y-107630588D01*
X153050588Y-107753069D01*
X153050588Y-107753070D01*
X153050586Y-107753072D01*
X153029313Y-107782352D01*
X152948768Y-107893211D01*
X152870128Y-108047552D01*
X152816597Y-108212302D01*
X152794251Y-108353394D01*
X152789500Y-108383389D01*
X151060500Y-108383389D01*
X151060500Y-108322494D01*
X151021993Y-108030007D01*
X150945639Y-107745048D01*
X150939082Y-107729219D01*
X150876950Y-107579219D01*
X150832743Y-107472493D01*
X150829167Y-107466300D01*
X150685238Y-107217006D01*
X150505647Y-106982959D01*
X150505641Y-106982952D01*
X150297047Y-106774358D01*
X150297040Y-106774352D01*
X150062993Y-106594761D01*
X149807510Y-106447258D01*
X149807500Y-106447254D01*
X149534961Y-106334364D01*
X149534954Y-106334362D01*
X149534952Y-106334361D01*
X149249993Y-106258007D01*
X149201113Y-106251571D01*
X148957513Y-106219500D01*
X148957506Y-106219500D01*
X148662494Y-106219500D01*
X148662486Y-106219500D01*
X148384085Y-106256153D01*
X148370007Y-106258007D01*
X148196999Y-106304364D01*
X148085048Y-106334361D01*
X148085038Y-106334364D01*
X147812499Y-106447254D01*
X147812489Y-106447258D01*
X147557006Y-106594761D01*
X147322959Y-106774352D01*
X147322952Y-106774358D01*
X147114358Y-106982952D01*
X147114352Y-106982959D01*
X146934761Y-107217006D01*
X146787258Y-107472489D01*
X146787254Y-107472499D01*
X146674364Y-107745038D01*
X146674361Y-107745048D01*
X146601344Y-108017555D01*
X146598008Y-108030004D01*
X146598006Y-108030015D01*
X146559500Y-108322486D01*
X145600500Y-108322486D01*
X145600500Y-107496300D01*
X145620185Y-107429261D01*
X145668204Y-107385815D01*
X145838845Y-107298870D01*
X146042656Y-107150793D01*
X146220793Y-106972656D01*
X146368870Y-106768845D01*
X146483241Y-106544379D01*
X146561090Y-106304785D01*
X146600500Y-106055962D01*
X146600500Y-105804038D01*
X146561090Y-105555215D01*
X146483241Y-105315621D01*
X146483239Y-105315618D01*
X146483239Y-105315616D01*
X146441747Y-105234184D01*
X146368870Y-105091155D01*
X146267107Y-104951090D01*
X146220798Y-104887350D01*
X146220794Y-104887345D01*
X146042654Y-104709205D01*
X146042649Y-104709201D01*
X145838848Y-104561132D01*
X145838847Y-104561131D01*
X145838845Y-104561130D01*
X145769186Y-104525637D01*
X145668205Y-104474184D01*
X145617409Y-104426209D01*
X145600500Y-104363699D01*
X145600500Y-89252486D01*
X146569500Y-89252486D01*
X146569500Y-89547513D01*
X146588561Y-89692287D01*
X146608007Y-89839993D01*
X146682212Y-90116930D01*
X146684361Y-90124951D01*
X146684364Y-90124961D01*
X146797254Y-90397500D01*
X146797258Y-90397510D01*
X146944761Y-90652993D01*
X147124352Y-90887040D01*
X147124358Y-90887047D01*
X147332952Y-91095641D01*
X147332959Y-91095647D01*
X147567006Y-91275238D01*
X147822489Y-91422741D01*
X147822490Y-91422741D01*
X147822493Y-91422743D01*
X148095048Y-91535639D01*
X148380007Y-91611993D01*
X148672494Y-91650500D01*
X148672501Y-91650500D01*
X148967499Y-91650500D01*
X148967506Y-91650500D01*
X149259993Y-91611993D01*
X149544952Y-91535639D01*
X149817507Y-91422743D01*
X150072994Y-91275238D01*
X150307042Y-91095646D01*
X150515646Y-90887042D01*
X150695238Y-90652994D01*
X150842743Y-90397507D01*
X150955639Y-90124952D01*
X151031993Y-89839993D01*
X151070500Y-89547506D01*
X151070500Y-89313389D01*
X152799500Y-89313389D01*
X152799500Y-89486610D01*
X152825013Y-89647697D01*
X152826598Y-89657701D01*
X152880127Y-89822445D01*
X152958768Y-89976788D01*
X153060586Y-90116928D01*
X153183072Y-90239414D01*
X153323212Y-90341232D01*
X153477555Y-90419873D01*
X153642299Y-90473402D01*
X153813389Y-90500500D01*
X153813390Y-90500500D01*
X153986610Y-90500500D01*
X153986611Y-90500500D01*
X154157701Y-90473402D01*
X154322445Y-90419873D01*
X154476788Y-90341232D01*
X154616928Y-90239414D01*
X154739414Y-90116928D01*
X154841232Y-89976788D01*
X154919873Y-89822445D01*
X154973402Y-89657701D01*
X155000500Y-89486611D01*
X155000500Y-89313389D01*
X154973402Y-89142299D01*
X154919873Y-88977555D01*
X154841232Y-88823212D01*
X154739414Y-88683072D01*
X154616928Y-88560586D01*
X154476788Y-88458768D01*
X154423065Y-88431395D01*
X154322447Y-88380128D01*
X154322446Y-88380127D01*
X154322445Y-88380127D01*
X154157701Y-88326598D01*
X154157699Y-88326597D01*
X154157698Y-88326597D01*
X154026271Y-88305781D01*
X153986611Y-88299500D01*
X153813389Y-88299500D01*
X153773728Y-88305781D01*
X153642302Y-88326597D01*
X153477552Y-88380128D01*
X153323211Y-88458768D01*
X153244264Y-88516127D01*
X153183072Y-88560586D01*
X153183070Y-88560588D01*
X153183069Y-88560588D01*
X153060588Y-88683069D01*
X153060588Y-88683070D01*
X153060586Y-88683072D01*
X153016859Y-88743256D01*
X152958768Y-88823211D01*
X152880128Y-88977552D01*
X152826597Y-89142302D01*
X152799500Y-89313389D01*
X151070500Y-89313389D01*
X151070500Y-89252494D01*
X151031993Y-88960007D01*
X150955639Y-88675048D01*
X150842743Y-88402493D01*
X150836967Y-88392489D01*
X150695238Y-88147006D01*
X150515647Y-87912959D01*
X150515641Y-87912952D01*
X150307047Y-87704358D01*
X150307040Y-87704352D01*
X150072993Y-87524761D01*
X149817510Y-87377258D01*
X149817500Y-87377254D01*
X149544961Y-87264364D01*
X149544954Y-87264362D01*
X149544952Y-87264361D01*
X149259993Y-87188007D01*
X149211113Y-87181571D01*
X148967513Y-87149500D01*
X148967506Y-87149500D01*
X148672494Y-87149500D01*
X148672486Y-87149500D01*
X148394085Y-87186153D01*
X148380007Y-87188007D01*
X148242749Y-87224785D01*
X148095048Y-87264361D01*
X148095038Y-87264364D01*
X147822499Y-87377254D01*
X147822489Y-87377258D01*
X147567006Y-87524761D01*
X147332959Y-87704352D01*
X147332952Y-87704358D01*
X147124358Y-87912952D01*
X147124352Y-87912959D01*
X146944761Y-88147006D01*
X146797258Y-88402489D01*
X146797254Y-88402499D01*
X146684364Y-88675038D01*
X146684361Y-88675048D01*
X146610685Y-88950015D01*
X146608008Y-88960004D01*
X146608006Y-88960015D01*
X146569500Y-89252486D01*
X145600500Y-89252486D01*
X145600500Y-88431395D01*
X145620185Y-88364356D01*
X145668203Y-88320911D01*
X145848845Y-88228870D01*
X146052656Y-88080793D01*
X146230793Y-87902656D01*
X146378870Y-87698845D01*
X146493241Y-87474379D01*
X146571090Y-87234785D01*
X146610500Y-86985962D01*
X146610500Y-86734038D01*
X146571090Y-86485215D01*
X146493241Y-86245621D01*
X146493239Y-86245618D01*
X146493239Y-86245616D01*
X146451747Y-86164184D01*
X146378870Y-86021155D01*
X146277107Y-85881090D01*
X146230798Y-85817350D01*
X146230794Y-85817345D01*
X146052654Y-85639205D01*
X146052649Y-85639201D01*
X145848848Y-85491132D01*
X145848847Y-85491131D01*
X145848845Y-85491130D01*
X145778747Y-85455413D01*
X145624383Y-85376760D01*
X145384785Y-85298910D01*
X145321648Y-85288910D01*
X145135962Y-85259500D01*
X144884038Y-85259500D01*
X144759626Y-85279205D01*
X144635214Y-85298910D01*
X144395616Y-85376760D01*
X144171151Y-85491132D01*
X143967350Y-85639201D01*
X143967345Y-85639205D01*
X143789205Y-85817345D01*
X143789201Y-85817350D01*
X143641132Y-86021151D01*
X143526760Y-86245616D01*
X143448910Y-86485214D01*
X143409500Y-86734038D01*
X143409500Y-86985961D01*
X143448910Y-87234785D01*
X143526760Y-87474383D01*
X143584666Y-87588028D01*
X143636036Y-87688848D01*
X143641132Y-87698848D01*
X143789201Y-87902649D01*
X143789205Y-87902654D01*
X143789207Y-87902656D01*
X143967344Y-88080793D01*
X143967345Y-88080794D01*
X143967344Y-88080794D01*
X143973661Y-88085383D01*
X144016327Y-88140714D01*
X144022305Y-88210327D01*
X143989699Y-88272122D01*
X143928860Y-88306479D01*
X143881378Y-88308174D01*
X143826611Y-88299500D01*
X143653389Y-88299500D01*
X143613728Y-88305781D01*
X143482302Y-88326597D01*
X143317552Y-88380128D01*
X143163211Y-88458768D01*
X143084264Y-88516127D01*
X143023072Y-88560586D01*
X143023070Y-88560588D01*
X143023069Y-88560588D01*
X142900588Y-88683069D01*
X142900588Y-88683070D01*
X142900586Y-88683072D01*
X142856859Y-88743256D01*
X142798768Y-88823211D01*
X142720128Y-88977552D01*
X142666597Y-89142302D01*
X142639500Y-89313389D01*
X142639500Y-89486610D01*
X142665013Y-89647697D01*
X142666598Y-89657701D01*
X142720127Y-89822445D01*
X142798768Y-89976788D01*
X142900586Y-90116928D01*
X143023072Y-90239414D01*
X143163212Y-90341232D01*
X143317555Y-90419873D01*
X143482299Y-90473402D01*
X143653389Y-90500500D01*
X143653390Y-90500500D01*
X143826610Y-90500500D01*
X143826611Y-90500500D01*
X143997701Y-90473402D01*
X144162445Y-90419873D01*
X144219204Y-90390952D01*
X144287874Y-90378056D01*
X144352614Y-90404332D01*
X144392872Y-90461438D01*
X144399500Y-90501437D01*
X144399500Y-104363699D01*
X144379815Y-104430738D01*
X144331795Y-104474184D01*
X144161151Y-104561132D01*
X143957350Y-104709201D01*
X143957345Y-104709205D01*
X143779205Y-104887345D01*
X143779201Y-104887350D01*
X143631132Y-105091151D01*
X143516760Y-105315616D01*
X143438910Y-105555214D01*
X143438910Y-105555215D01*
X143399500Y-105804038D01*
X143399500Y-106055962D01*
X143426750Y-106228008D01*
X143438910Y-106304785D01*
X143516760Y-106544383D01*
X143589952Y-106688028D01*
X143618653Y-106744358D01*
X143631132Y-106768848D01*
X143779201Y-106972649D01*
X143779205Y-106972654D01*
X143779207Y-106972656D01*
X143957344Y-107150793D01*
X143957345Y-107150794D01*
X143957344Y-107150794D01*
X143963661Y-107155383D01*
X144006327Y-107210714D01*
X144012305Y-107280327D01*
X143979699Y-107342122D01*
X143918860Y-107376479D01*
X143871378Y-107378174D01*
X143816611Y-107369500D01*
X143643389Y-107369500D01*
X143605721Y-107375466D01*
X143472302Y-107396597D01*
X143307552Y-107450128D01*
X143153211Y-107528768D01*
X143137580Y-107540125D01*
X143013072Y-107630586D01*
X143013070Y-107630588D01*
X143013069Y-107630588D01*
X142890588Y-107753069D01*
X142890588Y-107753070D01*
X142890586Y-107753072D01*
X142869313Y-107782352D01*
X142788768Y-107893211D01*
X142710128Y-108047552D01*
X142656597Y-108212302D01*
X142634251Y-108353394D01*
X142629500Y-108383389D01*
X140696464Y-108383389D01*
X140712284Y-108361614D01*
X140712285Y-108361613D01*
X140712287Y-108361610D01*
X140805220Y-108179219D01*
X140868477Y-107984534D01*
X140900500Y-107782352D01*
X140900500Y-107577648D01*
X140882022Y-107460986D01*
X140868477Y-107375465D01*
X140814946Y-107210714D01*
X140805220Y-107180781D01*
X140805218Y-107180778D01*
X140805218Y-107180776D01*
X140771503Y-107114607D01*
X140712287Y-106998390D01*
X140679275Y-106952952D01*
X140591971Y-106832786D01*
X140447213Y-106688028D01*
X140281613Y-106567715D01*
X140281612Y-106567714D01*
X140281610Y-106567713D01*
X140224653Y-106538691D01*
X140099223Y-106474781D01*
X139904534Y-106411522D01*
X139729995Y-106383878D01*
X139702352Y-106379500D01*
X139497648Y-106379500D01*
X139457211Y-106385904D01*
X139295462Y-106411523D01*
X139295460Y-106411523D01*
X139281149Y-106416173D01*
X139211308Y-106418164D01*
X139155157Y-106385921D01*
X135767590Y-102998355D01*
X135767588Y-102998352D01*
X135648717Y-102879481D01*
X135648716Y-102879480D01*
X135561904Y-102829360D01*
X135561904Y-102829359D01*
X135561900Y-102829358D01*
X135511785Y-102800423D01*
X135359057Y-102759499D01*
X135200943Y-102759499D01*
X135193347Y-102759499D01*
X135193331Y-102759500D01*
X133866300Y-102759500D01*
X133799261Y-102739815D01*
X133755815Y-102691795D01*
X133668870Y-102521155D01*
X133542590Y-102347345D01*
X133520798Y-102317350D01*
X133520794Y-102317345D01*
X133342654Y-102139205D01*
X133342649Y-102139201D01*
X133138848Y-101991132D01*
X133138847Y-101991131D01*
X133138845Y-101991130D01*
X133068747Y-101955413D01*
X132914383Y-101876760D01*
X132674785Y-101798910D01*
X132615373Y-101789500D01*
X132425962Y-101759500D01*
X132174038Y-101759500D01*
X132049626Y-101779205D01*
X131925214Y-101798910D01*
X131685616Y-101876760D01*
X131461151Y-101991132D01*
X131257350Y-102139201D01*
X131257345Y-102139205D01*
X131079205Y-102317345D01*
X131079201Y-102317350D01*
X130931132Y-102521151D01*
X130816760Y-102745616D01*
X130738910Y-102985214D01*
X130734158Y-103015215D01*
X130699500Y-103234038D01*
X126550500Y-103234038D01*
X126550500Y-95599983D01*
X138199500Y-95599983D01*
X138199500Y-96800001D01*
X138199501Y-96800018D01*
X138210000Y-96902796D01*
X138210001Y-96902799D01*
X138259706Y-97052796D01*
X138265186Y-97069334D01*
X138357288Y-97218656D01*
X138481344Y-97342712D01*
X138630666Y-97434814D01*
X138797203Y-97489999D01*
X138899991Y-97500500D01*
X140100008Y-97500499D01*
X140202797Y-97489999D01*
X140369334Y-97434814D01*
X140518656Y-97342712D01*
X140642712Y-97218656D01*
X140734814Y-97069334D01*
X140789999Y-96902797D01*
X140800500Y-96800009D01*
X140800499Y-95599992D01*
X140789999Y-95497203D01*
X140734814Y-95330666D01*
X140642712Y-95181344D01*
X140518656Y-95057288D01*
X140369334Y-94965186D01*
X140202797Y-94910001D01*
X140202795Y-94910000D01*
X140100010Y-94899500D01*
X138899998Y-94899500D01*
X138899981Y-94899501D01*
X138797203Y-94910000D01*
X138797200Y-94910001D01*
X138630668Y-94965185D01*
X138630663Y-94965187D01*
X138481342Y-95057289D01*
X138357289Y-95181342D01*
X138265187Y-95330663D01*
X138265186Y-95330666D01*
X138210001Y-95497203D01*
X138210001Y-95497204D01*
X138210000Y-95497204D01*
X138199500Y-95599983D01*
X126550500Y-95599983D01*
X126550500Y-89242486D01*
X127509500Y-89242486D01*
X127509500Y-89537513D01*
X127541571Y-89781113D01*
X127548007Y-89829993D01*
X127622212Y-90106930D01*
X127624361Y-90114951D01*
X127624364Y-90114961D01*
X127737254Y-90387500D01*
X127737258Y-90387510D01*
X127884761Y-90642993D01*
X128064352Y-90877040D01*
X128064358Y-90877047D01*
X128272952Y-91085641D01*
X128272959Y-91085647D01*
X128507006Y-91265238D01*
X128762489Y-91412741D01*
X128762490Y-91412741D01*
X128762493Y-91412743D01*
X129035048Y-91525639D01*
X129320007Y-91601993D01*
X129612494Y-91640500D01*
X129612501Y-91640500D01*
X129907499Y-91640500D01*
X129907506Y-91640500D01*
X130199993Y-91601993D01*
X130484952Y-91525639D01*
X130757507Y-91412743D01*
X131012994Y-91265238D01*
X131247042Y-91085646D01*
X131455646Y-90877042D01*
X131635238Y-90642994D01*
X131782743Y-90387507D01*
X131895639Y-90114952D01*
X131971993Y-89829993D01*
X132010500Y-89537506D01*
X132010500Y-89303389D01*
X133739500Y-89303389D01*
X133739500Y-89476610D01*
X133754603Y-89571971D01*
X133766598Y-89647701D01*
X133820127Y-89812445D01*
X133898768Y-89966788D01*
X134000586Y-90106928D01*
X134123072Y-90229414D01*
X134263212Y-90331232D01*
X134417555Y-90409873D01*
X134582299Y-90463402D01*
X134753389Y-90490500D01*
X134753390Y-90490500D01*
X134926610Y-90490500D01*
X134926611Y-90490500D01*
X135097701Y-90463402D01*
X135262445Y-90409873D01*
X135416788Y-90331232D01*
X135556928Y-90229414D01*
X135679414Y-90106928D01*
X135781232Y-89966788D01*
X135859873Y-89812445D01*
X135913402Y-89647701D01*
X135940500Y-89476611D01*
X135940500Y-89303389D01*
X135913402Y-89132299D01*
X135859873Y-88967555D01*
X135781232Y-88813212D01*
X135679414Y-88673072D01*
X135556928Y-88550586D01*
X135416788Y-88448768D01*
X135262445Y-88370127D01*
X135097701Y-88316598D01*
X135097699Y-88316597D01*
X135097698Y-88316597D01*
X134966271Y-88295781D01*
X134926611Y-88289500D01*
X134753389Y-88289500D01*
X134713728Y-88295781D01*
X134582302Y-88316597D01*
X134417552Y-88370128D01*
X134263211Y-88448768D01*
X134223462Y-88477648D01*
X134123072Y-88550586D01*
X134123070Y-88550588D01*
X134123069Y-88550588D01*
X134000588Y-88673069D01*
X134000588Y-88673070D01*
X134000586Y-88673072D01*
X133993844Y-88682352D01*
X133898768Y-88813211D01*
X133820128Y-88967552D01*
X133766597Y-89132302D01*
X133739500Y-89303389D01*
X132010500Y-89303389D01*
X132010500Y-89242494D01*
X131971993Y-88950007D01*
X131895639Y-88665048D01*
X131782743Y-88392493D01*
X131756177Y-88346480D01*
X131635238Y-88137006D01*
X131455647Y-87902959D01*
X131455641Y-87902952D01*
X131247047Y-87694358D01*
X131247040Y-87694352D01*
X131012993Y-87514761D01*
X130757510Y-87367258D01*
X130757500Y-87367254D01*
X130484961Y-87254364D01*
X130484954Y-87254362D01*
X130484952Y-87254361D01*
X130199993Y-87178007D01*
X130151113Y-87171571D01*
X129907513Y-87139500D01*
X129907506Y-87139500D01*
X129612494Y-87139500D01*
X129612486Y-87139500D01*
X129334085Y-87176153D01*
X129320007Y-87178007D01*
X129145428Y-87224785D01*
X129035048Y-87254361D01*
X129035038Y-87254364D01*
X128762499Y-87367254D01*
X128762489Y-87367258D01*
X128507006Y-87514761D01*
X128272959Y-87694352D01*
X128272952Y-87694358D01*
X128064358Y-87902952D01*
X128064352Y-87902959D01*
X127884761Y-88137006D01*
X127737258Y-88392489D01*
X127737254Y-88392499D01*
X127624364Y-88665038D01*
X127624361Y-88665048D01*
X127598488Y-88761610D01*
X127548008Y-88950004D01*
X127548006Y-88950015D01*
X127509500Y-89242486D01*
X126550500Y-89242486D01*
X126550500Y-88416300D01*
X126570185Y-88349261D01*
X126618204Y-88305815D01*
X126788845Y-88218870D01*
X126992656Y-88070793D01*
X127170793Y-87892656D01*
X127318870Y-87688845D01*
X127433241Y-87464379D01*
X127511090Y-87224785D01*
X127550500Y-86975962D01*
X127550500Y-86724038D01*
X127511090Y-86475215D01*
X127433241Y-86235621D01*
X127433239Y-86235618D01*
X127433239Y-86235616D01*
X127391747Y-86154184D01*
X127318870Y-86011155D01*
X127299952Y-85985117D01*
X127170798Y-85807350D01*
X127170794Y-85807345D01*
X126992654Y-85629205D01*
X126992649Y-85629201D01*
X126788848Y-85481132D01*
X126788847Y-85481131D01*
X126788845Y-85481130D01*
X126718747Y-85445413D01*
X126564383Y-85366760D01*
X126324785Y-85288910D01*
X126075962Y-85249500D01*
X125824038Y-85249500D01*
X125760901Y-85259500D01*
X125575214Y-85288910D01*
X125335616Y-85366760D01*
X125111151Y-85481132D01*
X124907350Y-85629201D01*
X124907345Y-85629205D01*
X124729205Y-85807345D01*
X124729201Y-85807350D01*
X124581132Y-86011151D01*
X124466760Y-86235616D01*
X124388910Y-86475214D01*
X124349500Y-86724038D01*
X124349500Y-86975961D01*
X124388910Y-87224785D01*
X124466760Y-87464383D01*
X124581132Y-87688848D01*
X124729201Y-87892649D01*
X124729205Y-87892654D01*
X124729207Y-87892656D01*
X124907344Y-88070793D01*
X124907345Y-88070794D01*
X124907344Y-88070794D01*
X124913661Y-88075383D01*
X124956327Y-88130714D01*
X124962305Y-88200327D01*
X124929699Y-88262122D01*
X124868860Y-88296479D01*
X124821378Y-88298174D01*
X124766611Y-88289500D01*
X124593389Y-88289500D01*
X124553728Y-88295781D01*
X124422302Y-88316597D01*
X124257552Y-88370128D01*
X124103211Y-88448768D01*
X124063462Y-88477648D01*
X123963072Y-88550586D01*
X123963070Y-88550588D01*
X123963069Y-88550588D01*
X123840588Y-88673069D01*
X123840588Y-88673070D01*
X123840586Y-88673072D01*
X123833844Y-88682352D01*
X123738768Y-88813211D01*
X123660128Y-88967552D01*
X123606597Y-89132302D01*
X123579500Y-89303389D01*
X121667428Y-89303389D01*
X121681264Y-89276233D01*
X121698595Y-89242222D01*
X121698596Y-89242220D01*
X121705217Y-89229226D01*
X121705217Y-89229222D01*
X121705220Y-89229219D01*
X121768477Y-89034534D01*
X121800500Y-88832352D01*
X121800500Y-88627648D01*
X121792830Y-88579223D01*
X121768477Y-88425465D01*
X121736353Y-88326598D01*
X121705220Y-88230781D01*
X121705218Y-88230778D01*
X121705218Y-88230776D01*
X121662534Y-88147006D01*
X121612287Y-88048390D01*
X121604556Y-88037749D01*
X121491971Y-87882786D01*
X121347213Y-87738028D01*
X121181613Y-87617715D01*
X121181612Y-87617714D01*
X121181610Y-87617713D01*
X121123350Y-87588028D01*
X120999223Y-87524781D01*
X120804534Y-87461522D01*
X120629995Y-87433878D01*
X120602352Y-87429500D01*
X120397648Y-87429500D01*
X120359599Y-87435526D01*
X120195468Y-87461522D01*
X120186717Y-87464365D01*
X120181154Y-87466173D01*
X120111313Y-87468167D01*
X120055157Y-87435922D01*
X116803273Y-84184038D01*
X130699500Y-84184038D01*
X130699500Y-84435961D01*
X130738910Y-84684785D01*
X130816760Y-84924383D01*
X130931132Y-85148848D01*
X131079201Y-85352649D01*
X131079205Y-85352654D01*
X131257345Y-85530794D01*
X131257350Y-85530798D01*
X131406555Y-85639201D01*
X131461155Y-85678870D01*
X131604184Y-85751747D01*
X131685616Y-85793239D01*
X131685618Y-85793239D01*
X131685621Y-85793241D01*
X131925215Y-85871090D01*
X132174038Y-85910500D01*
X132174039Y-85910500D01*
X132425961Y-85910500D01*
X132425962Y-85910500D01*
X132674785Y-85871090D01*
X132914379Y-85793241D01*
X133138845Y-85678870D01*
X133342656Y-85530793D01*
X133520793Y-85352656D01*
X133668870Y-85148845D01*
X133755815Y-84978204D01*
X133803789Y-84927409D01*
X133866300Y-84910500D01*
X134929903Y-84910500D01*
X134996942Y-84930185D01*
X135017584Y-84946819D01*
X138205922Y-88135157D01*
X138239407Y-88196480D01*
X138236173Y-88261155D01*
X138231522Y-88275468D01*
X138199500Y-88477648D01*
X138199500Y-88682351D01*
X138231522Y-88884534D01*
X138294781Y-89079223D01*
X138352391Y-89192287D01*
X138385786Y-89257829D01*
X138387715Y-89261613D01*
X138508028Y-89427213D01*
X138652786Y-89571971D01*
X138770786Y-89657701D01*
X138818390Y-89692287D01*
X138934607Y-89751503D01*
X139000776Y-89785218D01*
X139000778Y-89785218D01*
X139000781Y-89785220D01*
X139084571Y-89812445D01*
X139195465Y-89848477D01*
X139296557Y-89864488D01*
X139397648Y-89880500D01*
X139397649Y-89880500D01*
X139602351Y-89880500D01*
X139602352Y-89880500D01*
X139804534Y-89848477D01*
X139999219Y-89785220D01*
X140181610Y-89692287D01*
X140274590Y-89624732D01*
X140347213Y-89571971D01*
X140347215Y-89571968D01*
X140347219Y-89571966D01*
X140491966Y-89427219D01*
X140491968Y-89427215D01*
X140491971Y-89427213D01*
X140555961Y-89339137D01*
X140612287Y-89261610D01*
X140705220Y-89079219D01*
X140768477Y-88884534D01*
X140800500Y-88682352D01*
X140800500Y-88477648D01*
X140782556Y-88364356D01*
X140768477Y-88275465D01*
X140724693Y-88140714D01*
X140705220Y-88080781D01*
X140705218Y-88080778D01*
X140705218Y-88080776D01*
X140652671Y-87977648D01*
X140612287Y-87898390D01*
X140600950Y-87882786D01*
X140491971Y-87732786D01*
X140347213Y-87588028D01*
X140181613Y-87467715D01*
X140181612Y-87467714D01*
X140181610Y-87467713D01*
X140106613Y-87429500D01*
X139999223Y-87374781D01*
X139804534Y-87311522D01*
X139629995Y-87283878D01*
X139602352Y-87279500D01*
X139397648Y-87279500D01*
X139359599Y-87285526D01*
X139195468Y-87311522D01*
X139186717Y-87314365D01*
X139181154Y-87316173D01*
X139111313Y-87318167D01*
X139055157Y-87285922D01*
X135717590Y-83948355D01*
X135717588Y-83948352D01*
X135598717Y-83829481D01*
X135598709Y-83829475D01*
X135479106Y-83760423D01*
X135479106Y-83760422D01*
X135479101Y-83760421D01*
X135473058Y-83756932D01*
X135461786Y-83750423D01*
X135423603Y-83740192D01*
X135309057Y-83709499D01*
X135150943Y-83709499D01*
X135143347Y-83709499D01*
X135143331Y-83709500D01*
X133866300Y-83709500D01*
X133799261Y-83689815D01*
X133755815Y-83641795D01*
X133668870Y-83471155D01*
X133528063Y-83277350D01*
X133520798Y-83267350D01*
X133520794Y-83267345D01*
X133342654Y-83089205D01*
X133342649Y-83089201D01*
X133138848Y-82941132D01*
X133138847Y-82941131D01*
X133138845Y-82941130D01*
X133068747Y-82905413D01*
X132914383Y-82826760D01*
X132674785Y-82748910D01*
X132425962Y-82709500D01*
X132174038Y-82709500D01*
X132110901Y-82719500D01*
X131925214Y-82748910D01*
X131685616Y-82826760D01*
X131461151Y-82941132D01*
X131257350Y-83089201D01*
X131257345Y-83089205D01*
X131079205Y-83267345D01*
X131079201Y-83267350D01*
X130931132Y-83471151D01*
X130816760Y-83695616D01*
X130738910Y-83935214D01*
X130699500Y-84184038D01*
X116803273Y-84184038D01*
X116567590Y-83948355D01*
X116567588Y-83948352D01*
X116448717Y-83829481D01*
X116448709Y-83829475D01*
X116329106Y-83760423D01*
X116329106Y-83760422D01*
X116329101Y-83760421D01*
X116323058Y-83756932D01*
X116311786Y-83750423D01*
X116273603Y-83740192D01*
X116159057Y-83709499D01*
X116000943Y-83709499D01*
X115993347Y-83709499D01*
X115993331Y-83709500D01*
X114816300Y-83709500D01*
X114749261Y-83689815D01*
X114705815Y-83641795D01*
X114618870Y-83471155D01*
X114478063Y-83277350D01*
X114470798Y-83267350D01*
X114470794Y-83267345D01*
X114292654Y-83089205D01*
X114292649Y-83089201D01*
X114088848Y-82941132D01*
X114088847Y-82941131D01*
X114088845Y-82941130D01*
X114018747Y-82905413D01*
X113864383Y-82826760D01*
X113624785Y-82748910D01*
X113375962Y-82709500D01*
X113124038Y-82709500D01*
X113060901Y-82719500D01*
X112875214Y-82748910D01*
X112635616Y-82826760D01*
X112411151Y-82941132D01*
X112207350Y-83089201D01*
X112207345Y-83089205D01*
X112029205Y-83267345D01*
X112029201Y-83267350D01*
X111881132Y-83471151D01*
X111766760Y-83695616D01*
X111688910Y-83935214D01*
X111649500Y-84184038D01*
X85390500Y-84184038D01*
X85390500Y-79893713D01*
X89649500Y-79893713D01*
X89649500Y-80106286D01*
X89682753Y-80316239D01*
X89748444Y-80518414D01*
X89844951Y-80707820D01*
X89969890Y-80879786D01*
X90120213Y-81030109D01*
X90292179Y-81155048D01*
X90292181Y-81155049D01*
X90292184Y-81155051D01*
X90481588Y-81251557D01*
X90683757Y-81317246D01*
X90893713Y-81350500D01*
X90893714Y-81350500D01*
X91106286Y-81350500D01*
X91106287Y-81350500D01*
X91316243Y-81317246D01*
X91518412Y-81251557D01*
X91707816Y-81155051D01*
X91729789Y-81139086D01*
X91879786Y-81030109D01*
X91879788Y-81030106D01*
X91879792Y-81030104D01*
X92030104Y-80879792D01*
X92030106Y-80879788D01*
X92030109Y-80879786D01*
X92155048Y-80707820D01*
X92155047Y-80707820D01*
X92155051Y-80707816D01*
X92251557Y-80518412D01*
X92317246Y-80316243D01*
X92350500Y-80106287D01*
X92350500Y-79893713D01*
X92317246Y-79683757D01*
X92251557Y-79481588D01*
X92155051Y-79292184D01*
X92155049Y-79292181D01*
X92155048Y-79292179D01*
X92030109Y-79120213D01*
X91879786Y-78969890D01*
X91707820Y-78844951D01*
X91518414Y-78748444D01*
X91518413Y-78748443D01*
X91518412Y-78748443D01*
X91316243Y-78682754D01*
X91316241Y-78682753D01*
X91316240Y-78682753D01*
X91154957Y-78657208D01*
X91106287Y-78649500D01*
X90893713Y-78649500D01*
X90845042Y-78657208D01*
X90683760Y-78682753D01*
X90481585Y-78748444D01*
X90292179Y-78844951D01*
X90120213Y-78969890D01*
X89969890Y-79120213D01*
X89844951Y-79292179D01*
X89748444Y-79481585D01*
X89682753Y-79683760D01*
X89649500Y-79893713D01*
X85390500Y-79893713D01*
X85390500Y-58624500D01*
X85410185Y-58557461D01*
X85462989Y-58511706D01*
X85514500Y-58500500D01*
X126159402Y-58500500D01*
X126226441Y-58520185D01*
G37*
%TD.AperFunction*%
%TD*%
M02*
