%TF.GenerationSoftware,KiCad,Pcbnew,9.0.7*%
%TF.CreationDate,2026-02-04T22:49:18-05:00*%
%TF.ProjectId,Keypad,4b657970-6164-42e6-9b69-6361645f7063,rev?*%
%TF.SameCoordinates,Original*%
%TF.FileFunction,Legend,Top*%
%TF.FilePolarity,Positive*%
%FSLAX46Y46*%
G04 Gerber Fmt 4.6, Leading zero omitted, Abs format (unit mm)*
G04 Created by KiCad (PCBNEW 9.0.7) date 2026-02-04 22:49:18*
%MOMM*%
%LPD*%
G01*
G04 APERTURE LIST*
%ADD10C,0.100000*%
%ADD11C,0.150000*%
%ADD12C,0.120000*%
%ADD13C,0.040000*%
%ADD14C,0.127000*%
%ADD15C,0.504000*%
G04 APERTURE END LIST*
D10*
X93556265Y-156926704D02*
X94032455Y-156926704D01*
X93461027Y-157212419D02*
X93794360Y-156212419D01*
X93794360Y-156212419D02*
X94127693Y-157212419D01*
X94461027Y-156545752D02*
X94461027Y-157212419D01*
X94461027Y-156640990D02*
X94508646Y-156593371D01*
X94508646Y-156593371D02*
X94603884Y-156545752D01*
X94603884Y-156545752D02*
X94746741Y-156545752D01*
X94746741Y-156545752D02*
X94841979Y-156593371D01*
X94841979Y-156593371D02*
X94889598Y-156688609D01*
X94889598Y-156688609D02*
X94889598Y-157212419D01*
X95794360Y-157212419D02*
X95794360Y-156212419D01*
X95794360Y-157164800D02*
X95699122Y-157212419D01*
X95699122Y-157212419D02*
X95508646Y-157212419D01*
X95508646Y-157212419D02*
X95413408Y-157164800D01*
X95413408Y-157164800D02*
X95365789Y-157117180D01*
X95365789Y-157117180D02*
X95318170Y-157021942D01*
X95318170Y-157021942D02*
X95318170Y-156736228D01*
X95318170Y-156736228D02*
X95365789Y-156640990D01*
X95365789Y-156640990D02*
X95413408Y-156593371D01*
X95413408Y-156593371D02*
X95508646Y-156545752D01*
X95508646Y-156545752D02*
X95699122Y-156545752D01*
X95699122Y-156545752D02*
X95794360Y-156593371D01*
X96270551Y-157212419D02*
X96270551Y-156545752D01*
X96270551Y-156736228D02*
X96318170Y-156640990D01*
X96318170Y-156640990D02*
X96365789Y-156593371D01*
X96365789Y-156593371D02*
X96461027Y-156545752D01*
X96461027Y-156545752D02*
X96556265Y-156545752D01*
X97270551Y-157164800D02*
X97175313Y-157212419D01*
X97175313Y-157212419D02*
X96984837Y-157212419D01*
X96984837Y-157212419D02*
X96889599Y-157164800D01*
X96889599Y-157164800D02*
X96841980Y-157069561D01*
X96841980Y-157069561D02*
X96841980Y-156688609D01*
X96841980Y-156688609D02*
X96889599Y-156593371D01*
X96889599Y-156593371D02*
X96984837Y-156545752D01*
X96984837Y-156545752D02*
X97175313Y-156545752D01*
X97175313Y-156545752D02*
X97270551Y-156593371D01*
X97270551Y-156593371D02*
X97318170Y-156688609D01*
X97318170Y-156688609D02*
X97318170Y-156783847D01*
X97318170Y-156783847D02*
X96841980Y-156879085D01*
X97651504Y-156545752D02*
X97841980Y-157212419D01*
X97841980Y-157212419D02*
X98032456Y-156736228D01*
X98032456Y-156736228D02*
X98222932Y-157212419D01*
X98222932Y-157212419D02*
X98413408Y-156545752D01*
X98841980Y-156212419D02*
X98746742Y-156402895D01*
X99222932Y-157164800D02*
X99318170Y-157212419D01*
X99318170Y-157212419D02*
X99508646Y-157212419D01*
X99508646Y-157212419D02*
X99603884Y-157164800D01*
X99603884Y-157164800D02*
X99651503Y-157069561D01*
X99651503Y-157069561D02*
X99651503Y-157021942D01*
X99651503Y-157021942D02*
X99603884Y-156926704D01*
X99603884Y-156926704D02*
X99508646Y-156879085D01*
X99508646Y-156879085D02*
X99365789Y-156879085D01*
X99365789Y-156879085D02*
X99270551Y-156831466D01*
X99270551Y-156831466D02*
X99222932Y-156736228D01*
X99222932Y-156736228D02*
X99222932Y-156688609D01*
X99222932Y-156688609D02*
X99270551Y-156593371D01*
X99270551Y-156593371D02*
X99365789Y-156545752D01*
X99365789Y-156545752D02*
X99508646Y-156545752D01*
X99508646Y-156545752D02*
X99603884Y-156593371D01*
X101365789Y-156260038D02*
X101270551Y-156212419D01*
X101270551Y-156212419D02*
X101127694Y-156212419D01*
X101127694Y-156212419D02*
X100984837Y-156260038D01*
X100984837Y-156260038D02*
X100889599Y-156355276D01*
X100889599Y-156355276D02*
X100841980Y-156450514D01*
X100841980Y-156450514D02*
X100794361Y-156640990D01*
X100794361Y-156640990D02*
X100794361Y-156783847D01*
X100794361Y-156783847D02*
X100841980Y-156974323D01*
X100841980Y-156974323D02*
X100889599Y-157069561D01*
X100889599Y-157069561D02*
X100984837Y-157164800D01*
X100984837Y-157164800D02*
X101127694Y-157212419D01*
X101127694Y-157212419D02*
X101222932Y-157212419D01*
X101222932Y-157212419D02*
X101365789Y-157164800D01*
X101365789Y-157164800D02*
X101413408Y-157117180D01*
X101413408Y-157117180D02*
X101413408Y-156783847D01*
X101413408Y-156783847D02*
X101222932Y-156783847D01*
X101841980Y-157212419D02*
X101841980Y-156545752D01*
X101841980Y-156212419D02*
X101794361Y-156260038D01*
X101794361Y-156260038D02*
X101841980Y-156307657D01*
X101841980Y-156307657D02*
X101889599Y-156260038D01*
X101889599Y-156260038D02*
X101841980Y-156212419D01*
X101841980Y-156212419D02*
X101841980Y-156307657D01*
X102746741Y-156545752D02*
X102746741Y-157355276D01*
X102746741Y-157355276D02*
X102699122Y-157450514D01*
X102699122Y-157450514D02*
X102651503Y-157498133D01*
X102651503Y-157498133D02*
X102556265Y-157545752D01*
X102556265Y-157545752D02*
X102413408Y-157545752D01*
X102413408Y-157545752D02*
X102318170Y-157498133D01*
X102746741Y-157164800D02*
X102651503Y-157212419D01*
X102651503Y-157212419D02*
X102461027Y-157212419D01*
X102461027Y-157212419D02*
X102365789Y-157164800D01*
X102365789Y-157164800D02*
X102318170Y-157117180D01*
X102318170Y-157117180D02*
X102270551Y-157021942D01*
X102270551Y-157021942D02*
X102270551Y-156736228D01*
X102270551Y-156736228D02*
X102318170Y-156640990D01*
X102318170Y-156640990D02*
X102365789Y-156593371D01*
X102365789Y-156593371D02*
X102461027Y-156545752D01*
X102461027Y-156545752D02*
X102651503Y-156545752D01*
X102651503Y-156545752D02*
X102746741Y-156593371D01*
X103651503Y-157212419D02*
X103651503Y-156688609D01*
X103651503Y-156688609D02*
X103603884Y-156593371D01*
X103603884Y-156593371D02*
X103508646Y-156545752D01*
X103508646Y-156545752D02*
X103318170Y-156545752D01*
X103318170Y-156545752D02*
X103222932Y-156593371D01*
X103651503Y-157164800D02*
X103556265Y-157212419D01*
X103556265Y-157212419D02*
X103318170Y-157212419D01*
X103318170Y-157212419D02*
X103222932Y-157164800D01*
X103222932Y-157164800D02*
X103175313Y-157069561D01*
X103175313Y-157069561D02*
X103175313Y-156974323D01*
X103175313Y-156974323D02*
X103222932Y-156879085D01*
X103222932Y-156879085D02*
X103318170Y-156831466D01*
X103318170Y-156831466D02*
X103556265Y-156831466D01*
X103556265Y-156831466D02*
X103651503Y-156783847D01*
X104127694Y-156545752D02*
X104127694Y-157545752D01*
X104127694Y-156593371D02*
X104222932Y-156545752D01*
X104222932Y-156545752D02*
X104413408Y-156545752D01*
X104413408Y-156545752D02*
X104508646Y-156593371D01*
X104508646Y-156593371D02*
X104556265Y-156640990D01*
X104556265Y-156640990D02*
X104603884Y-156736228D01*
X104603884Y-156736228D02*
X104603884Y-157021942D01*
X104603884Y-157021942D02*
X104556265Y-157117180D01*
X104556265Y-157117180D02*
X104508646Y-157164800D01*
X104508646Y-157164800D02*
X104413408Y-157212419D01*
X104413408Y-157212419D02*
X104222932Y-157212419D01*
X104222932Y-157212419D02*
X104127694Y-157164800D01*
X105461027Y-157212419D02*
X105461027Y-156688609D01*
X105461027Y-156688609D02*
X105413408Y-156593371D01*
X105413408Y-156593371D02*
X105318170Y-156545752D01*
X105318170Y-156545752D02*
X105127694Y-156545752D01*
X105127694Y-156545752D02*
X105032456Y-156593371D01*
X105461027Y-157164800D02*
X105365789Y-157212419D01*
X105365789Y-157212419D02*
X105127694Y-157212419D01*
X105127694Y-157212419D02*
X105032456Y-157164800D01*
X105032456Y-157164800D02*
X104984837Y-157069561D01*
X104984837Y-157069561D02*
X104984837Y-156974323D01*
X104984837Y-156974323D02*
X105032456Y-156879085D01*
X105032456Y-156879085D02*
X105127694Y-156831466D01*
X105127694Y-156831466D02*
X105365789Y-156831466D01*
X105365789Y-156831466D02*
X105461027Y-156783847D01*
X106365789Y-157212419D02*
X106365789Y-156212419D01*
X106365789Y-157164800D02*
X106270551Y-157212419D01*
X106270551Y-157212419D02*
X106080075Y-157212419D01*
X106080075Y-157212419D02*
X105984837Y-157164800D01*
X105984837Y-157164800D02*
X105937218Y-157117180D01*
X105937218Y-157117180D02*
X105889599Y-157021942D01*
X105889599Y-157021942D02*
X105889599Y-156736228D01*
X105889599Y-156736228D02*
X105937218Y-156640990D01*
X105937218Y-156640990D02*
X105984837Y-156593371D01*
X105984837Y-156593371D02*
X106080075Y-156545752D01*
X106080075Y-156545752D02*
X106270551Y-156545752D01*
X106270551Y-156545752D02*
X106365789Y-156593371D01*
X129208646Y-70872419D02*
X129875312Y-71872419D01*
X129875312Y-70872419D02*
X129208646Y-71872419D01*
X130256265Y-71872419D02*
X130256265Y-70872419D01*
X130684836Y-71586704D02*
X131161026Y-71586704D01*
X130589598Y-71872419D02*
X130922931Y-70872419D01*
X130922931Y-70872419D02*
X131256264Y-71872419D01*
X131780074Y-70872419D02*
X131970550Y-70872419D01*
X131970550Y-70872419D02*
X132065788Y-70920038D01*
X132065788Y-70920038D02*
X132161026Y-71015276D01*
X132161026Y-71015276D02*
X132208645Y-71205752D01*
X132208645Y-71205752D02*
X132208645Y-71539085D01*
X132208645Y-71539085D02*
X132161026Y-71729561D01*
X132161026Y-71729561D02*
X132065788Y-71824800D01*
X132065788Y-71824800D02*
X131970550Y-71872419D01*
X131970550Y-71872419D02*
X131780074Y-71872419D01*
X131780074Y-71872419D02*
X131684836Y-71824800D01*
X131684836Y-71824800D02*
X131589598Y-71729561D01*
X131589598Y-71729561D02*
X131541979Y-71539085D01*
X131541979Y-71539085D02*
X131541979Y-71205752D01*
X131541979Y-71205752D02*
X131589598Y-71015276D01*
X131589598Y-71015276D02*
X131684836Y-70920038D01*
X131684836Y-70920038D02*
X131780074Y-70872419D01*
X133399122Y-71872419D02*
X133399122Y-70872419D01*
X133399122Y-71348609D02*
X133970550Y-71348609D01*
X133970550Y-71872419D02*
X133970550Y-70872419D01*
X134446741Y-71348609D02*
X134780074Y-71348609D01*
X134922931Y-71872419D02*
X134446741Y-71872419D01*
X134446741Y-71872419D02*
X134446741Y-70872419D01*
X134446741Y-70872419D02*
X134922931Y-70872419D01*
X135922931Y-71872419D02*
X135589598Y-71396228D01*
X135351503Y-71872419D02*
X135351503Y-70872419D01*
X135351503Y-70872419D02*
X135732455Y-70872419D01*
X135732455Y-70872419D02*
X135827693Y-70920038D01*
X135827693Y-70920038D02*
X135875312Y-70967657D01*
X135875312Y-70967657D02*
X135922931Y-71062895D01*
X135922931Y-71062895D02*
X135922931Y-71205752D01*
X135922931Y-71205752D02*
X135875312Y-71300990D01*
X135875312Y-71300990D02*
X135827693Y-71348609D01*
X135827693Y-71348609D02*
X135732455Y-71396228D01*
X135732455Y-71396228D02*
X135351503Y-71396228D01*
X136351503Y-71348609D02*
X136684836Y-71348609D01*
X136827693Y-71872419D02*
X136351503Y-71872419D01*
X136351503Y-71872419D02*
X136351503Y-70872419D01*
X136351503Y-70872419D02*
X136827693Y-70872419D01*
D11*
X158054819Y-95961904D02*
X157054819Y-95961904D01*
X158054819Y-95390476D02*
X157483390Y-95819047D01*
X157054819Y-95390476D02*
X157626247Y-95961904D01*
X89666666Y-77304819D02*
X89333333Y-76828628D01*
X89095238Y-77304819D02*
X89095238Y-76304819D01*
X89095238Y-76304819D02*
X89476190Y-76304819D01*
X89476190Y-76304819D02*
X89571428Y-76352438D01*
X89571428Y-76352438D02*
X89619047Y-76400057D01*
X89619047Y-76400057D02*
X89666666Y-76495295D01*
X89666666Y-76495295D02*
X89666666Y-76638152D01*
X89666666Y-76638152D02*
X89619047Y-76733390D01*
X89619047Y-76733390D02*
X89571428Y-76781009D01*
X89571428Y-76781009D02*
X89476190Y-76828628D01*
X89476190Y-76828628D02*
X89095238Y-76828628D01*
X90095238Y-76781009D02*
X90428571Y-76781009D01*
X90571428Y-77304819D02*
X90095238Y-77304819D01*
X90095238Y-77304819D02*
X90095238Y-76304819D01*
X90095238Y-76304819D02*
X90571428Y-76304819D01*
X91333333Y-76781009D02*
X91000000Y-76781009D01*
X91000000Y-77304819D02*
X91000000Y-76304819D01*
X91000000Y-76304819D02*
X91476190Y-76304819D01*
X92000000Y-76304819D02*
X92000000Y-76542914D01*
X91761905Y-76447676D02*
X92000000Y-76542914D01*
X92000000Y-76542914D02*
X92238095Y-76447676D01*
X91857143Y-76733390D02*
X92000000Y-76542914D01*
X92000000Y-76542914D02*
X92142857Y-76733390D01*
X92761905Y-76304819D02*
X92761905Y-76542914D01*
X92523810Y-76447676D02*
X92761905Y-76542914D01*
X92761905Y-76542914D02*
X93000000Y-76447676D01*
X92619048Y-76733390D02*
X92761905Y-76542914D01*
X92761905Y-76542914D02*
X92904762Y-76733390D01*
X166666666Y-77304819D02*
X166333333Y-76828628D01*
X166095238Y-77304819D02*
X166095238Y-76304819D01*
X166095238Y-76304819D02*
X166476190Y-76304819D01*
X166476190Y-76304819D02*
X166571428Y-76352438D01*
X166571428Y-76352438D02*
X166619047Y-76400057D01*
X166619047Y-76400057D02*
X166666666Y-76495295D01*
X166666666Y-76495295D02*
X166666666Y-76638152D01*
X166666666Y-76638152D02*
X166619047Y-76733390D01*
X166619047Y-76733390D02*
X166571428Y-76781009D01*
X166571428Y-76781009D02*
X166476190Y-76828628D01*
X166476190Y-76828628D02*
X166095238Y-76828628D01*
X167095238Y-76781009D02*
X167428571Y-76781009D01*
X167571428Y-77304819D02*
X167095238Y-77304819D01*
X167095238Y-77304819D02*
X167095238Y-76304819D01*
X167095238Y-76304819D02*
X167571428Y-76304819D01*
X168333333Y-76781009D02*
X168000000Y-76781009D01*
X168000000Y-77304819D02*
X168000000Y-76304819D01*
X168000000Y-76304819D02*
X168476190Y-76304819D01*
X169000000Y-76304819D02*
X169000000Y-76542914D01*
X168761905Y-76447676D02*
X169000000Y-76542914D01*
X169000000Y-76542914D02*
X169238095Y-76447676D01*
X168857143Y-76733390D02*
X169000000Y-76542914D01*
X169000000Y-76542914D02*
X169142857Y-76733390D01*
X169761905Y-76304819D02*
X169761905Y-76542914D01*
X169523810Y-76447676D02*
X169761905Y-76542914D01*
X169761905Y-76542914D02*
X170000000Y-76447676D01*
X169619048Y-76733390D02*
X169761905Y-76542914D01*
X169761905Y-76542914D02*
X169904762Y-76733390D01*
X89666666Y-150804819D02*
X89333333Y-150328628D01*
X89095238Y-150804819D02*
X89095238Y-149804819D01*
X89095238Y-149804819D02*
X89476190Y-149804819D01*
X89476190Y-149804819D02*
X89571428Y-149852438D01*
X89571428Y-149852438D02*
X89619047Y-149900057D01*
X89619047Y-149900057D02*
X89666666Y-149995295D01*
X89666666Y-149995295D02*
X89666666Y-150138152D01*
X89666666Y-150138152D02*
X89619047Y-150233390D01*
X89619047Y-150233390D02*
X89571428Y-150281009D01*
X89571428Y-150281009D02*
X89476190Y-150328628D01*
X89476190Y-150328628D02*
X89095238Y-150328628D01*
X90095238Y-150281009D02*
X90428571Y-150281009D01*
X90571428Y-150804819D02*
X90095238Y-150804819D01*
X90095238Y-150804819D02*
X90095238Y-149804819D01*
X90095238Y-149804819D02*
X90571428Y-149804819D01*
X91333333Y-150281009D02*
X91000000Y-150281009D01*
X91000000Y-150804819D02*
X91000000Y-149804819D01*
X91000000Y-149804819D02*
X91476190Y-149804819D01*
X92000000Y-149804819D02*
X92000000Y-150042914D01*
X91761905Y-149947676D02*
X92000000Y-150042914D01*
X92000000Y-150042914D02*
X92238095Y-149947676D01*
X91857143Y-150233390D02*
X92000000Y-150042914D01*
X92000000Y-150042914D02*
X92142857Y-150233390D01*
X92761905Y-149804819D02*
X92761905Y-150042914D01*
X92523810Y-149947676D02*
X92761905Y-150042914D01*
X92761905Y-150042914D02*
X93000000Y-149947676D01*
X92619048Y-150233390D02*
X92761905Y-150042914D01*
X92761905Y-150042914D02*
X92904762Y-150233390D01*
X137834819Y-130778094D02*
X136834819Y-130778094D01*
X136834819Y-130778094D02*
X136834819Y-130539999D01*
X136834819Y-130539999D02*
X136882438Y-130397142D01*
X136882438Y-130397142D02*
X136977676Y-130301904D01*
X136977676Y-130301904D02*
X137072914Y-130254285D01*
X137072914Y-130254285D02*
X137263390Y-130206666D01*
X137263390Y-130206666D02*
X137406247Y-130206666D01*
X137406247Y-130206666D02*
X137596723Y-130254285D01*
X137596723Y-130254285D02*
X137691961Y-130301904D01*
X137691961Y-130301904D02*
X137787200Y-130397142D01*
X137787200Y-130397142D02*
X137834819Y-130539999D01*
X137834819Y-130539999D02*
X137834819Y-130778094D01*
X136834819Y-129349523D02*
X136834819Y-129539999D01*
X136834819Y-129539999D02*
X136882438Y-129635237D01*
X136882438Y-129635237D02*
X136930057Y-129682856D01*
X136930057Y-129682856D02*
X137072914Y-129778094D01*
X137072914Y-129778094D02*
X137263390Y-129825713D01*
X137263390Y-129825713D02*
X137644342Y-129825713D01*
X137644342Y-129825713D02*
X137739580Y-129778094D01*
X137739580Y-129778094D02*
X137787200Y-129730475D01*
X137787200Y-129730475D02*
X137834819Y-129635237D01*
X137834819Y-129635237D02*
X137834819Y-129444761D01*
X137834819Y-129444761D02*
X137787200Y-129349523D01*
X137787200Y-129349523D02*
X137739580Y-129301904D01*
X137739580Y-129301904D02*
X137644342Y-129254285D01*
X137644342Y-129254285D02*
X137406247Y-129254285D01*
X137406247Y-129254285D02*
X137311009Y-129301904D01*
X137311009Y-129301904D02*
X137263390Y-129349523D01*
X137263390Y-129349523D02*
X137215771Y-129444761D01*
X137215771Y-129444761D02*
X137215771Y-129635237D01*
X137215771Y-129635237D02*
X137263390Y-129730475D01*
X137263390Y-129730475D02*
X137311009Y-129778094D01*
X137311009Y-129778094D02*
X137406247Y-129825713D01*
X138154819Y-134111904D02*
X137154819Y-134111904D01*
X138154819Y-133540476D02*
X137583390Y-133969047D01*
X137154819Y-133540476D02*
X137726247Y-134111904D01*
X123166667Y-81923200D02*
X123309524Y-81970819D01*
X123309524Y-81970819D02*
X123547619Y-81970819D01*
X123547619Y-81970819D02*
X123642857Y-81923200D01*
X123642857Y-81923200D02*
X123690476Y-81875580D01*
X123690476Y-81875580D02*
X123738095Y-81780342D01*
X123738095Y-81780342D02*
X123738095Y-81685104D01*
X123738095Y-81685104D02*
X123690476Y-81589866D01*
X123690476Y-81589866D02*
X123642857Y-81542247D01*
X123642857Y-81542247D02*
X123547619Y-81494628D01*
X123547619Y-81494628D02*
X123357143Y-81447009D01*
X123357143Y-81447009D02*
X123261905Y-81399390D01*
X123261905Y-81399390D02*
X123214286Y-81351771D01*
X123214286Y-81351771D02*
X123166667Y-81256533D01*
X123166667Y-81256533D02*
X123166667Y-81161295D01*
X123166667Y-81161295D02*
X123214286Y-81066057D01*
X123214286Y-81066057D02*
X123261905Y-81018438D01*
X123261905Y-81018438D02*
X123357143Y-80970819D01*
X123357143Y-80970819D02*
X123595238Y-80970819D01*
X123595238Y-80970819D02*
X123738095Y-81018438D01*
X124071429Y-80970819D02*
X124309524Y-81970819D01*
X124309524Y-81970819D02*
X124500000Y-81256533D01*
X124500000Y-81256533D02*
X124690476Y-81970819D01*
X124690476Y-81970819D02*
X124928572Y-80970819D01*
X125452381Y-81399390D02*
X125357143Y-81351771D01*
X125357143Y-81351771D02*
X125309524Y-81304152D01*
X125309524Y-81304152D02*
X125261905Y-81208914D01*
X125261905Y-81208914D02*
X125261905Y-81161295D01*
X125261905Y-81161295D02*
X125309524Y-81066057D01*
X125309524Y-81066057D02*
X125357143Y-81018438D01*
X125357143Y-81018438D02*
X125452381Y-80970819D01*
X125452381Y-80970819D02*
X125642857Y-80970819D01*
X125642857Y-80970819D02*
X125738095Y-81018438D01*
X125738095Y-81018438D02*
X125785714Y-81066057D01*
X125785714Y-81066057D02*
X125833333Y-81161295D01*
X125833333Y-81161295D02*
X125833333Y-81208914D01*
X125833333Y-81208914D02*
X125785714Y-81304152D01*
X125785714Y-81304152D02*
X125738095Y-81351771D01*
X125738095Y-81351771D02*
X125642857Y-81399390D01*
X125642857Y-81399390D02*
X125452381Y-81399390D01*
X125452381Y-81399390D02*
X125357143Y-81447009D01*
X125357143Y-81447009D02*
X125309524Y-81494628D01*
X125309524Y-81494628D02*
X125261905Y-81589866D01*
X125261905Y-81589866D02*
X125261905Y-81780342D01*
X125261905Y-81780342D02*
X125309524Y-81875580D01*
X125309524Y-81875580D02*
X125357143Y-81923200D01*
X125357143Y-81923200D02*
X125452381Y-81970819D01*
X125452381Y-81970819D02*
X125642857Y-81970819D01*
X125642857Y-81970819D02*
X125738095Y-81923200D01*
X125738095Y-81923200D02*
X125785714Y-81875580D01*
X125785714Y-81875580D02*
X125833333Y-81780342D01*
X125833333Y-81780342D02*
X125833333Y-81589866D01*
X125833333Y-81589866D02*
X125785714Y-81494628D01*
X125785714Y-81494628D02*
X125738095Y-81447009D01*
X125738095Y-81447009D02*
X125642857Y-81399390D01*
X157834819Y-131104285D02*
X156834819Y-131104285D01*
X156834819Y-131104285D02*
X156834819Y-130866190D01*
X156834819Y-130866190D02*
X156882438Y-130723333D01*
X156882438Y-130723333D02*
X156977676Y-130628095D01*
X156977676Y-130628095D02*
X157072914Y-130580476D01*
X157072914Y-130580476D02*
X157263390Y-130532857D01*
X157263390Y-130532857D02*
X157406247Y-130532857D01*
X157406247Y-130532857D02*
X157596723Y-130580476D01*
X157596723Y-130580476D02*
X157691961Y-130628095D01*
X157691961Y-130628095D02*
X157787200Y-130723333D01*
X157787200Y-130723333D02*
X157834819Y-130866190D01*
X157834819Y-130866190D02*
X157834819Y-131104285D01*
X157834819Y-129580476D02*
X157834819Y-130151904D01*
X157834819Y-129866190D02*
X156834819Y-129866190D01*
X156834819Y-129866190D02*
X156977676Y-129961428D01*
X156977676Y-129961428D02*
X157072914Y-130056666D01*
X157072914Y-130056666D02*
X157120533Y-130151904D01*
X156834819Y-128961428D02*
X156834819Y-128866190D01*
X156834819Y-128866190D02*
X156882438Y-128770952D01*
X156882438Y-128770952D02*
X156930057Y-128723333D01*
X156930057Y-128723333D02*
X157025295Y-128675714D01*
X157025295Y-128675714D02*
X157215771Y-128628095D01*
X157215771Y-128628095D02*
X157453866Y-128628095D01*
X157453866Y-128628095D02*
X157644342Y-128675714D01*
X157644342Y-128675714D02*
X157739580Y-128723333D01*
X157739580Y-128723333D02*
X157787200Y-128770952D01*
X157787200Y-128770952D02*
X157834819Y-128866190D01*
X157834819Y-128866190D02*
X157834819Y-128961428D01*
X157834819Y-128961428D02*
X157787200Y-129056666D01*
X157787200Y-129056666D02*
X157739580Y-129104285D01*
X157739580Y-129104285D02*
X157644342Y-129151904D01*
X157644342Y-129151904D02*
X157453866Y-129199523D01*
X157453866Y-129199523D02*
X157215771Y-129199523D01*
X157215771Y-129199523D02*
X157025295Y-129151904D01*
X157025295Y-129151904D02*
X156930057Y-129104285D01*
X156930057Y-129104285D02*
X156882438Y-129056666D01*
X156882438Y-129056666D02*
X156834819Y-128961428D01*
X158154819Y-133961904D02*
X157154819Y-133961904D01*
X158154819Y-133390476D02*
X157583390Y-133819047D01*
X157154819Y-133390476D02*
X157726247Y-133961904D01*
X114880952Y-138104819D02*
X114404762Y-138104819D01*
X114404762Y-138104819D02*
X114404762Y-137104819D01*
X115214286Y-137581009D02*
X115547619Y-137581009D01*
X115690476Y-138104819D02*
X115214286Y-138104819D01*
X115214286Y-138104819D02*
X115214286Y-137104819D01*
X115214286Y-137104819D02*
X115690476Y-137104819D01*
X116119048Y-138104819D02*
X116119048Y-137104819D01*
X116119048Y-137104819D02*
X116357143Y-137104819D01*
X116357143Y-137104819D02*
X116500000Y-137152438D01*
X116500000Y-137152438D02*
X116595238Y-137247676D01*
X116595238Y-137247676D02*
X116642857Y-137342914D01*
X116642857Y-137342914D02*
X116690476Y-137533390D01*
X116690476Y-137533390D02*
X116690476Y-137676247D01*
X116690476Y-137676247D02*
X116642857Y-137866723D01*
X116642857Y-137866723D02*
X116595238Y-137961961D01*
X116595238Y-137961961D02*
X116500000Y-138057200D01*
X116500000Y-138057200D02*
X116357143Y-138104819D01*
X116357143Y-138104819D02*
X116119048Y-138104819D01*
X117071429Y-137200057D02*
X117119048Y-137152438D01*
X117119048Y-137152438D02*
X117214286Y-137104819D01*
X117214286Y-137104819D02*
X117452381Y-137104819D01*
X117452381Y-137104819D02*
X117547619Y-137152438D01*
X117547619Y-137152438D02*
X117595238Y-137200057D01*
X117595238Y-137200057D02*
X117642857Y-137295295D01*
X117642857Y-137295295D02*
X117642857Y-137390533D01*
X117642857Y-137390533D02*
X117595238Y-137533390D01*
X117595238Y-137533390D02*
X117023810Y-138104819D01*
X117023810Y-138104819D02*
X117642857Y-138104819D01*
X153880952Y-156454819D02*
X153404762Y-156454819D01*
X153404762Y-156454819D02*
X153404762Y-155454819D01*
X154214286Y-155931009D02*
X154547619Y-155931009D01*
X154690476Y-156454819D02*
X154214286Y-156454819D01*
X154214286Y-156454819D02*
X154214286Y-155454819D01*
X154214286Y-155454819D02*
X154690476Y-155454819D01*
X155119048Y-156454819D02*
X155119048Y-155454819D01*
X155119048Y-155454819D02*
X155357143Y-155454819D01*
X155357143Y-155454819D02*
X155500000Y-155502438D01*
X155500000Y-155502438D02*
X155595238Y-155597676D01*
X155595238Y-155597676D02*
X155642857Y-155692914D01*
X155642857Y-155692914D02*
X155690476Y-155883390D01*
X155690476Y-155883390D02*
X155690476Y-156026247D01*
X155690476Y-156026247D02*
X155642857Y-156216723D01*
X155642857Y-156216723D02*
X155595238Y-156311961D01*
X155595238Y-156311961D02*
X155500000Y-156407200D01*
X155500000Y-156407200D02*
X155357143Y-156454819D01*
X155357143Y-156454819D02*
X155119048Y-156454819D01*
X156166667Y-156454819D02*
X156357143Y-156454819D01*
X156357143Y-156454819D02*
X156452381Y-156407200D01*
X156452381Y-156407200D02*
X156500000Y-156359580D01*
X156500000Y-156359580D02*
X156595238Y-156216723D01*
X156595238Y-156216723D02*
X156642857Y-156026247D01*
X156642857Y-156026247D02*
X156642857Y-155645295D01*
X156642857Y-155645295D02*
X156595238Y-155550057D01*
X156595238Y-155550057D02*
X156547619Y-155502438D01*
X156547619Y-155502438D02*
X156452381Y-155454819D01*
X156452381Y-155454819D02*
X156261905Y-155454819D01*
X156261905Y-155454819D02*
X156166667Y-155502438D01*
X156166667Y-155502438D02*
X156119048Y-155550057D01*
X156119048Y-155550057D02*
X156071429Y-155645295D01*
X156071429Y-155645295D02*
X156071429Y-155883390D01*
X156071429Y-155883390D02*
X156119048Y-155978628D01*
X156119048Y-155978628D02*
X156166667Y-156026247D01*
X156166667Y-156026247D02*
X156261905Y-156073866D01*
X156261905Y-156073866D02*
X156452381Y-156073866D01*
X156452381Y-156073866D02*
X156547619Y-156026247D01*
X156547619Y-156026247D02*
X156595238Y-155978628D01*
X156595238Y-155978628D02*
X156642857Y-155883390D01*
X165506667Y-72537200D02*
X165649524Y-72584819D01*
X165649524Y-72584819D02*
X165887619Y-72584819D01*
X165887619Y-72584819D02*
X165982857Y-72537200D01*
X165982857Y-72537200D02*
X166030476Y-72489580D01*
X166030476Y-72489580D02*
X166078095Y-72394342D01*
X166078095Y-72394342D02*
X166078095Y-72299104D01*
X166078095Y-72299104D02*
X166030476Y-72203866D01*
X166030476Y-72203866D02*
X165982857Y-72156247D01*
X165982857Y-72156247D02*
X165887619Y-72108628D01*
X165887619Y-72108628D02*
X165697143Y-72061009D01*
X165697143Y-72061009D02*
X165601905Y-72013390D01*
X165601905Y-72013390D02*
X165554286Y-71965771D01*
X165554286Y-71965771D02*
X165506667Y-71870533D01*
X165506667Y-71870533D02*
X165506667Y-71775295D01*
X165506667Y-71775295D02*
X165554286Y-71680057D01*
X165554286Y-71680057D02*
X165601905Y-71632438D01*
X165601905Y-71632438D02*
X165697143Y-71584819D01*
X165697143Y-71584819D02*
X165935238Y-71584819D01*
X165935238Y-71584819D02*
X166078095Y-71632438D01*
X166411429Y-71584819D02*
X166649524Y-72584819D01*
X166649524Y-72584819D02*
X166840000Y-71870533D01*
X166840000Y-71870533D02*
X167030476Y-72584819D01*
X167030476Y-72584819D02*
X167268572Y-71584819D01*
X167840000Y-71584819D02*
X167935238Y-71584819D01*
X167935238Y-71584819D02*
X168030476Y-71632438D01*
X168030476Y-71632438D02*
X168078095Y-71680057D01*
X168078095Y-71680057D02*
X168125714Y-71775295D01*
X168125714Y-71775295D02*
X168173333Y-71965771D01*
X168173333Y-71965771D02*
X168173333Y-72203866D01*
X168173333Y-72203866D02*
X168125714Y-72394342D01*
X168125714Y-72394342D02*
X168078095Y-72489580D01*
X168078095Y-72489580D02*
X168030476Y-72537200D01*
X168030476Y-72537200D02*
X167935238Y-72584819D01*
X167935238Y-72584819D02*
X167840000Y-72584819D01*
X167840000Y-72584819D02*
X167744762Y-72537200D01*
X167744762Y-72537200D02*
X167697143Y-72489580D01*
X167697143Y-72489580D02*
X167649524Y-72394342D01*
X167649524Y-72394342D02*
X167601905Y-72203866D01*
X167601905Y-72203866D02*
X167601905Y-71965771D01*
X167601905Y-71965771D02*
X167649524Y-71775295D01*
X167649524Y-71775295D02*
X167697143Y-71680057D01*
X167697143Y-71680057D02*
X167744762Y-71632438D01*
X167744762Y-71632438D02*
X167840000Y-71584819D01*
X146611905Y-70214819D02*
X146611905Y-69214819D01*
X146611905Y-69214819D02*
X146850000Y-69214819D01*
X146850000Y-69214819D02*
X146992857Y-69262438D01*
X146992857Y-69262438D02*
X147088095Y-69357676D01*
X147088095Y-69357676D02*
X147135714Y-69452914D01*
X147135714Y-69452914D02*
X147183333Y-69643390D01*
X147183333Y-69643390D02*
X147183333Y-69786247D01*
X147183333Y-69786247D02*
X147135714Y-69976723D01*
X147135714Y-69976723D02*
X147088095Y-70071961D01*
X147088095Y-70071961D02*
X146992857Y-70167200D01*
X146992857Y-70167200D02*
X146850000Y-70214819D01*
X146850000Y-70214819D02*
X146611905Y-70214819D01*
X148183333Y-70119580D02*
X148135714Y-70167200D01*
X148135714Y-70167200D02*
X147992857Y-70214819D01*
X147992857Y-70214819D02*
X147897619Y-70214819D01*
X147897619Y-70214819D02*
X147754762Y-70167200D01*
X147754762Y-70167200D02*
X147659524Y-70071961D01*
X147659524Y-70071961D02*
X147611905Y-69976723D01*
X147611905Y-69976723D02*
X147564286Y-69786247D01*
X147564286Y-69786247D02*
X147564286Y-69643390D01*
X147564286Y-69643390D02*
X147611905Y-69452914D01*
X147611905Y-69452914D02*
X147659524Y-69357676D01*
X147659524Y-69357676D02*
X147754762Y-69262438D01*
X147754762Y-69262438D02*
X147897619Y-69214819D01*
X147897619Y-69214819D02*
X147992857Y-69214819D01*
X147992857Y-69214819D02*
X148135714Y-69262438D01*
X148135714Y-69262438D02*
X148183333Y-69310057D01*
X149135714Y-70214819D02*
X148564286Y-70214819D01*
X148850000Y-70214819D02*
X148850000Y-69214819D01*
X148850000Y-69214819D02*
X148754762Y-69357676D01*
X148754762Y-69357676D02*
X148659524Y-69452914D01*
X148659524Y-69452914D02*
X148564286Y-69500533D01*
X151398095Y-69894819D02*
X151398095Y-68894819D01*
X151969523Y-69894819D02*
X151540952Y-69323390D01*
X151969523Y-68894819D02*
X151398095Y-69466247D01*
X157834819Y-112104285D02*
X156834819Y-112104285D01*
X156834819Y-112104285D02*
X156834819Y-111866190D01*
X156834819Y-111866190D02*
X156882438Y-111723333D01*
X156882438Y-111723333D02*
X156977676Y-111628095D01*
X156977676Y-111628095D02*
X157072914Y-111580476D01*
X157072914Y-111580476D02*
X157263390Y-111532857D01*
X157263390Y-111532857D02*
X157406247Y-111532857D01*
X157406247Y-111532857D02*
X157596723Y-111580476D01*
X157596723Y-111580476D02*
X157691961Y-111628095D01*
X157691961Y-111628095D02*
X157787200Y-111723333D01*
X157787200Y-111723333D02*
X157834819Y-111866190D01*
X157834819Y-111866190D02*
X157834819Y-112104285D01*
X157834819Y-110580476D02*
X157834819Y-111151904D01*
X157834819Y-110866190D02*
X156834819Y-110866190D01*
X156834819Y-110866190D02*
X156977676Y-110961428D01*
X156977676Y-110961428D02*
X157072914Y-111056666D01*
X157072914Y-111056666D02*
X157120533Y-111151904D01*
X157834819Y-109628095D02*
X157834819Y-110199523D01*
X157834819Y-109913809D02*
X156834819Y-109913809D01*
X156834819Y-109913809D02*
X156977676Y-110009047D01*
X156977676Y-110009047D02*
X157072914Y-110104285D01*
X157072914Y-110104285D02*
X157120533Y-110199523D01*
X158154819Y-114961904D02*
X157154819Y-114961904D01*
X158154819Y-114390476D02*
X157583390Y-114819047D01*
X157154819Y-114390476D02*
X157726247Y-114961904D01*
X146611905Y-66454819D02*
X146611905Y-65454819D01*
X146611905Y-65454819D02*
X146850000Y-65454819D01*
X146850000Y-65454819D02*
X146992857Y-65502438D01*
X146992857Y-65502438D02*
X147088095Y-65597676D01*
X147088095Y-65597676D02*
X147135714Y-65692914D01*
X147135714Y-65692914D02*
X147183333Y-65883390D01*
X147183333Y-65883390D02*
X147183333Y-66026247D01*
X147183333Y-66026247D02*
X147135714Y-66216723D01*
X147135714Y-66216723D02*
X147088095Y-66311961D01*
X147088095Y-66311961D02*
X146992857Y-66407200D01*
X146992857Y-66407200D02*
X146850000Y-66454819D01*
X146850000Y-66454819D02*
X146611905Y-66454819D01*
X147945238Y-65931009D02*
X148088095Y-65978628D01*
X148088095Y-65978628D02*
X148135714Y-66026247D01*
X148135714Y-66026247D02*
X148183333Y-66121485D01*
X148183333Y-66121485D02*
X148183333Y-66264342D01*
X148183333Y-66264342D02*
X148135714Y-66359580D01*
X148135714Y-66359580D02*
X148088095Y-66407200D01*
X148088095Y-66407200D02*
X147992857Y-66454819D01*
X147992857Y-66454819D02*
X147611905Y-66454819D01*
X147611905Y-66454819D02*
X147611905Y-65454819D01*
X147611905Y-65454819D02*
X147945238Y-65454819D01*
X147945238Y-65454819D02*
X148040476Y-65502438D01*
X148040476Y-65502438D02*
X148088095Y-65550057D01*
X148088095Y-65550057D02*
X148135714Y-65645295D01*
X148135714Y-65645295D02*
X148135714Y-65740533D01*
X148135714Y-65740533D02*
X148088095Y-65835771D01*
X148088095Y-65835771D02*
X148040476Y-65883390D01*
X148040476Y-65883390D02*
X147945238Y-65931009D01*
X147945238Y-65931009D02*
X147611905Y-65931009D01*
X149135714Y-66454819D02*
X148564286Y-66454819D01*
X148850000Y-66454819D02*
X148850000Y-65454819D01*
X148850000Y-65454819D02*
X148754762Y-65597676D01*
X148754762Y-65597676D02*
X148659524Y-65692914D01*
X148659524Y-65692914D02*
X148564286Y-65740533D01*
X151398095Y-66134819D02*
X151398095Y-65134819D01*
X151969523Y-66134819D02*
X151540952Y-65563390D01*
X151969523Y-65134819D02*
X151398095Y-65706247D01*
X133880952Y-99454819D02*
X133404762Y-99454819D01*
X133404762Y-99454819D02*
X133404762Y-98454819D01*
X134214286Y-98931009D02*
X134547619Y-98931009D01*
X134690476Y-99454819D02*
X134214286Y-99454819D01*
X134214286Y-99454819D02*
X134214286Y-98454819D01*
X134214286Y-98454819D02*
X134690476Y-98454819D01*
X135119048Y-99454819D02*
X135119048Y-98454819D01*
X135119048Y-98454819D02*
X135357143Y-98454819D01*
X135357143Y-98454819D02*
X135500000Y-98502438D01*
X135500000Y-98502438D02*
X135595238Y-98597676D01*
X135595238Y-98597676D02*
X135642857Y-98692914D01*
X135642857Y-98692914D02*
X135690476Y-98883390D01*
X135690476Y-98883390D02*
X135690476Y-99026247D01*
X135690476Y-99026247D02*
X135642857Y-99216723D01*
X135642857Y-99216723D02*
X135595238Y-99311961D01*
X135595238Y-99311961D02*
X135500000Y-99407200D01*
X135500000Y-99407200D02*
X135357143Y-99454819D01*
X135357143Y-99454819D02*
X135119048Y-99454819D01*
X136261905Y-98883390D02*
X136166667Y-98835771D01*
X136166667Y-98835771D02*
X136119048Y-98788152D01*
X136119048Y-98788152D02*
X136071429Y-98692914D01*
X136071429Y-98692914D02*
X136071429Y-98645295D01*
X136071429Y-98645295D02*
X136119048Y-98550057D01*
X136119048Y-98550057D02*
X136166667Y-98502438D01*
X136166667Y-98502438D02*
X136261905Y-98454819D01*
X136261905Y-98454819D02*
X136452381Y-98454819D01*
X136452381Y-98454819D02*
X136547619Y-98502438D01*
X136547619Y-98502438D02*
X136595238Y-98550057D01*
X136595238Y-98550057D02*
X136642857Y-98645295D01*
X136642857Y-98645295D02*
X136642857Y-98692914D01*
X136642857Y-98692914D02*
X136595238Y-98788152D01*
X136595238Y-98788152D02*
X136547619Y-98835771D01*
X136547619Y-98835771D02*
X136452381Y-98883390D01*
X136452381Y-98883390D02*
X136261905Y-98883390D01*
X136261905Y-98883390D02*
X136166667Y-98931009D01*
X136166667Y-98931009D02*
X136119048Y-98978628D01*
X136119048Y-98978628D02*
X136071429Y-99073866D01*
X136071429Y-99073866D02*
X136071429Y-99264342D01*
X136071429Y-99264342D02*
X136119048Y-99359580D01*
X136119048Y-99359580D02*
X136166667Y-99407200D01*
X136166667Y-99407200D02*
X136261905Y-99454819D01*
X136261905Y-99454819D02*
X136452381Y-99454819D01*
X136452381Y-99454819D02*
X136547619Y-99407200D01*
X136547619Y-99407200D02*
X136595238Y-99359580D01*
X136595238Y-99359580D02*
X136642857Y-99264342D01*
X136642857Y-99264342D02*
X136642857Y-99073866D01*
X136642857Y-99073866D02*
X136595238Y-98978628D01*
X136595238Y-98978628D02*
X136547619Y-98931009D01*
X136547619Y-98931009D02*
X136452381Y-98883390D01*
X157834819Y-149728094D02*
X156834819Y-149728094D01*
X156834819Y-149728094D02*
X156834819Y-149489999D01*
X156834819Y-149489999D02*
X156882438Y-149347142D01*
X156882438Y-149347142D02*
X156977676Y-149251904D01*
X156977676Y-149251904D02*
X157072914Y-149204285D01*
X157072914Y-149204285D02*
X157263390Y-149156666D01*
X157263390Y-149156666D02*
X157406247Y-149156666D01*
X157406247Y-149156666D02*
X157596723Y-149204285D01*
X157596723Y-149204285D02*
X157691961Y-149251904D01*
X157691961Y-149251904D02*
X157787200Y-149347142D01*
X157787200Y-149347142D02*
X157834819Y-149489999D01*
X157834819Y-149489999D02*
X157834819Y-149728094D01*
X157834819Y-148680475D02*
X157834819Y-148489999D01*
X157834819Y-148489999D02*
X157787200Y-148394761D01*
X157787200Y-148394761D02*
X157739580Y-148347142D01*
X157739580Y-148347142D02*
X157596723Y-148251904D01*
X157596723Y-148251904D02*
X157406247Y-148204285D01*
X157406247Y-148204285D02*
X157025295Y-148204285D01*
X157025295Y-148204285D02*
X156930057Y-148251904D01*
X156930057Y-148251904D02*
X156882438Y-148299523D01*
X156882438Y-148299523D02*
X156834819Y-148394761D01*
X156834819Y-148394761D02*
X156834819Y-148585237D01*
X156834819Y-148585237D02*
X156882438Y-148680475D01*
X156882438Y-148680475D02*
X156930057Y-148728094D01*
X156930057Y-148728094D02*
X157025295Y-148775713D01*
X157025295Y-148775713D02*
X157263390Y-148775713D01*
X157263390Y-148775713D02*
X157358628Y-148728094D01*
X157358628Y-148728094D02*
X157406247Y-148680475D01*
X157406247Y-148680475D02*
X157453866Y-148585237D01*
X157453866Y-148585237D02*
X157453866Y-148394761D01*
X157453866Y-148394761D02*
X157406247Y-148299523D01*
X157406247Y-148299523D02*
X157358628Y-148251904D01*
X157358628Y-148251904D02*
X157263390Y-148204285D01*
X158154819Y-153061904D02*
X157154819Y-153061904D01*
X158154819Y-152490476D02*
X157583390Y-152919047D01*
X157154819Y-152490476D02*
X157726247Y-153061904D01*
X137834819Y-150128094D02*
X136834819Y-150128094D01*
X136834819Y-150128094D02*
X136834819Y-149889999D01*
X136834819Y-149889999D02*
X136882438Y-149747142D01*
X136882438Y-149747142D02*
X136977676Y-149651904D01*
X136977676Y-149651904D02*
X137072914Y-149604285D01*
X137072914Y-149604285D02*
X137263390Y-149556666D01*
X137263390Y-149556666D02*
X137406247Y-149556666D01*
X137406247Y-149556666D02*
X137596723Y-149604285D01*
X137596723Y-149604285D02*
X137691961Y-149651904D01*
X137691961Y-149651904D02*
X137787200Y-149747142D01*
X137787200Y-149747142D02*
X137834819Y-149889999D01*
X137834819Y-149889999D02*
X137834819Y-150128094D01*
X136834819Y-148651904D02*
X136834819Y-149128094D01*
X136834819Y-149128094D02*
X137311009Y-149175713D01*
X137311009Y-149175713D02*
X137263390Y-149128094D01*
X137263390Y-149128094D02*
X137215771Y-149032856D01*
X137215771Y-149032856D02*
X137215771Y-148794761D01*
X137215771Y-148794761D02*
X137263390Y-148699523D01*
X137263390Y-148699523D02*
X137311009Y-148651904D01*
X137311009Y-148651904D02*
X137406247Y-148604285D01*
X137406247Y-148604285D02*
X137644342Y-148604285D01*
X137644342Y-148604285D02*
X137739580Y-148651904D01*
X137739580Y-148651904D02*
X137787200Y-148699523D01*
X137787200Y-148699523D02*
X137834819Y-148794761D01*
X137834819Y-148794761D02*
X137834819Y-149032856D01*
X137834819Y-149032856D02*
X137787200Y-149128094D01*
X137787200Y-149128094D02*
X137739580Y-149175713D01*
X138154819Y-153461904D02*
X137154819Y-153461904D01*
X138154819Y-152890476D02*
X137583390Y-153319047D01*
X137154819Y-152890476D02*
X137726247Y-153461904D01*
X133880952Y-156454819D02*
X133404762Y-156454819D01*
X133404762Y-156454819D02*
X133404762Y-155454819D01*
X134214286Y-155931009D02*
X134547619Y-155931009D01*
X134690476Y-156454819D02*
X134214286Y-156454819D01*
X134214286Y-156454819D02*
X134214286Y-155454819D01*
X134214286Y-155454819D02*
X134690476Y-155454819D01*
X135119048Y-156454819D02*
X135119048Y-155454819D01*
X135119048Y-155454819D02*
X135357143Y-155454819D01*
X135357143Y-155454819D02*
X135500000Y-155502438D01*
X135500000Y-155502438D02*
X135595238Y-155597676D01*
X135595238Y-155597676D02*
X135642857Y-155692914D01*
X135642857Y-155692914D02*
X135690476Y-155883390D01*
X135690476Y-155883390D02*
X135690476Y-156026247D01*
X135690476Y-156026247D02*
X135642857Y-156216723D01*
X135642857Y-156216723D02*
X135595238Y-156311961D01*
X135595238Y-156311961D02*
X135500000Y-156407200D01*
X135500000Y-156407200D02*
X135357143Y-156454819D01*
X135357143Y-156454819D02*
X135119048Y-156454819D01*
X136595238Y-155454819D02*
X136119048Y-155454819D01*
X136119048Y-155454819D02*
X136071429Y-155931009D01*
X136071429Y-155931009D02*
X136119048Y-155883390D01*
X136119048Y-155883390D02*
X136214286Y-155835771D01*
X136214286Y-155835771D02*
X136452381Y-155835771D01*
X136452381Y-155835771D02*
X136547619Y-155883390D01*
X136547619Y-155883390D02*
X136595238Y-155931009D01*
X136595238Y-155931009D02*
X136642857Y-156026247D01*
X136642857Y-156026247D02*
X136642857Y-156264342D01*
X136642857Y-156264342D02*
X136595238Y-156359580D01*
X136595238Y-156359580D02*
X136547619Y-156407200D01*
X136547619Y-156407200D02*
X136452381Y-156454819D01*
X136452381Y-156454819D02*
X136214286Y-156454819D01*
X136214286Y-156454819D02*
X136119048Y-156407200D01*
X136119048Y-156407200D02*
X136071429Y-156359580D01*
X104666667Y-81907200D02*
X104809524Y-81954819D01*
X104809524Y-81954819D02*
X105047619Y-81954819D01*
X105047619Y-81954819D02*
X105142857Y-81907200D01*
X105142857Y-81907200D02*
X105190476Y-81859580D01*
X105190476Y-81859580D02*
X105238095Y-81764342D01*
X105238095Y-81764342D02*
X105238095Y-81669104D01*
X105238095Y-81669104D02*
X105190476Y-81573866D01*
X105190476Y-81573866D02*
X105142857Y-81526247D01*
X105142857Y-81526247D02*
X105047619Y-81478628D01*
X105047619Y-81478628D02*
X104857143Y-81431009D01*
X104857143Y-81431009D02*
X104761905Y-81383390D01*
X104761905Y-81383390D02*
X104714286Y-81335771D01*
X104714286Y-81335771D02*
X104666667Y-81240533D01*
X104666667Y-81240533D02*
X104666667Y-81145295D01*
X104666667Y-81145295D02*
X104714286Y-81050057D01*
X104714286Y-81050057D02*
X104761905Y-81002438D01*
X104761905Y-81002438D02*
X104857143Y-80954819D01*
X104857143Y-80954819D02*
X105095238Y-80954819D01*
X105095238Y-80954819D02*
X105238095Y-81002438D01*
X105571429Y-80954819D02*
X105809524Y-81954819D01*
X105809524Y-81954819D02*
X106000000Y-81240533D01*
X106000000Y-81240533D02*
X106190476Y-81954819D01*
X106190476Y-81954819D02*
X106428572Y-80954819D01*
X107238095Y-81288152D02*
X107238095Y-81954819D01*
X107000000Y-80907200D02*
X106761905Y-81621485D01*
X106761905Y-81621485D02*
X107380952Y-81621485D01*
X137934819Y-112228094D02*
X136934819Y-112228094D01*
X136934819Y-112228094D02*
X136934819Y-111989999D01*
X136934819Y-111989999D02*
X136982438Y-111847142D01*
X136982438Y-111847142D02*
X137077676Y-111751904D01*
X137077676Y-111751904D02*
X137172914Y-111704285D01*
X137172914Y-111704285D02*
X137363390Y-111656666D01*
X137363390Y-111656666D02*
X137506247Y-111656666D01*
X137506247Y-111656666D02*
X137696723Y-111704285D01*
X137696723Y-111704285D02*
X137791961Y-111751904D01*
X137791961Y-111751904D02*
X137887200Y-111847142D01*
X137887200Y-111847142D02*
X137934819Y-111989999D01*
X137934819Y-111989999D02*
X137934819Y-112228094D01*
X136934819Y-111323332D02*
X136934819Y-110656666D01*
X136934819Y-110656666D02*
X137934819Y-111085237D01*
X138254819Y-115561904D02*
X137254819Y-115561904D01*
X138254819Y-114990476D02*
X137683390Y-115419047D01*
X137254819Y-114990476D02*
X137826247Y-115561904D01*
X142666667Y-138907200D02*
X142809524Y-138954819D01*
X142809524Y-138954819D02*
X143047619Y-138954819D01*
X143047619Y-138954819D02*
X143142857Y-138907200D01*
X143142857Y-138907200D02*
X143190476Y-138859580D01*
X143190476Y-138859580D02*
X143238095Y-138764342D01*
X143238095Y-138764342D02*
X143238095Y-138669104D01*
X143238095Y-138669104D02*
X143190476Y-138573866D01*
X143190476Y-138573866D02*
X143142857Y-138526247D01*
X143142857Y-138526247D02*
X143047619Y-138478628D01*
X143047619Y-138478628D02*
X142857143Y-138431009D01*
X142857143Y-138431009D02*
X142761905Y-138383390D01*
X142761905Y-138383390D02*
X142714286Y-138335771D01*
X142714286Y-138335771D02*
X142666667Y-138240533D01*
X142666667Y-138240533D02*
X142666667Y-138145295D01*
X142666667Y-138145295D02*
X142714286Y-138050057D01*
X142714286Y-138050057D02*
X142761905Y-138002438D01*
X142761905Y-138002438D02*
X142857143Y-137954819D01*
X142857143Y-137954819D02*
X143095238Y-137954819D01*
X143095238Y-137954819D02*
X143238095Y-138002438D01*
X143571429Y-137954819D02*
X143809524Y-138954819D01*
X143809524Y-138954819D02*
X144000000Y-138240533D01*
X144000000Y-138240533D02*
X144190476Y-138954819D01*
X144190476Y-138954819D02*
X144428572Y-137954819D01*
X144857143Y-138954819D02*
X145047619Y-138954819D01*
X145047619Y-138954819D02*
X145142857Y-138907200D01*
X145142857Y-138907200D02*
X145190476Y-138859580D01*
X145190476Y-138859580D02*
X145285714Y-138716723D01*
X145285714Y-138716723D02*
X145333333Y-138526247D01*
X145333333Y-138526247D02*
X145333333Y-138145295D01*
X145333333Y-138145295D02*
X145285714Y-138050057D01*
X145285714Y-138050057D02*
X145238095Y-138002438D01*
X145238095Y-138002438D02*
X145142857Y-137954819D01*
X145142857Y-137954819D02*
X144952381Y-137954819D01*
X144952381Y-137954819D02*
X144857143Y-138002438D01*
X144857143Y-138002438D02*
X144809524Y-138050057D01*
X144809524Y-138050057D02*
X144761905Y-138145295D01*
X144761905Y-138145295D02*
X144761905Y-138383390D01*
X144761905Y-138383390D02*
X144809524Y-138478628D01*
X144809524Y-138478628D02*
X144857143Y-138526247D01*
X144857143Y-138526247D02*
X144952381Y-138573866D01*
X144952381Y-138573866D02*
X145142857Y-138573866D01*
X145142857Y-138573866D02*
X145238095Y-138526247D01*
X145238095Y-138526247D02*
X145285714Y-138478628D01*
X145285714Y-138478628D02*
X145333333Y-138383390D01*
X104666667Y-119907200D02*
X104809524Y-119954819D01*
X104809524Y-119954819D02*
X105047619Y-119954819D01*
X105047619Y-119954819D02*
X105142857Y-119907200D01*
X105142857Y-119907200D02*
X105190476Y-119859580D01*
X105190476Y-119859580D02*
X105238095Y-119764342D01*
X105238095Y-119764342D02*
X105238095Y-119669104D01*
X105238095Y-119669104D02*
X105190476Y-119573866D01*
X105190476Y-119573866D02*
X105142857Y-119526247D01*
X105142857Y-119526247D02*
X105047619Y-119478628D01*
X105047619Y-119478628D02*
X104857143Y-119431009D01*
X104857143Y-119431009D02*
X104761905Y-119383390D01*
X104761905Y-119383390D02*
X104714286Y-119335771D01*
X104714286Y-119335771D02*
X104666667Y-119240533D01*
X104666667Y-119240533D02*
X104666667Y-119145295D01*
X104666667Y-119145295D02*
X104714286Y-119050057D01*
X104714286Y-119050057D02*
X104761905Y-119002438D01*
X104761905Y-119002438D02*
X104857143Y-118954819D01*
X104857143Y-118954819D02*
X105095238Y-118954819D01*
X105095238Y-118954819D02*
X105238095Y-119002438D01*
X105571429Y-118954819D02*
X105809524Y-119954819D01*
X105809524Y-119954819D02*
X106000000Y-119240533D01*
X106000000Y-119240533D02*
X106190476Y-119954819D01*
X106190476Y-119954819D02*
X106428572Y-118954819D01*
X106761905Y-119050057D02*
X106809524Y-119002438D01*
X106809524Y-119002438D02*
X106904762Y-118954819D01*
X106904762Y-118954819D02*
X107142857Y-118954819D01*
X107142857Y-118954819D02*
X107238095Y-119002438D01*
X107238095Y-119002438D02*
X107285714Y-119050057D01*
X107285714Y-119050057D02*
X107333333Y-119145295D01*
X107333333Y-119145295D02*
X107333333Y-119240533D01*
X107333333Y-119240533D02*
X107285714Y-119383390D01*
X107285714Y-119383390D02*
X106714286Y-119954819D01*
X106714286Y-119954819D02*
X107333333Y-119954819D01*
X114880952Y-119454819D02*
X114404762Y-119454819D01*
X114404762Y-119454819D02*
X114404762Y-118454819D01*
X115214286Y-118931009D02*
X115547619Y-118931009D01*
X115690476Y-119454819D02*
X115214286Y-119454819D01*
X115214286Y-119454819D02*
X115214286Y-118454819D01*
X115214286Y-118454819D02*
X115690476Y-118454819D01*
X116119048Y-119454819D02*
X116119048Y-118454819D01*
X116119048Y-118454819D02*
X116357143Y-118454819D01*
X116357143Y-118454819D02*
X116500000Y-118502438D01*
X116500000Y-118502438D02*
X116595238Y-118597676D01*
X116595238Y-118597676D02*
X116642857Y-118692914D01*
X116642857Y-118692914D02*
X116690476Y-118883390D01*
X116690476Y-118883390D02*
X116690476Y-119026247D01*
X116690476Y-119026247D02*
X116642857Y-119216723D01*
X116642857Y-119216723D02*
X116595238Y-119311961D01*
X116595238Y-119311961D02*
X116500000Y-119407200D01*
X116500000Y-119407200D02*
X116357143Y-119454819D01*
X116357143Y-119454819D02*
X116119048Y-119454819D01*
X117023810Y-118454819D02*
X117642857Y-118454819D01*
X117642857Y-118454819D02*
X117309524Y-118835771D01*
X117309524Y-118835771D02*
X117452381Y-118835771D01*
X117452381Y-118835771D02*
X117547619Y-118883390D01*
X117547619Y-118883390D02*
X117595238Y-118931009D01*
X117595238Y-118931009D02*
X117642857Y-119026247D01*
X117642857Y-119026247D02*
X117642857Y-119264342D01*
X117642857Y-119264342D02*
X117595238Y-119359580D01*
X117595238Y-119359580D02*
X117547619Y-119407200D01*
X117547619Y-119407200D02*
X117452381Y-119454819D01*
X117452381Y-119454819D02*
X117166667Y-119454819D01*
X117166667Y-119454819D02*
X117071429Y-119407200D01*
X117071429Y-119407200D02*
X117023810Y-119359580D01*
X153404761Y-118454819D02*
X152928571Y-118454819D01*
X152928571Y-118454819D02*
X152928571Y-117454819D01*
X153738095Y-117931009D02*
X154071428Y-117931009D01*
X154214285Y-118454819D02*
X153738095Y-118454819D01*
X153738095Y-118454819D02*
X153738095Y-117454819D01*
X153738095Y-117454819D02*
X154214285Y-117454819D01*
X154642857Y-118454819D02*
X154642857Y-117454819D01*
X154642857Y-117454819D02*
X154880952Y-117454819D01*
X154880952Y-117454819D02*
X155023809Y-117502438D01*
X155023809Y-117502438D02*
X155119047Y-117597676D01*
X155119047Y-117597676D02*
X155166666Y-117692914D01*
X155166666Y-117692914D02*
X155214285Y-117883390D01*
X155214285Y-117883390D02*
X155214285Y-118026247D01*
X155214285Y-118026247D02*
X155166666Y-118216723D01*
X155166666Y-118216723D02*
X155119047Y-118311961D01*
X155119047Y-118311961D02*
X155023809Y-118407200D01*
X155023809Y-118407200D02*
X154880952Y-118454819D01*
X154880952Y-118454819D02*
X154642857Y-118454819D01*
X156166666Y-118454819D02*
X155595238Y-118454819D01*
X155880952Y-118454819D02*
X155880952Y-117454819D01*
X155880952Y-117454819D02*
X155785714Y-117597676D01*
X155785714Y-117597676D02*
X155690476Y-117692914D01*
X155690476Y-117692914D02*
X155595238Y-117740533D01*
X156547619Y-117550057D02*
X156595238Y-117502438D01*
X156595238Y-117502438D02*
X156690476Y-117454819D01*
X156690476Y-117454819D02*
X156928571Y-117454819D01*
X156928571Y-117454819D02*
X157023809Y-117502438D01*
X157023809Y-117502438D02*
X157071428Y-117550057D01*
X157071428Y-117550057D02*
X157119047Y-117645295D01*
X157119047Y-117645295D02*
X157119047Y-117740533D01*
X157119047Y-117740533D02*
X157071428Y-117883390D01*
X157071428Y-117883390D02*
X156500000Y-118454819D01*
X156500000Y-118454819D02*
X157119047Y-118454819D01*
X157834819Y-93104285D02*
X156834819Y-93104285D01*
X156834819Y-93104285D02*
X156834819Y-92866190D01*
X156834819Y-92866190D02*
X156882438Y-92723333D01*
X156882438Y-92723333D02*
X156977676Y-92628095D01*
X156977676Y-92628095D02*
X157072914Y-92580476D01*
X157072914Y-92580476D02*
X157263390Y-92532857D01*
X157263390Y-92532857D02*
X157406247Y-92532857D01*
X157406247Y-92532857D02*
X157596723Y-92580476D01*
X157596723Y-92580476D02*
X157691961Y-92628095D01*
X157691961Y-92628095D02*
X157787200Y-92723333D01*
X157787200Y-92723333D02*
X157834819Y-92866190D01*
X157834819Y-92866190D02*
X157834819Y-93104285D01*
X157834819Y-91580476D02*
X157834819Y-92151904D01*
X157834819Y-91866190D02*
X156834819Y-91866190D01*
X156834819Y-91866190D02*
X156977676Y-91961428D01*
X156977676Y-91961428D02*
X157072914Y-92056666D01*
X157072914Y-92056666D02*
X157120533Y-92151904D01*
X156930057Y-91199523D02*
X156882438Y-91151904D01*
X156882438Y-91151904D02*
X156834819Y-91056666D01*
X156834819Y-91056666D02*
X156834819Y-90818571D01*
X156834819Y-90818571D02*
X156882438Y-90723333D01*
X156882438Y-90723333D02*
X156930057Y-90675714D01*
X156930057Y-90675714D02*
X157025295Y-90628095D01*
X157025295Y-90628095D02*
X157120533Y-90628095D01*
X157120533Y-90628095D02*
X157263390Y-90675714D01*
X157263390Y-90675714D02*
X157834819Y-91247142D01*
X157834819Y-91247142D02*
X157834819Y-90628095D01*
X158154819Y-95961904D02*
X157154819Y-95961904D01*
X158154819Y-95390476D02*
X157583390Y-95819047D01*
X157154819Y-95390476D02*
X157726247Y-95961904D01*
X118834819Y-93278094D02*
X117834819Y-93278094D01*
X117834819Y-93278094D02*
X117834819Y-93039999D01*
X117834819Y-93039999D02*
X117882438Y-92897142D01*
X117882438Y-92897142D02*
X117977676Y-92801904D01*
X117977676Y-92801904D02*
X118072914Y-92754285D01*
X118072914Y-92754285D02*
X118263390Y-92706666D01*
X118263390Y-92706666D02*
X118406247Y-92706666D01*
X118406247Y-92706666D02*
X118596723Y-92754285D01*
X118596723Y-92754285D02*
X118691961Y-92801904D01*
X118691961Y-92801904D02*
X118787200Y-92897142D01*
X118787200Y-92897142D02*
X118834819Y-93039999D01*
X118834819Y-93039999D02*
X118834819Y-93278094D01*
X118168152Y-91849523D02*
X118834819Y-91849523D01*
X117787200Y-92087618D02*
X118501485Y-92325713D01*
X118501485Y-92325713D02*
X118501485Y-91706666D01*
X119154819Y-96611904D02*
X118154819Y-96611904D01*
X119154819Y-96040476D02*
X118583390Y-96469047D01*
X118154819Y-96040476D02*
X118726247Y-96611904D01*
X142190476Y-120063200D02*
X142333333Y-120110819D01*
X142333333Y-120110819D02*
X142571428Y-120110819D01*
X142571428Y-120110819D02*
X142666666Y-120063200D01*
X142666666Y-120063200D02*
X142714285Y-120015580D01*
X142714285Y-120015580D02*
X142761904Y-119920342D01*
X142761904Y-119920342D02*
X142761904Y-119825104D01*
X142761904Y-119825104D02*
X142714285Y-119729866D01*
X142714285Y-119729866D02*
X142666666Y-119682247D01*
X142666666Y-119682247D02*
X142571428Y-119634628D01*
X142571428Y-119634628D02*
X142380952Y-119587009D01*
X142380952Y-119587009D02*
X142285714Y-119539390D01*
X142285714Y-119539390D02*
X142238095Y-119491771D01*
X142238095Y-119491771D02*
X142190476Y-119396533D01*
X142190476Y-119396533D02*
X142190476Y-119301295D01*
X142190476Y-119301295D02*
X142238095Y-119206057D01*
X142238095Y-119206057D02*
X142285714Y-119158438D01*
X142285714Y-119158438D02*
X142380952Y-119110819D01*
X142380952Y-119110819D02*
X142619047Y-119110819D01*
X142619047Y-119110819D02*
X142761904Y-119158438D01*
X143095238Y-119110819D02*
X143333333Y-120110819D01*
X143333333Y-120110819D02*
X143523809Y-119396533D01*
X143523809Y-119396533D02*
X143714285Y-120110819D01*
X143714285Y-120110819D02*
X143952381Y-119110819D01*
X144857142Y-120110819D02*
X144285714Y-120110819D01*
X144571428Y-120110819D02*
X144571428Y-119110819D01*
X144571428Y-119110819D02*
X144476190Y-119253676D01*
X144476190Y-119253676D02*
X144380952Y-119348914D01*
X144380952Y-119348914D02*
X144285714Y-119396533D01*
X145476190Y-119110819D02*
X145571428Y-119110819D01*
X145571428Y-119110819D02*
X145666666Y-119158438D01*
X145666666Y-119158438D02*
X145714285Y-119206057D01*
X145714285Y-119206057D02*
X145761904Y-119301295D01*
X145761904Y-119301295D02*
X145809523Y-119491771D01*
X145809523Y-119491771D02*
X145809523Y-119729866D01*
X145809523Y-119729866D02*
X145761904Y-119920342D01*
X145761904Y-119920342D02*
X145714285Y-120015580D01*
X145714285Y-120015580D02*
X145666666Y-120063200D01*
X145666666Y-120063200D02*
X145571428Y-120110819D01*
X145571428Y-120110819D02*
X145476190Y-120110819D01*
X145476190Y-120110819D02*
X145380952Y-120063200D01*
X145380952Y-120063200D02*
X145333333Y-120015580D01*
X145333333Y-120015580D02*
X145285714Y-119920342D01*
X145285714Y-119920342D02*
X145238095Y-119729866D01*
X145238095Y-119729866D02*
X145238095Y-119491771D01*
X145238095Y-119491771D02*
X145285714Y-119301295D01*
X145285714Y-119301295D02*
X145333333Y-119206057D01*
X145333333Y-119206057D02*
X145380952Y-119158438D01*
X145380952Y-119158438D02*
X145476190Y-119110819D01*
X142190476Y-81933200D02*
X142333333Y-81980819D01*
X142333333Y-81980819D02*
X142571428Y-81980819D01*
X142571428Y-81980819D02*
X142666666Y-81933200D01*
X142666666Y-81933200D02*
X142714285Y-81885580D01*
X142714285Y-81885580D02*
X142761904Y-81790342D01*
X142761904Y-81790342D02*
X142761904Y-81695104D01*
X142761904Y-81695104D02*
X142714285Y-81599866D01*
X142714285Y-81599866D02*
X142666666Y-81552247D01*
X142666666Y-81552247D02*
X142571428Y-81504628D01*
X142571428Y-81504628D02*
X142380952Y-81457009D01*
X142380952Y-81457009D02*
X142285714Y-81409390D01*
X142285714Y-81409390D02*
X142238095Y-81361771D01*
X142238095Y-81361771D02*
X142190476Y-81266533D01*
X142190476Y-81266533D02*
X142190476Y-81171295D01*
X142190476Y-81171295D02*
X142238095Y-81076057D01*
X142238095Y-81076057D02*
X142285714Y-81028438D01*
X142285714Y-81028438D02*
X142380952Y-80980819D01*
X142380952Y-80980819D02*
X142619047Y-80980819D01*
X142619047Y-80980819D02*
X142761904Y-81028438D01*
X143095238Y-80980819D02*
X143333333Y-81980819D01*
X143333333Y-81980819D02*
X143523809Y-81266533D01*
X143523809Y-81266533D02*
X143714285Y-81980819D01*
X143714285Y-81980819D02*
X143952381Y-80980819D01*
X144857142Y-81980819D02*
X144285714Y-81980819D01*
X144571428Y-81980819D02*
X144571428Y-80980819D01*
X144571428Y-80980819D02*
X144476190Y-81123676D01*
X144476190Y-81123676D02*
X144380952Y-81218914D01*
X144380952Y-81218914D02*
X144285714Y-81266533D01*
X145238095Y-81076057D02*
X145285714Y-81028438D01*
X145285714Y-81028438D02*
X145380952Y-80980819D01*
X145380952Y-80980819D02*
X145619047Y-80980819D01*
X145619047Y-80980819D02*
X145714285Y-81028438D01*
X145714285Y-81028438D02*
X145761904Y-81076057D01*
X145761904Y-81076057D02*
X145809523Y-81171295D01*
X145809523Y-81171295D02*
X145809523Y-81266533D01*
X145809523Y-81266533D02*
X145761904Y-81409390D01*
X145761904Y-81409390D02*
X145190476Y-81980819D01*
X145190476Y-81980819D02*
X145809523Y-81980819D01*
X133880952Y-118454819D02*
X133404762Y-118454819D01*
X133404762Y-118454819D02*
X133404762Y-117454819D01*
X134214286Y-117931009D02*
X134547619Y-117931009D01*
X134690476Y-118454819D02*
X134214286Y-118454819D01*
X134214286Y-118454819D02*
X134214286Y-117454819D01*
X134214286Y-117454819D02*
X134690476Y-117454819D01*
X135119048Y-118454819D02*
X135119048Y-117454819D01*
X135119048Y-117454819D02*
X135357143Y-117454819D01*
X135357143Y-117454819D02*
X135500000Y-117502438D01*
X135500000Y-117502438D02*
X135595238Y-117597676D01*
X135595238Y-117597676D02*
X135642857Y-117692914D01*
X135642857Y-117692914D02*
X135690476Y-117883390D01*
X135690476Y-117883390D02*
X135690476Y-118026247D01*
X135690476Y-118026247D02*
X135642857Y-118216723D01*
X135642857Y-118216723D02*
X135595238Y-118311961D01*
X135595238Y-118311961D02*
X135500000Y-118407200D01*
X135500000Y-118407200D02*
X135357143Y-118454819D01*
X135357143Y-118454819D02*
X135119048Y-118454819D01*
X136023810Y-117454819D02*
X136690476Y-117454819D01*
X136690476Y-117454819D02*
X136261905Y-118454819D01*
X104166667Y-138907200D02*
X104309524Y-138954819D01*
X104309524Y-138954819D02*
X104547619Y-138954819D01*
X104547619Y-138954819D02*
X104642857Y-138907200D01*
X104642857Y-138907200D02*
X104690476Y-138859580D01*
X104690476Y-138859580D02*
X104738095Y-138764342D01*
X104738095Y-138764342D02*
X104738095Y-138669104D01*
X104738095Y-138669104D02*
X104690476Y-138573866D01*
X104690476Y-138573866D02*
X104642857Y-138526247D01*
X104642857Y-138526247D02*
X104547619Y-138478628D01*
X104547619Y-138478628D02*
X104357143Y-138431009D01*
X104357143Y-138431009D02*
X104261905Y-138383390D01*
X104261905Y-138383390D02*
X104214286Y-138335771D01*
X104214286Y-138335771D02*
X104166667Y-138240533D01*
X104166667Y-138240533D02*
X104166667Y-138145295D01*
X104166667Y-138145295D02*
X104214286Y-138050057D01*
X104214286Y-138050057D02*
X104261905Y-138002438D01*
X104261905Y-138002438D02*
X104357143Y-137954819D01*
X104357143Y-137954819D02*
X104595238Y-137954819D01*
X104595238Y-137954819D02*
X104738095Y-138002438D01*
X105071429Y-137954819D02*
X105309524Y-138954819D01*
X105309524Y-138954819D02*
X105500000Y-138240533D01*
X105500000Y-138240533D02*
X105690476Y-138954819D01*
X105690476Y-138954819D02*
X105928572Y-137954819D01*
X106833333Y-138954819D02*
X106261905Y-138954819D01*
X106547619Y-138954819D02*
X106547619Y-137954819D01*
X106547619Y-137954819D02*
X106452381Y-138097676D01*
X106452381Y-138097676D02*
X106357143Y-138192914D01*
X106357143Y-138192914D02*
X106261905Y-138240533D01*
X118834819Y-111778094D02*
X117834819Y-111778094D01*
X117834819Y-111778094D02*
X117834819Y-111539999D01*
X117834819Y-111539999D02*
X117882438Y-111397142D01*
X117882438Y-111397142D02*
X117977676Y-111301904D01*
X117977676Y-111301904D02*
X118072914Y-111254285D01*
X118072914Y-111254285D02*
X118263390Y-111206666D01*
X118263390Y-111206666D02*
X118406247Y-111206666D01*
X118406247Y-111206666D02*
X118596723Y-111254285D01*
X118596723Y-111254285D02*
X118691961Y-111301904D01*
X118691961Y-111301904D02*
X118787200Y-111397142D01*
X118787200Y-111397142D02*
X118834819Y-111539999D01*
X118834819Y-111539999D02*
X118834819Y-111778094D01*
X117834819Y-110873332D02*
X117834819Y-110254285D01*
X117834819Y-110254285D02*
X118215771Y-110587618D01*
X118215771Y-110587618D02*
X118215771Y-110444761D01*
X118215771Y-110444761D02*
X118263390Y-110349523D01*
X118263390Y-110349523D02*
X118311009Y-110301904D01*
X118311009Y-110301904D02*
X118406247Y-110254285D01*
X118406247Y-110254285D02*
X118644342Y-110254285D01*
X118644342Y-110254285D02*
X118739580Y-110301904D01*
X118739580Y-110301904D02*
X118787200Y-110349523D01*
X118787200Y-110349523D02*
X118834819Y-110444761D01*
X118834819Y-110444761D02*
X118834819Y-110730475D01*
X118834819Y-110730475D02*
X118787200Y-110825713D01*
X118787200Y-110825713D02*
X118739580Y-110873332D01*
X119154819Y-115111904D02*
X118154819Y-115111904D01*
X119154819Y-114540476D02*
X118583390Y-114969047D01*
X118154819Y-114540476D02*
X118726247Y-115111904D01*
X133880952Y-137454819D02*
X133404762Y-137454819D01*
X133404762Y-137454819D02*
X133404762Y-136454819D01*
X134214286Y-136931009D02*
X134547619Y-136931009D01*
X134690476Y-137454819D02*
X134214286Y-137454819D01*
X134214286Y-137454819D02*
X134214286Y-136454819D01*
X134214286Y-136454819D02*
X134690476Y-136454819D01*
X135119048Y-137454819D02*
X135119048Y-136454819D01*
X135119048Y-136454819D02*
X135357143Y-136454819D01*
X135357143Y-136454819D02*
X135500000Y-136502438D01*
X135500000Y-136502438D02*
X135595238Y-136597676D01*
X135595238Y-136597676D02*
X135642857Y-136692914D01*
X135642857Y-136692914D02*
X135690476Y-136883390D01*
X135690476Y-136883390D02*
X135690476Y-137026247D01*
X135690476Y-137026247D02*
X135642857Y-137216723D01*
X135642857Y-137216723D02*
X135595238Y-137311961D01*
X135595238Y-137311961D02*
X135500000Y-137407200D01*
X135500000Y-137407200D02*
X135357143Y-137454819D01*
X135357143Y-137454819D02*
X135119048Y-137454819D01*
X136547619Y-136454819D02*
X136357143Y-136454819D01*
X136357143Y-136454819D02*
X136261905Y-136502438D01*
X136261905Y-136502438D02*
X136214286Y-136550057D01*
X136214286Y-136550057D02*
X136119048Y-136692914D01*
X136119048Y-136692914D02*
X136071429Y-136883390D01*
X136071429Y-136883390D02*
X136071429Y-137264342D01*
X136071429Y-137264342D02*
X136119048Y-137359580D01*
X136119048Y-137359580D02*
X136166667Y-137407200D01*
X136166667Y-137407200D02*
X136261905Y-137454819D01*
X136261905Y-137454819D02*
X136452381Y-137454819D01*
X136452381Y-137454819D02*
X136547619Y-137407200D01*
X136547619Y-137407200D02*
X136595238Y-137359580D01*
X136595238Y-137359580D02*
X136642857Y-137264342D01*
X136642857Y-137264342D02*
X136642857Y-137026247D01*
X136642857Y-137026247D02*
X136595238Y-136931009D01*
X136595238Y-136931009D02*
X136547619Y-136883390D01*
X136547619Y-136883390D02*
X136452381Y-136835771D01*
X136452381Y-136835771D02*
X136261905Y-136835771D01*
X136261905Y-136835771D02*
X136166667Y-136883390D01*
X136166667Y-136883390D02*
X136119048Y-136931009D01*
X136119048Y-136931009D02*
X136071429Y-137026247D01*
X121054819Y-66046428D02*
X121054819Y-65855952D01*
X121054819Y-65855952D02*
X121102438Y-65760714D01*
X121102438Y-65760714D02*
X121197676Y-65665476D01*
X121197676Y-65665476D02*
X121388152Y-65617857D01*
X121388152Y-65617857D02*
X121721485Y-65617857D01*
X121721485Y-65617857D02*
X121911961Y-65665476D01*
X121911961Y-65665476D02*
X122007200Y-65760714D01*
X122007200Y-65760714D02*
X122054819Y-65855952D01*
X122054819Y-65855952D02*
X122054819Y-66046428D01*
X122054819Y-66046428D02*
X122007200Y-66141666D01*
X122007200Y-66141666D02*
X121911961Y-66236904D01*
X121911961Y-66236904D02*
X121721485Y-66284523D01*
X121721485Y-66284523D02*
X121388152Y-66284523D01*
X121388152Y-66284523D02*
X121197676Y-66236904D01*
X121197676Y-66236904D02*
X121102438Y-66141666D01*
X121102438Y-66141666D02*
X121054819Y-66046428D01*
X122054819Y-64665476D02*
X122054819Y-65236904D01*
X122054819Y-64951190D02*
X121054819Y-64951190D01*
X121054819Y-64951190D02*
X121197676Y-65046428D01*
X121197676Y-65046428D02*
X121292914Y-65141666D01*
X121292914Y-65141666D02*
X121340533Y-65236904D01*
X89303450Y-62485713D02*
X89339164Y-62378571D01*
X89339164Y-62378571D02*
X89339164Y-62199999D01*
X89339164Y-62199999D02*
X89303450Y-62128571D01*
X89303450Y-62128571D02*
X89267735Y-62092856D01*
X89267735Y-62092856D02*
X89196307Y-62057142D01*
X89196307Y-62057142D02*
X89124878Y-62057142D01*
X89124878Y-62057142D02*
X89053450Y-62092856D01*
X89053450Y-62092856D02*
X89017735Y-62128571D01*
X89017735Y-62128571D02*
X88982021Y-62199999D01*
X88982021Y-62199999D02*
X88946307Y-62342856D01*
X88946307Y-62342856D02*
X88910592Y-62414285D01*
X88910592Y-62414285D02*
X88874878Y-62449999D01*
X88874878Y-62449999D02*
X88803450Y-62485713D01*
X88803450Y-62485713D02*
X88732021Y-62485713D01*
X88732021Y-62485713D02*
X88660592Y-62449999D01*
X88660592Y-62449999D02*
X88624878Y-62414285D01*
X88624878Y-62414285D02*
X88589164Y-62342856D01*
X88589164Y-62342856D02*
X88589164Y-62164285D01*
X88589164Y-62164285D02*
X88624878Y-62057142D01*
X89339164Y-61735713D02*
X88589164Y-61735713D01*
X88589164Y-61735713D02*
X88589164Y-61557142D01*
X88589164Y-61557142D02*
X88624878Y-61449999D01*
X88624878Y-61449999D02*
X88696307Y-61378570D01*
X88696307Y-61378570D02*
X88767735Y-61342856D01*
X88767735Y-61342856D02*
X88910592Y-61307142D01*
X88910592Y-61307142D02*
X89017735Y-61307142D01*
X89017735Y-61307142D02*
X89160592Y-61342856D01*
X89160592Y-61342856D02*
X89232021Y-61378570D01*
X89232021Y-61378570D02*
X89303450Y-61449999D01*
X89303450Y-61449999D02*
X89339164Y-61557142D01*
X89339164Y-61557142D02*
X89339164Y-61735713D01*
X89124878Y-61021427D02*
X89124878Y-60664285D01*
X89339164Y-61092856D02*
X88589164Y-60842856D01*
X88589164Y-60842856D02*
X89339164Y-60592856D01*
X89303450Y-65007856D02*
X89339164Y-64900714D01*
X89339164Y-64900714D02*
X89339164Y-64722142D01*
X89339164Y-64722142D02*
X89303450Y-64650714D01*
X89303450Y-64650714D02*
X89267735Y-64614999D01*
X89267735Y-64614999D02*
X89196307Y-64579285D01*
X89196307Y-64579285D02*
X89124878Y-64579285D01*
X89124878Y-64579285D02*
X89053450Y-64614999D01*
X89053450Y-64614999D02*
X89017735Y-64650714D01*
X89017735Y-64650714D02*
X88982021Y-64722142D01*
X88982021Y-64722142D02*
X88946307Y-64864999D01*
X88946307Y-64864999D02*
X88910592Y-64936428D01*
X88910592Y-64936428D02*
X88874878Y-64972142D01*
X88874878Y-64972142D02*
X88803450Y-65007856D01*
X88803450Y-65007856D02*
X88732021Y-65007856D01*
X88732021Y-65007856D02*
X88660592Y-64972142D01*
X88660592Y-64972142D02*
X88624878Y-64936428D01*
X88624878Y-64936428D02*
X88589164Y-64864999D01*
X88589164Y-64864999D02*
X88589164Y-64686428D01*
X88589164Y-64686428D02*
X88624878Y-64579285D01*
X89267735Y-63829285D02*
X89303450Y-63864999D01*
X89303450Y-63864999D02*
X89339164Y-63972142D01*
X89339164Y-63972142D02*
X89339164Y-64043570D01*
X89339164Y-64043570D02*
X89303450Y-64150713D01*
X89303450Y-64150713D02*
X89232021Y-64222142D01*
X89232021Y-64222142D02*
X89160592Y-64257856D01*
X89160592Y-64257856D02*
X89017735Y-64293570D01*
X89017735Y-64293570D02*
X88910592Y-64293570D01*
X88910592Y-64293570D02*
X88767735Y-64257856D01*
X88767735Y-64257856D02*
X88696307Y-64222142D01*
X88696307Y-64222142D02*
X88624878Y-64150713D01*
X88624878Y-64150713D02*
X88589164Y-64043570D01*
X88589164Y-64043570D02*
X88589164Y-63972142D01*
X88589164Y-63972142D02*
X88624878Y-63864999D01*
X88624878Y-63864999D02*
X88660592Y-63829285D01*
X89339164Y-63150713D02*
X89339164Y-63507856D01*
X89339164Y-63507856D02*
X88589164Y-63507856D01*
X88589164Y-67654999D02*
X89339164Y-67404999D01*
X89339164Y-67404999D02*
X88589164Y-67154999D01*
X89267735Y-66476428D02*
X89303450Y-66512142D01*
X89303450Y-66512142D02*
X89339164Y-66619285D01*
X89339164Y-66619285D02*
X89339164Y-66690713D01*
X89339164Y-66690713D02*
X89303450Y-66797856D01*
X89303450Y-66797856D02*
X89232021Y-66869285D01*
X89232021Y-66869285D02*
X89160592Y-66904999D01*
X89160592Y-66904999D02*
X89017735Y-66940713D01*
X89017735Y-66940713D02*
X88910592Y-66940713D01*
X88910592Y-66940713D02*
X88767735Y-66904999D01*
X88767735Y-66904999D02*
X88696307Y-66869285D01*
X88696307Y-66869285D02*
X88624878Y-66797856D01*
X88624878Y-66797856D02*
X88589164Y-66690713D01*
X88589164Y-66690713D02*
X88589164Y-66619285D01*
X88589164Y-66619285D02*
X88624878Y-66512142D01*
X88624878Y-66512142D02*
X88660592Y-66476428D01*
X89267735Y-65726428D02*
X89303450Y-65762142D01*
X89303450Y-65762142D02*
X89339164Y-65869285D01*
X89339164Y-65869285D02*
X89339164Y-65940713D01*
X89339164Y-65940713D02*
X89303450Y-66047856D01*
X89303450Y-66047856D02*
X89232021Y-66119285D01*
X89232021Y-66119285D02*
X89160592Y-66154999D01*
X89160592Y-66154999D02*
X89017735Y-66190713D01*
X89017735Y-66190713D02*
X88910592Y-66190713D01*
X88910592Y-66190713D02*
X88767735Y-66154999D01*
X88767735Y-66154999D02*
X88696307Y-66119285D01*
X88696307Y-66119285D02*
X88624878Y-66047856D01*
X88624878Y-66047856D02*
X88589164Y-65940713D01*
X88589164Y-65940713D02*
X88589164Y-65869285D01*
X88589164Y-65869285D02*
X88624878Y-65762142D01*
X88624878Y-65762142D02*
X88660592Y-65726428D01*
X88624878Y-69766428D02*
X88589164Y-69837857D01*
X88589164Y-69837857D02*
X88589164Y-69944999D01*
X88589164Y-69944999D02*
X88624878Y-70052142D01*
X88624878Y-70052142D02*
X88696307Y-70123571D01*
X88696307Y-70123571D02*
X88767735Y-70159285D01*
X88767735Y-70159285D02*
X88910592Y-70194999D01*
X88910592Y-70194999D02*
X89017735Y-70194999D01*
X89017735Y-70194999D02*
X89160592Y-70159285D01*
X89160592Y-70159285D02*
X89232021Y-70123571D01*
X89232021Y-70123571D02*
X89303450Y-70052142D01*
X89303450Y-70052142D02*
X89339164Y-69944999D01*
X89339164Y-69944999D02*
X89339164Y-69873571D01*
X89339164Y-69873571D02*
X89303450Y-69766428D01*
X89303450Y-69766428D02*
X89267735Y-69730714D01*
X89267735Y-69730714D02*
X89017735Y-69730714D01*
X89017735Y-69730714D02*
X89017735Y-69873571D01*
X89339164Y-69409285D02*
X88589164Y-69409285D01*
X88589164Y-69409285D02*
X89339164Y-68980714D01*
X89339164Y-68980714D02*
X88589164Y-68980714D01*
X89339164Y-68623571D02*
X88589164Y-68623571D01*
X88589164Y-68623571D02*
X88589164Y-68445000D01*
X88589164Y-68445000D02*
X88624878Y-68337857D01*
X88624878Y-68337857D02*
X88696307Y-68266428D01*
X88696307Y-68266428D02*
X88767735Y-68230714D01*
X88767735Y-68230714D02*
X88910592Y-68195000D01*
X88910592Y-68195000D02*
X89017735Y-68195000D01*
X89017735Y-68195000D02*
X89160592Y-68230714D01*
X89160592Y-68230714D02*
X89232021Y-68266428D01*
X89232021Y-68266428D02*
X89303450Y-68337857D01*
X89303450Y-68337857D02*
X89339164Y-68445000D01*
X89339164Y-68445000D02*
X89339164Y-68623571D01*
X100571428Y-64839819D02*
X100761904Y-64839819D01*
X100761904Y-64839819D02*
X100857142Y-64887438D01*
X100857142Y-64887438D02*
X100952380Y-64982676D01*
X100952380Y-64982676D02*
X100999999Y-65173152D01*
X100999999Y-65173152D02*
X100999999Y-65506485D01*
X100999999Y-65506485D02*
X100952380Y-65696961D01*
X100952380Y-65696961D02*
X100857142Y-65792200D01*
X100857142Y-65792200D02*
X100761904Y-65839819D01*
X100761904Y-65839819D02*
X100571428Y-65839819D01*
X100571428Y-65839819D02*
X100476190Y-65792200D01*
X100476190Y-65792200D02*
X100380952Y-65696961D01*
X100380952Y-65696961D02*
X100333333Y-65506485D01*
X100333333Y-65506485D02*
X100333333Y-65173152D01*
X100333333Y-65173152D02*
X100380952Y-64982676D01*
X100380952Y-64982676D02*
X100476190Y-64887438D01*
X100476190Y-64887438D02*
X100571428Y-64839819D01*
X101904761Y-65839819D02*
X101428571Y-65839819D01*
X101428571Y-65839819D02*
X101428571Y-64839819D01*
X102238095Y-65316009D02*
X102571428Y-65316009D01*
X102714285Y-65839819D02*
X102238095Y-65839819D01*
X102238095Y-65839819D02*
X102238095Y-64839819D01*
X102238095Y-64839819D02*
X102714285Y-64839819D01*
X103142857Y-65839819D02*
X103142857Y-64839819D01*
X103142857Y-64839819D02*
X103380952Y-64839819D01*
X103380952Y-64839819D02*
X103523809Y-64887438D01*
X103523809Y-64887438D02*
X103619047Y-64982676D01*
X103619047Y-64982676D02*
X103666666Y-65077914D01*
X103666666Y-65077914D02*
X103714285Y-65268390D01*
X103714285Y-65268390D02*
X103714285Y-65411247D01*
X103714285Y-65411247D02*
X103666666Y-65601723D01*
X103666666Y-65601723D02*
X103619047Y-65696961D01*
X103619047Y-65696961D02*
X103523809Y-65792200D01*
X103523809Y-65792200D02*
X103380952Y-65839819D01*
X103380952Y-65839819D02*
X103142857Y-65839819D01*
X104904762Y-65839819D02*
X104904762Y-64839819D01*
X104904762Y-64839819D02*
X105285714Y-64839819D01*
X105285714Y-64839819D02*
X105380952Y-64887438D01*
X105380952Y-64887438D02*
X105428571Y-64935057D01*
X105428571Y-64935057D02*
X105476190Y-65030295D01*
X105476190Y-65030295D02*
X105476190Y-65173152D01*
X105476190Y-65173152D02*
X105428571Y-65268390D01*
X105428571Y-65268390D02*
X105380952Y-65316009D01*
X105380952Y-65316009D02*
X105285714Y-65363628D01*
X105285714Y-65363628D02*
X104904762Y-65363628D01*
X106333333Y-65839819D02*
X106333333Y-65316009D01*
X106333333Y-65316009D02*
X106285714Y-65220771D01*
X106285714Y-65220771D02*
X106190476Y-65173152D01*
X106190476Y-65173152D02*
X106000000Y-65173152D01*
X106000000Y-65173152D02*
X105904762Y-65220771D01*
X106333333Y-65792200D02*
X106238095Y-65839819D01*
X106238095Y-65839819D02*
X106000000Y-65839819D01*
X106000000Y-65839819D02*
X105904762Y-65792200D01*
X105904762Y-65792200D02*
X105857143Y-65696961D01*
X105857143Y-65696961D02*
X105857143Y-65601723D01*
X105857143Y-65601723D02*
X105904762Y-65506485D01*
X105904762Y-65506485D02*
X106000000Y-65458866D01*
X106000000Y-65458866D02*
X106238095Y-65458866D01*
X106238095Y-65458866D02*
X106333333Y-65411247D01*
X106809524Y-65173152D02*
X106809524Y-65839819D01*
X106809524Y-65268390D02*
X106857143Y-65220771D01*
X106857143Y-65220771D02*
X106952381Y-65173152D01*
X106952381Y-65173152D02*
X107095238Y-65173152D01*
X107095238Y-65173152D02*
X107190476Y-65220771D01*
X107190476Y-65220771D02*
X107238095Y-65316009D01*
X107238095Y-65316009D02*
X107238095Y-65839819D01*
X108095238Y-65792200D02*
X108000000Y-65839819D01*
X108000000Y-65839819D02*
X107809524Y-65839819D01*
X107809524Y-65839819D02*
X107714286Y-65792200D01*
X107714286Y-65792200D02*
X107666667Y-65696961D01*
X107666667Y-65696961D02*
X107666667Y-65316009D01*
X107666667Y-65316009D02*
X107714286Y-65220771D01*
X107714286Y-65220771D02*
X107809524Y-65173152D01*
X107809524Y-65173152D02*
X108000000Y-65173152D01*
X108000000Y-65173152D02*
X108095238Y-65220771D01*
X108095238Y-65220771D02*
X108142857Y-65316009D01*
X108142857Y-65316009D02*
X108142857Y-65411247D01*
X108142857Y-65411247D02*
X107666667Y-65506485D01*
X108714286Y-65839819D02*
X108619048Y-65792200D01*
X108619048Y-65792200D02*
X108571429Y-65696961D01*
X108571429Y-65696961D02*
X108571429Y-64839819D01*
X114880952Y-99454819D02*
X114404762Y-99454819D01*
X114404762Y-99454819D02*
X114404762Y-98454819D01*
X115214286Y-98931009D02*
X115547619Y-98931009D01*
X115690476Y-99454819D02*
X115214286Y-99454819D01*
X115214286Y-99454819D02*
X115214286Y-98454819D01*
X115214286Y-98454819D02*
X115690476Y-98454819D01*
X116119048Y-99454819D02*
X116119048Y-98454819D01*
X116119048Y-98454819D02*
X116357143Y-98454819D01*
X116357143Y-98454819D02*
X116500000Y-98502438D01*
X116500000Y-98502438D02*
X116595238Y-98597676D01*
X116595238Y-98597676D02*
X116642857Y-98692914D01*
X116642857Y-98692914D02*
X116690476Y-98883390D01*
X116690476Y-98883390D02*
X116690476Y-99026247D01*
X116690476Y-99026247D02*
X116642857Y-99216723D01*
X116642857Y-99216723D02*
X116595238Y-99311961D01*
X116595238Y-99311961D02*
X116500000Y-99407200D01*
X116500000Y-99407200D02*
X116357143Y-99454819D01*
X116357143Y-99454819D02*
X116119048Y-99454819D01*
X117547619Y-98788152D02*
X117547619Y-99454819D01*
X117309524Y-98407200D02*
X117071429Y-99121485D01*
X117071429Y-99121485D02*
X117690476Y-99121485D01*
X118834819Y-130778094D02*
X117834819Y-130778094D01*
X117834819Y-130778094D02*
X117834819Y-130539999D01*
X117834819Y-130539999D02*
X117882438Y-130397142D01*
X117882438Y-130397142D02*
X117977676Y-130301904D01*
X117977676Y-130301904D02*
X118072914Y-130254285D01*
X118072914Y-130254285D02*
X118263390Y-130206666D01*
X118263390Y-130206666D02*
X118406247Y-130206666D01*
X118406247Y-130206666D02*
X118596723Y-130254285D01*
X118596723Y-130254285D02*
X118691961Y-130301904D01*
X118691961Y-130301904D02*
X118787200Y-130397142D01*
X118787200Y-130397142D02*
X118834819Y-130539999D01*
X118834819Y-130539999D02*
X118834819Y-130778094D01*
X117930057Y-129825713D02*
X117882438Y-129778094D01*
X117882438Y-129778094D02*
X117834819Y-129682856D01*
X117834819Y-129682856D02*
X117834819Y-129444761D01*
X117834819Y-129444761D02*
X117882438Y-129349523D01*
X117882438Y-129349523D02*
X117930057Y-129301904D01*
X117930057Y-129301904D02*
X118025295Y-129254285D01*
X118025295Y-129254285D02*
X118120533Y-129254285D01*
X118120533Y-129254285D02*
X118263390Y-129301904D01*
X118263390Y-129301904D02*
X118834819Y-129873332D01*
X118834819Y-129873332D02*
X118834819Y-129254285D01*
X119154819Y-134111904D02*
X118154819Y-134111904D01*
X119154819Y-133540476D02*
X118583390Y-133969047D01*
X118154819Y-133540476D02*
X118726247Y-134111904D01*
X137834819Y-93128094D02*
X136834819Y-93128094D01*
X136834819Y-93128094D02*
X136834819Y-92889999D01*
X136834819Y-92889999D02*
X136882438Y-92747142D01*
X136882438Y-92747142D02*
X136977676Y-92651904D01*
X136977676Y-92651904D02*
X137072914Y-92604285D01*
X137072914Y-92604285D02*
X137263390Y-92556666D01*
X137263390Y-92556666D02*
X137406247Y-92556666D01*
X137406247Y-92556666D02*
X137596723Y-92604285D01*
X137596723Y-92604285D02*
X137691961Y-92651904D01*
X137691961Y-92651904D02*
X137787200Y-92747142D01*
X137787200Y-92747142D02*
X137834819Y-92889999D01*
X137834819Y-92889999D02*
X137834819Y-93128094D01*
X137263390Y-91985237D02*
X137215771Y-92080475D01*
X137215771Y-92080475D02*
X137168152Y-92128094D01*
X137168152Y-92128094D02*
X137072914Y-92175713D01*
X137072914Y-92175713D02*
X137025295Y-92175713D01*
X137025295Y-92175713D02*
X136930057Y-92128094D01*
X136930057Y-92128094D02*
X136882438Y-92080475D01*
X136882438Y-92080475D02*
X136834819Y-91985237D01*
X136834819Y-91985237D02*
X136834819Y-91794761D01*
X136834819Y-91794761D02*
X136882438Y-91699523D01*
X136882438Y-91699523D02*
X136930057Y-91651904D01*
X136930057Y-91651904D02*
X137025295Y-91604285D01*
X137025295Y-91604285D02*
X137072914Y-91604285D01*
X137072914Y-91604285D02*
X137168152Y-91651904D01*
X137168152Y-91651904D02*
X137215771Y-91699523D01*
X137215771Y-91699523D02*
X137263390Y-91794761D01*
X137263390Y-91794761D02*
X137263390Y-91985237D01*
X137263390Y-91985237D02*
X137311009Y-92080475D01*
X137311009Y-92080475D02*
X137358628Y-92128094D01*
X137358628Y-92128094D02*
X137453866Y-92175713D01*
X137453866Y-92175713D02*
X137644342Y-92175713D01*
X137644342Y-92175713D02*
X137739580Y-92128094D01*
X137739580Y-92128094D02*
X137787200Y-92080475D01*
X137787200Y-92080475D02*
X137834819Y-91985237D01*
X137834819Y-91985237D02*
X137834819Y-91794761D01*
X137834819Y-91794761D02*
X137787200Y-91699523D01*
X137787200Y-91699523D02*
X137739580Y-91651904D01*
X137739580Y-91651904D02*
X137644342Y-91604285D01*
X137644342Y-91604285D02*
X137453866Y-91604285D01*
X137453866Y-91604285D02*
X137358628Y-91651904D01*
X137358628Y-91651904D02*
X137311009Y-91699523D01*
X137311009Y-91699523D02*
X137263390Y-91794761D01*
X138154819Y-96461904D02*
X137154819Y-96461904D01*
X138154819Y-95890476D02*
X137583390Y-96319047D01*
X137154819Y-95890476D02*
X137726247Y-96461904D01*
X118834819Y-150278094D02*
X117834819Y-150278094D01*
X117834819Y-150278094D02*
X117834819Y-150039999D01*
X117834819Y-150039999D02*
X117882438Y-149897142D01*
X117882438Y-149897142D02*
X117977676Y-149801904D01*
X117977676Y-149801904D02*
X118072914Y-149754285D01*
X118072914Y-149754285D02*
X118263390Y-149706666D01*
X118263390Y-149706666D02*
X118406247Y-149706666D01*
X118406247Y-149706666D02*
X118596723Y-149754285D01*
X118596723Y-149754285D02*
X118691961Y-149801904D01*
X118691961Y-149801904D02*
X118787200Y-149897142D01*
X118787200Y-149897142D02*
X118834819Y-150039999D01*
X118834819Y-150039999D02*
X118834819Y-150278094D01*
X118834819Y-148754285D02*
X118834819Y-149325713D01*
X118834819Y-149039999D02*
X117834819Y-149039999D01*
X117834819Y-149039999D02*
X117977676Y-149135237D01*
X117977676Y-149135237D02*
X118072914Y-149230475D01*
X118072914Y-149230475D02*
X118120533Y-149325713D01*
X119154819Y-153611904D02*
X118154819Y-153611904D01*
X119154819Y-153040476D02*
X118583390Y-153469047D01*
X118154819Y-153040476D02*
X118726247Y-153611904D01*
X123166667Y-100973200D02*
X123309524Y-101020819D01*
X123309524Y-101020819D02*
X123547619Y-101020819D01*
X123547619Y-101020819D02*
X123642857Y-100973200D01*
X123642857Y-100973200D02*
X123690476Y-100925580D01*
X123690476Y-100925580D02*
X123738095Y-100830342D01*
X123738095Y-100830342D02*
X123738095Y-100735104D01*
X123738095Y-100735104D02*
X123690476Y-100639866D01*
X123690476Y-100639866D02*
X123642857Y-100592247D01*
X123642857Y-100592247D02*
X123547619Y-100544628D01*
X123547619Y-100544628D02*
X123357143Y-100497009D01*
X123357143Y-100497009D02*
X123261905Y-100449390D01*
X123261905Y-100449390D02*
X123214286Y-100401771D01*
X123214286Y-100401771D02*
X123166667Y-100306533D01*
X123166667Y-100306533D02*
X123166667Y-100211295D01*
X123166667Y-100211295D02*
X123214286Y-100116057D01*
X123214286Y-100116057D02*
X123261905Y-100068438D01*
X123261905Y-100068438D02*
X123357143Y-100020819D01*
X123357143Y-100020819D02*
X123595238Y-100020819D01*
X123595238Y-100020819D02*
X123738095Y-100068438D01*
X124071429Y-100020819D02*
X124309524Y-101020819D01*
X124309524Y-101020819D02*
X124500000Y-100306533D01*
X124500000Y-100306533D02*
X124690476Y-101020819D01*
X124690476Y-101020819D02*
X124928572Y-100020819D01*
X125214286Y-100020819D02*
X125880952Y-100020819D01*
X125880952Y-100020819D02*
X125452381Y-101020819D01*
X114880952Y-156454819D02*
X114404762Y-156454819D01*
X114404762Y-156454819D02*
X114404762Y-155454819D01*
X115214286Y-155931009D02*
X115547619Y-155931009D01*
X115690476Y-156454819D02*
X115214286Y-156454819D01*
X115214286Y-156454819D02*
X115214286Y-155454819D01*
X115214286Y-155454819D02*
X115690476Y-155454819D01*
X116119048Y-156454819D02*
X116119048Y-155454819D01*
X116119048Y-155454819D02*
X116357143Y-155454819D01*
X116357143Y-155454819D02*
X116500000Y-155502438D01*
X116500000Y-155502438D02*
X116595238Y-155597676D01*
X116595238Y-155597676D02*
X116642857Y-155692914D01*
X116642857Y-155692914D02*
X116690476Y-155883390D01*
X116690476Y-155883390D02*
X116690476Y-156026247D01*
X116690476Y-156026247D02*
X116642857Y-156216723D01*
X116642857Y-156216723D02*
X116595238Y-156311961D01*
X116595238Y-156311961D02*
X116500000Y-156407200D01*
X116500000Y-156407200D02*
X116357143Y-156454819D01*
X116357143Y-156454819D02*
X116119048Y-156454819D01*
X117642857Y-156454819D02*
X117071429Y-156454819D01*
X117357143Y-156454819D02*
X117357143Y-155454819D01*
X117357143Y-155454819D02*
X117261905Y-155597676D01*
X117261905Y-155597676D02*
X117166667Y-155692914D01*
X117166667Y-155692914D02*
X117071429Y-155740533D01*
X142190476Y-101003200D02*
X142333333Y-101050819D01*
X142333333Y-101050819D02*
X142571428Y-101050819D01*
X142571428Y-101050819D02*
X142666666Y-101003200D01*
X142666666Y-101003200D02*
X142714285Y-100955580D01*
X142714285Y-100955580D02*
X142761904Y-100860342D01*
X142761904Y-100860342D02*
X142761904Y-100765104D01*
X142761904Y-100765104D02*
X142714285Y-100669866D01*
X142714285Y-100669866D02*
X142666666Y-100622247D01*
X142666666Y-100622247D02*
X142571428Y-100574628D01*
X142571428Y-100574628D02*
X142380952Y-100527009D01*
X142380952Y-100527009D02*
X142285714Y-100479390D01*
X142285714Y-100479390D02*
X142238095Y-100431771D01*
X142238095Y-100431771D02*
X142190476Y-100336533D01*
X142190476Y-100336533D02*
X142190476Y-100241295D01*
X142190476Y-100241295D02*
X142238095Y-100146057D01*
X142238095Y-100146057D02*
X142285714Y-100098438D01*
X142285714Y-100098438D02*
X142380952Y-100050819D01*
X142380952Y-100050819D02*
X142619047Y-100050819D01*
X142619047Y-100050819D02*
X142761904Y-100098438D01*
X143095238Y-100050819D02*
X143333333Y-101050819D01*
X143333333Y-101050819D02*
X143523809Y-100336533D01*
X143523809Y-100336533D02*
X143714285Y-101050819D01*
X143714285Y-101050819D02*
X143952381Y-100050819D01*
X144857142Y-101050819D02*
X144285714Y-101050819D01*
X144571428Y-101050819D02*
X144571428Y-100050819D01*
X144571428Y-100050819D02*
X144476190Y-100193676D01*
X144476190Y-100193676D02*
X144380952Y-100288914D01*
X144380952Y-100288914D02*
X144285714Y-100336533D01*
X145809523Y-101050819D02*
X145238095Y-101050819D01*
X145523809Y-101050819D02*
X145523809Y-100050819D01*
X145523809Y-100050819D02*
X145428571Y-100193676D01*
X145428571Y-100193676D02*
X145333333Y-100288914D01*
X145333333Y-100288914D02*
X145238095Y-100336533D01*
X146683333Y-62524819D02*
X146683333Y-61524819D01*
X146683333Y-61524819D02*
X146921428Y-61524819D01*
X146921428Y-61524819D02*
X147064285Y-61572438D01*
X147064285Y-61572438D02*
X147159523Y-61667676D01*
X147159523Y-61667676D02*
X147207142Y-61762914D01*
X147207142Y-61762914D02*
X147254761Y-61953390D01*
X147254761Y-61953390D02*
X147254761Y-62096247D01*
X147254761Y-62096247D02*
X147207142Y-62286723D01*
X147207142Y-62286723D02*
X147159523Y-62381961D01*
X147159523Y-62381961D02*
X147064285Y-62477200D01*
X147064285Y-62477200D02*
X146921428Y-62524819D01*
X146921428Y-62524819D02*
X146683333Y-62524819D01*
X147635714Y-62239104D02*
X148111904Y-62239104D01*
X147540476Y-62524819D02*
X147873809Y-61524819D01*
X147873809Y-61524819D02*
X148207142Y-62524819D01*
X149064285Y-62524819D02*
X148492857Y-62524819D01*
X148778571Y-62524819D02*
X148778571Y-61524819D01*
X148778571Y-61524819D02*
X148683333Y-61667676D01*
X148683333Y-61667676D02*
X148588095Y-61762914D01*
X148588095Y-61762914D02*
X148492857Y-61810533D01*
X151398095Y-62204819D02*
X151398095Y-61204819D01*
X151969523Y-62204819D02*
X151540952Y-61633390D01*
X151969523Y-61204819D02*
X151398095Y-61776247D01*
X153404761Y-137454819D02*
X152928571Y-137454819D01*
X152928571Y-137454819D02*
X152928571Y-136454819D01*
X153738095Y-136931009D02*
X154071428Y-136931009D01*
X154214285Y-137454819D02*
X153738095Y-137454819D01*
X153738095Y-137454819D02*
X153738095Y-136454819D01*
X153738095Y-136454819D02*
X154214285Y-136454819D01*
X154642857Y-137454819D02*
X154642857Y-136454819D01*
X154642857Y-136454819D02*
X154880952Y-136454819D01*
X154880952Y-136454819D02*
X155023809Y-136502438D01*
X155023809Y-136502438D02*
X155119047Y-136597676D01*
X155119047Y-136597676D02*
X155166666Y-136692914D01*
X155166666Y-136692914D02*
X155214285Y-136883390D01*
X155214285Y-136883390D02*
X155214285Y-137026247D01*
X155214285Y-137026247D02*
X155166666Y-137216723D01*
X155166666Y-137216723D02*
X155119047Y-137311961D01*
X155119047Y-137311961D02*
X155023809Y-137407200D01*
X155023809Y-137407200D02*
X154880952Y-137454819D01*
X154880952Y-137454819D02*
X154642857Y-137454819D01*
X156166666Y-137454819D02*
X155595238Y-137454819D01*
X155880952Y-137454819D02*
X155880952Y-136454819D01*
X155880952Y-136454819D02*
X155785714Y-136597676D01*
X155785714Y-136597676D02*
X155690476Y-136692914D01*
X155690476Y-136692914D02*
X155595238Y-136740533D01*
X156785714Y-136454819D02*
X156880952Y-136454819D01*
X156880952Y-136454819D02*
X156976190Y-136502438D01*
X156976190Y-136502438D02*
X157023809Y-136550057D01*
X157023809Y-136550057D02*
X157071428Y-136645295D01*
X157071428Y-136645295D02*
X157119047Y-136835771D01*
X157119047Y-136835771D02*
X157119047Y-137073866D01*
X157119047Y-137073866D02*
X157071428Y-137264342D01*
X157071428Y-137264342D02*
X157023809Y-137359580D01*
X157023809Y-137359580D02*
X156976190Y-137407200D01*
X156976190Y-137407200D02*
X156880952Y-137454819D01*
X156880952Y-137454819D02*
X156785714Y-137454819D01*
X156785714Y-137454819D02*
X156690476Y-137407200D01*
X156690476Y-137407200D02*
X156642857Y-137359580D01*
X156642857Y-137359580D02*
X156595238Y-137264342D01*
X156595238Y-137264342D02*
X156547619Y-137073866D01*
X156547619Y-137073866D02*
X156547619Y-136835771D01*
X156547619Y-136835771D02*
X156595238Y-136645295D01*
X156595238Y-136645295D02*
X156642857Y-136550057D01*
X156642857Y-136550057D02*
X156690476Y-136502438D01*
X156690476Y-136502438D02*
X156785714Y-136454819D01*
X123666667Y-119907200D02*
X123809524Y-119954819D01*
X123809524Y-119954819D02*
X124047619Y-119954819D01*
X124047619Y-119954819D02*
X124142857Y-119907200D01*
X124142857Y-119907200D02*
X124190476Y-119859580D01*
X124190476Y-119859580D02*
X124238095Y-119764342D01*
X124238095Y-119764342D02*
X124238095Y-119669104D01*
X124238095Y-119669104D02*
X124190476Y-119573866D01*
X124190476Y-119573866D02*
X124142857Y-119526247D01*
X124142857Y-119526247D02*
X124047619Y-119478628D01*
X124047619Y-119478628D02*
X123857143Y-119431009D01*
X123857143Y-119431009D02*
X123761905Y-119383390D01*
X123761905Y-119383390D02*
X123714286Y-119335771D01*
X123714286Y-119335771D02*
X123666667Y-119240533D01*
X123666667Y-119240533D02*
X123666667Y-119145295D01*
X123666667Y-119145295D02*
X123714286Y-119050057D01*
X123714286Y-119050057D02*
X123761905Y-119002438D01*
X123761905Y-119002438D02*
X123857143Y-118954819D01*
X123857143Y-118954819D02*
X124095238Y-118954819D01*
X124095238Y-118954819D02*
X124238095Y-119002438D01*
X124571429Y-118954819D02*
X124809524Y-119954819D01*
X124809524Y-119954819D02*
X125000000Y-119240533D01*
X125000000Y-119240533D02*
X125190476Y-119954819D01*
X125190476Y-119954819D02*
X125428572Y-118954819D01*
X126238095Y-118954819D02*
X126047619Y-118954819D01*
X126047619Y-118954819D02*
X125952381Y-119002438D01*
X125952381Y-119002438D02*
X125904762Y-119050057D01*
X125904762Y-119050057D02*
X125809524Y-119192914D01*
X125809524Y-119192914D02*
X125761905Y-119383390D01*
X125761905Y-119383390D02*
X125761905Y-119764342D01*
X125761905Y-119764342D02*
X125809524Y-119859580D01*
X125809524Y-119859580D02*
X125857143Y-119907200D01*
X125857143Y-119907200D02*
X125952381Y-119954819D01*
X125952381Y-119954819D02*
X126142857Y-119954819D01*
X126142857Y-119954819D02*
X126238095Y-119907200D01*
X126238095Y-119907200D02*
X126285714Y-119859580D01*
X126285714Y-119859580D02*
X126333333Y-119764342D01*
X126333333Y-119764342D02*
X126333333Y-119526247D01*
X126333333Y-119526247D02*
X126285714Y-119431009D01*
X126285714Y-119431009D02*
X126238095Y-119383390D01*
X126238095Y-119383390D02*
X126142857Y-119335771D01*
X126142857Y-119335771D02*
X125952381Y-119335771D01*
X125952381Y-119335771D02*
X125857143Y-119383390D01*
X125857143Y-119383390D02*
X125809524Y-119431009D01*
X125809524Y-119431009D02*
X125761905Y-119526247D01*
X153404761Y-99454819D02*
X152928571Y-99454819D01*
X152928571Y-99454819D02*
X152928571Y-98454819D01*
X153738095Y-98931009D02*
X154071428Y-98931009D01*
X154214285Y-99454819D02*
X153738095Y-99454819D01*
X153738095Y-99454819D02*
X153738095Y-98454819D01*
X153738095Y-98454819D02*
X154214285Y-98454819D01*
X154642857Y-99454819D02*
X154642857Y-98454819D01*
X154642857Y-98454819D02*
X154880952Y-98454819D01*
X154880952Y-98454819D02*
X155023809Y-98502438D01*
X155023809Y-98502438D02*
X155119047Y-98597676D01*
X155119047Y-98597676D02*
X155166666Y-98692914D01*
X155166666Y-98692914D02*
X155214285Y-98883390D01*
X155214285Y-98883390D02*
X155214285Y-99026247D01*
X155214285Y-99026247D02*
X155166666Y-99216723D01*
X155166666Y-99216723D02*
X155119047Y-99311961D01*
X155119047Y-99311961D02*
X155023809Y-99407200D01*
X155023809Y-99407200D02*
X154880952Y-99454819D01*
X154880952Y-99454819D02*
X154642857Y-99454819D01*
X156166666Y-99454819D02*
X155595238Y-99454819D01*
X155880952Y-99454819D02*
X155880952Y-98454819D01*
X155880952Y-98454819D02*
X155785714Y-98597676D01*
X155785714Y-98597676D02*
X155690476Y-98692914D01*
X155690476Y-98692914D02*
X155595238Y-98740533D01*
X157119047Y-99454819D02*
X156547619Y-99454819D01*
X156833333Y-99454819D02*
X156833333Y-98454819D01*
X156833333Y-98454819D02*
X156738095Y-98597676D01*
X156738095Y-98597676D02*
X156642857Y-98692914D01*
X156642857Y-98692914D02*
X156547619Y-98740533D01*
X104666667Y-100907200D02*
X104809524Y-100954819D01*
X104809524Y-100954819D02*
X105047619Y-100954819D01*
X105047619Y-100954819D02*
X105142857Y-100907200D01*
X105142857Y-100907200D02*
X105190476Y-100859580D01*
X105190476Y-100859580D02*
X105238095Y-100764342D01*
X105238095Y-100764342D02*
X105238095Y-100669104D01*
X105238095Y-100669104D02*
X105190476Y-100573866D01*
X105190476Y-100573866D02*
X105142857Y-100526247D01*
X105142857Y-100526247D02*
X105047619Y-100478628D01*
X105047619Y-100478628D02*
X104857143Y-100431009D01*
X104857143Y-100431009D02*
X104761905Y-100383390D01*
X104761905Y-100383390D02*
X104714286Y-100335771D01*
X104714286Y-100335771D02*
X104666667Y-100240533D01*
X104666667Y-100240533D02*
X104666667Y-100145295D01*
X104666667Y-100145295D02*
X104714286Y-100050057D01*
X104714286Y-100050057D02*
X104761905Y-100002438D01*
X104761905Y-100002438D02*
X104857143Y-99954819D01*
X104857143Y-99954819D02*
X105095238Y-99954819D01*
X105095238Y-99954819D02*
X105238095Y-100002438D01*
X105571429Y-99954819D02*
X105809524Y-100954819D01*
X105809524Y-100954819D02*
X106000000Y-100240533D01*
X106000000Y-100240533D02*
X106190476Y-100954819D01*
X106190476Y-100954819D02*
X106428572Y-99954819D01*
X106714286Y-99954819D02*
X107333333Y-99954819D01*
X107333333Y-99954819D02*
X107000000Y-100335771D01*
X107000000Y-100335771D02*
X107142857Y-100335771D01*
X107142857Y-100335771D02*
X107238095Y-100383390D01*
X107238095Y-100383390D02*
X107285714Y-100431009D01*
X107285714Y-100431009D02*
X107333333Y-100526247D01*
X107333333Y-100526247D02*
X107333333Y-100764342D01*
X107333333Y-100764342D02*
X107285714Y-100859580D01*
X107285714Y-100859580D02*
X107238095Y-100907200D01*
X107238095Y-100907200D02*
X107142857Y-100954819D01*
X107142857Y-100954819D02*
X106857143Y-100954819D01*
X106857143Y-100954819D02*
X106761905Y-100907200D01*
X106761905Y-100907200D02*
X106714286Y-100859580D01*
X123666667Y-138907200D02*
X123809524Y-138954819D01*
X123809524Y-138954819D02*
X124047619Y-138954819D01*
X124047619Y-138954819D02*
X124142857Y-138907200D01*
X124142857Y-138907200D02*
X124190476Y-138859580D01*
X124190476Y-138859580D02*
X124238095Y-138764342D01*
X124238095Y-138764342D02*
X124238095Y-138669104D01*
X124238095Y-138669104D02*
X124190476Y-138573866D01*
X124190476Y-138573866D02*
X124142857Y-138526247D01*
X124142857Y-138526247D02*
X124047619Y-138478628D01*
X124047619Y-138478628D02*
X123857143Y-138431009D01*
X123857143Y-138431009D02*
X123761905Y-138383390D01*
X123761905Y-138383390D02*
X123714286Y-138335771D01*
X123714286Y-138335771D02*
X123666667Y-138240533D01*
X123666667Y-138240533D02*
X123666667Y-138145295D01*
X123666667Y-138145295D02*
X123714286Y-138050057D01*
X123714286Y-138050057D02*
X123761905Y-138002438D01*
X123761905Y-138002438D02*
X123857143Y-137954819D01*
X123857143Y-137954819D02*
X124095238Y-137954819D01*
X124095238Y-137954819D02*
X124238095Y-138002438D01*
X124571429Y-137954819D02*
X124809524Y-138954819D01*
X124809524Y-138954819D02*
X125000000Y-138240533D01*
X125000000Y-138240533D02*
X125190476Y-138954819D01*
X125190476Y-138954819D02*
X125428572Y-137954819D01*
X126285714Y-137954819D02*
X125809524Y-137954819D01*
X125809524Y-137954819D02*
X125761905Y-138431009D01*
X125761905Y-138431009D02*
X125809524Y-138383390D01*
X125809524Y-138383390D02*
X125904762Y-138335771D01*
X125904762Y-138335771D02*
X126142857Y-138335771D01*
X126142857Y-138335771D02*
X126238095Y-138383390D01*
X126238095Y-138383390D02*
X126285714Y-138431009D01*
X126285714Y-138431009D02*
X126333333Y-138526247D01*
X126333333Y-138526247D02*
X126333333Y-138764342D01*
X126333333Y-138764342D02*
X126285714Y-138859580D01*
X126285714Y-138859580D02*
X126238095Y-138907200D01*
X126238095Y-138907200D02*
X126142857Y-138954819D01*
X126142857Y-138954819D02*
X125904762Y-138954819D01*
X125904762Y-138954819D02*
X125809524Y-138907200D01*
X125809524Y-138907200D02*
X125761905Y-138859580D01*
X166666666Y-150804819D02*
X166333333Y-150328628D01*
X166095238Y-150804819D02*
X166095238Y-149804819D01*
X166095238Y-149804819D02*
X166476190Y-149804819D01*
X166476190Y-149804819D02*
X166571428Y-149852438D01*
X166571428Y-149852438D02*
X166619047Y-149900057D01*
X166619047Y-149900057D02*
X166666666Y-149995295D01*
X166666666Y-149995295D02*
X166666666Y-150138152D01*
X166666666Y-150138152D02*
X166619047Y-150233390D01*
X166619047Y-150233390D02*
X166571428Y-150281009D01*
X166571428Y-150281009D02*
X166476190Y-150328628D01*
X166476190Y-150328628D02*
X166095238Y-150328628D01*
X167095238Y-150281009D02*
X167428571Y-150281009D01*
X167571428Y-150804819D02*
X167095238Y-150804819D01*
X167095238Y-150804819D02*
X167095238Y-149804819D01*
X167095238Y-149804819D02*
X167571428Y-149804819D01*
X168333333Y-150281009D02*
X168000000Y-150281009D01*
X168000000Y-150804819D02*
X168000000Y-149804819D01*
X168000000Y-149804819D02*
X168476190Y-149804819D01*
X169000000Y-149804819D02*
X169000000Y-150042914D01*
X168761905Y-149947676D02*
X169000000Y-150042914D01*
X169000000Y-150042914D02*
X169238095Y-149947676D01*
X168857143Y-150233390D02*
X169000000Y-150042914D01*
X169000000Y-150042914D02*
X169142857Y-150233390D01*
X169761905Y-149804819D02*
X169761905Y-150042914D01*
X169523810Y-149947676D02*
X169761905Y-150042914D01*
X169761905Y-150042914D02*
X170000000Y-149947676D01*
X169619048Y-150233390D02*
X169761905Y-150042914D01*
X169761905Y-150042914D02*
X169904762Y-150233390D01*
D12*
%TO.C,D6*%
X138380000Y-131320000D02*
X140620000Y-131320000D01*
X138380000Y-131440000D02*
X140620000Y-131440000D01*
X138380000Y-131560000D02*
X140620000Y-131560000D01*
X139500000Y-127270000D02*
X139500000Y-127920000D01*
X139500000Y-132810000D02*
X139500000Y-132160000D01*
X138380000Y-132160000D02*
X140620000Y-132160000D01*
X140620000Y-127920000D01*
X138380000Y-127920000D01*
X138380000Y-132160000D01*
%TO.C,SW8*%
X122775000Y-82405000D02*
X136745000Y-82405000D01*
X122775000Y-96375000D02*
X122775000Y-82405000D01*
X136745000Y-82405000D02*
X136745000Y-96375000D01*
X136745000Y-96375000D02*
X122775000Y-96375000D01*
%TO.C,D10*%
X158380000Y-131170000D02*
X160620000Y-131170000D01*
X158380000Y-131290000D02*
X160620000Y-131290000D01*
X158380000Y-131410000D02*
X160620000Y-131410000D01*
X159500000Y-127120000D02*
X159500000Y-127770000D01*
X159500000Y-132660000D02*
X159500000Y-132010000D01*
X158380000Y-132010000D02*
X160620000Y-132010000D01*
X160620000Y-127770000D01*
X158380000Y-127770000D01*
X158380000Y-132010000D01*
%TO.C,LED2*%
X108200000Y-135600000D02*
X108200000Y-139000000D01*
X108200000Y-135600000D02*
X108800000Y-135000000D01*
X113800000Y-135000000D02*
X108800000Y-135000000D01*
X113800000Y-139000000D02*
X108200000Y-139000000D01*
X113800000Y-139000000D02*
X113800000Y-135000000D01*
%TO.C,LED9*%
X146200000Y-154100000D02*
X146200000Y-157500000D01*
X146200000Y-154100000D02*
X146800000Y-153500000D01*
X151800000Y-153500000D02*
X146800000Y-153500000D01*
X151800000Y-157500000D02*
X146200000Y-157500000D01*
X151800000Y-157500000D02*
X151800000Y-153500000D01*
%TO.C,SW0*%
X155010000Y-61200000D02*
X155610000Y-61200000D01*
X155310000Y-61500000D02*
X155010000Y-61200000D01*
X155610000Y-61200000D02*
X155310000Y-61500000D01*
X156710000Y-59400000D02*
X156710000Y-71200000D01*
X160810000Y-59400000D02*
X156710000Y-59400000D01*
X160810000Y-71200000D02*
X156710000Y-71200000D01*
X162310000Y-65300000D02*
X163310000Y-65300000D01*
X162810000Y-64800000D02*
X162810000Y-65800000D01*
X164810000Y-59400000D02*
X168910000Y-59400000D01*
X168910000Y-59400000D02*
X168910000Y-61800000D01*
X168910000Y-64000000D02*
X168910000Y-66600000D01*
X168910000Y-68800000D02*
X168910000Y-71200000D01*
X168910000Y-71200000D02*
X164810000Y-71200000D01*
X165810000Y-65300000D02*
G75*
G02*
X159810000Y-65300000I-3000000J0D01*
G01*
X159810000Y-65300000D02*
G75*
G02*
X165810000Y-65300000I3000000J0D01*
G01*
%TO.C,DC1*%
X145080000Y-67640000D02*
X145730000Y-67640000D01*
X149130000Y-68760000D02*
X149130000Y-66520000D01*
X149250000Y-68760000D02*
X149250000Y-66520000D01*
X149370000Y-68760000D02*
X149370000Y-66520000D01*
X150620000Y-67640000D02*
X149970000Y-67640000D01*
X149970000Y-68760000D02*
X145730000Y-68760000D01*
X145730000Y-66520000D01*
X149970000Y-66520000D01*
X149970000Y-68760000D01*
%TO.C,D11*%
X158380000Y-112170000D02*
X160620000Y-112170000D01*
X158380000Y-112290000D02*
X160620000Y-112290000D01*
X158380000Y-112410000D02*
X160620000Y-112410000D01*
X159500000Y-108120000D02*
X159500000Y-108770000D01*
X159500000Y-113660000D02*
X159500000Y-113010000D01*
X158380000Y-113010000D02*
X160620000Y-113010000D01*
X160620000Y-108770000D01*
X158380000Y-108770000D01*
X158380000Y-113010000D01*
%TO.C,DB1*%
X145080000Y-63880000D02*
X145730000Y-63880000D01*
X149130000Y-65000000D02*
X149130000Y-62760000D01*
X149250000Y-65000000D02*
X149250000Y-62760000D01*
X149370000Y-65000000D02*
X149370000Y-62760000D01*
X150620000Y-63880000D02*
X149970000Y-63880000D01*
X149970000Y-65000000D02*
X145730000Y-65000000D01*
X145730000Y-62760000D01*
X149970000Y-62760000D01*
X149970000Y-65000000D01*
%TO.C,LED8*%
X127200000Y-97600000D02*
X127200000Y-101000000D01*
X127200000Y-97600000D02*
X127800000Y-97000000D01*
X132800000Y-97000000D02*
X127800000Y-97000000D01*
X132800000Y-101000000D02*
X127200000Y-101000000D01*
X132800000Y-101000000D02*
X132800000Y-97000000D01*
%TO.C,D9*%
X158380000Y-150270000D02*
X160620000Y-150270000D01*
X158380000Y-150390000D02*
X160620000Y-150390000D01*
X158380000Y-150510000D02*
X160620000Y-150510000D01*
X159500000Y-146220000D02*
X159500000Y-146870000D01*
X159500000Y-151760000D02*
X159500000Y-151110000D01*
X158380000Y-151110000D02*
X160620000Y-151110000D01*
X160620000Y-146870000D01*
X158380000Y-146870000D01*
X158380000Y-151110000D01*
%TO.C,D5*%
X138380000Y-150670000D02*
X140620000Y-150670000D01*
X138380000Y-150790000D02*
X140620000Y-150790000D01*
X138380000Y-150910000D02*
X140620000Y-150910000D01*
X139500000Y-146620000D02*
X139500000Y-147270000D01*
X139500000Y-152160000D02*
X139500000Y-151510000D01*
X138380000Y-151510000D02*
X140620000Y-151510000D01*
X140620000Y-147270000D01*
X138380000Y-147270000D01*
X138380000Y-151510000D01*
%TO.C,LED5*%
X127200000Y-153500000D02*
X127200000Y-157500000D01*
X127200000Y-153500000D02*
X132800000Y-153500000D01*
X127200000Y-157500000D02*
X132200000Y-157500000D01*
X132800000Y-156900000D02*
X132200000Y-157500000D01*
X132800000Y-156900000D02*
X132800000Y-153500000D01*
%TO.C,SW4*%
X103725000Y-82405000D02*
X117695000Y-82405000D01*
X103725000Y-96375000D02*
X103725000Y-82405000D01*
X117695000Y-82405000D02*
X117695000Y-96375000D01*
X117695000Y-96375000D02*
X103725000Y-96375000D01*
%TO.C,D7*%
X138480000Y-112770000D02*
X140720000Y-112770000D01*
X138480000Y-112890000D02*
X140720000Y-112890000D01*
X138480000Y-113010000D02*
X140720000Y-113010000D01*
X139600000Y-108720000D02*
X139600000Y-109370000D01*
X139600000Y-114260000D02*
X139600000Y-113610000D01*
X138480000Y-113610000D02*
X140720000Y-113610000D01*
X140720000Y-109370000D01*
X138480000Y-109370000D01*
X138480000Y-113610000D01*
%TO.C,SW9*%
X141825000Y-139555000D02*
X155795000Y-139555000D01*
X141825000Y-153525000D02*
X141825000Y-139555000D01*
X155795000Y-139555000D02*
X155795000Y-153525000D01*
X155795000Y-153525000D02*
X141825000Y-153525000D01*
%TO.C,SW2*%
X103725000Y-120505000D02*
X117695000Y-120505000D01*
X103725000Y-134475000D02*
X103725000Y-120505000D01*
X117695000Y-120505000D02*
X117695000Y-134475000D01*
X117695000Y-134475000D02*
X103725000Y-134475000D01*
%TO.C,LED3*%
X108200000Y-116600000D02*
X108200000Y-120000000D01*
X108200000Y-116600000D02*
X108800000Y-116000000D01*
X113800000Y-116000000D02*
X108800000Y-116000000D01*
X113800000Y-120000000D02*
X108200000Y-120000000D01*
X113800000Y-120000000D02*
X113800000Y-116000000D01*
%TO.C,LED12*%
X146200000Y-116600000D02*
X146200000Y-120000000D01*
X146200000Y-116600000D02*
X146800000Y-116000000D01*
X151800000Y-116000000D02*
X146800000Y-116000000D01*
X151800000Y-120000000D02*
X146200000Y-120000000D01*
X151800000Y-120000000D02*
X151800000Y-116000000D01*
%TO.C,D12*%
X158380000Y-93170000D02*
X160620000Y-93170000D01*
X158380000Y-93290000D02*
X160620000Y-93290000D01*
X158380000Y-93410000D02*
X160620000Y-93410000D01*
X159500000Y-89120000D02*
X159500000Y-89770000D01*
X159500000Y-94660000D02*
X159500000Y-94010000D01*
X158380000Y-94010000D02*
X160620000Y-94010000D01*
X160620000Y-89770000D01*
X158380000Y-89770000D01*
X158380000Y-94010000D01*
%TO.C,D4*%
X119380000Y-93820000D02*
X121620000Y-93820000D01*
X119380000Y-93940000D02*
X121620000Y-93940000D01*
X119380000Y-94060000D02*
X121620000Y-94060000D01*
X120500000Y-89770000D02*
X120500000Y-90420000D01*
X120500000Y-95310000D02*
X120500000Y-94660000D01*
X119380000Y-94660000D02*
X121620000Y-94660000D01*
X121620000Y-90420000D01*
X119380000Y-90420000D01*
X119380000Y-94660000D01*
%TO.C,SW10*%
X141825000Y-120545000D02*
X155795000Y-120545000D01*
X141825000Y-134515000D02*
X141825000Y-120545000D01*
X155795000Y-120545000D02*
X155795000Y-134515000D01*
X155795000Y-134515000D02*
X141825000Y-134515000D01*
%TO.C,SW12*%
X141835000Y-82415000D02*
X155805000Y-82415000D01*
X141835000Y-96385000D02*
X141835000Y-82415000D01*
X155805000Y-82415000D02*
X155805000Y-96385000D01*
X155805000Y-96385000D02*
X141835000Y-96385000D01*
%TO.C,LED7*%
X127200000Y-116000000D02*
X127200000Y-120000000D01*
X127200000Y-116000000D02*
X132800000Y-116000000D01*
X127200000Y-120000000D02*
X132200000Y-120000000D01*
X132800000Y-119400000D02*
X132200000Y-120000000D01*
X132800000Y-119400000D02*
X132800000Y-116000000D01*
%TO.C,SW1*%
X103725000Y-139555000D02*
X117695000Y-139555000D01*
X103725000Y-153525000D02*
X103725000Y-139555000D01*
X117695000Y-139555000D02*
X117695000Y-153525000D01*
X117695000Y-153525000D02*
X103725000Y-153525000D01*
%TO.C,D3*%
X119380000Y-112320000D02*
X121620000Y-112320000D01*
X119380000Y-112440000D02*
X121620000Y-112440000D01*
X119380000Y-112560000D02*
X121620000Y-112560000D01*
X120500000Y-108270000D02*
X120500000Y-108920000D01*
X120500000Y-113810000D02*
X120500000Y-113160000D01*
X119380000Y-113160000D02*
X121620000Y-113160000D01*
X121620000Y-108920000D01*
X119380000Y-108920000D01*
X119380000Y-113160000D01*
%TO.C,LED6*%
X127450000Y-135125000D02*
X127450000Y-139125000D01*
X127450000Y-135125000D02*
X133050000Y-135125000D01*
X127450000Y-139125000D02*
X132450000Y-139125000D01*
X133050000Y-138525000D02*
X132450000Y-139125000D01*
X133050000Y-138525000D02*
X133050000Y-135125000D01*
D13*
%TO.C,O1*%
X85500000Y-59385000D02*
X85500000Y-71385000D01*
X85500000Y-71385000D02*
X123500000Y-71385000D01*
X90500000Y-71385000D02*
X90500000Y-59385000D01*
X120000000Y-71385000D02*
X120000000Y-59385000D01*
X123500000Y-59385000D02*
X85500000Y-59385000D01*
X123500000Y-71385000D02*
X123500000Y-59385000D01*
D12*
%TO.C,LED4*%
X108200000Y-97000000D02*
X108200000Y-101000000D01*
X108200000Y-97000000D02*
X113800000Y-97000000D01*
X108200000Y-101000000D02*
X113200000Y-101000000D01*
X113800000Y-100400000D02*
X113200000Y-101000000D01*
X113800000Y-100400000D02*
X113800000Y-97000000D01*
%TO.C,D2*%
X119380000Y-131320000D02*
X121620000Y-131320000D01*
X119380000Y-131440000D02*
X121620000Y-131440000D01*
X119380000Y-131560000D02*
X121620000Y-131560000D01*
X120500000Y-127270000D02*
X120500000Y-127920000D01*
X120500000Y-132810000D02*
X120500000Y-132160000D01*
X119380000Y-132160000D02*
X121620000Y-132160000D01*
X121620000Y-127920000D01*
X119380000Y-127920000D01*
X119380000Y-132160000D01*
%TO.C,D8*%
X138380000Y-93670000D02*
X140620000Y-93670000D01*
X138380000Y-93790000D02*
X140620000Y-93790000D01*
X138380000Y-93910000D02*
X140620000Y-93910000D01*
X139500000Y-89620000D02*
X139500000Y-90270000D01*
X139500000Y-95160000D02*
X139500000Y-94510000D01*
X138380000Y-94510000D02*
X140620000Y-94510000D01*
X140620000Y-90270000D01*
X138380000Y-90270000D01*
X138380000Y-94510000D01*
%TO.C,D1*%
X119380000Y-150820000D02*
X121620000Y-150820000D01*
X119380000Y-150940000D02*
X121620000Y-150940000D01*
X119380000Y-151060000D02*
X121620000Y-151060000D01*
X120500000Y-146770000D02*
X120500000Y-147420000D01*
X120500000Y-152310000D02*
X120500000Y-151660000D01*
X119380000Y-151660000D02*
X121620000Y-151660000D01*
X121620000Y-147420000D01*
X119380000Y-147420000D01*
X119380000Y-151660000D01*
%TO.C,SW7*%
X122775000Y-101455000D02*
X136745000Y-101455000D01*
X122775000Y-115425000D02*
X122775000Y-101455000D01*
X136745000Y-101455000D02*
X136745000Y-115425000D01*
X136745000Y-115425000D02*
X122775000Y-115425000D01*
%TO.C,LED1*%
X108200000Y-154100000D02*
X108200000Y-157500000D01*
X108200000Y-154100000D02*
X108800000Y-153500000D01*
X113800000Y-153500000D02*
X108800000Y-153500000D01*
X113800000Y-157500000D02*
X108200000Y-157500000D01*
X113800000Y-157500000D02*
X113800000Y-153500000D01*
%TO.C,SW11*%
X141825000Y-101485000D02*
X155795000Y-101485000D01*
X141825000Y-115455000D02*
X141825000Y-101485000D01*
X155795000Y-101485000D02*
X155795000Y-115455000D01*
X155795000Y-115455000D02*
X141825000Y-115455000D01*
%TO.C,DA1*%
X145080000Y-59950000D02*
X145730000Y-59950000D01*
X149130000Y-61070000D02*
X149130000Y-58830000D01*
X149250000Y-61070000D02*
X149250000Y-58830000D01*
X149370000Y-61070000D02*
X149370000Y-58830000D01*
X150620000Y-59950000D02*
X149970000Y-59950000D01*
X149970000Y-61070000D02*
X145730000Y-61070000D01*
X145730000Y-58830000D01*
X149970000Y-58830000D01*
X149970000Y-61070000D01*
D14*
%TO.C,U1*%
X123610000Y-77057500D02*
X123610000Y-59912500D01*
X125515000Y-78962500D02*
X139485000Y-78962500D01*
X128005000Y-58007500D02*
X128008728Y-57097228D01*
X128508728Y-56597500D02*
X136504000Y-56597500D01*
X137004000Y-57097500D02*
X137004000Y-58007500D01*
D10*
X139485000Y-58007500D02*
X125515000Y-58007500D01*
D14*
X139485000Y-58007500D02*
X125515000Y-58007500D01*
X141390000Y-77057500D02*
X141390000Y-59912500D01*
X123610000Y-59912500D02*
G75*
G02*
X125515000Y-58007500I1905001J-1D01*
G01*
X125515000Y-78962500D02*
G75*
G02*
X123610000Y-77057500I1J1905001D01*
G01*
X128008728Y-57097228D02*
G75*
G02*
X128508728Y-56597501I500018J-291D01*
G01*
X136504000Y-56597500D02*
G75*
G02*
X137004000Y-57097500I0J-500000D01*
G01*
X139485000Y-58007500D02*
G75*
G02*
X141390000Y-59912500I0J-1905000D01*
G01*
X141390000Y-77057500D02*
G75*
G02*
X139485000Y-78962500I-1905000J0D01*
G01*
D15*
X123802000Y-58248500D02*
G75*
G02*
X123298000Y-58248500I-252000J0D01*
G01*
X123298000Y-58248500D02*
G75*
G02*
X123802000Y-58248500I252000J0D01*
G01*
X124945000Y-59128500D02*
G75*
G02*
X124441000Y-59128500I-252000J0D01*
G01*
X124441000Y-59128500D02*
G75*
G02*
X124945000Y-59128500I252000J0D01*
G01*
D12*
%TO.C,LED10*%
X146200000Y-135600000D02*
X146200000Y-139000000D01*
X146200000Y-135600000D02*
X146800000Y-135000000D01*
X151800000Y-135000000D02*
X146800000Y-135000000D01*
X151800000Y-139000000D02*
X146200000Y-139000000D01*
X151800000Y-139000000D02*
X151800000Y-135000000D01*
%TO.C,SW6*%
X122775000Y-120505000D02*
X136745000Y-120505000D01*
X122775000Y-134475000D02*
X122775000Y-120505000D01*
X136745000Y-120505000D02*
X136745000Y-134475000D01*
X136745000Y-134475000D02*
X122775000Y-134475000D01*
%TO.C,LED11*%
X146200000Y-97600000D02*
X146200000Y-101000000D01*
X146200000Y-97600000D02*
X146800000Y-97000000D01*
X151800000Y-97000000D02*
X146800000Y-97000000D01*
X151800000Y-101000000D02*
X146200000Y-101000000D01*
X151800000Y-101000000D02*
X151800000Y-97000000D01*
%TO.C,SW3*%
X103725000Y-101455000D02*
X117695000Y-101455000D01*
X103725000Y-115425000D02*
X103725000Y-101455000D01*
X117695000Y-101455000D02*
X117695000Y-115425000D01*
X117695000Y-115425000D02*
X103725000Y-115425000D01*
%TO.C,SW5*%
X122775000Y-139555000D02*
X136745000Y-139555000D01*
X122775000Y-153525000D02*
X122775000Y-139555000D01*
X136745000Y-139555000D02*
X136745000Y-153525000D01*
X136745000Y-153525000D02*
X122775000Y-153525000D01*
%TD*%
M02*
