M48
; DRILL file {KiCad 9.0.7} date 2026-02-04T22:49:14-0500
; FORMAT={-:-/ absolute / metric / decimal}
; #@! TF.CreationDate,2026-02-04T22:49:14-05:00
; #@! TF.GenerationSoftware,Kicad,Pcbnew,9.0.7
; #@! TF.FileFunction,Plated,1,2,PTH
FMAT,2
METRIC
; #@! TA.AperFunction,Plated,PTH,ViaDrill
T1C0.300
; #@! TA.AperFunction,Plated,PTH,ComponentDrill
T2C0.800
; #@! TA.AperFunction,Plated,PTH,ComponentDrill
T3C0.889
; #@! TA.AperFunction,Plated,PTH,ComponentDrill
T4C1.000
; #@! TA.AperFunction,Plated,PTH,ComponentDrill
T5C1.500
%
G90
G05
T1
X110.0Y-102.0
X115.0Y-117.0
X115.0Y-155.0
X116.0Y-138.0
X125.0Y-156.0
X128.0Y-120.0
X128.0Y-140.0
X134.0Y-98.0
X135.0Y-116.0
X136.0Y-120.0
X140.0Y-156.0
X141.0Y-138.0
X143.0Y-135.0
X143.0Y-154.0
X153.0Y-98.0
X153.0Y-117.0
X154.0Y-135.0
X154.0Y-154.0
T2
X120.5Y-88.73
X120.5Y-96.35
X120.5Y-107.23
X120.5Y-114.85
X120.5Y-126.23
X120.5Y-133.85
X120.5Y-145.73
X120.5Y-153.35
X139.5Y-88.58
X139.5Y-96.2
X139.5Y-126.23
X139.5Y-133.85
X139.5Y-145.58
X139.5Y-153.2
X139.6Y-107.68
X139.6Y-115.3
X144.04Y-59.95
X144.04Y-63.88
X144.04Y-67.64
X151.66Y-59.95
X151.66Y-63.88
X151.66Y-67.64
X159.5Y-88.08
X159.5Y-95.7
X159.5Y-107.08
X159.5Y-114.7
X159.5Y-126.08
X159.5Y-133.7
X159.5Y-145.18
X159.5Y-152.8
T3
X124.88Y-60.928
X124.88Y-63.468
X124.88Y-66.008
X124.88Y-68.548
X124.88Y-71.088
X124.88Y-73.629
X124.88Y-76.168
X140.12Y-60.928
X140.12Y-63.468
X140.12Y-66.008
X140.12Y-68.548
X140.12Y-71.088
X140.12Y-73.629
X140.12Y-76.168
T4
X87.0Y-61.575
X87.0Y-64.115
X87.0Y-66.655
X87.0Y-69.195
X155.31Y-62.8
X155.31Y-65.3
X155.31Y-67.8
X169.81Y-62.8
X169.81Y-67.8
T5
X106.9Y-86.85
X106.9Y-105.9
X106.9Y-124.95
X106.9Y-144.0
X113.25Y-84.31
X113.25Y-103.36
X113.25Y-122.41
X113.25Y-141.46
X125.95Y-86.85
X125.95Y-105.9
X125.95Y-124.95
X125.95Y-144.0
X132.3Y-84.31
X132.3Y-103.36
X132.3Y-122.41
X132.3Y-141.46
X145.0Y-105.93
X145.0Y-124.99
X145.0Y-144.0
X145.01Y-86.86
X151.35Y-103.39
X151.35Y-122.45
X151.35Y-141.46
X151.36Y-84.32
T5
G00X162.16Y-59.7
M15
G01X163.46Y-59.7
M16
G05
G00X162.16Y-70.9
M15
G01X163.46Y-70.9
M16
G05
M30
