M48
; DRILL file {KiCad 9.0.7} date 2026-02-04T22:49:14-0500
; FORMAT={-:-/ absolute / metric / decimal}
; #@! TF.CreationDate,2026-02-04T22:49:14-05:00
; #@! TF.GenerationSoftware,Kicad,Pcbnew,9.0.7
; #@! TF.FileFunction,NonPlated,1,2,NPTH
FMAT,2
METRIC
; #@! TA.AperFunction,NonPlated,NPTH,ComponentDrill
T1C1.700
; #@! TA.AperFunction,NonPlated,NPTH,ComponentDrill
T2C2.200
; #@! TA.AperFunction,NonPlated,NPTH,ComponentDrill
T3C4.000
%
G90
G05
T1
X105.63Y-89.39
X105.63Y-108.44
X105.63Y-127.49
X105.63Y-146.54
X115.79Y-89.39
X115.79Y-108.44
X115.79Y-127.49
X115.79Y-146.54
X124.68Y-89.39
X124.68Y-108.44
X124.68Y-127.49
X124.68Y-146.54
X134.84Y-89.39
X134.84Y-108.44
X134.84Y-127.49
X134.84Y-146.54
X143.73Y-108.47
X143.73Y-127.53
X143.73Y-146.54
X143.74Y-89.4
X153.89Y-108.47
X153.89Y-127.53
X153.89Y-146.54
X153.9Y-89.4
T2
X91.0Y-80.0
X91.0Y-153.5
X168.0Y-80.0
X168.0Y-153.5
T3
X110.71Y-89.39
X110.71Y-108.44
X110.71Y-127.49
X110.71Y-146.54
X129.76Y-89.39
X129.76Y-108.44
X129.76Y-127.49
X129.76Y-146.54
X148.81Y-108.47
X148.81Y-127.53
X148.81Y-146.54
X148.82Y-89.4
M30
